<svg xmlns="http://www.w3.org/2000/svg" xmlns:xlink="http://www.w3.org/1999/xlink" viewBox="0 0 92.26 31.24"><defs><style>.cls-1{fill:none;}.cls-2{clip-path:url(#clip-path);}.cls-3{fill:url(#linear-gradient);}.cls-4{clip-path:url(#clip-path-2);}.cls-5{fill:url(#linear-gradient-2);}.cls-6{clip-path:url(#clip-path-3);}.cls-7{fill:url(#linear-gradient-3);}.cls-8{fill:#231f20;}</style><clipPath id="clip-path"><path id="SVGID" class="cls-1" d="M9.84,9.89,6.61,13.2a.69.69,0,0,1-.6.2.71.71,0,0,1-.32-.14l10.3,8a2.33,2.33,0,0,0,1.41.5h.06a2.39,2.39,0,0,0,1.85-.92.86.86,0,0,1,.07-.1l6-8.74a.69.69,0,0,1,.67-.3L10.84,9.55h-.16a1.19,1.19,0,0,0-.84.35"/></clipPath><linearGradient id="linear-gradient" x1="-150.46" y1="-787.08" x2="-149.46" y2="-787.08" gradientTransform="matrix(-18.47, 0, 0, 18.47, -2751.12, 14549.26)" gradientUnits="userSpaceOnUse"><stop offset="0" stop-color="#ed0677"/><stop offset="0.08" stop-color="#ed0677"/><stop offset="0.29" stop-color="#ed0b65"/><stop offset="0.72" stop-color="#ed1835"/><stop offset="0.86" stop-color="#ed1c24"/><stop offset="1" stop-color="#ed1c24"/></linearGradient><clipPath id="clip-path-2"><path id="SVGID-2" data-name="SVGID" class="cls-1" d="M25.42,12l-3.55,5.13,4.8-1.3,1.63-.44a.88.88,0,0,1-.46-.47l-1.21-2.8a.7.7,0,0,0-.24-.3.72.72,0,0,0-.4-.12.67.67,0,0,0-.57.3"/></clipPath><linearGradient id="linear-gradient-2" x1="-140.02" y1="-1065.83" x2="-139.02" y2="-1065.83" gradientTransform="matrix(0, 4.51, 4.51, 0, 4835.73, 645.1)" gradientUnits="userSpaceOnUse"><stop offset="0" stop-color="#8d9ba7"/><stop offset="1" stop-color="#bfc3c5"/></linearGradient><clipPath id="clip-path-3"><path id="SVGID-3" data-name="SVGID" class="cls-1" d="M6.3,5.29A.92.92,0,0,1,6.45,6l-1,6.65a.28.28,0,0,0,0,.09v0a.69.69,0,0,0,1.19.48L9.84,9.89a1.17,1.17,0,0,1,1-.34l3.67.51L6.3,5.29Z"/></clipPath><linearGradient id="linear-gradient-3" x1="-321.35" y1="-836.07" x2="-320.35" y2="-836.07" gradientTransform="matrix(8.31, 0, 0, -8.31, 2673.11, -6934.91)" gradientUnits="userSpaceOnUse"><stop offset="0" stop-color="#008fd5"/><stop offset="0.42" stop-color="#00a1e0"/><stop offset="1" stop-color="#00c0f3"/></linearGradient></defs><title>logoAsset 23</title><g id="Layer_2" data-name="Layer 2"><g id="Layer_1-2" data-name="Layer 1"><g class="cls-2"><rect class="cls-3" x="4.04" y="4.82" width="23.7" height="21.6" transform="matrix(0.82, -0.57, 0.57, 0.82, -6.06, 11.8)"/></g><g class="cls-4"><rect class="cls-5" x="21.42" y="10.41" width="7.33" height="7.92" transform="translate(2.9 32.9) rotate(-69.68)"/></g><g class="cls-6"><rect class="cls-7" x="5.12" y="4.14" width="9.7" height="10.45" transform="translate(-1.09 17.41) rotate(-79.24)"/></g><path class="cls-8" d="M49.87,13.92v5.66H47.68V14.41a1.17,1.17,0,0,0-1.29-1.3,3,3,0,0,0-1,.18v6.29H43.21V11.9a9,9,0,0,1,3.38-.76c2.26,0,3.28,1.13,3.28,2.78m32.88.69-1.2-.41c-.48-.17-.65-.37-.65-.61s.33-.56.94-.56a4.44,4.44,0,0,1,2,.56l1-1.71a6.47,6.47,0,0,0-3-.74c-1.81,0-3.21,1.07-3.21,2.61a2.58,2.58,0,0,0,2.08,2.49l1,.35c.55.19.81.34.81.69s-.28.58-1,.58a4.29,4.29,0,0,1-2.14-.64L78.43,19a6.28,6.28,0,0,0,3.12.78c1.84,0,3.3-1,3.3-2.68,0-1.38-.86-2-2.1-2.45M34.06,17.84c-.44,0-.63-.22-.63-.73V8.27h-2.2v9.47a1.88,1.88,0,0,0,2.14,2,5,5,0,0,0,1.68-.28l-.24-1.74a3,3,0,0,1-.75.12M55.68,8.27h2.2V19a8.51,8.51,0,0,1-3.36.72c-2.28,0-3.37-1.36-3.37-3V14a2.73,2.73,0,0,1,3-2.84,5.17,5.17,0,0,1,1.54.24Zm0,4.94a3.53,3.53,0,0,0-1-.18,1.23,1.23,0,0,0-1.29,1.39v2a1.3,1.3,0,0,0,1.45,1.42,2.67,2.67,0,0,0,.89-.15ZM42,14.47v1.7H37.65v.14a1.41,1.41,0,0,0,1.52,1.53,4.1,4.1,0,0,0,2.06-.58L41.84,19a5.56,5.56,0,0,1-2.92.74,3.18,3.18,0,0,1-3.47-3.39V14.63a3.18,3.18,0,0,1,3.33-3.49A3,3,0,0,1,42,14.47m-2.12-.09c0-.79-.36-1.34-1.09-1.34s-1.13.55-1.13,1.34v.14h2.22Zm22.24,3.46c-.44,0-.63-.22-.63-.73V8.27H59.31v9.47a1.87,1.87,0,0,0,2.13,2,5,5,0,0,0,1.68-.28l-.24-1.74a3,3,0,0,1-.75.12m15.42-4.08V19a8.89,8.89,0,0,1-3.31.72c-2.15,0-3.32-1-3.32-2.73,0-1.43,1-2.49,2.92-2.49h1.52v-.35c0-.75-.57-1.05-1.35-1.05a5.62,5.62,0,0,0-2.42.68l-.22-2a7.24,7.24,0,0,1,3.12-.68c1.29,0,3.06.57,3.06,2.62m-2.19,2.41H74.2c-.68,0-1.07.36-1.07.84s.52.91,1.24.91a3.43,3.43,0,0,0,1-.15Zm-5.28-1.7v1.7H65.72v.14a1.41,1.41,0,0,0,1.52,1.53,4.07,4.07,0,0,0,2.06-.58L69.91,19a5.53,5.53,0,0,1-2.92.74,3.18,3.18,0,0,1-3.47-3.39V14.63a3.18,3.18,0,0,1,3.33-3.49,3,3,0,0,1,3.23,3.33M68,14.38c0-.79-.37-1.34-1.1-1.34s-1.13.55-1.13,1.34v.14H68Zm24.29.09v1.7H87.89v.14a1.41,1.41,0,0,0,1.53,1.53,4,4,0,0,0,2-.58L92.08,19a5.52,5.52,0,0,1-2.91.74,3.18,3.18,0,0,1-3.47-3.39V14.63A3.17,3.17,0,0,1,89,11.14a3.05,3.05,0,0,1,3.24,3.33m-2.12-.09c0-.79-.36-1.34-1.1-1.34s-1.13.55-1.13,1.34v.14h2.23Z"/></g></g></svg>