<svg xmlns="http://www.w3.org/2000/svg" xmlns:xlink="http://www.w3.org/1999/xlink" viewBox="0 0 87.19 17.7"><defs><style>.cls-1{fill:none;}.cls-2{fill:#231f20;}.cls-3{clip-path:url(#clip-path);}.cls-4{fill:url(#linear-gradient);}.cls-5{clip-path:url(#clip-path-2);}.cls-6{fill:url(#linear-gradient-2);}.cls-7{clip-path:url(#clip-path-3);}.cls-8{fill:url(#linear-gradient-3);}</style><clipPath id="clip-path"><path id="SVGID" class="cls-1" d="M4.77,5,1.55,8.3a.68.68,0,0,1-.61.2.64.64,0,0,1-.32-.13l10.3,8a2.41,2.41,0,0,0,1.41.49h.07a2.39,2.39,0,0,0,1.84-.92.61.61,0,0,0,.07-.1l6-8.74A.7.7,0,0,1,21,6.76L5.78,4.65H5.61A1.2,1.2,0,0,0,4.77,5"/></clipPath><linearGradient id="linear-gradient" x1="-43.97" y1="-701" x2="-42.97" y2="-701" gradientTransform="matrix(20.45, 0, 0, -20.45, 899.82, -14322.59)" gradientUnits="userSpaceOnUse"><stop offset="0" stop-color="#80c342"/><stop offset="1" stop-color="#00b4cd"/></linearGradient><clipPath id="clip-path-2"><path id="SVGID-2" data-name="SVGID" class="cls-1" d="M20.35,7.05,16.8,12.19l4.81-1.31,1.63-.44a.86.86,0,0,1-.46-.46L21.56,7.17a.67.67,0,0,0-.24-.29.65.65,0,0,0-.39-.13.72.72,0,0,0-.58.3"/></clipPath><linearGradient id="linear-gradient-2" x1="-58.19" y1="-819.86" x2="-57.19" y2="-819.86" gradientTransform="matrix(6.43, 0, 0, -6.43, 391.03, -5263.2)" gradientUnits="userSpaceOnUse"><stop offset="0" stop-color="#53b2b6"/><stop offset="1" stop-color="#878a8f"/></linearGradient><clipPath id="clip-path-3"><path id="SVGID-3" data-name="SVGID" class="cls-1" d="M1.39,1.06l-1,6.65s0,.07,0,.1h0a.7.7,0,0,0,.59.68.68.68,0,0,0,.61-.2L4.77,5a1.2,1.2,0,0,1,1-.35l3.67.51L1.23.4a.91.91,0,0,1,.16.66"/></clipPath><linearGradient id="linear-gradient-3" x1="-56.16" y1="-767" x2="-55.16" y2="-767" gradientTransform="matrix(9.2, 0, 0, -9.2, 516.94, -7052.28)" gradientUnits="userSpaceOnUse"><stop offset="0" stop-color="#bfd730"/><stop offset="0.23" stop-color="#c7da2a"/><stop offset="0.59" stop-color="#dde419"/><stop offset="1" stop-color="#fff200"/></linearGradient></defs><title>logoAsset 18</title><g id="Layer_2" data-name="Layer 2"><g id="Layer_1-2" data-name="Layer 1"><path class="cls-2" d="M44.81,9v5.66h-2.2V9.51a1.16,1.16,0,0,0-1.29-1.3,2.75,2.75,0,0,0-1,.19v6.29h-2.2V7a9.26,9.26,0,0,1,3.39-.75c2.26,0,3.28,1.13,3.28,2.78m32.87.69-1.19-.41c-.49-.17-.66-.38-.66-.61s.33-.57.94-.57a4.27,4.27,0,0,1,2,.57l1-1.71a6.43,6.43,0,0,0-3-.74c-1.8,0-3.2,1.06-3.2,2.6a2.58,2.58,0,0,0,2.07,2.5l1,.34c.55.19.82.35.82.69s-.28.58-1,.58a4.33,4.33,0,0,1-2.15-.64l-.94,1.74a6.16,6.16,0,0,0,3.12.79c1.84,0,3.29-1,3.29-2.69,0-1.38-.86-2-2.1-2.44M29,13c-.44,0-.63-.22-.63-.74V3.38H26.17v9.46a1.88,1.88,0,0,0,2.13,2A4.76,4.76,0,0,0,30,14.56l-.23-1.74A3.09,3.09,0,0,1,29,13M50.62,3.38h2.19V14.12a8.29,8.29,0,0,1-3.36.73c-2.27,0-3.37-1.37-3.37-3V9.09a2.74,2.74,0,0,1,3-2.84,4.91,4.91,0,0,1,1.54.24Zm0,4.94a3.65,3.65,0,0,0-1.06-.19,1.24,1.24,0,0,0-1.28,1.4v2A1.3,1.3,0,0,0,49.72,13a2.73,2.73,0,0,0,.9-.16ZM37,9.57v1.7H32.59v.14A1.41,1.41,0,0,0,34.11,13a4,4,0,0,0,2-.58l.61,1.74a5.59,5.59,0,0,1-2.91.74,3.18,3.18,0,0,1-3.47-3.39V9.73a3.17,3.17,0,0,1,3.33-3.48A3,3,0,0,1,37,9.57m-2.12-.09c0-.78-.36-1.33-1.1-1.33S32.6,8.7,32.6,9.48v.14h2.23ZM57.06,13c-.43,0-.62-.22-.62-.74V3.38h-2.2v9.46a1.88,1.88,0,0,0,2.13,2,4.72,4.72,0,0,0,1.68-.29l-.23-1.74a3.09,3.09,0,0,1-.76.13M72.49,8.87v5.25a8.73,8.73,0,0,1-3.31.73c-2.15,0-3.33-1-3.33-2.73,0-1.43,1.05-2.5,2.92-2.5h1.52V9.28c0-.76-.56-1-1.35-1a5.56,5.56,0,0,0-2.41.67l-.22-2a7.42,7.42,0,0,1,3.12-.67c1.29,0,3.06.56,3.06,2.62m-2.2,2.4H69.13c-.68,0-1.07.36-1.07.85s.52.91,1.24.91a3.37,3.37,0,0,0,1-.16ZM65,9.57v1.7H60.66v.14A1.41,1.41,0,0,0,62.18,13a4,4,0,0,0,2.05-.58l.62,1.74a5.66,5.66,0,0,1-2.92.74,3.18,3.18,0,0,1-3.47-3.39V9.73a3.18,3.18,0,0,1,3.33-3.48A3,3,0,0,1,65,9.57M62.9,9.48c0-.78-.36-1.33-1.1-1.33s-1.13.55-1.13,1.33v.14H62.9Zm24.29.09v1.7H82.83v.14A1.41,1.41,0,0,0,84.35,13a4.1,4.1,0,0,0,2.06-.58L87,14.11a5.66,5.66,0,0,1-2.92.74,3.19,3.19,0,0,1-3.47-3.39V9.73A3.18,3.18,0,0,1,84,6.25a3,3,0,0,1,3.23,3.32m-2.12-.09c0-.78-.36-1.33-1.09-1.33s-1.14.55-1.14,1.33v.14h2.23Z"/><g class="cls-3"><rect class="cls-4" x="0.37" y="4.2" width="20.91" height="13.05" transform="translate(-0.46 0.48) rotate(-2.5)"/></g><g class="cls-5"><rect class="cls-6" x="16.8" y="6.75" width="6.43" height="5.43"/></g><g class="cls-7"><rect class="cls-8" x="0.18" y="0.2" width="9.44" height="8.53" transform="translate(-0.19 0.22) rotate(-2.5)"/></g></g></g></svg>