<svg xmlns="http://www.w3.org/2000/svg" xmlns:xlink="http://www.w3.org/1999/xlink" viewBox="0 0 88.96 22.09"><defs><style>.cls-1{fill:none;}.cls-2{clip-path:url(#clip-path);}.cls-3{fill:url(#linear-gradient);}.cls-4{clip-path:url(#clip-path-2);}.cls-5{fill:url(#linear-gradient-2);}.cls-6{clip-path:url(#clip-path-3);}.cls-7{fill:url(#linear-gradient-3);}.cls-8{fill:#231f20;}</style><clipPath id="clip-path"><path id="SVGID" class="cls-1" d="M6.54,6.27,3.32,9.57a.68.68,0,0,1-.61.2.61.61,0,0,1-.32-.13l10.3,8a2.41,2.41,0,0,0,1.41.49h.07A2.39,2.39,0,0,0,16,17.16a.61.61,0,0,0,.07-.1l6-8.74A.7.7,0,0,1,22.79,8L7.55,5.92H7.38a1.2,1.2,0,0,0-.84.36"/></clipPath><linearGradient id="linear-gradient" x1="-332.99" y1="-771.7" x2="-331.99" y2="-771.7" gradientTransform="matrix(-16.45, 0, 0, 16.45, -5456.23, 12707.47)" gradientUnits="userSpaceOnUse"><stop offset="0" stop-color="#ed1847"/><stop offset="0.34" stop-color="#c91e63"/><stop offset="0.77" stop-color="#a12483"/><stop offset="1" stop-color="#92278f"/></linearGradient><clipPath id="clip-path-2"><path id="SVGID-2" data-name="SVGID" class="cls-1" d="M22.12,8.32l-3.55,5.14,4.81-1.31L25,11.71a.88.88,0,0,1-.45-.46L23.33,8.44a.67.67,0,0,0-.24-.29A.65.65,0,0,0,22.7,8a.72.72,0,0,0-.58.3"/></clipPath><linearGradient id="linear-gradient-2" x1="-348.8" y1="-1022.42" x2="-347.8" y2="-1022.42" gradientTransform="matrix(0, 5.77, 5.77, 0, 5916.54, 2019.27)" gradientUnits="userSpaceOnUse"><stop offset="0" stop-color="#96799a"/><stop offset="0.09" stop-color="#98819e"/><stop offset="0.43" stop-color="#9e99ab"/><stop offset="0.74" stop-color="#a2a7b3"/><stop offset="1" stop-color="#a3acb6"/></linearGradient><clipPath id="clip-path-3"><path id="SVGID-3" data-name="SVGID" class="cls-1" d="M3,1.67a.91.91,0,0,1,.16.66L2.13,9s0,.07,0,.1h0a.7.7,0,0,0,.59.68.68.68,0,0,0,.61-.2l3.22-3.3a1.2,1.2,0,0,1,1-.35l3.67.51L3,1.67Z"/></clipPath><linearGradient id="linear-gradient-3" x1="-486.21" y1="-839.7" x2="-485.21" y2="-839.7" gradientTransform="matrix(8.31, 0, 0, -8.31, 4039.17, -6968.63)" gradientUnits="userSpaceOnUse"><stop offset="0" stop-color="#ef4123"/><stop offset="0.33" stop-color="#f15322"/><stop offset="0.98" stop-color="#f58120"/><stop offset="1" stop-color="#f58220"/></linearGradient></defs><title>logoAsset 24</title><g id="Layer_2" data-name="Layer 2"><g id="Layer_1-2" data-name="Layer 1"><g class="cls-2"><rect class="cls-3" x="1.38" y="3.99" width="22.42" height="16.02" transform="translate(-2.15 2.77) rotate(-11.58)"/></g><g class="cls-4"><rect class="cls-5" x="18.54" y="7.09" width="6.49" height="7.29" transform="translate(7.35 30.28) rotate(-79.77)"/></g><g class="cls-6"><rect class="cls-7" x="1.82" y="0.51" width="9.7" height="10.45" transform="translate(-0.21 11.22) rotate(-79.24)"/></g><path class="cls-8" d="M46.58,10.3V16h-2.2V10.78a1.16,1.16,0,0,0-1.29-1.3,2.75,2.75,0,0,0-1,.19V16h-2.2V8.27a9.26,9.26,0,0,1,3.39-.75c2.26,0,3.28,1.13,3.28,2.78M79.45,11l-1.19-.41c-.49-.17-.66-.38-.66-.61s.33-.57.94-.57a4.27,4.27,0,0,1,2,.57l1-1.71a6.43,6.43,0,0,0-3-.74c-1.81,0-3.2,1.07-3.2,2.6a2.58,2.58,0,0,0,2.07,2.5l1.05.34c.55.19.82.35.82.69s-.28.58-1,.58a4.33,4.33,0,0,1-2.15-.64l-.94,1.74a6.16,6.16,0,0,0,3.12.79c1.84,0,3.29-1,3.29-2.69,0-1.38-.86-2-2.1-2.44M30.76,14.22c-.44,0-.63-.22-.63-.74V4.65H27.94v9.46a1.88,1.88,0,0,0,2.13,2,5,5,0,0,0,1.68-.28l-.24-1.75a3,3,0,0,1-.75.13M52.38,4.65h2.2V15.39a8.29,8.29,0,0,1-3.36.73c-2.27,0-3.37-1.37-3.37-3V10.36a2.74,2.74,0,0,1,3-2.84,4.81,4.81,0,0,1,1.53.24Zm0,4.94a3.52,3.52,0,0,0-1.05-.19A1.25,1.25,0,0,0,50,10.8v2a1.31,1.31,0,0,0,1.45,1.43,2.44,2.44,0,0,0,.89-.16ZM38.72,10.84v1.7H34.35v.14a1.42,1.42,0,0,0,1.53,1.54,4,4,0,0,0,2-.58l.61,1.74a5.62,5.62,0,0,1-2.91.74,3.18,3.18,0,0,1-3.47-3.39V11a3.17,3.17,0,0,1,3.32-3.48,3,3,0,0,1,3.24,3.32m-2.12-.09c0-.78-.36-1.33-1.1-1.33s-1.13.55-1.13,1.33v.14H36.6Zm22.23,3.47c-.44,0-.63-.22-.63-.74V4.65H56v9.46a1.88,1.88,0,0,0,2.13,2,5,5,0,0,0,1.68-.28l-.23-1.75a3.09,3.09,0,0,1-.76.13m15.43-4.08v5.25a8.73,8.73,0,0,1-3.31.73c-2.15,0-3.33-1-3.33-2.73,0-1.43,1-2.5,2.92-2.5h1.52v-.34c0-.75-.56-1.05-1.35-1.05a5.64,5.64,0,0,0-2.42.67l-.21-2a7.42,7.42,0,0,1,3.12-.67c1.29,0,3.06.56,3.06,2.62m-2.2,2.4H70.9c-.68,0-1.07.36-1.07.85s.52.91,1.24.91a3.42,3.42,0,0,0,1-.16Zm-5.27-1.7v1.7H62.43v.14A1.41,1.41,0,0,0,64,14.22a4,4,0,0,0,2-.58l.62,1.74a5.66,5.66,0,0,1-2.92.74,3.18,3.18,0,0,1-3.47-3.39V11a3.18,3.18,0,0,1,3.33-3.48,3,3,0,0,1,3.23,3.32m-2.12-.09c0-.78-.36-1.33-1.1-1.33s-1.13.55-1.13,1.33v.14h2.23ZM89,10.84v1.7H84.6v.14a1.41,1.41,0,0,0,1.52,1.54,4.1,4.1,0,0,0,2.06-.58l.61,1.74a5.66,5.66,0,0,1-2.92.74,3.19,3.19,0,0,1-3.47-3.39V11a3.18,3.18,0,0,1,3.33-3.48A3,3,0,0,1,89,10.84m-2.12-.09c0-.78-.36-1.33-1.1-1.33s-1.13.55-1.13,1.33v.14h2.23Z"/></g></g></svg>