<svg xmlns="http://www.w3.org/2000/svg" xmlns:xlink="http://www.w3.org/1999/xlink" viewBox="0 0 92.43 31.83"><defs><style>.cls-1{fill:none;}.cls-2{clip-path:url(#clip-path);}.cls-3{fill:url(#linear-gradient);}.cls-4{clip-path:url(#clip-path-2);}.cls-5{fill:url(#linear-gradient-2);}.cls-6{clip-path:url(#clip-path-3);}.cls-7{fill:url(#linear-gradient-3);}.cls-8{fill:#231f20;}</style><clipPath id="clip-path"><path id="SVGID" class="cls-1" d="M10,10.18,6.79,13.49a.7.7,0,0,1-.93.06l10.3,8a2.36,2.36,0,0,0,1.41.5h.07a2.39,2.39,0,0,0,1.84-.92l.07-.1,6-8.74a.7.7,0,0,1,.67-.29L11,9.84h-.16a1.19,1.19,0,0,0-.84.35"/></clipPath><linearGradient id="linear-gradient" x1="22.7" y1="-779.38" x2="23.7" y2="-779.38" gradientTransform="matrix(-15.08, 0, 0, 15.08, 362.96, 11765.14)" gradientUnits="userSpaceOnUse"><stop offset="0" stop-color="#f58220"/><stop offset="0.11" stop-color="#f47820"/><stop offset="0.6" stop-color="#f05022"/><stop offset="0.85" stop-color="#ef4123"/><stop offset="1" stop-color="#ef4123"/></linearGradient><clipPath id="clip-path-2"><path id="SVGID-2" data-name="SVGID" class="cls-1" d="M25.59,12.24,22,17.37l4.81-1.3,1.62-.44a.88.88,0,0,1-.45-.46L26.8,12.36a.7.7,0,0,0-.24-.3.72.72,0,0,0-.4-.12.69.69,0,0,0-.57.3"/></clipPath><linearGradient id="linear-gradient-2" x1="-17.26" y1="-959.17" x2="-16.26" y2="-959.17" gradientTransform="matrix(0, 8.39, 8.39, 0, 8068.04, 154.38)" gradientUnits="userSpaceOnUse"><stop offset="0" stop-color="#53b2b6"/><stop offset="1" stop-color="#878a8f"/></linearGradient><clipPath id="clip-path-3"><path id="SVGID-3" data-name="SVGID" class="cls-1" d="M6.47,5.58a1,1,0,0,1,.16.67l-1,6.65s0,.06,0,.1h0a.7.7,0,0,0,.59.68.71.71,0,0,0,.61-.2L10,10.18a1.2,1.2,0,0,1,1-.34l3.67.51L6.47,5.58Z"/></clipPath><linearGradient id="linear-gradient-3" x1="-116.04" y1="-764.96" x2="-115.04" y2="-764.96" gradientTransform="matrix(0, -9.99, -9.99, 0, -7628.37, -1144.77)" gradientUnits="userSpaceOnUse"><stop offset="0" stop-color="#f37032"/><stop offset="0.18" stop-color="#f58233"/><stop offset="0.49" stop-color="#f89b33"/><stop offset="0.77" stop-color="#faab34"/><stop offset="1" stop-color="#fbb034"/></linearGradient></defs><title>logoAsset 22</title><g id="Layer_2" data-name="Layer 2"><g id="Layer_1-2" data-name="Layer 1"><g class="cls-2"><rect class="cls-3" x="4.26" y="4.9" width="23.6" height="22.04" transform="translate(-6.36 12.98) rotate(-37.28)"/></g><g class="cls-4"><rect class="cls-5" x="21.88" y="10.9" width="6.77" height="7.51" transform="translate(5.18 35.86) rotate(-76.69)"/></g><g class="cls-6"><rect class="cls-7" x="4.2" y="3.91" width="11.88" height="11.5" transform="translate(-3.38 6.01) rotate(-28.52)"/></g><path class="cls-8" d="M50.05,14.21v5.67h-2.2V14.7a1.16,1.16,0,0,0-1.29-1.3,2.75,2.75,0,0,0-1,.19v6.29h-2.2V12.19a9.26,9.26,0,0,1,3.39-.75c2.26,0,3.28,1.13,3.28,2.77m32.87.69-1.19-.4c-.49-.18-.66-.38-.66-.62s.33-.56.94-.56a4.38,4.38,0,0,1,2,.56l1-1.71a6.45,6.45,0,0,0-3-.73c-1.81,0-3.2,1.06-3.2,2.6a2.57,2.57,0,0,0,2.07,2.49l1.05.35c.55.19.82.35.82.69s-.28.58-1,.58a4.33,4.33,0,0,1-2.15-.64l-.94,1.74a6.17,6.17,0,0,0,3.12.78C83.57,20,85,19,85,17.35c0-1.38-.86-2-2.1-2.45M34.23,18.14c-.44,0-.63-.22-.63-.74V8.56H31.41V18a1.87,1.87,0,0,0,2.13,2,5,5,0,0,0,1.68-.28L35,18a3,3,0,0,1-.75.13M55.85,8.56h2.2V19.31a8.47,8.47,0,0,1-3.36.72c-2.27,0-3.37-1.36-3.37-3V14.28a2.74,2.74,0,0,1,3-2.84,5.08,5.08,0,0,1,1.53.23Zm0,4.95a3.23,3.23,0,0,0-1.05-.19,1.25,1.25,0,0,0-1.29,1.4v2A1.31,1.31,0,0,0,55,18.14a2.67,2.67,0,0,0,.89-.16ZM42.19,14.76v1.7H37.82v.14a1.42,1.42,0,0,0,1.53,1.54,4,4,0,0,0,2-.58L42,19.3A5.63,5.63,0,0,1,39.1,20a3.17,3.17,0,0,1-3.47-3.38V14.92A3.17,3.17,0,0,1,39,11.44a3,3,0,0,1,3.24,3.32m-2.12-.09c0-.79-.36-1.34-1.1-1.34s-1.13.55-1.13,1.34v.14h2.23ZM62.3,18.14c-.44,0-.63-.22-.63-.74V8.56H59.48V18a1.87,1.87,0,0,0,2.13,2,5,5,0,0,0,1.68-.28L63.06,18a3.09,3.09,0,0,1-.76.13m15.43-4.08v5.25a8.93,8.93,0,0,1-3.31.72c-2.15,0-3.33-1-3.33-2.73,0-1.42,1-2.49,2.92-2.49h1.52v-.35c0-.75-.56-1.05-1.35-1.05a5.66,5.66,0,0,0-2.42.68l-.21-2a7.27,7.27,0,0,1,3.12-.67c1.29,0,3.06.56,3.06,2.62m-2.2,2.4H74.37c-.68,0-1.07.36-1.07.84s.52.91,1.24.91a3.43,3.43,0,0,0,1-.15Zm-5.27-1.7v1.7H65.9v.14a1.41,1.41,0,0,0,1.52,1.54,4,4,0,0,0,2-.58l.62,1.74a5.67,5.67,0,0,1-2.92.73,3.17,3.17,0,0,1-3.47-3.38V14.92A3.18,3.18,0,0,1,67,11.44a3,3,0,0,1,3.23,3.32m-2.12-.09c0-.79-.36-1.34-1.1-1.34s-1.13.55-1.13,1.34v.14h2.23Zm24.29.09v1.7H88.07v.14a1.41,1.41,0,0,0,1.52,1.54,4.1,4.1,0,0,0,2.06-.58l.61,1.74a5.67,5.67,0,0,1-2.92.73,3.18,3.18,0,0,1-3.47-3.38V14.92a3.18,3.18,0,0,1,3.33-3.48,3,3,0,0,1,3.23,3.32m-2.12-.09c0-.79-.36-1.34-1.1-1.34s-1.13.55-1.13,1.34v.14h2.23Z"/></g></g></svg>