<svg xmlns="http://www.w3.org/2000/svg" xmlns:xlink="http://www.w3.org/1999/xlink" viewBox="0 0 91.52 28.78"><defs><style>.cls-1{fill:none;}.cls-2{clip-path:url(#clip-path);}.cls-3{fill:url(#linear-gradient);}.cls-4{clip-path:url(#clip-path-2);}.cls-5{fill:url(#linear-gradient-2);}.cls-6{clip-path:url(#clip-path-3);}.cls-7{fill:url(#linear-gradient-3);}.cls-8{fill:#231f20;}</style><clipPath id="clip-path"><path id="SVGID" class="cls-1" d="M9.1,8.66,5.88,12a.7.7,0,0,1-.61.21A.77.77,0,0,1,5,12l10.3,8a2.29,2.29,0,0,0,1.42.49h.06a2.35,2.35,0,0,0,1.84-.92.61.61,0,0,0,.07-.1l6-8.74a.72.72,0,0,1,.67-.29L10.11,8.32l-.17,0a1.2,1.2,0,0,0-.84.36"/></clipPath><linearGradient id="linear-gradient" x1="-288.2" y1="-620.64" x2="-287.2" y2="-620.64" gradientTransform="matrix(-16.39, 0, 0, 16.39, -4700.33, 10187.5)" gradientUnits="userSpaceOnUse"><stop offset="0" stop-color="#fbb034"/><stop offset="0.19" stop-color="#fbb034"/><stop offset="0.42" stop-color="#f99e33"/><stop offset="0.86" stop-color="#f37032"/><stop offset="1" stop-color="#f37032"/></linearGradient><clipPath id="clip-path-2"><path id="SVGID-2" data-name="SVGID" class="cls-1" d="M24.68,10.71l-3.54,5.14,4.8-1.3,1.63-.44a.92.92,0,0,1-.46-.47L25.9,10.83a.7.7,0,0,0-.25-.29.65.65,0,0,0-.39-.13.72.72,0,0,0-.58.3"/></clipPath><linearGradient id="linear-gradient-2" x1="-299.62" y1="-886.19" x2="-298.62" y2="-886.19" gradientTransform="matrix(0, 4.51, 4.51, 0, 4024.17, 1364.22)" gradientUnits="userSpaceOnUse"><stop offset="0" stop-color="#8d9ba7"/><stop offset="1" stop-color="#bfc3c5"/></linearGradient><clipPath id="clip-path-3"><path id="SVGID-3" data-name="SVGID" class="cls-1" d="M5.72,4.72l-1,6.65s0,.07,0,.1v0a.71.71,0,0,0,.59.68A.7.7,0,0,0,5.88,12L9.1,8.66a1.16,1.16,0,0,1,1-.34l3.67.5L5.56,4.06a.91.91,0,0,1,.16.66"/></clipPath><linearGradient id="linear-gradient-3" x1="-206.02" y1="-621.36" x2="-205.02" y2="-621.36" gradientTransform="matrix(-7.56, 0, 0, 7.56, -1546.06, 4706.16)" gradientUnits="userSpaceOnUse"><stop offset="0" stop-color="#f58220"/><stop offset="0.26" stop-color="#f37021"/><stop offset="0.77" stop-color="#ef4223"/><stop offset="0.78" stop-color="#ef4123"/><stop offset="1" stop-color="#ef4123"/></linearGradient></defs><title>logoAsset 20</title><g id="Layer_2" data-name="Layer 2"><g id="Layer_1-2" data-name="Layer 1"><g class="cls-2"><rect class="cls-3" x="5.07" y="2.54" width="20.16" height="23.7" transform="translate(-4.58 21.27) rotate(-62.74)"/></g><g class="cls-4"><rect class="cls-5" x="20.69" y="9.17" width="7.33" height="7.92" transform="translate(3.58 31.41) rotate(-69.68)"/></g><g class="cls-6"><rect class="cls-7" x="4.04" y="2.62" width="10.39" height="11.03" transform="translate(-1.18 14.67) rotate(-73.52)"/></g><path class="cls-8" d="M49.14,12.69v5.66h-2.2V13.17a1.16,1.16,0,0,0-1.29-1.3,3,3,0,0,0-1,.19v6.29h-2.2V10.66a9.26,9.26,0,0,1,3.39-.75c2.26,0,3.28,1.13,3.28,2.78M82,13.38,80.82,13c-.49-.17-.66-.38-.66-.61s.33-.57.94-.57a4.27,4.27,0,0,1,2,.57l1-1.71a6.43,6.43,0,0,0-3-.74c-1.8,0-3.2,1.07-3.2,2.6A2.58,2.58,0,0,0,79.94,15l1,.34c.55.19.82.35.82.7s-.28.58-1,.58A4.33,4.33,0,0,1,78.64,16l-.94,1.74a6.16,6.16,0,0,0,3.12.79c1.84,0,3.29-1,3.29-2.68,0-1.38-.86-2-2.1-2.45M33.32,16.61c-.44,0-.63-.22-.63-.74V7H30.5V16.5a1.87,1.87,0,0,0,2.13,2,5,5,0,0,0,1.68-.28l-.23-1.75a3.09,3.09,0,0,1-.76.13M55,7h2.19V17.79a8.47,8.47,0,0,1-3.36.72c-2.27,0-3.37-1.37-3.37-3V12.75a2.74,2.74,0,0,1,3-2.84,5.22,5.22,0,0,1,1.54.24ZM55,12a3.65,3.65,0,0,0-1.06-.19,1.24,1.24,0,0,0-1.28,1.4v2a1.3,1.3,0,0,0,1.44,1.43,2.49,2.49,0,0,0,.9-.16ZM41.28,13.24v1.69H36.92v.14a1.41,1.41,0,0,0,1.52,1.54A4,4,0,0,0,40.49,16l.61,1.74a5.59,5.59,0,0,1-2.91.74,3.18,3.18,0,0,1-3.47-3.39V13.39a3.17,3.17,0,0,1,3.33-3.48,3,3,0,0,1,3.23,3.33m-2.12-.1c0-.78-.36-1.33-1.1-1.33s-1.13.55-1.13,1.33v.14h2.23Zm22.23,3.47c-.43,0-.62-.22-.62-.74V7h-2.2V16.5a1.88,1.88,0,0,0,2.13,2,5,5,0,0,0,1.68-.28l-.23-1.75a3.09,3.09,0,0,1-.76.13m15.43-4.08v5.26a8.93,8.93,0,0,1-3.31.72c-2.15,0-3.33-1-3.33-2.73,0-1.43,1-2.5,2.92-2.5h1.52v-.34c0-.75-.56-1-1.35-1a5.56,5.56,0,0,0-2.41.67l-.22-2a7.42,7.42,0,0,1,3.12-.67c1.29,0,3.06.56,3.06,2.62m-2.2,2.4H73.46c-.68,0-1.07.36-1.07.85s.52.91,1.24.91a3.07,3.07,0,0,0,1-.16Zm-5.27-1.69v1.69H65v.14a1.41,1.41,0,0,0,1.52,1.54,4,4,0,0,0,2-.58l.62,1.74a5.66,5.66,0,0,1-2.92.74,3.18,3.18,0,0,1-3.47-3.39V13.39a3.18,3.18,0,0,1,3.33-3.48,3,3,0,0,1,3.23,3.33m-2.12-.1c0-.78-.36-1.33-1.1-1.33S65,12.36,65,13.14v.14h2.23Zm24.29.1v1.69H87.16v.14a1.41,1.41,0,0,0,1.52,1.54A4.1,4.1,0,0,0,90.74,16l.61,1.74a5.66,5.66,0,0,1-2.92.74A3.19,3.19,0,0,1,85,15.12V13.39a3.18,3.18,0,0,1,3.33-3.48,3,3,0,0,1,3.23,3.33m-2.12-.1c0-.78-.36-1.33-1.09-1.33s-1.14.55-1.14,1.33v.14H89.4Z"/></g></g></svg>