<svg xmlns="http://www.w3.org/2000/svg" xmlns:xlink="http://www.w3.org/1999/xlink" viewBox="0 0 90.35 22.24"><defs><style>.cls-1{fill:none;}.cls-2{clip-path:url(#clip-path);}.cls-3{fill:url(#linear-gradient);}.cls-4{clip-path:url(#clip-path-2);}.cls-5{fill:url(#linear-gradient-2);}.cls-6{clip-path:url(#clip-path-3);}.cls-7{fill:url(#linear-gradient-3);}.cls-8{fill:#231f20;}</style><clipPath id="clip-path"><path id="SVGID" class="cls-1" d="M7.93,8.52,4.71,11.83a.75.75,0,0,1-.61.2.71.71,0,0,1-.32-.14l10.3,8a2.28,2.28,0,0,0,1.41.49h.06a2.36,2.36,0,0,0,1.85-.92.86.86,0,0,0,.07-.1l6-8.73a.7.7,0,0,1,.67-.3L8.93,8.18H8.77a1.19,1.19,0,0,0-.84.35"/></clipPath><linearGradient id="linear-gradient" x1="-179.6" y1="-589.32" x2="-178.6" y2="-589.32" gradientTransform="matrix(-20.17, 0, 0, 20.17, -3597.35, 11898.53)" gradientUnits="userSpaceOnUse"><stop offset="0" stop-color="#99d4c0"/><stop offset="0.08" stop-color="#99d4c0"/><stop offset="0.23" stop-color="#87d1c1"/><stop offset="0.54" stop-color="#57c8c3"/><stop offset="0.86" stop-color="#20bec6"/><stop offset="1" stop-color="#20bec6"/></linearGradient><clipPath id="clip-path-2"><path id="SVGID-2" data-name="SVGID" class="cls-1" d="M23.51,10.58,20,15.71l4.81-1.3L26.39,14a.9.9,0,0,1-.45-.47l-1.22-2.8a.7.7,0,0,0-.24-.3.72.72,0,0,0-.4-.12.67.67,0,0,0-.57.3"/></clipPath><linearGradient id="linear-gradient-2" x1="-139.22" y1="-886.32" x2="-138.22" y2="-886.32" gradientTransform="matrix(0, 4.51, 4.51, 0, 4023.62, 640.12)" gradientUnits="userSpaceOnUse"><stop offset="0" stop-color="#8d9ba7"/><stop offset="1" stop-color="#bfc3c5"/></linearGradient><clipPath id="clip-path-3"><path id="SVGID-3" data-name="SVGID" class="cls-1" d="M4.55,4.58l-1,6.65a.38.38,0,0,0,0,.1v0A.71.71,0,0,0,4.1,12a.75.75,0,0,0,.61-.2L7.93,8.52a1.14,1.14,0,0,1,1-.34l3.67.5L4.39,3.92a1,1,0,0,1,.16.66"/></clipPath><linearGradient id="linear-gradient-3" x1="-226.48" y1="-558.66" x2="-225.48" y2="-558.66" gradientTransform="matrix(0, -12.26, -12.26, 0, -6841.04, -2764.42)" gradientUnits="userSpaceOnUse"><stop offset="0" stop-color="#fff200"/><stop offset="0.24" stop-color="#edeb0d"/><stop offset="0.73" stop-color="#bfd730"/><stop offset="0.73" stop-color="#bfd730"/><stop offset="1" stop-color="#bfd730"/></linearGradient></defs><title>logoAsset 19</title><g id="Layer_2" data-name="Layer 2"><g id="Layer_1-2" data-name="Layer 1"><g class="cls-2"><rect class="cls-3" x="3.26" y="7.24" width="21.45" height="14.02" transform="translate(-1.27 1.37) rotate(-5.37)"/></g><g class="cls-4"><rect class="cls-5" x="19.51" y="9.03" width="7.33" height="7.92" transform="translate(2.94 30.22) rotate(-69.68)"/></g><g class="cls-6"><rect class="cls-7" x="2.27" y="2.02" width="11.58" height="11.94" transform="translate(-2.88 11.01) rotate(-60.21)"/></g><path class="cls-8" d="M48,12.55v5.66h-2.2V13a1.17,1.17,0,0,0-1.29-1.3,3.06,3.06,0,0,0-1,.19v6.29H41.3V10.53a9,9,0,0,1,3.39-.76C47,9.77,48,10.9,48,12.55m32.87.69-1.19-.41c-.49-.17-.66-.37-.66-.61s.33-.56.94-.56a4.25,4.25,0,0,1,2,.56l1-1.71a6.47,6.47,0,0,0-3-.74c-1.81,0-3.2,1.07-3.2,2.61a2.57,2.57,0,0,0,2.07,2.49l1,.35c.55.19.81.34.81.69s-.28.58-1,.58a4.33,4.33,0,0,1-2.15-.65l-1,1.75a6.35,6.35,0,0,0,3.13.78c1.83,0,3.29-1,3.29-2.68,0-1.38-.86-2-2.1-2.45M32.15,16.47c-.44,0-.63-.22-.63-.74V6.9h-2.2v9.46a1.88,1.88,0,0,0,2.14,2,5,5,0,0,0,1.68-.28l-.24-1.74a3.57,3.57,0,0,1-.75.12M53.77,6.9H56V17.65a8.51,8.51,0,0,1-3.36.72c-2.27,0-3.37-1.36-3.37-3V12.61a2.73,2.73,0,0,1,3-2.84,5.12,5.12,0,0,1,1.54.24Zm0,4.94a3.53,3.53,0,0,0-1.05-.18,1.24,1.24,0,0,0-1.29,1.39v2a1.3,1.3,0,0,0,1.45,1.43,2.67,2.67,0,0,0,.89-.15ZM40.11,13.1v1.69H35.74v.14a1.41,1.41,0,0,0,1.52,1.54,4.07,4.07,0,0,0,2.06-.58l.61,1.74a5.53,5.53,0,0,1-2.92.74A3.18,3.18,0,0,1,33.55,15V13.26a3.17,3.17,0,0,1,3.32-3.49,3.05,3.05,0,0,1,3.24,3.33M38,13c0-.78-.37-1.33-1.1-1.33s-1.13.55-1.13,1.33v.14H38Zm22.23,3.47c-.44,0-.63-.22-.63-.74V6.9H57.4v9.46a1.87,1.87,0,0,0,2.13,2,5,5,0,0,0,1.68-.28L61,16.35a3.39,3.39,0,0,1-.75.12m15.42-4.08v5.26a8.83,8.83,0,0,1-3.3.72c-2.15,0-3.33-1-3.33-2.73,0-1.43,1-2.5,2.92-2.5h1.52V12.8c0-.75-.57-1.05-1.35-1.05a5.78,5.78,0,0,0-2.42.67l-.22-2a7.33,7.33,0,0,1,3.13-.68c1.28,0,3,.57,3,2.62m-2.19,2.4H72.29c-.68,0-1.07.36-1.07.85s.52.91,1.24.91a3.11,3.11,0,0,0,1-.16ZM68.18,13.1v1.69H63.82v.14a1.41,1.41,0,0,0,1.52,1.54,4,4,0,0,0,2-.58L68,17.63a5.5,5.5,0,0,1-2.91.74A3.18,3.18,0,0,1,61.62,15V13.26a3.17,3.17,0,0,1,3.32-3.49,3.05,3.05,0,0,1,3.24,3.33M66.06,13c0-.78-.36-1.33-1.1-1.33s-1.13.55-1.13,1.33v.14h2.23Zm24.29.1v1.69H86v.14a1.41,1.41,0,0,0,1.52,1.54,4,4,0,0,0,2-.58l.62,1.74a5.56,5.56,0,0,1-2.92.74A3.18,3.18,0,0,1,83.79,15V13.26a3.18,3.18,0,0,1,3.33-3.49,3,3,0,0,1,3.23,3.33M88.23,13c0-.78-.36-1.33-1.1-1.33S86,12.22,86,13v.14h2.23Z"/></g></g></svg>