<svg xmlns="http://www.w3.org/2000/svg" xmlns:xlink="http://www.w3.org/1999/xlink" viewBox="0 0 90.66 23.55"><defs><style>.cls-1{fill:none;}.cls-2{clip-path:url(#clip-path);}.cls-3{fill:url(#linear-gradient);}.cls-4{clip-path:url(#clip-path-2);}.cls-5{fill:url(#linear-gradient-2);}.cls-6{clip-path:url(#clip-path-3);}.cls-7{fill:url(#linear-gradient-3);}.cls-8{fill:#231f20;}</style><clipPath id="clip-path"><path id="SVGID" class="cls-1" d="M8.25,8.87,5,12.18a.72.72,0,0,1-.6.2.67.67,0,0,1-.32-.14l10.29,8a2.36,2.36,0,0,0,1.41.5h.07a2.38,2.38,0,0,0,1.84-.93l.08-.1,6-8.73a.71.71,0,0,1,.67-.3L9.25,8.53H9.08a1.15,1.15,0,0,0-.83.35"/></clipPath><linearGradient id="linear-gradient" x1="-515.02" y1="-720.11" x2="-514.02" y2="-720.11" gradientTransform="matrix(0, 14.58, 14.58, 0, 10513.07, 7516.82)" gradientUnits="userSpaceOnUse"><stop offset="0" stop-color="#92278f"/><stop offset="1" stop-color="#ed1847"/></linearGradient><clipPath id="clip-path-2"><path id="SVGID-2" data-name="SVGID" class="cls-1" d="M23.82,10.93l-3.54,5.13,4.8-1.3,1.63-.44a.88.88,0,0,1-.46-.47L25,11.05a.72.72,0,0,0-.25-.3.71.71,0,0,0-.39-.12.7.7,0,0,0-.58.3"/></clipPath><linearGradient id="linear-gradient-2" x1="-496.84" y1="-904.34" x2="-495.84" y2="-904.34" gradientTransform="matrix(0, 4.29, 4.29, 0, 3899.14, 2141.12)" gradientUnits="userSpaceOnUse"><stop offset="0" stop-color="#96799a"/><stop offset="1" stop-color="#a3acb6"/></linearGradient><clipPath id="clip-path-3"><path id="SVGID-3" data-name="SVGID" class="cls-1" d="M4.86,4.94l-1,6.64v.12a.69.69,0,0,0,.59.68.72.72,0,0,0,.6-.2L8.25,8.87a1.16,1.16,0,0,1,1-.34L12.92,9,4.7,4.27a.88.88,0,0,1,.16.67"/></clipPath><linearGradient id="linear-gradient-3" x1="-680.99" y1="-489.07" x2="-679.99" y2="-489.07" gradientTransform="matrix(0, -4.96, -4.96, 0, -2415.79, -3364.61)" gradientUnits="userSpaceOnUse"><stop offset="0" stop-color="#fbae34"/><stop offset="1" stop-color="#fff32a"/></linearGradient></defs><title>logoAsset 21</title><g id="Layer_2" data-name="Layer 2"><g id="Layer_1-2" data-name="Layer 1"><g class="cls-2"><rect class="cls-3" x="6.83" y="3.64" width="14.94" height="21.91" transform="translate(-2.19 26.68) rotate(-81.85)"/></g><g class="cls-4"><rect class="cls-5" x="20.16" y="9.63" width="6.65" height="7.42" transform="translate(5.55 33.55) rotate(-78)"/></g><g class="cls-6"><rect class="cls-7" x="2.31" y="2.4" width="12.12" height="11.88" transform="translate(-3.27 6.31) rotate(-34.99)"/></g><path class="cls-8" d="M48.28,12.9v5.66h-2.2V13.39a1.17,1.17,0,0,0-1.28-1.31,3,3,0,0,0-1,.19v6.29h-2.2V10.88A9.06,9.06,0,0,1,45,10.12c2.26,0,3.28,1.13,3.28,2.78m32.87.69L80,13.18c-.49-.17-.66-.37-.66-.61s.33-.56.94-.56a4.38,4.38,0,0,1,2,.56l1-1.71a6.43,6.43,0,0,0-3-.74c-1.8,0-3.2,1.07-3.2,2.61a2.57,2.57,0,0,0,2.07,2.49l1,.35c.55.19.82.34.82.69s-.28.58-1,.58a4.43,4.43,0,0,1-2.15-.64l-.94,1.74a6.28,6.28,0,0,0,3.12.78c1.84,0,3.3-1,3.3-2.68,0-1.38-.87-2-2.11-2.45M32.46,16.82c-.44,0-.62-.22-.62-.73V7.25h-2.2v9.46a1.88,1.88,0,0,0,2.13,2,5,5,0,0,0,1.68-.28l-.23-1.74a3,3,0,0,1-.76.12M54.09,7.25h2.19V18a8.46,8.46,0,0,1-3.35.72c-2.28,0-3.38-1.36-3.38-3V13a2.74,2.74,0,0,1,3-2.84,5.22,5.22,0,0,1,1.54.24Zm0,4.94A3.66,3.66,0,0,0,53,12a1.23,1.23,0,0,0-1.28,1.39v2a1.3,1.3,0,0,0,1.44,1.42,2.73,2.73,0,0,0,.9-.15ZM40.42,13.45v1.69H36.06v.15a1.41,1.41,0,0,0,1.52,1.53,4,4,0,0,0,2.05-.58L40.24,18a5.5,5.5,0,0,1-2.91.74,3.18,3.18,0,0,1-3.47-3.39V13.61a3.18,3.18,0,0,1,3.33-3.49,3,3,0,0,1,3.23,3.33m-2.12-.1c0-.78-.36-1.33-1.1-1.33s-1.13.55-1.13,1.33v.15H38.3Zm22.23,3.47c-.43,0-.62-.22-.62-.73V7.25h-2.2v9.46a1.88,1.88,0,0,0,2.13,2,5.07,5.07,0,0,0,1.69-.28l-.24-1.74a3,3,0,0,1-.76.12M76,12.74V18a8.89,8.89,0,0,1-3.31.72c-2.15,0-3.33-1-3.33-2.73,0-1.43,1.05-2.49,2.92-2.49h1.52v-.35c0-.75-.56-1.05-1.35-1.05a5.7,5.7,0,0,0-2.41.67l-.22-2a7.24,7.24,0,0,1,3.12-.68c1.29,0,3.06.57,3.06,2.62m-2.2,2.4H72.6c-.67,0-1.07.37-1.07.85s.52.91,1.25.91a3.05,3.05,0,0,0,1-.16Zm-5.27-1.69v1.69H64.13v.15a1.41,1.41,0,0,0,1.52,1.53,4.1,4.1,0,0,0,2.06-.58L68.32,18a5.56,5.56,0,0,1-2.92.74,3.18,3.18,0,0,1-3.47-3.39V13.61a3.18,3.18,0,0,1,3.33-3.49,3,3,0,0,1,3.23,3.33m-2.12-.1c0-.78-.36-1.33-1.1-1.33s-1.13.55-1.13,1.33v.15h2.23Zm24.29.1v1.69H86.3v.15a1.41,1.41,0,0,0,1.52,1.53,4.1,4.1,0,0,0,2.06-.58L90.49,18a5.56,5.56,0,0,1-2.92.74,3.18,3.18,0,0,1-3.47-3.39V13.61a3.18,3.18,0,0,1,3.33-3.49,3,3,0,0,1,3.23,3.33m-2.12-.1c0-.78-.36-1.33-1.09-1.33s-1.14.55-1.14,1.33v.15h2.23Z"/></g></g></svg>