<svg xmlns="http://www.w3.org/2000/svg" xmlns:xlink="http://www.w3.org/1999/xlink" viewBox="0 0 91.52 28.76"><defs><style>.cls-1{fill:none;}.cls-2{fill:#231f20;}.cls-3{clip-path:url(#clip-path);}.cls-4{fill:url(#linear-gradient);}.cls-5{clip-path:url(#clip-path-2);}.cls-6{fill:url(#linear-gradient-2);}.cls-7{clip-path:url(#clip-path-3);}.cls-8{fill:url(#linear-gradient-3);}</style><clipPath id="clip-path"><path id="SVGID" class="cls-1" d="M9.1,8.65,5.87,12A.69.69,0,0,1,5,12l10.29,8a2.4,2.4,0,0,0,1.43.49h0a2.37,2.37,0,0,0,1.87-.92l.07-.1,6-8.73a.68.68,0,0,1,.66-.3L10.1,8.31H9.94a1.15,1.15,0,0,0-.84.35"/></clipPath><linearGradient id="linear-gradient" x1="-451.65" y1="-809.79" x2="-450.65" y2="-809.79" gradientTransform="matrix(-16.38, 0, 0, 16.38, -7374.72, 13279.53)" gradientUnits="userSpaceOnUse"><stop offset="0" stop-color="#00c0f3"/><stop offset="0.22" stop-color="#00c0f3"/><stop offset="0.47" stop-color="#00a7e4"/><stop offset="0.75" stop-color="#008fd5"/><stop offset="1" stop-color="#008fd5"/></linearGradient><clipPath id="clip-path-2"><path id="SVGID-2" data-name="SVGID" class="cls-1" d="M24.67,10.71l-3.55,5.13,4.8-1.3,1.63-.44a.92.92,0,0,1-.46-.47l-1.21-2.8a.72.72,0,0,0-.25-.3.69.69,0,0,0-.39-.12.67.67,0,0,0-.57.3"/></clipPath><linearGradient id="linear-gradient-2" x1="-419.58" y1="-1000.11" x2="-418.58" y2="-1000.11" gradientTransform="matrix(0, 5.62, 5.62, 0, 5645.13, 2367.85)" gradientUnits="userSpaceOnUse"><stop offset="0" stop-color="#53b2b6"/><stop offset="1" stop-color="#878a8f"/></linearGradient><clipPath id="clip-path-3"><path id="SVGID-3" data-name="SVGID" class="cls-1" d="M5.55,4.06a.87.87,0,0,1,.16.66l-1,6.64a.38.38,0,0,0,0,.1v0a.7.7,0,0,0,.59.68.72.72,0,0,0,.6-.2L9.1,8.65a1.19,1.19,0,0,1,1-.34l3.67.51L5.56,4.06Z"/></clipPath><linearGradient id="linear-gradient-3" x1="-623.84" y1="-795.48" x2="-622.84" y2="-795.48" gradientTransform="matrix(0, -9.44, -9.44, 0, -7499, -5873.79)" gradientUnits="userSpaceOnUse"><stop offset="0" stop-color="#20bec6"/><stop offset="1" stop-color="#99d4c0"/></linearGradient></defs><title>logoAsset 25</title><g id="Layer_2" data-name="Layer 2"><g id="Layer_1-2" data-name="Layer 1"><path class="cls-2" d="M49.13,12.69v5.66H46.94V13.17a1.17,1.17,0,0,0-1.29-1.3,2.77,2.77,0,0,0-1,.19v6.29H42.47V10.66a9.21,9.21,0,0,1,3.38-.75c2.26,0,3.28,1.13,3.28,2.78M82,13.38,80.81,13c-.48-.17-.65-.38-.65-.61s.33-.57.94-.57a4.34,4.34,0,0,1,2,.57l1-1.71a6.47,6.47,0,0,0-3-.74c-1.81,0-3.21,1.06-3.21,2.6A2.59,2.59,0,0,0,79.94,15l1,.34c.55.19.81.35.81.69s-.28.58-1,.58A4.29,4.29,0,0,1,78.64,16l-1,1.74a6.16,6.16,0,0,0,3.12.79c1.84,0,3.3-1,3.3-2.69,0-1.38-.86-2-2.1-2.44M33.32,16.61c-.44,0-.63-.22-.63-.74V7h-2.2V16.5a1.88,1.88,0,0,0,2.14,2,4.8,4.8,0,0,0,1.68-.29l-.24-1.74a3.1,3.1,0,0,1-.75.13M54.94,7h2.2V17.78a8.33,8.33,0,0,1-3.36.73c-2.27,0-3.37-1.37-3.37-3V12.75a2.73,2.73,0,0,1,3-2.84,4.87,4.87,0,0,1,1.54.24Zm0,4.94a3.52,3.52,0,0,0-1-.19,1.24,1.24,0,0,0-1.29,1.4v2a1.3,1.3,0,0,0,1.45,1.43,2.44,2.44,0,0,0,.89-.16ZM41.27,13.23v1.7H36.91v.14a1.42,1.42,0,0,0,1.52,1.54A4.1,4.1,0,0,0,40.49,16l.61,1.74a5.66,5.66,0,0,1-2.92.74,3.19,3.19,0,0,1-3.47-3.39V13.39A3.18,3.18,0,0,1,38,9.91a3,3,0,0,1,3.23,3.32m-2.12-.09c0-.78-.36-1.33-1.09-1.33s-1.13.55-1.13,1.33v.14h2.22Zm22.24,3.47c-.44,0-.63-.22-.63-.74V7H58.57V16.5a1.88,1.88,0,0,0,2.13,2,4.8,4.8,0,0,0,1.68-.29l-.24-1.74a3.1,3.1,0,0,1-.75.13m15.42-4.08v5.25a8.69,8.69,0,0,1-3.31.73c-2.15,0-3.32-1-3.32-2.73,0-1.43,1-2.5,2.92-2.5h1.52v-.34c0-.76-.57-1-1.35-1a5.64,5.64,0,0,0-2.42.67l-.22-2a7.42,7.42,0,0,1,3.12-.67c1.29,0,3.06.56,3.06,2.62m-2.19,2.4H73.46c-.68,0-1.07.36-1.07.85s.52.91,1.24.91a3.42,3.42,0,0,0,1-.16Zm-5.28-1.7v1.7H65v.14a1.42,1.42,0,0,0,1.52,1.54A4.07,4.07,0,0,0,68.56,16l.61,1.74a5.62,5.62,0,0,1-2.91.74,3.19,3.19,0,0,1-3.48-3.39V13.39a3.18,3.18,0,0,1,3.33-3.48,3,3,0,0,1,3.23,3.32m-2.11-.09c0-.78-.37-1.33-1.1-1.33S65,12.36,65,13.14v.14h2.23Zm24.29.09v1.7H87.15v.14a1.42,1.42,0,0,0,1.53,1.54,4,4,0,0,0,2-.58l.61,1.74a5.62,5.62,0,0,1-2.91.74A3.18,3.18,0,0,1,85,15.12V13.39a3.17,3.17,0,0,1,3.32-3.48,3,3,0,0,1,3.24,3.32m-2.12-.09c0-.78-.36-1.33-1.1-1.33s-1.13.55-1.13,1.33v.14H89.4Z"/><g class="cls-3"><rect class="cls-4" x="5.07" y="2.53" width="20.15" height="23.69" transform="translate(-4.58 21.25) rotate(-62.74)"/></g><g class="cls-5"><rect class="cls-6" x="20.22" y="8.92" width="8.22" height="8.4" transform="translate(-0.9 24.41) rotate(-52.43)"/></g><g class="cls-7"><rect class="cls-8" x="4.04" y="3.33" width="10.37" height="9.6" transform="translate(-1.27 1.73) rotate(-10.03)"/></g></g></g></svg>