<svg xmlns="http://www.w3.org/2000/svg" xmlns:xlink="http://www.w3.org/1999/xlink" viewBox="0 0 175.43 57.65"><defs><style>.cls-1{fill:none;}.cls-2{clip-path:url(#clip-path);}.cls-3{fill:url(#linear-gradient);}.cls-4{clip-path:url(#clip-path-2);}.cls-5{fill:url(#linear-gradient-2);}.cls-6{clip-path:url(#clip-path-3);}.cls-7{fill:url(#linear-gradient-3);}.cls-8{fill:#231f20;}</style><clipPath id="clip-path"><path class="cls-1" d="M18.19,17.89,12,24.2a1.3,1.3,0,0,1-1.15.38,1.2,1.2,0,0,1-.61-.26L29.91,39.49a4.51,4.51,0,0,0,2.75.94h0a4.51,4.51,0,0,0,3.57-1.76,1.33,1.33,0,0,0,.14-.19L47.91,21.82a1.33,1.33,0,0,1,1.27-.57l-29.08-4a1.62,1.62,0,0,0-.31,0,2.23,2.23,0,0,0-1.6.67"/></clipPath><linearGradient id="linear-gradient" x1="422.69" y1="-477.37" x2="423.69" y2="-477.37" gradientTransform="matrix(-31.27, 0, 0, 31.27, 13266.69, 14957.08)" gradientUnits="userSpaceOnUse"><stop offset="0" stop-color="#00c0f3"/><stop offset="0.43" stop-color="#00aee8"/><stop offset="1" stop-color="#008fd5"/></linearGradient><clipPath id="clip-path-2"><path class="cls-1" d="M47.91,21.82l-6.77,9.79,9.16-2.48,3.11-.84a1.76,1.76,0,0,1-.87-.89L50.22,22a1.25,1.25,0,0,0-.46-.56,1.34,1.34,0,0,0-.76-.24,1.31,1.31,0,0,0-1.09.58"/></clipPath><linearGradient id="linear-gradient-2" x1="337.25" y1="-626.75" x2="338.25" y2="-626.75" gradientTransform="matrix(0, 8.61, 8.61, 0, 5444.29, -2880.09)" gradientUnits="userSpaceOnUse"><stop offset="0" stop-color="#8d9ba7"/><stop offset="1" stop-color="#bfc3c5"/></linearGradient><clipPath id="clip-path-3"><path class="cls-1" d="M11.73,10.38l-2,12.69a1.21,1.21,0,0,0,0,.19v0A1.33,1.33,0,0,0,12,24.2l6.16-6.31a2.24,2.24,0,0,1,1.91-.65l7,1L11.43,9.12a1.71,1.71,0,0,1,.3,1.26"/></clipPath><linearGradient id="linear-gradient-3" x1="378.61" y1="-529.8" x2="379.61" y2="-529.8" gradientTransform="matrix(0, 31.15, 31.15, 0, 16521.75, -11786.78)" gradientUnits="userSpaceOnUse"><stop offset="0" stop-color="#f58220"/><stop offset="0.26" stop-color="#f37021"/><stop offset="0.77" stop-color="#ef4223"/><stop offset="0.78" stop-color="#ef4123"/><stop offset="1" stop-color="#ef4123"/></linearGradient></defs><title>logoAsset 17</title><g id="Layer_2" data-name="Layer 2"><g id="Layer_1-2" data-name="Layer 1"><g class="cls-2"><rect class="cls-3" x="7.07" y="8.83" width="45.31" height="39.99" transform="translate(-10.62 19.51) rotate(-31.12)"/></g><g class="cls-4"><rect class="cls-5" x="40.28" y="18.87" width="13.98" height="15.11" transform="translate(6.08 61.58) rotate(-69.68)"/></g><g class="cls-6"><rect class="cls-7" x="7.35" y="5.48" width="22.16" height="22.81" transform="matrix(0.5, -0.86, 0.86, 0.5, -5.44, 24.28)"/></g><path class="cls-8" d="M94.57,25.58V36.39H90.38V26.51A2.23,2.23,0,0,0,87.92,24a5.56,5.56,0,0,0-1.88.36v12H81.85V21.72a17.53,17.53,0,0,1,6.46-1.44c4.32,0,6.26,2.16,6.26,5.3m62.72,1.32L155,26.12c-.93-.33-1.25-.72-1.25-1.17,0-.63.63-1.08,1.79-1.08a8.27,8.27,0,0,1,3.8,1.08l1.83-3.26a12.39,12.39,0,0,0-5.69-1.41c-3.44,0-6.11,2-6.11,5s2.07,4.13,4,4.76l2,.66c1,.36,1.56.66,1.56,1.32s-.54,1.1-2,1.1a8.32,8.32,0,0,1-4.09-1.22l-1.8,3.32a11.8,11.8,0,0,0,5.95,1.5c3.51,0,6.29-2,6.29-5.12,0-2.64-1.64-3.86-4-4.67m-92.9,6.16c-.83,0-1.19-.42-1.19-1.4V14.8H59V32.86c0,2.6,1.62,3.83,4.08,3.83a9.44,9.44,0,0,0,3.2-.54l-.45-3.33a6,6,0,0,1-1.44.24M105.65,14.8h4.19V35.31a16.13,16.13,0,0,1-6.41,1.38c-4.34,0-6.43-2.61-6.43-5.75V25.7c0-3.14,2.09-5.42,5.71-5.42a9.69,9.69,0,0,1,2.94.46Zm0,9.43a6.5,6.5,0,0,0-2-.36,2.37,2.37,0,0,0-2.46,2.67v3.8a2.49,2.49,0,0,0,2.76,2.72,5,5,0,0,0,1.71-.3Zm-26.08,2.4v3.23H71.25v.27a2.69,2.69,0,0,0,2.9,2.93A7.81,7.81,0,0,0,78.07,32l1.17,3.32a10.68,10.68,0,0,1-5.57,1.41c-3.38,0-6.61-1.83-6.61-6.47V26.93c0-4.07,2.45-6.65,6.35-6.65,4.07,0,6.16,2.73,6.16,6.35m-4-.18c0-1.5-.69-2.55-2.1-2.55S71.28,25,71.28,26.45v.27h4.25ZM118,33.06c-.84,0-1.2-.42-1.2-1.4V14.8h-4.18V32.86c0,2.6,1.61,3.83,4.06,3.83a9.46,9.46,0,0,0,3.21-.54l-.45-3.33a6,6,0,0,1-1.44.24m29.43-7.78v10a16.94,16.94,0,0,1-6.32,1.38c-4.1,0-6.34-2-6.34-5.21,0-2.73,2-4.76,5.57-4.76h2.9v-.66c0-1.44-1.08-2-2.58-2A10.77,10.77,0,0,0,136,25.34l-.42-3.77a14,14,0,0,1,6-1.29c2.46,0,5.84,1.08,5.84,5m-4.19,4.58H141c-1.29,0-2,.69-2,1.62,0,1.11,1,1.73,2.37,1.73a6.22,6.22,0,0,0,1.88-.3Zm-10.06-3.23v3.23h-8.32v.27a2.69,2.69,0,0,0,2.9,2.93,7.78,7.78,0,0,0,3.92-1.1l1.17,3.32a10.71,10.71,0,0,1-5.57,1.41c-3.38,0-6.62-1.83-6.62-6.47V26.93c0-4.07,2.46-6.65,6.35-6.65,4.07,0,6.17,2.73,6.17,6.35m-4-.18c0-1.5-.69-2.55-2.1-2.55s-2.16,1.05-2.16,2.55v.27h4.26Zm46.34.18v3.23h-8.32v.27a2.69,2.69,0,0,0,2.9,2.93,7.85,7.85,0,0,0,3.93-1.1l1.16,3.32a10.7,10.7,0,0,1-5.56,1.41c-3.39,0-6.63-1.83-6.63-6.47V26.93c0-4.07,2.46-6.65,6.35-6.65,4.07,0,6.17,2.73,6.17,6.35m-4-.18c0-1.5-.69-2.55-2.1-2.55s-2.15,1.05-2.15,2.55v.27h4.25Z"/></g></g></svg>