<?xml version="1.0" encoding="utf-8"?>
<!-- Generator: Adobe Illustrator 16.0.0, SVG Export Plug-In . SVG Version: 6.00 Build 0)  -->
<!DOCTYPE svg PUBLIC "-//W3C//DTD SVG 1.1//EN" "http://www.w3.org/Graphics/SVG/1.1/DTD/svg11.dtd">
<svg version="1.1" id="Layer_1" xmlns="http://www.w3.org/2000/svg" xmlns:xlink="http://www.w3.org/1999/xlink" x="0px" y="0px"
	 width="30.022px" height="30.037px" viewBox="0 0 30.022 30.037" enable-background="new 0 0 30.022 30.037" xml:space="preserve">
<g>
	<defs>
		<rect id="SVGID_14_" x="139.187" y="-2365.539" width="2152.948" height="2876.251"/>
	</defs>
	<clipPath id="SVGID_2_">
		<use xlink:href="#SVGID_14_"  overflow="visible"/>
	</clipPath>
	<path clip-path="url(#SVGID_2_)" fill="#FFFFFF" d="M2150.859,14.338c0-196.12-158.985-355.105-355.105-355.105H-64.023v710.212
		h1859.776C1991.874,369.444,2150.859,210.457,2150.859,14.338"/>
</g>
<path d="M21.022,22.57h-3.347l-2.664-7.745l-2.665,7.745h-3.33L4.043,7.932H8.35l2.431,7.916L13.4,7.9h3.299l2.633,7.947
	l2.417-7.916h4.23L21.022,22.57z M28.38,0H1.657C0.743,0,0,0.743,0,1.657V28.38c0,0.914,0.743,1.657,1.657,1.657H28.38
	c0.913,0,1.642-0.743,1.642-1.657V1.657C30.022,0.743,29.293,0,28.38,0"/>
</svg>
