<?xml version="1.0" encoding="utf-8"?>
<!-- Generator: Adobe Illustrator 16.0.0, SVG Export Plug-In . SVG Version: 6.00 Build 0)  -->
<!DOCTYPE svg PUBLIC "-//W3C//DTD SVG 1.1//EN" "http://www.w3.org/Graphics/SVG/1.1/DTD/svg11.dtd">
<svg version="1.1" id="Layer_1" xmlns="http://www.w3.org/2000/svg" xmlns:xlink="http://www.w3.org/1999/xlink" x="0px" y="0px"
	 width="30.053px" height="30.053px" viewBox="0 0 30.053 30.053" enable-background="new 0 0 30.053 30.053" xml:space="preserve">
<g>
	<defs>
		<rect id="SVGID_14_" x="58.548" y="-2271.388" width="2152.948" height="2876.251"/>
	</defs>
	<clipPath id="SVGID_2_">
		<use xlink:href="#SVGID_14_"  overflow="visible"/>
	</clipPath>
	<path clip-path="url(#SVGID_2_)" fill="#FFFFFF" d="M2070.22,108.488c0-196.12-158.985-355.105-355.105-355.105H-144.662v710.212
		h1859.776C1911.234,463.595,2070.22,304.607,2070.22,108.488"/>
</g>
<path d="M28.396,0H1.658C0.744,0,0,0.743,0,1.657v26.739c0,0.913,0.744,1.656,1.658,1.656h14.391V18.403h-3.904v-4.539h3.904v-3.33
	c0-3.888,2.37-5.995,5.84-5.995c1.658,0,3.083,0.123,3.486,0.17v4.059H22.99c-1.891,0-2.246,0.898-2.246,2.216v2.881h4.476
	l-0.589,4.539h-3.887v11.649h7.652c0.914,0,1.657-0.743,1.657-1.656V1.657C30.053,0.743,29.31,0,28.396,0"/>
</svg>
