<?xml version="1.0" encoding="utf-8"?>
<!-- Generator: Adobe Illustrator 16.0.0, SVG Export Plug-In . SVG Version: 6.00 Build 0)  -->
<!DOCTYPE svg PUBLIC "-//W3C//DTD SVG 1.1//EN" "http://www.w3.org/Graphics/SVG/1.1/DTD/svg11.dtd">
<svg version="1.1" id="Layer_1" xmlns="http://www.w3.org/2000/svg" xmlns:xlink="http://www.w3.org/1999/xlink" x="0px" y="0px"
	 width="460px" height="82.063px" viewBox="0 0 460 82.063" enable-background="new 0 0 460 82.063" xml:space="preserve">
<polygon points="0,11.856 0,75.489 37.788,75.489 37.788,63.358 14.969,63.358 14.969,48.838 35.461,48.838 35.461,36.724 
	14.969,36.724 14.969,23.972 36.811,23.972 36.811,11.856 "/>
<path d="M41.997,27.272h13.898v6.779h0.187c1.861-4.282,5.522-8.021,11.572-8.021c0.714,0,1.427,0,2.327,0.171v13.542
	c-1.427-0.264-2.59-0.356-4.017-0.356c-5.786,0-9.526,2.404-9.526,8.733v27.364H41.997V27.272z"/>
<path d="M73.24,11.151h14.427v11.046H73.24V11.151z M73.24,27.27h14.427v48.213H73.24V27.27z"/>
<path d="M94.713,27.272h13.899v5.709h0.187c2.047-4.282,6.235-6.95,11.572-6.95c8.206,0,12.565,4.095,12.565,13.356v36.098H118.51
	V42.599c0-3.475-1.521-5.522-4.189-5.522c-2.761,0-5.166,2.141-5.166,6.856v31.553H94.713V27.272z"/>
<path d="M139.359,42.07c0.094-6.593,2.048-10.61,5.43-12.922c3.397-2.327,7.492-3.118,13.465-3.118
	c11.851,0,17.11,4.095,17.11,14.256V65.06c0,3.646,0,8.284,1.691,10.425h-13.899c-0.543-1.691-0.714-3.646-0.807-5.522h-0.171
	c-1.969,4.281-6.515,6.764-11.324,6.764c-8.113,0-12.829-4.267-12.829-14.705c0-5.602,2.312-10.332,5.88-12.287
	c3.567-1.971,8.904-2.854,12.922-3.925c4.358-1.162,5.166-1.877,5.166-5.522c0-2.947-1.335-4.809-4.546-4.809
	c-4.002,0-5.166,2.404-5.259,6.593H139.359z M156.113,66.751c3.025,0,5.786-1.784,5.786-6.593c0-4.019,0.094-6.5,0.094-8.47
	c-4.546,2.404-6.5,2.498-7.834,3.567c-1.521,1.163-2.234,2.669-2.234,5.352C151.925,64.439,153.445,66.751,156.113,66.751"/>
<polygon points="191.535,11.856 224.422,11.856 224.422,18.807 199.368,18.807 199.368,38.771 222.994,38.771 222.994,45.721 
	199.368,45.721 199.368,75.489 191.535,75.489 "/>
<path d="M226.571,42.155c0-10.874,4.639-15.683,16.04-15.683c14.535,0,14.535,8.733,14.535,13.729v26.635
	c0,1.97,0,3.832,2.312,3.832c0.977,0,1.427-0.171,1.784-0.435v5.336c-0.543,0.094-2.497,0.45-4.375,0.45
	c-2.838,0-6.406,0-6.763-6.158h-0.186c-2.405,4.281-7.043,6.872-11.495,6.872c-8.905,0-12.999-5.352-12.999-13.899
	c0-6.685,2.838-11.324,8.997-13.185l10.067-3.041c5.43-1.691,5.43-3.212,5.43-7.214c0-4.452-2.668-7.043-7.663-7.043
	c-8.191,0-8.191,7.663-8.191,9.354v0.45H226.571z M249.654,49.462c-2.762,2.947-9.354,3.568-12.736,5.616
	c-2.42,1.52-3.66,3.381-3.66,7.569c0,4.809,1.69,8.207,6.778,8.207c4.902,0,9.618-4.189,9.618-9.091V49.462z"/>
<path d="M266.403,11.85h7.493v8.547h-7.493V11.85z M266.403,27.719h7.493v47.764h-7.493V27.719z"/>
<path d="M282.805,27.719h7.492v7.137h0.171c2.141-4.545,4.995-8.377,10.331-8.377c1.521,0,2.591,0.171,3.305,0.527v7.307
	c-0.714-0.094-1.598-0.357-4.018-0.357c-3.739,0-9.789,3.382-9.789,11.324v30.203h-7.492V27.719z"/>
<path fill="#008086" d="M454.131,17.414c0,0-12.333,16.024-53.953,28.745c0,0-29.35-15.001-53.224-1.815
	c0,0,2.684-9.432,6.872-15.388c0,0-7.523-5.29-24.34-3.987c0,0,12.876-7.26,16.522-8.749c3.63-1.489,13.636-7.771,30.776-2.808
	c17.142,4.948,27.752,9.013,37.138,9.509C423.291,23.402,441.969,23.402,454.131,17.414"/>
<path fill="#FEDD00" d="M352.571,29.381c0,0-9.339-6.577-32.437-1.939c0,0,7.058,30.948,21.314,50.401
	C341.448,77.843,339.571,47.546,352.571,29.381"/>
<path fill="#0468AC" d="M342.291,78.473c0,0-0.311-12.952,3.103-26.991c0,0,27.457-21.594,52.773-2.87
	C412.346,59.098,415.371,64,422.6,64.094c7.212,0.093,10.672-2.297,16.443,3.056c5.77,5.367,12.1,8.966,20.957,8.594
	c0,0-14.303,6.748-21.64,4.39c-7.352-2.373-11.184-6.422-24.96-1.07c-13.821,5.367-20.337,2.854-30.28-2.202
	C373.161,71.803,360.782,65.009,342.291,78.473"/>
<path fill="#0468AC" d="M438.804,0.443c0,0-5.879-1.365-10.518,0.698c-4.637,2.063-9.679,4.855-12.424,4.639
	c-2.762-0.218-9.044-2.607-12.737-1.986c-2.467,0.419-5.631,1.645-9.571,4.157c0,0,8.796-3.784,14.985-1.023
	c6.283,2.793,10.534,3.584,10.534,3.584l-0.419-1.676c0,0,4.669-0.9,10.548-4.778C429.202,4.058,433.963,0.692,438.804,0.443"/>
</svg>
