<?xml version="1.0" encoding="utf-8"?>
<!-- Generator: Adobe Illustrator 16.0.0, SVG Export Plug-In . SVG Version: 6.00 Build 0)  -->
<!DOCTYPE svg PUBLIC "-//W3C//DTD SVG 1.1//EN" "http://www.w3.org/Graphics/SVG/1.1/DTD/svg11.dtd">
<svg version="1.1" id="Layer_1" xmlns="http://www.w3.org/2000/svg" xmlns:xlink="http://www.w3.org/1999/xlink" x="0px" y="0px"
	 width="474.756px" height="89.725px" viewBox="0 0 474.756 89.725" enable-background="new 0 0 474.756 89.725"
	 xml:space="preserve">
<g>
	<defs>
		<rect id="SVGID_11_" x="-1553.193" y="-2672.004" width="2182.677" height="2899.843"/>
	</defs>
	<clipPath id="SVGID_2_">
		<use xlink:href="#SVGID_11_"  overflow="visible"/>
	</clipPath>
</g>
<rect x="-1553.193" y="-2672.004" fill="none" width="2182.677" height="2899.843"/>
<rect x="-1539.687" y="-2660.268" fill="none" width="2155.908" height="2880.206"/>
<g>
	<defs>
		<path id="SVGID_13_" d="M1.597,43.642L1.488,43.56C1.524,43.587,1.56,43.615,1.597,43.642 M24.152,25.131L6.546,43.219
			c-0.854,0.836-2.063,1.303-3.32,1.101c-0.603-0.101-1.167-0.334-1.629-0.678l56.172,43.386c2.358,1.813,5.12,2.697,7.881,2.697
			h0.046c3.863,0,7.694-1.737,10.224-5.026c0.14-0.186,0.278-0.372,0.418-0.559l32.996-47.763c0.838-1.21,2.28-1.799,3.659-1.613
			L29.645,23.269c-0.295-0.046-0.604-0.077-0.9-0.077C26.992,23.191,25.348,23.937,24.152,25.131"/>
	</defs>
	<clipPath id="SVGID_4_">
		<use xlink:href="#SVGID_13_"  overflow="visible"/>
	</clipPath>
	
		<linearGradient id="SVGID_6_" gradientUnits="userSpaceOnUse" x1="-1525.3936" y1="-43.5811" x2="-1524.3936" y2="-43.5811" gradientTransform="matrix(-76.7164 46.3124 -46.3124 -76.7164 -118938.3672 67330.3516)">
		<stop  offset="0" style="stop-color:#19BBEE"/>
		<stop  offset="0.389" style="stop-color:#13A7E0"/>
		<stop  offset="1" style="stop-color:#1286C8"/>
	</linearGradient>
	<polygon clip-path="url(#SVGID_4_)" fill="url(#SVGID_6_)" points="83.211,-26.143 -27.948,40.963 31.271,139.059 142.43,71.954 	
		"/>
</g>
<g>
	<defs>
		<path id="SVGID_16_" d="M109.333,36.377L89.942,64.438l26.263-7.104l8.889-2.42c-1.102-0.482-2.001-1.381-2.513-2.544
			l-6.608-15.343c-0.28-0.62-0.73-1.194-1.35-1.612c-0.652-0.466-1.412-0.667-2.157-0.667
			C111.256,34.749,110.076,35.323,109.333,36.377"/>
	</defs>
	<clipPath id="SVGID_7_">
		<use xlink:href="#SVGID_16_"  overflow="visible"/>
	</clipPath>
	
		<linearGradient id="SVGID_9_" gradientUnits="userSpaceOnUse" x1="-1524.3955" y1="-30.5732" x2="-1523.3953" y2="-30.5732" gradientTransform="matrix(23.1394 8.5702 -8.5702 23.1394 35112.6953 13818.9551)">
		<stop  offset="0" style="stop-color:#99A4B0"/>
		<stop  offset="1" style="stop-color:#CCCDCE"/>
	</linearGradient>
	<polygon clip-path="url(#SVGID_7_)" fill="url(#SVGID_9_)" points="80.272,60.857 120.854,75.888 134.764,38.33 94.183,23.301 	"/>
</g>
<g>
	<defs>
		<path id="SVGID_19_" d="M5.662,3.63L0.047,39.976C0.016,40.162,0,40.349,0,40.503v0.11c0.016,1.814,1.364,3.412,3.226,3.706
			c1.258,0.202,2.467-0.265,3.32-1.101l17.606-18.088c1.38-1.397,3.398-2.156,5.492-1.862l20.059,2.762L4.793,0
			C5.539,1.04,5.849,2.357,5.662,3.63"/>
	</defs>
	<clipPath id="SVGID_10_">
		<use xlink:href="#SVGID_19_"  overflow="visible"/>
	</clipPath>
	
		<linearGradient id="SVGID_12_" gradientUnits="userSpaceOnUse" x1="-1525.9253" y1="-38.4111" x2="-1524.9253" y2="-38.4111" gradientTransform="matrix(77.0815 45.0132 -45.0132 77.0815 115891.5625 71655.3984)">
		<stop  offset="0" style="stop-color:#EE7E23"/>
		<stop  offset="0.5624" style="stop-color:#E74F25"/>
		<stop  offset="0.7826" style="stop-color:#E53625"/>
		<stop  offset="1" style="stop-color:#E53625"/>
	</linearGradient>
	<polygon clip-path="url(#SVGID_10_)" fill="url(#SVGID_12_)" points="-19.389,33.2 37.063,66.166 69.09,11.321 12.639,-21.645 	"/>
</g>
<path d="M243.045,47.167V78.13h-12.022V49.819c0-5.569-3.506-7.105-7.027-7.105c-2.063,0-4.033,0.513-5.398,1.024V78.13h-12.006
	V36.105c4.622-1.985,11.742-4.126,18.521-4.126C237.476,31.979,243.045,38.153,243.045,47.167 M422.758,50.936l-6.515-2.218
	c-2.653-0.946-3.6-2.063-3.6-3.351c0-1.8,1.799-3.087,5.15-3.087c3.258,0,7.633,1.194,10.89,3.087l5.244-9.354
	c-2.746-1.629-9.278-4.033-16.304-4.033c-9.882,0-17.515,5.833-17.515,14.241c0,8.329,5.926,11.836,11.34,13.635l5.74,1.893
	c2.993,1.039,4.452,1.893,4.452,3.77c0,1.645-1.521,3.181-5.569,3.181c-4.204,0-8.998-1.723-11.743-3.521l-5.149,9.524
	c3.35,2.063,9.509,4.297,17.063,4.297c10.052,0,18.01-5.678,18.01-14.675C434.253,56.769,429.553,53.263,422.758,50.936
	 M156.563,68.62c-2.389,0-3.429-1.21-3.429-4.033V16.281h-12.007v51.734c0,7.461,4.639,10.982,11.665,10.982
	c3.522,0,6.516-0.604,9.184-1.551l-1.287-9.525C159.06,68.356,157.679,68.62,156.563,68.62 M274.783,16.281h12.007v58.763
	c-4.793,1.984-10.626,3.954-18.351,3.954c-12.441,0-18.444-7.478-18.444-16.475V47.508c0-9.013,6.003-15.528,16.381-15.528
	c2.605,0,5.429,0.357,8.407,1.303V16.281z M274.783,43.304c-1.381-0.512-3.784-1.023-5.756-1.023c-3.521,0-7.026,2.063-7.026,7.632
	v10.89c0,6.004,3.939,7.818,7.896,7.818c1.722,0,3.599-0.356,4.886-0.867V43.304z M200.06,50.16v9.276h-23.843v0.761
	c0,5.165,3.087,8.423,8.314,8.423c4.391,0,7.539-1.21,11.246-3.18l3.336,9.524c-3.848,2.141-8.578,4.033-15.947,4.033
	c-9.695,0-18.956-5.228-18.956-18.536v-9.433c0-11.666,7.026-19.05,18.181-19.05C194.056,31.979,200.06,39.782,200.06,50.16
	 M188.472,49.648c0-4.281-1.971-7.291-6.003-7.291c-4.205,0-6.159,3.01-6.159,7.291v0.775h12.162V49.648z M310.044,68.62
	c-2.404,0-3.429-1.21-3.429-4.033V16.281h-12.008v51.734c0,7.461,4.624,10.982,11.651,10.982c3.536,0,6.531-0.604,9.199-1.551
	l-1.304-9.525C312.524,68.356,311.161,68.62,310.044,68.62 M394.37,46.298v28.746c-4.81,1.984-11.231,3.954-18.104,3.954
	c-11.743,0-18.181-5.678-18.181-14.923c0-7.818,5.74-13.651,15.963-13.651h8.314v-1.893c0-4.11-3.088-5.739-7.384-5.739
	c-3.925,0-8.92,1.458-13.217,3.692l-1.195-10.813c3.352-1.459,8.766-3.692,17.08-3.692C384.675,31.979,394.37,35.066,394.37,46.298
	 M382.363,59.437h-6.345c-3.707,0-5.833,1.971-5.833,4.639c0,3.164,2.824,4.964,6.779,4.964c1.97,0,3.754-0.341,5.398-0.854V59.437z
	 M353.541,50.16v9.276h-23.844v0.761c0,5.165,3.072,8.423,8.315,8.423c4.375,0,7.554-1.21,11.231-3.18l3.351,9.524
	c-3.863,2.141-8.579,4.033-15.947,4.033c-9.711,0-18.987-5.228-18.987-18.536v-9.433c0-11.666,7.043-19.05,18.212-19.05
	C347.522,31.979,353.541,39.782,353.541,50.16 M341.953,49.648c0-4.281-1.971-7.291-6.004-7.291c-4.219,0-6.175,3.01-6.175,7.291
	v0.775h12.179V49.648z M474.756,50.16v9.276h-23.858v0.761c0,5.165,3.087,8.423,8.33,8.423c4.375,0,7.554-1.21,11.231-3.18
	l3.351,9.524c-3.862,2.141-8.578,4.033-15.946,4.033c-9.712,0-18.972-5.228-18.972-18.536v-9.433c0-11.666,7.026-19.05,18.195-19.05
	C468.753,31.979,474.756,39.782,474.756,50.16 M463.169,49.648c0-4.281-1.972-7.291-6.004-7.291c-4.204,0-6.175,3.01-6.175,7.291
	v0.775h12.179V49.648z"/>
<rect fill="none" width="474.746" height="89.725"/>
<g>
	<defs>
		<rect id="SVGID_22_" x="-1553.193" y="-2672.004" width="2182.677" height="2899.843"/>
	</defs>
	<clipPath id="SVGID_14_">
		<use xlink:href="#SVGID_22_"  overflow="visible"/>
	</clipPath>
</g>
<g>
	<defs>
		<rect id="SVGID_29_" x="-1553.193" y="-2672.004" width="2182.677" height="2899.843"/>
	</defs>
	<clipPath id="SVGID_15_">
		<use xlink:href="#SVGID_29_"  overflow="visible"/>
	</clipPath>
</g>
<g>
	<defs>
		<rect id="SVGID_36_" x="-1553.193" y="-2672.004" width="2182.677" height="2899.843"/>
	</defs>
	<clipPath id="SVGID_17_">
		<use xlink:href="#SVGID_36_"  overflow="visible"/>
	</clipPath>
	<g clip-path="url(#SVGID_17_)">
		<defs>
			<rect id="SVGID_38_" x="662.649" y="-2660.271" width="2152.948" height="2876.252"/>
		</defs>
		<clipPath id="SVGID_18_">
			<use xlink:href="#SVGID_38_"  overflow="visible"/>
		</clipPath>
		<path clip-path="url(#SVGID_18_)" fill="#FFFFFF" d="M2674.321-280.394c0-196.12-158.986-355.105-355.106-355.105H459.439V74.713
			h1859.775C2515.335,74.713,2674.321-84.274,2674.321-280.394"/>
	</g>
</g>
</svg>
