<svg xmlns="http://www.w3.org/2000/svg" viewBox="0 0 98.38 25.69"><defs><style>.cls-1{fill:#d1d3d4;}.cls-2{fill:#00aca1;}.cls-3{fill:#ffd478;}.cls-4{fill:#0096d6;}.cls-5{fill:#e66b5b;}.cls-6{fill:#231f20;}</style></defs><title>shopping-centreAsset 8</title><g id="Layer_2" data-name="Layer 2"><g id="Layer_1-2" data-name="Layer 1"><path class="cls-1" d="M97.15,25.57,74,25.68a1.22,1.22,0,0,1-1.23-1.22L72.69,1.35A1.24,1.24,0,0,1,73.92.11L97,0a1.24,1.24,0,0,1,1.24,1.23l.11,23.1a1.24,1.24,0,0,1-1.23,1.24M73.92.76a.6.6,0,0,0-.58.59l.11,23.11A.57.57,0,0,0,74,25l23.11-.11a.58.58,0,0,0,.58-.58L97.61,1.23A.58.58,0,0,0,97,.65Z"/><path class="cls-2" d="M95.12,23.42a1.07,1.07,0,0,1-.76-.31l-5.81-5.75,0,4.58v.42a1.1,1.1,0,0,1-2.19,0l0-7.66a1.06,1.06,0,0,1,1.06-1.08l7.67,0a1.1,1.1,0,0,1,0,2.19l-5,0,5.8,5.75a1.09,1.09,0,0,1-.77,1.87"/><path class="cls-3" d="M87.41,12A1.06,1.06,0,0,1,86.34,11l0-7.66a1.09,1.09,0,0,1,2.18,0v.42l0,4.58,5.75-5.8A1,1,0,0,1,95,2.17,1.09,1.09,0,0,1,95.81,4L90.06,9.83l5,0a1.09,1.09,0,0,1,0,2.18Z"/><path class="cls-4" d="M76.06,23.51a1.05,1.05,0,0,0,.76-.32l5.75-5.81,0,4.58v.43a1.1,1.1,0,0,0,2.19,0l0-7.67a1.07,1.07,0,0,0-1.08-1.06l-7.66,0a1.09,1.09,0,0,0,0,2.18l5,0-5.75,5.82a1.08,1.08,0,0,0,0,1.53,1.1,1.1,0,0,0,.78.32"/><path class="cls-5" d="M83.66,12.05A1.07,1.07,0,0,0,84.72,11l0-7.66a1.09,1.09,0,0,0-2.18,0v.42l0,4.58-5.8-5.75A1.11,1.11,0,0,0,76,2.26a1.07,1.07,0,0,0-.77.33,1.09,1.09,0,0,0,0,1.53L81,9.88l-5,0A1.1,1.1,0,0,0,74.9,11,1.08,1.08,0,0,0,76,12.08Z"/><path class="cls-6" d="M5.26,5.26a1.76,1.76,0,0,0-1.41-.61A2.2,2.2,0,0,0,1.7,7,2.2,2.2,0,0,0,3.8,9.43a1.77,1.77,0,0,0,1.53-.8l1.37,1A3.26,3.26,0,0,1,4,10.94,3.76,3.76,0,0,1,0,7a3.76,3.76,0,0,1,4-3.9,3.15,3.15,0,0,1,2.5,1.09Z"/><path class="cls-6" d="M8.91,6.4h1c.6,0,1.37,0,1.37-.83s-.67-.86-1.26-.86H8.91ZM7.27,3.32h2.87c1.52,0,2.8.53,2.8,2.26a1.9,1.9,0,0,1-1.6,2l1.89,3.14h-2l-1.56-3h-.8v3H7.27Z"/><path class="cls-6" d="M16.82,5.49l-.9,2.3h1.81Zm-.63-2.17h1.36l3.22,7.43H18.93l-.64-1.57H15.41l-.62,1.57H13Z"/><rect class="cls-6" x="21.18" y="3.32" width="1.64" height="7.43"/><path class="cls-6" d="M30.71,10.22a6.55,6.55,0,0,1-3.11.72,3.76,3.76,0,0,1-4-3.9,3.76,3.76,0,0,1,4-3.9,4.23,4.23,0,0,1,3,.95L29.41,5.35a2.28,2.28,0,0,0-1.81-.7A2.25,2.25,0,0,0,25.29,7,2.25,2.25,0,0,0,27.6,9.43a3.24,3.24,0,0,0,1.55-.37V7.86H27.81V6.35h2.9Z"/><rect class="cls-6" x="31.82" y="3.32" width="1.64" height="7.43"/><polygon class="cls-6" points="34.69 3.32 39.73 3.32 39.73 4.84 36.32 4.84 36.32 6.22 39.55 6.22 39.55 7.73 36.32 7.73 36.32 9.24 39.92 9.24 39.92 10.75 34.69 10.75 34.69 3.32"/><path class="cls-6" d="M42.55,9.36H44c.52,0,1.09-.21,1.09-.86s-.78-.82-1.32-.82H42.55Zm0-3.07h1.19c.5,0,1-.2,1-.8s-.59-.78-1.11-.78H42.55Zm-1.63-3h2.77c1.29,0,2.71.28,2.71,1.9a1.67,1.67,0,0,1-1.27,1.63v0a1.78,1.78,0,0,1,1.62,1.81c0,1.56-1.47,2.07-2.79,2.07h-3Z"/><path class="cls-6" d="M53.66,7.89a2.87,2.87,0,0,1-3.13,3.05,2.87,2.87,0,0,1-3.13-3V3.32H49V7.83a1.5,1.5,0,1,0,3,0V3.32h1.63Z"/><path class="cls-6" d="M56.49,6.4h1c.6,0,1.38,0,1.38-.83s-.67-.86-1.27-.86H56.49ZM54.85,3.32h2.88c1.52,0,2.8.53,2.8,2.26a1.9,1.9,0,0,1-1.61,2l1.89,3.14h-2l-1.56-3h-.8v3H54.85Z"/><polygon class="cls-6" points="61.33 3.32 63.55 3.32 66.71 8.48 66.74 8.48 66.74 3.32 68.37 3.32 68.37 10.75 66.23 10.75 62.99 5.46 62.97 5.46 62.97 10.75 61.33 10.75 61.33 3.32"/><path class="cls-6" d="M27.46,17a1.73,1.73,0,0,0-1.4-.61,2.21,2.21,0,0,0-2.15,2.39A2.2,2.2,0,0,0,26,21.15a1.77,1.77,0,0,0,1.53-.8l1.36,1a3.25,3.25,0,0,1-2.68,1.29,3.76,3.76,0,0,1-4-3.9,3.76,3.76,0,0,1,4-3.9A3.2,3.2,0,0,1,28.73,16Z"/><polygon class="cls-6" points="29.54 15.05 34.59 15.05 34.59 16.56 31.18 16.56 31.18 17.94 34.4 17.94 34.4 19.45 31.18 19.45 31.18 20.96 34.77 20.96 34.77 22.47 29.54 22.47 29.54 15.05"/><polygon class="cls-6" points="35.77 15.05 37.99 15.05 41.15 20.2 41.17 20.2 41.17 15.05 42.81 15.05 42.81 22.47 40.67 22.47 37.43 17.19 37.41 17.19 37.41 22.47 35.77 22.47 35.77 15.05"/><polygon class="cls-6" points="45.44 16.49 43.32 16.49 43.32 15.05 49.19 15.05 49.19 16.49 47.08 16.49 47.08 22.47 45.44 22.47 45.44 16.49"/><path class="cls-6" d="M51.34,18.12h1c.6,0,1.38,0,1.38-.83s-.67-.86-1.27-.86H51.34Zm-1.63-3.07h2.87c1.52,0,2.8.52,2.8,2.26a1.92,1.92,0,0,1-1.61,2l1.89,3.13h-2l-1.55-3h-.81v3H49.71Z"/><path class="cls-6" d="M59.26,17.21l-.9,2.31h1.81Zm-.63-2.16H60l3.22,7.42H61.37l-.64-1.57H57.84l-.62,1.57h-1.8Z"/><polygon class="cls-6" points="63.71 15.05 65.34 15.05 65.34 20.96 68.37 20.96 68.37 22.47 63.71 22.47 63.71 15.05"/></g></g></svg>