<svg xmlns="http://www.w3.org/2000/svg" viewBox="0 0 103.91 19.77"><defs><style>.cls-1{fill:#00888a;}.cls-2{fill:#036eb0;}.cls-3{fill:#231f20;}</style></defs><title>shopping-centreAsset 4</title><g id="Layer_2" data-name="Layer 2"><g id="Layer_1-2" data-name="Layer 1"><path class="cls-1" d="M99.4,1.51s-.73.77-.83,3.16-.5,2.82-.78,3.28-3.42,4.9-4.19,6.86-1,3.4-3,5a6.2,6.2,0,0,0-.21-3.34c-.63-1.89-1.8-3.61-1.61-5.71a4.56,4.56,0,0,1,1.9-3.22,8.5,8.5,0,0,0,.69,3.79c.83,1.66,1.2,2.34,1.21,3,0,0,.93-.76.27-4.28s0-5.42,2.36-6.43c0,0-.83,1.67.24,5.78,0,0,.75-.46,1-3.27s.4-3.58,3-4.59"/><path class="cls-1" d="M103.16,0a2.53,2.53,0,0,0-2,1.26c-.42.63-.9,2.25-1.18,2.68a2.35,2.35,0,0,1-.55.54,3,3,0,0,0,2.62-2A5.48,5.48,0,0,1,103.16,0"/><path class="cls-2" d="M93.68,18.46c.55-1,2.19-1.55,3.66-1.9s2.1-.8,2.22-1.46-.43-1.24-1.29-2.11-.42-1.32-.07-1.56,1.94-.73,2.18-.85c1.55-.72.52-1.49.26-1.69S100,8.41,100,8c.13-1.54,2.72-1,2.72-1s-1.6.58-.44,1.79c.32.34,1.54,1,1.59,1.86s-1,1-1.64,1.18-1.43.68-1.08,1.32,1.06.67,1.27,1.54a2.41,2.41,0,0,1-1.09,2.52,7.6,7.6,0,0,1-4.28,1.1c-1.77-.07-2.83-.15-3.41.12"/><path class="cls-3" d="M5.26,7.33c0-1.74-.2-2.51-1.14-2.51C3,4.82,2.9,5.89,2.9,9c0,3.54.12,4.46,1.29,4.46s1.15-1.19,1.17-3h2.7v.42c0,2.57-.72,4.49-4.19,4.49S0,12.65,0,9.06C0,6,.17,3,4.14,3,6.61,3,8,4,8,6.82v.51Z"/><path class="cls-3" d="M8.81,8.84a2.76,2.76,0,0,1,1-2.42,4.26,4.26,0,0,1,2.52-.58c2.22,0,3.2.77,3.2,2.67v4.64a3.65,3.65,0,0,0,.32,1.95h-2.6a3.82,3.82,0,0,1-.15-1h0A2.28,2.28,0,0,1,11,15.34c-1.51,0-2.4-.8-2.4-2.76a2.58,2.58,0,0,1,1.1-2.3,11.49,11.49,0,0,1,2.42-.73c.82-.22,1-.35,1-1s-.25-.9-.85-.9-1,.45-1,1.23ZM12,13.47c.57,0,1.08-.34,1.08-1.24,0-.75,0-1.22,0-1.58-.85.45-1.22.46-1.47.66a1.14,1.14,0,0,0-.41,1c0,.71.28,1.15.78,1.15"/><path class="cls-3" d="M17,3.05h2.71V5.12H17Zm0,3h2.71v9H17Z"/><path class="cls-3" d="M21.05,6.07h2.6V7.34h0a2.4,2.4,0,0,1,2.61-1.47V8.41a3.88,3.88,0,0,0-.75-.07c-1.09,0-1.79.45-1.79,1.64V15.1h-2.7Z"/><path class="cls-3" d="M27,6.07h2.6V7.14h0a2.31,2.31,0,0,1,2.17-1.3c1.53,0,2.35.77,2.35,2.5V15.1h-2.7V8.94c0-.65-.29-1-.79-1s-1,.4-1,1.28V15.1H27Z"/><path class="cls-3" d="M37.45,12.23a2.54,2.54,0,0,0,.19,1,1,1,0,0,0,1.8-.5c0-.42-.2-.82-1-1.1-2.22-.75-3.29-1.19-3.29-3.09s1.27-2.72,3.44-2.72c2.54,0,3.27,1.24,3.27,2.54v.3h-2.4V8.51c0-.78-.32-1-.88-1-.72,0-.92.35-.92.83,0,1.61,4.32.54,4.32,4,0,1.82-1.22,3-3.45,3-2.42,0-3.44-.9-3.44-2.71v-.4Z"/><path class="cls-3" d="M52.22,11c-.13,2.26-1,4.33-3.62,4.33-3.39,0-3.84-3.19-3.84-6.19S45.31,3,48.6,3C51,3,52.05,4.32,52.12,6.66H50.58c0-1.35-.46-2.51-2-2.51-2,0-2.31,2.24-2.31,5s.27,5,2.31,5c1.78,0,2-1.67,2.08-3.13Z"/><path class="cls-3" d="M54.46,10.8c0,1.37,0,3.44,1.71,3.44,1.34,0,1.52-1.41,1.52-2.07H59.1a3,3,0,0,1-3,3.17c-2.19,0-3.1-1.52-3.1-4.59,0-2.24.43-4.83,3.18-4.83s3,2.39,3,4.31v.57Zm3.23-1.1V9.21c0-1-.31-2.18-1.55-2.18-1.47,0-1.63,1.8-1.63,2.33V9.7Z"/><path class="cls-3" d="M60.45,6.16h1.33v1h0A2.38,2.38,0,0,1,64,5.92c2.35,0,2.35,1.79,2.35,2.84V15.1h-1.4V8.93c0-.69,0-1.8-1.32-1.8a1.73,1.73,0,0,0-1.77,1.8V15.1h-1.4Z"/><path class="cls-3" d="M68.34,3.55h1.4V6.16H71.3v1.1H69.74V13c0,.72.19,1,.92,1a3.91,3.91,0,0,0,.62-.05V15.1a5.38,5.38,0,0,1-1.14.1c-1.45,0-1.8-.6-1.8-1.77V7.26H67V6.16h1.3Z"/><path class="cls-3" d="M72,6.16h1.4V7.49h0c.4-.85.94-1.57,1.94-1.57A1.59,1.59,0,0,1,76,6V7.39a5.13,5.13,0,0,0-.76-.06A2,2,0,0,0,73.4,9.45V15.1H72Z"/><path class="cls-3" d="M76.47,8.86c0-2,.87-2.94,3-2.94,2.72,0,2.72,1.64,2.72,2.57v5c0,.37,0,.72.44.72a.51.51,0,0,0,.33-.08v1a4.87,4.87,0,0,1-.82.08c-.53,0-1.2,0-1.27-1.15h0a2.54,2.54,0,0,1-2.15,1.29c-1.67,0-2.44-1-2.44-2.61a2.32,2.32,0,0,1,1.69-2.47l1.88-.56c1-.32,1-.61,1-1.36S80.34,7,79.41,7a1.53,1.53,0,0,0-1.54,1.75v.08Zm4.32,1.37c-.52.55-1.75.67-2.39,1a1.43,1.43,0,0,0-.68,1.42c0,.9.32,1.54,1.27,1.54a1.82,1.82,0,0,0,1.8-1.71Z"/><rect class="cls-3" x="83.93" y="3.19" width="1.4" height="11.92"/></g></g></svg>