<svg xmlns="http://www.w3.org/2000/svg" viewBox="0 0 122.33 20.07"><defs><style>.cls-1{fill:#231f20;}.cls-2{fill:#036eb0;}</style></defs><title>shopping-centreAsset 7</title><g id="Layer_2" data-name="Layer 2"><g id="Layer_1-2" data-name="Layer 1"><path class="cls-1" d="M2.74,12.66v.42C2.74,14,3,14.69,4,14.69S5.26,14,5.26,13.25c0-2.6-5.19-1.15-5.19-5.67C.07,5.65,1.1,4,4,4s3.86,1.44,3.86,3.3v.29H5.14a2.48,2.48,0,0,0-.23-1.27A.9.9,0,0,0,4,5.92c-.71,0-1.13.43-1.13,1.31,0,2.52,5.2,1.25,5.2,5.52,0,2.74-1.53,3.84-4.13,3.84-2.07,0-4-.63-4-3.15v-.78Z"/><path class="cls-1" d="M11.44,12.22v.56c0,1.42.2,2.11,1,2.11s.93-.52,1-1.67H16c-.05,2.27-1.29,3.37-3.56,3.37C9,16.59,8.7,14.17,8.7,11.44,8.7,8.87,9.44,7,12.42,7c3.4,0,3.64,2.15,3.64,5.26Zm2-1.59c0-1.29-.17-2-.93-2s-1.05.74-1.05,2Z"/><path class="cls-1" d="M17.45,9.09H16.32V7.19h1.13V4.5h2.74V7.19h1.27v1.9H20.19v4.62c0,.64.24.85.88.85a2.58,2.58,0,0,0,.39,0v1.83a11.82,11.82,0,0,1-1.57.1c-1.9,0-2.44-.34-2.44-2.47Z"/><path class="cls-1" d="M23.15,9.09H22V7.19h1.13V4.5H25.9V7.19h1.27v1.9H25.9v4.62c0,.64.23.85.88.85a2.72,2.72,0,0,0,.39,0v1.83a12,12,0,0,1-1.58.1c-1.89,0-2.44-.34-2.44-2.47Z"/><rect class="cls-1" x="27.79" y="4.27" width="2.74" height="12.08"/><path class="cls-1" d="M34.07,12.22v.56c0,1.42.2,2.11,1,2.11s.93-.52,1-1.67h2.54c0,2.27-1.29,3.37-3.56,3.37-3.45,0-3.72-2.42-3.72-5.15,0-2.57.74-4.48,3.72-4.48,3.4,0,3.64,2.15,3.64,5.26Zm2-1.59c0-1.29-.17-2-.93-2s-1,.74-1,2Z"/><path class="cls-1" d="M39.4,7.19H42V8.28h0A2.33,2.33,0,0,1,44.28,7a2.08,2.08,0,0,1,2.25,1.4A2.35,2.35,0,0,1,48.8,7c1.55,0,2.38.78,2.38,2.54v6.85H48.44V10.1c0-.66-.29-1-.8-1s-1,.4-1,1.3v6H43.92V10.1c0-.66-.29-1-.79-1s-1,.4-1,1.3v6H39.4Z"/><path class="cls-1" d="M54.57,12.22v.56c0,1.42.2,2.11,1,2.11s.93-.52,1-1.67H59.1c-.05,2.27-1.28,3.37-3.55,3.37-3.45,0-3.72-2.42-3.72-5.15,0-2.57.74-4.48,3.72-4.48,3.4,0,3.64,2.15,3.64,5.26Zm2-1.59c0-1.29-.17-2-.93-2s-1,.74-1,2Z"/><path class="cls-1" d="M59.82,7.19h2.64V8.28h0A2.33,2.33,0,0,1,64.69,7c1.56,0,2.39.78,2.39,2.54v6.85H64.33V10.1c0-.66-.28-1-.79-1s-1,.4-1,1.3v6H59.82Z"/><path class="cls-1" d="M68.82,9.09H67.69V7.19h1.13V4.5h2.74V7.19h1.27v1.9H71.56v4.62c0,.64.24.85.88.85a2.58,2.58,0,0,0,.39,0v1.83a11.82,11.82,0,0,1-1.57.1c-1.9,0-2.44-.34-2.44-2.47Z"/><path class="cls-1" d="M84,12.2c-.14,2.29-1,4.39-3.68,4.39-3.43,0-3.89-3.24-3.89-6.28S77,4,80.34,4c2.48,0,3.51,1.39,3.58,3.76H82.36c0-1.37-.48-2.54-2-2.54C78.28,5.25,78,7.52,78,10.31s.27,5.06,2.33,5.06c1.82,0,2.07-1.69,2.12-3.17Z"/><path class="cls-1" d="M84.58,4.27H86V5.89H84.58Zm0,3H86v9.07H84.58Z"/><path class="cls-1" d="M87.89,4.64h1.43V7.28h1.57V8.4H89.32v5.82c0,.73.18,1,.93,1a3.91,3.91,0,0,0,.62-.05v1.17a6.33,6.33,0,0,1-1.15.1c-1.47,0-1.83-.61-1.83-1.79V8.4H86.57V7.28h1.32Z"/><path class="cls-1" d="M91.26,7.28h1.56l1.79,7.28h0l1.59-7.28h1.55L95.17,17c-.34,1.25-.71,2.37-2.42,2.37-.56,0-.8,0-1,0V18.16a5.71,5.71,0,0,0,.83.05,1.1,1.1,0,0,0,1.11-.88l.27-.79Z"/><path class="cls-2" d="M108.07,4.23,102.26,10l7.08,7.07c.42-1.71,1.87-8.76-1.27-12.88M112.3,0l-4,4h.48s7.71-.21,3.63,9.66a8.61,8.61,0,0,1,4.4-2.62,4.8,4.8,0,0,1,.28,3.07l0,.15s0,.06,0,.1a10,10,0,0,1-.43,1.37s-1.31-3.47-7.08,1.5l2.8,2.8,10-10Zm1,12.26s2.29-4.67-.66-8.16c0,0,7.27.36,6.65,7.41,0,0-1.53-2.6-6,.75"/></g></g></svg>