<svg xmlns="http://www.w3.org/2000/svg" viewBox="0 0 89.03 15.88"><defs><style>.cls-1{fill:#231f20;}.cls-2{fill:#00888a;}.cls-3{fill:#fd0;}.cls-4{fill:#036eb0;}</style></defs><title>shopping-centreAsset 12</title><g id="Layer_2" data-name="Layer 2"><g id="Layer_1-2" data-name="Layer 1"><polygon class="cls-1" points="0 2.29 0 14.61 7.31 14.61 7.31 12.26 2.9 12.26 2.9 9.45 6.86 9.45 6.86 7.11 2.9 7.11 2.9 4.64 7.12 4.64 7.12 2.29 0 2.29"/><path class="cls-1" d="M8.13,5.28h2.69V6.59h0a2.48,2.48,0,0,1,2.69-1.52V7.69a4,4,0,0,0-.77-.07c-1.12,0-1.85.47-1.85,1.69v5.3H8.13Z"/><path class="cls-1" d="M14.18,2.16H17V4.3H14.18Zm0,3.12H17v9.33H14.18Z"/><path class="cls-1" d="M18.33,5.28H21v1.1h0A2.36,2.36,0,0,1,23.3,5c1.58,0,2.43.79,2.43,2.58v7h-2.8V8.24c0-.67-.29-1.07-.81-1.07s-1,.42-1,1.33v6.11H18.33Z"/><path class="cls-1" d="M27,8.14A2.85,2.85,0,0,1,28,5.64,4.4,4.4,0,0,1,30.63,5c2.29,0,3.31.79,3.31,2.76v4.79a3.79,3.79,0,0,0,.33,2H31.58a4.19,4.19,0,0,1-.16-1.07h0a2.37,2.37,0,0,1-2.19,1.31c-1.57,0-2.49-.83-2.49-2.85a2.66,2.66,0,0,1,1.14-2.38,12.25,12.25,0,0,1,2.5-.75c.85-.23,1-.37,1-1.07s-.26-.93-.88-.93-1,.46-1,1.27Zm3.24,4.78c.59,0,1.12-.35,1.12-1.28,0-.77,0-1.26,0-1.64-.88.47-1.26.49-1.52.69a1.17,1.17,0,0,0-.43,1c0,.74.3,1.19.81,1.19"/><polygon class="cls-1" points="37.07 2.29 43.43 2.29 43.43 3.64 38.59 3.64 38.59 7.5 43.16 7.5 43.16 8.85 38.59 8.85 38.59 14.61 37.07 14.61 37.07 2.29"/><path class="cls-1" d="M43.85,8.16c0-2.11.9-3,3.1-3,2.82,0,2.82,1.69,2.82,2.66v5.16c0,.38,0,.74.44.74a.55.55,0,0,0,.35-.09v1a6.52,6.52,0,0,1-.85.08c-.55,0-1.24,0-1.31-1.19h0a2.62,2.62,0,0,1-2.23,1.33c-1.72,0-2.51-1-2.51-2.69a2.39,2.39,0,0,1,1.74-2.55l2-.59c1-.33,1-.62,1-1.4s-.52-1.36-1.48-1.36A1.58,1.58,0,0,0,45.3,8.07v.09Zm4.47,1.41c-.54.57-1.81.69-2.47,1.09a1.46,1.46,0,0,0-.71,1.47c0,.93.33,1.58,1.31,1.58A1.89,1.89,0,0,0,48.32,12Z"/><path class="cls-1" d="M51.56,2.29H53V4H51.56Zm0,3.07H53v9.25H51.56Z"/><path class="cls-1" d="M54.73,5.36h1.45V6.74h0c.41-.88,1-1.62,2-1.62a1.39,1.39,0,0,1,.63.11V6.64a3.61,3.61,0,0,0-.77-.07,2.05,2.05,0,0,0-1.9,2.19v5.85H54.73Z"/><path class="cls-2" d="M87.89,3.37S85.5,6.47,77.45,8.93c0,0-5.68-2.9-10.3-.35a12,12,0,0,1,1.33-3s-1.46-1-4.71-.77c0,0,2.49-1.4,3.19-1.69a7.65,7.65,0,0,1,6-.55c3.32,1,5.37,1.75,7.19,1.85s5.43.09,7.78-1.07"/><path class="cls-3" d="M68.23,5.69S66.43,4.41,62,5.31c0,0,1.36,6,4.12,9.75,0,0-.36-5.86,2.15-9.37"/><path class="cls-4" d="M66.25,15.19A22.28,22.28,0,0,1,66.84,10s5.32-4.18,10.22-.55c2.74,2,3.33,3,4.73,3S83.85,12,85,13A5.38,5.38,0,0,0,89,14.66s-2.77,1.31-4.19.85S82.68,14.26,80,15.3s-3.94.55-5.86-.42-4.33-2.3-7.9.31"/><path class="cls-4" d="M84.92.09a3.65,3.65,0,0,0-2,.13,7.69,7.69,0,0,1-2.41.9A11.12,11.12,0,0,0,78,.73a5.09,5.09,0,0,0-1.85.81,4.33,4.33,0,0,1,2.9-.2,10.4,10.4,0,0,0,2,.7L81,1.71a6.06,6.06,0,0,0,2-.93A4.14,4.14,0,0,1,84.92.09"/></g></g></svg>