<svg xmlns="http://www.w3.org/2000/svg" viewBox="0 0 163.35 25.9"><defs><style>.cls-1{fill:#231f20;}.cls-2{fill:#00b4cd;}.cls-3{fill:#008fd5;}.cls-4{fill:#80c342;}.cls-5{fill:#0db14b;}</style></defs><title>shopping-centreAsset 15</title><g id="Layer_2" data-name="Layer 2"><g id="Layer_1-2" data-name="Layer 1"><path class="cls-1" d="M159.6,12.16a1.58,1.58,0,0,1,1.72,1.61h-3.51a1.83,1.83,0,0,1,1.79-1.61m3.73,3.14s0-.39,0-.68c0-2.08-1.11-4.21-3.76-4.21-2.39,0-3.85,2-3.85,4.37A4,4,0,0,0,159.87,19a4.06,4.06,0,0,0,3.41-1.68L162,16.14a2.46,2.46,0,0,1-2.12,1.15,2,2,0,0,1-2.16-2Zm-8.16-4.79-.37,0a2.91,2.91,0,0,0-2.5,1v-.89h-1.88v8.23h1.91V15.62c0-2.22.61-3.31,2.54-3.31h.3Zm-12.55,4.22c0-1.38.7-2.57,2.18-2.57A2.28,2.28,0,0,1,147,14.73c0,1.37-.74,2.65-2.22,2.65s-2.18-1.28-2.18-2.65m-2,0a4,4,0,0,0,4,4.29,3.56,3.56,0,0,0,2.3-.79v.61h1.92V10.61H147v.74a3,3,0,0,0-2.34-.94,4,4,0,0,0-4,4.32m-6.31-4.12h-1.91V15.4c0,2.33,1.24,3.62,3.07,3.62a2.75,2.75,0,0,0,2.13-.85v.67h1.88V10.61h-1.91v4.64c0,1.2-.61,2.06-1.71,2.06s-1.55-.7-1.55-1.78Zm-5.15,4.13c0,1.38-.72,2.6-2.2,2.6s-2.2-1.22-2.2-2.6.74-2.6,2.2-2.6,2.2,1.23,2.2,2.6m-6.34,0a4,4,0,0,0,4,4.29,3.54,3.54,0,0,0,2.3-.79V22.1h1.91V10.61h-1.88v.74a2.92,2.92,0,0,0-2.33-.94,4,4,0,0,0-4,4.32M117.68,14c1.44.25,1.93.91,1.93,1.68s-.74,1.56-2.24,1.56a4.13,4.13,0,0,1-3.57-1.81l-1.36,1.37A5.78,5.78,0,0,0,117.12,19c2.84,0,4.5-1.44,4.5-3.4s-1.17-3.21-3.76-3.63l-1.17-.2c-1.43-.22-2-.79-2-1.6s.6-1.49,2.05-1.49a3.84,3.84,0,0,1,3,1.54l1.39-1.48a5.7,5.7,0,0,0-4.35-1.88c-2.23,0-4.15,1.28-4.15,3.36,0,1.93,1.33,3.11,3.53,3.49Zm-10-3.46-.37,0a2.9,2.9,0,0,0-2.5,1v-.89h-1.88v8.23h1.91V15.62c0-2.22.6-3.31,2.54-3.31h.3Zm-11.49.1H94.27V15.4c0,2.33,1.24,3.62,3.07,3.62a2.75,2.75,0,0,0,2.13-.85v.67h1.88V10.61H99.44v4.64c0,1.2-.6,2.06-1.71,2.06s-1.55-.7-1.55-1.78Zm-8.44,3.68c0-1.29.62-2.15,1.81-2.15s1.63.77,1.63,1.91v4.79H93.1V14.05c0-2.33-1.38-3.64-3.31-3.64a3.09,3.09,0,0,0-2.05.77V7.07H85.83V18.84h1.91Zm-4.37,4.57c.66,0,1,0,1,0V17.11l-.62,0c-1.08,0-1.35-.3-1.35-1.49V12.32h2V10.61h-2V8.31h-1.9v2.3h-1.2v1.71h1.2v3.61c0,2.09.69,2.93,2.84,2.93m-5.14-8.35-.37,0a2.91,2.91,0,0,0-2.5,1v-.89H73.48v8.23h1.91V15.62c0-2.22.61-3.31,2.54-3.31h.3ZM65.67,14.73c0-1.38.71-2.57,2.19-2.57a2.28,2.28,0,0,1,2.21,2.57c0,1.37-.74,2.65-2.21,2.65s-2.19-1.28-2.19-2.65m-1.94,0a4,4,0,0,0,4,4.29,3.59,3.59,0,0,0,2.3-.79v.61H72V10.61H70.07v.74a3,3,0,0,0-2.33-.94,4,4,0,0,0-4,4.32m-4.17-2.57a2.39,2.39,0,0,1,2,1.17l1.33-1.27a4,4,0,0,0-3.35-1.65,4.19,4.19,0,0,0-4.13,4.32A4.17,4.17,0,0,0,59.5,19,4.09,4.09,0,0,0,63,17.24L61.69,16a2.43,2.43,0,0,1-2.12,1.27,2.34,2.34,0,0,1-2.25-2.56,2.33,2.33,0,0,1,2.24-2.57M48,14.73c0-1.38.71-2.57,2.19-2.57a2.28,2.28,0,0,1,2.21,2.57c0,1.37-.74,2.65-2.21,2.65S48,16.1,48,14.73m-1.95,0a4,4,0,0,0,4,4.29,3.59,3.59,0,0,0,2.3-.79v.61h1.91V10.61H52.41v.74a3,3,0,0,0-2.33-.94,4,4,0,0,0-4,4.32m-8,1.51h1.84l2.72-5.16v7.76h2V7.07h-2.1L39,14,35.41,7.07h-2.1V18.84h2V11.08Z"/><path class="cls-2" d="M9.61,8.11,6.82,10.9,4.77,13,.22,17.5a.74.74,0,0,0,0,1.05l1,1a.74.74,0,0,0,1.05,0l9.39-9.4ZM15,6.8l-2-2L17.48.24a.74.74,0,0,1,1.05,0l1,1a.74.74,0,0,1,0,1.05Z"/><path class="cls-3" d="M25.66,8.42a.74.74,0,0,0,0-1l-1-1a.74.74,0,0,0-1.05,0l-9.4,9.4,2.06,2.05L19.1,15l2-2.05ZM10.9,19.08l2,2.05L8.4,25.69a.76.76,0,0,1-1.05,0l-1-1a.74.74,0,0,1,0-1.05Z"/><path class="cls-4" d="M15.78,11.66l2-2.05L15,6.8l-2-2L8.44.22a.74.74,0,0,0-1,0l-1,1a.74.74,0,0,0,0,1.05Zm9.92,6.87-1,1a.74.74,0,0,1-1.05,0L19.1,15l2-2.05,4.55,4.55a.74.74,0,0,1,0,1.05"/><path class="cls-5" d="M10.16,14.24l-2.06,2,2.8,2.79,2,2.05,4.55,4.55a.74.74,0,0,0,1.05,0l1-1a.74.74,0,0,0,0-1.05ZM6.82,10.9,4.77,13,.24,8.42a.74.74,0,0,1,0-1l1-1a.74.74,0,0,1,1.05,0Z"/></g></g></svg>