<svg xmlns="http://www.w3.org/2000/svg" viewBox="0 0 129.55 18.75"><defs><style>.cls-1{fill:#231f20;}.cls-2{fill:#00888a;}.cls-3{fill:#005173;}.cls-4{fill:#7a68ae;}</style></defs><title>shopping-centreAsset 5</title><g id="Layer_2" data-name="Layer 2"><g id="Layer_1-2" data-name="Layer 1"><path class="cls-1" d="M69.83,11.86c-.13,2.22-1,4.25-3.56,4.25C62.94,16.11,62.5,13,62.5,10S63,3.94,66.27,3.94c2.4,0,3.4,1.34,3.47,3.64H68.23c0-1.33-.46-2.46-2-2.46-2,0-2.26,2.2-2.26,4.9s.26,4.91,2.26,4.91c1.76,0,2-1.64,2.06-3.07Z"/><path class="cls-1" d="M72,11.65C72,13,72,15,73.72,15c1.32,0,1.5-1.38,1.5-2h1.37a3,3,0,0,1-3,3.12c-2.15,0-3-1.49-3-4.51,0-2.2.43-4.74,3.13-4.74s2.94,2.34,2.94,4.23v.56Zm3.19-1.09v-.47c0-1-.32-2.15-1.53-2.15-1.44,0-1.61,1.77-1.61,2.3v.32Z"/><path class="cls-1" d="M77.92,7.09h1.32v1h0A2.35,2.35,0,0,1,81.4,6.86c2.32,0,2.32,1.75,2.32,2.79v6.23H82.34V9.81c0-.67,0-1.77-1.3-1.77A1.69,1.69,0,0,0,79.3,9.81v6.07H77.92Z"/><path class="cls-1" d="M85.69,4.53h1.37V7.09h1.53V8.17H87.06v5.64c0,.71.18,1,.91,1a5.21,5.21,0,0,0,.6-.05v1.13a6,6,0,0,1-1.11.1c-1.43,0-1.77-.59-1.77-1.74V8.17H84.41V7.09h1.28Z"/><path class="cls-1" d="M89.28,7.09h1.38V8.4h0c.39-.84.92-1.54,1.9-1.54A1.53,1.53,0,0,1,93.2,7V8.3a3.4,3.4,0,0,0-.74-.07,2,2,0,0,0-1.8,2.09v5.56H89.28Z"/><path class="cls-1" d="M93.68,9.74c0-2,.85-2.88,2.95-2.88,2.67,0,2.67,1.6,2.67,2.52v4.91c0,.36,0,.7.43.7a.51.51,0,0,0,.33-.08v1a6.07,6.07,0,0,1-.81.08c-.52,0-1.18,0-1.24-1.13h0a2.49,2.49,0,0,1-2.11,1.26c-1.64,0-2.4-1-2.4-2.56a2.29,2.29,0,0,1,1.66-2.43L97,10.56c1-.31,1-.59,1-1.33s-.49-1.29-1.41-1.29a1.5,1.5,0,0,0-1.51,1.72v.08Zm4.25,1.35c-.51.54-1.73.65-2.35,1a1.42,1.42,0,0,0-.67,1.4c0,.88.31,1.51,1.24,1.51a1.79,1.79,0,0,0,1.78-1.68Z"/><rect class="cls-1" x="101.01" y="4.16" width="1.38" height="11.71"/><path class="cls-1" d="M5.17,8.23c0-1.7-.2-2.46-1.12-2.46-1.1,0-1.2,1.05-1.2,4.12,0,3.48.12,4.38,1.27,4.38s1.13-1.16,1.15-3H7.93v.41c0,2.52-.71,4.41-4.12,4.41S0,13.47,0,9.94c0-3,.16-6,4.07-6C6.5,3.93,7.83,5,7.83,7.74v.49Z"/><path class="cls-1" d="M9,9.73a2.69,2.69,0,0,1,1-2.38,4.15,4.15,0,0,1,2.48-.58c2.18,0,3.15.76,3.15,2.63V14A3.63,3.63,0,0,0,16,15.88H13.39a4.18,4.18,0,0,1-.15-1h0a2.25,2.25,0,0,1-2.08,1.25c-1.5,0-2.37-.79-2.37-2.71a2.52,2.52,0,0,1,1.09-2.26,11,11,0,0,1,2.37-.72c.81-.22,1-.35,1-1s-.25-.89-.84-.89c-.74,0-.95.45-1,1.22Zm3.08,4.54c.56,0,1.07-.33,1.07-1.21s0-1.2,0-1.56c-.84.44-1.2.46-1.45.65a1.12,1.12,0,0,0-.41,1c0,.7.28,1.13.77,1.13"/><path class="cls-1" d="M16.74,7H19.3V8.05h0a2.29,2.29,0,0,1,2.14-1.28c1.51,0,2.31.76,2.31,2.47v6.64H21.12V9.83c0-.64-.28-1-.77-1s-1,.39-1,1.26v5.81H16.74Z"/><path class="cls-1" d="M27.37,11.88v.54c0,1.38.2,2.05,1,2.05s.9-.51,1-1.62h2.46c-.05,2.19-1.25,3.26-3.45,3.26-3.34,0-3.61-2.35-3.61-5,0-2.49.73-4.35,3.61-4.35,3.3,0,3.53,2.09,3.53,5.11Zm1.92-1.55c0-1.24-.16-1.92-.9-1.92s-1,.73-1,1.92Z"/><rect class="cls-1" x="32.65" y="4.16" width="2.66" height="11.71"/><path class="cls-1" d="M36.56,9.73a2.66,2.66,0,0,1,1-2.38A4.15,4.15,0,0,1,40,6.77c2.18,0,3.15.76,3.15,2.63V14a3.63,3.63,0,0,0,.31,1.92H40.94a4.18,4.18,0,0,1-.15-1h0a2.26,2.26,0,0,1-2.09,1.25c-1.49,0-2.36-.79-2.36-2.71a2.53,2.53,0,0,1,1.08-2.26,11.3,11.3,0,0,1,2.38-.72c.81-.22,1-.35,1-1s-.25-.89-.84-.89c-.74,0-1,.45-1,1.22Zm3.08,4.54c.56,0,1.07-.33,1.07-1.21s0-1.2,0-1.56c-.84.44-1.2.46-1.45.65a1.12,1.12,0,0,0-.41,1c0,.7.28,1.13.77,1.13"/><path class="cls-1" d="M44.29,7h2.56V8.05h0A2.29,2.29,0,0,1,49,6.77c1.51,0,2.32.76,2.32,2.47v6.64H48.67V9.83c0-.64-.28-1-.77-1S47,9.2,47,10.07v5.81H44.29Z"/><path class="cls-1" d="M57,14.8h0A1.88,1.88,0,0,1,55,16.11c-1.79,0-2.74-1.28-2.74-4.59,0-2.76.39-4.75,2.57-4.75a2,2,0,0,1,2,1.2h0V4.16h2.66V15.88H57ZM56,8.71c-1,0-1,1.07-1,2.67,0,1.43,0,2.79,1,2.79.79,0,1-.95,1-2.67s-.07-2.79-1-2.79"/><polygon class="cls-2" points="116.45 0 121.37 10.18 116.51 12.38 111.94 10.15 116.45 0"/><polygon class="cls-3" points="117.54 14.29 117.54 17.33 129.55 12.34 117.54 14.29"/><polygon class="cls-4" points="116.53 13.56 108.47 11.9 116.53 15.7 116.53 13.56"/><polygon class="cls-3" points="116.52 16.1 103.85 13.47 116.52 18.75 116.52 16.1"/></g></g></svg>