<svg xmlns="http://www.w3.org/2000/svg" viewBox="0 0 125.81 20.1"><defs><style>.cls-1{fill:#231f20;}.cls-2{fill:#fd0;}.cls-3{fill:#00888a;}.cls-4{fill:#036eb0;}</style></defs><title>shopping-centreAsset 11</title><g id="Layer_2" data-name="Layer 2"><g id="Layer_1-2" data-name="Layer 1"><path class="cls-1" d="M2.77,11.71v.42c0,.92.25,1.62,1.24,1.62s1.3-.75,1.3-1.45C5.31,9.67.07,11.14.07,6.59c0-1.95,1-3.59,4-3.59S8,4.45,8,6.33v.29H5.19A2.5,2.5,0,0,0,5,5.34a.9.9,0,0,0-.87-.43c-.72,0-1.14.43-1.14,1.32,0,2.54,5.23,1.26,5.23,5.56,0,2.77-1.53,3.87-4.16,3.87-2.08,0-4-.63-4-3.17v-.78Z"/><path class="cls-1" d="M16.5,15.43H13.84v-1.1h0a2.36,2.36,0,0,1-2.22,1.33c-1.57,0-2.41-.78-2.41-2.56V6.19H12v6.3c0,.67.29,1.06.8,1.06s1-.41,1-1.32v-6H16.5Z"/><path class="cls-1" d="M17.78,6.19h2.67V7.28h0A2.38,2.38,0,0,1,22.7,6c1.57,0,2.41.79,2.41,2.56v6.92H22.34V9.13c0-.67-.29-1.06-.8-1.06s-1,.41-1,1.31v6H17.78Z"/><path class="cls-1" d="M28.5,12.49a2.61,2.61,0,0,0,.19,1A1,1,0,0,0,30.53,13c0-.43-.2-.84-1.05-1.13-2.27-.76-3.37-1.21-3.37-3.15S27.41,6,29.63,6C32.22,6,33,7.22,33,8.55v.31H30.52V8.68c0-.8-.33-1-.91-1s-.94.36-.94.85c0,1.64,4.42.55,4.42,4.13,0,1.86-1.24,3-3.53,3-2.47,0-3.52-.92-3.52-2.76v-.41Z"/><path class="cls-1" d="M34,3.24H36.8v4h0A2.15,2.15,0,0,1,39,6c1.57,0,2.4.79,2.4,2.56v6.92H38.59V9.13c0-.67-.29-1.06-.8-1.06s-1,.41-1,1.31v6H34Z"/><path class="cls-1" d="M42.7,3.1h2.77V5.22H42.7Zm0,3.09h2.77v9.24H42.7Z"/><path class="cls-1" d="M46.82,6.19h2.66V7.28h0A2.39,2.39,0,0,1,51.73,6c1.57,0,2.41.79,2.41,2.56v6.92H51.37V9.13c0-.67-.29-1.06-.8-1.06s-1,.41-1,1.31v6H46.82Z"/><path class="cls-1" d="M57.88,11.26v.57c0,1.43.2,2.13,1,2.13s.94-.53,1-1.69h2.56c-.05,2.29-1.3,3.4-3.58,3.4-3.49,0-3.76-2.45-3.76-5.19S55.86,6,58.87,6c3.43,0,3.67,2.17,3.67,5.31Zm2-1.6c0-1.3-.17-2-.94-2s-1,.75-1,2Z"/><path class="cls-2" d="M118.18,0c-1,.83-2.8,1.15-3.9,2,1.1,1,2.91,1.65,4.28,2.47a12.11,12.11,0,0,0-5.1.62c-.35,1.52,1.63,2.71,1.63,4-1.1-1.1-2.67-1.47-4-2.16-.75,1.24.16,3,.16,4.22a11.62,11.62,0,0,0-3.46-2.77c-.69,1-.5,2.64-.78,3.88h-.14c-.89-1-.94-2.78-2-3.54-1.17,1-1.78,2.84-3.09,3.45a47.26,47.26,0,0,1,.13-5.7c0-.4.77-.13.77-.13a6.87,6.87,0,0,0,.54,2.59c.55-.55.74-1.75,1.43-2.37,1,.27.7,1.61,1.73,1.82.33-.24-.23-1.85.46-2.33a27.43,27.43,0,0,1,2.4,1.75c.69-.76.06-1.94-.22-2.7,1.17-.41,2.25,1.35,3.28,1.14-.06-.62-1-1.34-.68-2.17l2.2-.44c-.62-.62-2.32-.83-2.53-1.65a3.54,3.54,0,0,0,1.84-.83c-.69-.55-2.62.43-2.35-1.15h7.42"/><path class="cls-3" d="M118.72,10.24A21,21,0,0,1,121,6c.13,1.72-1.11,3.9-.47,4.59a8.86,8.86,0,0,1,3.6-1.54c-.82.82-2.48,1.67-2.61,2.91,0,0,3.17.05,4.33,1.07,0,0-4.27-.56-5.3.47,1.31.65,2.9,1.46,3.2,2.92-1.1-.41-2.23-2-3.3-2l0,5c-.62-1-.77-2.53-1.78-4.23a12.32,12.32,0,0,0-3.23,4.91c-.09-2.57,1.76-4.24,1-5.25a12.6,12.6,0,0,0-2,1.44,8.27,8.27,0,0,0-1.41,2c1.41-3.77,2.77-3.76,3.12-4.93a8.22,8.22,0,0,0-4-.13c3.73-1.11,4.25-.49,4.8-1.31l-3.3-1.52-1.41-.43c1.41-.34,4.59,1.25,5.33.78l-1.47-4.55c2.1,2,1.33,3.38,2.64,4.07"/><path class="cls-4" d="M108.1,14.1s-1-.94-1.45-.94a12.41,12.41,0,0,1-2.83-.13,3.49,3.49,0,0,0-1.68-.17.89.89,0,0,0-.38.26v1h6.34"/><path class="cls-4" d="M101.84,15.09v1.12h9.69s0-.39-.81-.73a3.86,3.86,0,0,0-1.67-.3,13.91,13.91,0,0,1-2.45,0,7.56,7.56,0,0,0-1.33,0,2.65,2.65,0,0,1-1.32,0,4.06,4.06,0,0,0-1.42-.3,1.58,1.58,0,0,0-.69.34"/><path class="cls-4" d="M101.76,17.19v1.29h9.77s-.6-.9-1.16-.9a25,25,0,0,1-3,0c-.38-.13-.81-.52-1.45-.39a3.34,3.34,0,0,1-1.85,0c-.55-.21-1.63-.51-1.84-.34a3,3,0,0,1-.47.3"/><path class="cls-1" d="M65.58,3.24h3.1c1.06,0,3.77,0,3.77,3.5a3.27,3.27,0,0,1-3.51,3.53H67.08v5.16h-1.5ZM67.08,9h1.79c1.09,0,2-.75,2-2.37a1.93,1.93,0,0,0-2.11-2.2H67.08Z"/><rect class="cls-1" x="73.56" y="3.24" width="1.43" height="12.19"/><path class="cls-1" d="M76.48,9c0-2.08.89-3,3.07-3,2.79,0,2.79,1.67,2.79,2.63v5.1c0,.38,0,.74.44.74a.51.51,0,0,0,.34-.09v1a6.51,6.51,0,0,1-.84.08c-.54,0-1.22,0-1.29-1.18h0a2.58,2.58,0,0,1-2.2,1.32c-1.71,0-2.49-1-2.49-2.67A2.37,2.37,0,0,1,78,10.48l1.93-.58c1-.33,1-.62,1-1.38s-.51-1.35-1.46-1.35A1.56,1.56,0,0,0,77.92,9V9Zm4.42,1.4c-.53.57-1.79.69-2.44,1.08a1.46,1.46,0,0,0-.7,1.45c0,.92.33,1.57,1.3,1.57A1.86,1.86,0,0,0,80.9,12.8Z"/><polygon class="cls-1" points="84.25 6.28 89.77 6.28 89.77 7.47 85.67 14.2 89.73 14.2 89.73 15.43 84.05 15.43 84.05 14.3 88.2 7.51 84.25 7.51 84.25 6.28"/><path class="cls-1" d="M90.69,9c0-2.08.89-3,3.07-3,2.78,0,2.78,1.67,2.78,2.63v5.1c0,.38,0,.74.45.74a.53.53,0,0,0,.34-.09v1a6.72,6.72,0,0,1-.84.08c-.55,0-1.23,0-1.3-1.18h0A2.6,2.6,0,0,1,93,15.67c-1.71,0-2.49-1-2.49-2.67a2.36,2.36,0,0,1,1.72-2.52l1.93-.58c1-.33,1-.62,1-1.38s-.51-1.35-1.47-1.35A1.56,1.56,0,0,0,92.12,9V9Zm4.42,1.4c-.53.57-1.79.69-2.44,1.08A1.46,1.46,0,0,0,92,13c0,.92.32,1.57,1.29,1.57a1.87,1.87,0,0,0,1.85-1.74Z"/></g></g></svg>