<svg xmlns="http://www.w3.org/2000/svg" viewBox="0 0 165.26 19.59"><defs><style>.cls-1{fill:#231f20;}.cls-2{fill:#7a003c;}</style></defs><title>shopping-centreAsset 1</title><g id="Layer_2" data-name="Layer 2"><g id="Layer_1-2" data-name="Layer 1"><path class="cls-1" d="M4.71,6.42h0l1,5.32h-2ZM3,4.25,0,16.19H2.91l.42-2.28H6.19l.43,2.28H9.53l-3-11.94Z"/><path class="cls-1" d="M10,7.14h2.61V8.41h0a2.31,2.31,0,0,1,2.18-1.5,2.27,2.27,0,0,1,.43,0V9.48a3.88,3.88,0,0,0-.75-.07c-1.09,0-1.79.46-1.79,1.64v5.14H10Z"/><path class="cls-1" d="M16.07,7.14h2.61V8.21h0a2.31,2.31,0,0,1,2.17-1.3,2.06,2.06,0,0,1,2.23,1.38,2.31,2.31,0,0,1,2.24-1.38c1.54,0,2.36.77,2.36,2.5v6.78H25V10c0-.66-.29-1-.79-1s-1,.4-1,1.29v5.92H20.53V10c0-.66-.28-1-.78-1s-1,.4-1,1.29v5.92H16.07Z"/><path class="cls-1" d="M28.81,9.92a2.77,2.77,0,0,1,1-2.43,4.32,4.32,0,0,1,2.53-.58c2.22,0,3.21.77,3.21,2.67v4.65a3.77,3.77,0,0,0,.31,2h-2.6a3.58,3.58,0,0,1-.15-1h0A2.3,2.3,0,0,1,31,16.42c-1.52,0-2.41-.8-2.41-2.76a2.58,2.58,0,0,1,1.1-2.31,12.21,12.21,0,0,1,2.43-.73c.82-.22,1-.35,1-1s-.25-.9-.85-.9c-.76,0-1,.45-1,1.24ZM32,14.55c.57,0,1.09-.34,1.09-1.24,0-.75,0-1.22,0-1.59-.85.45-1.22.47-1.47.67a1.1,1.1,0,0,0-.42,1c0,.72.28,1.16.78,1.16"/><path class="cls-1" d="M41.3,15.08h0a1.91,1.91,0,0,1-2,1.34c-1.82,0-2.79-1.3-2.79-4.68,0-2.81.4-4.83,2.62-4.83a2.06,2.06,0,0,1,2,1.22h0V4.25h2.71V16.19H41.3Zm-1-6.2c-1,0-1,1.09-1,2.73,0,1.45,0,2.84,1.05,2.84.81,0,1-1,1-2.73,0-1.6-.07-2.84-1-2.84"/><path class="cls-1" d="M45.16,9.92a2.72,2.72,0,0,1,1-2.43,4.26,4.26,0,0,1,2.52-.58c2.23,0,3.21.77,3.21,2.67v4.65a3.67,3.67,0,0,0,.32,2H49.62a4.42,4.42,0,0,1-.15-1h0a2.31,2.31,0,0,1-2.13,1.27c-1.52,0-2.4-.8-2.4-2.76A2.58,2.58,0,0,1,46,11.35a12.11,12.11,0,0,1,2.42-.73c.82-.22,1-.35,1-1s-.25-.9-.85-.9-1,.45-1,1.24Zm3.14,4.63c.57,0,1.09-.34,1.09-1.24,0-.75,0-1.22,0-1.59-.85.45-1.22.47-1.47.67a1.13,1.13,0,0,0-.42,1c0,.72.29,1.16.79,1.16"/><rect class="cls-1" x="53" y="4.25" width="2.71" height="11.94"/><path class="cls-1" d="M59.49,12.11v.55c0,1.4.2,2.09,1,2.09s.92-.52,1-1.66H64c0,2.24-1.27,3.33-3.51,3.33-3.41,0-3.68-2.39-3.68-5.08,0-2.54.74-4.43,3.68-4.43,3.36,0,3.59,2.12,3.59,5.2Zm1.95-1.58c0-1.27-.16-1.95-.92-1.95s-1,.73-1,1.95Z"/><path class="cls-1" d="M72.7,7.34c0-1.25-.45-2.12-1.86-2.12a1.77,1.77,0,0,0-2,1.94c0,3.36,5.63,1.35,5.63,5.72,0,2.76-2,3.54-3.71,3.54-2.79,0-3.61-1.44-3.61-4h1.47c0,1.34.08,2.78,2.24,2.78A2,2,0,0,0,73,13.11c0-3.38-5.64-1.42-5.64-5.8,0-1.11.47-3.3,3.5-3.3,2.27,0,3.31,1.14,3.34,3.33Z"/><path class="cls-1" d="M75.29,4.25H76.7v4h0A2.6,2.6,0,0,1,78.89,7c2.3,0,2.3,1.79,2.3,2.84v6.36h-1.4V10c0-.69-.05-1.81-1.32-1.81A1.73,1.73,0,0,0,76.7,10v6.19H75.29Z"/><path class="cls-1" d="M85.36,7c2.59,0,3.22,2.19,3.22,4.72s-.65,4.71-3.22,4.71-3.23-2.19-3.23-4.71S82.78,7,85.36,7m1.75,4.72c0-1.94-.28-3.62-1.79-3.62S83.6,9.77,83.6,11.71s.29,3.61,1.72,3.61,1.79-1.67,1.79-3.61"/><path class="cls-1" d="M89.37,7.22h1.34V8.33h0A2,2,0,0,1,92.68,7c2.13,0,2.93,1.89,2.93,4.55,0,2-.6,4.88-2.93,4.88a2,2,0,0,1-1.87-1.25h0v4H89.37Zm3.13,8c1.3,0,1.64-1.37,1.64-3.68,0-2-.34-3.35-1.64-3.35-1.56,0-1.81,1.47-1.81,3.51,0,1.74.3,3.52,1.81,3.52"/><path class="cls-1" d="M96.59,7.22h1.34V8.33h0A2,2,0,0,1,99.91,7c2.12,0,2.92,1.89,2.92,4.55,0,2-.6,4.88-2.92,4.88A2,2,0,0,1,98,15.17h0v4H96.59Zm3.13,8c1.31,0,1.64-1.37,1.64-3.68,0-2-.33-3.35-1.64-3.35-1.55,0-1.8,1.47-1.8,3.51,0,1.74.3,3.52,1.8,3.52"/><path class="cls-1" d="M103.79,4.25h1.4v1.6h-1.4Zm0,3h1.4v9h-1.4Z"/><path class="cls-1" d="M106.34,7.22h1.34V8.28h0A2.38,2.38,0,0,1,109.89,7c2.36,0,2.36,1.79,2.36,2.84v6.36h-1.41V10c0-.69,0-1.81-1.32-1.81A1.73,1.73,0,0,0,107.75,10v6.19h-1.41Z"/><path class="cls-1" d="M119.45,15.62c0,2.67-1.23,3.64-3,3.64-.55,0-2.71,0-2.94-2.24h1.4c.07.82.7,1.14,1.44,1.14,1.81,0,1.74-1.39,1.74-2V15h0a2.13,2.13,0,0,1-2,1.21c-2.61,0-2.77-3.3-2.77-4.48,0-2.43.65-4.72,2.92-4.72a2,2,0,0,1,1.94,1.37h0V7.22h1.33Zm-4.76-3.91c0,1.45.22,3.27,1.62,3.27s1.82-1.44,1.82-3.27-.3-3.52-1.8-3.52c-1.31,0-1.64,1.38-1.64,3.52"/><path class="cls-1" d="M129.65,12.09c-.13,2.26-1,4.33-3.62,4.33-3.4,0-3.85-3.19-3.85-6.2S122.73,4,126,4c2.44,0,3.46,1.37,3.52,3.72H128c0-1.36-.47-2.51-2-2.51-2,0-2.31,2.24-2.31,5s.27,5,2.31,5c1.79,0,2-1.67,2.09-3.13Z"/><path class="cls-1" d="M130.72,4.25h1.41v1.6h-1.41Zm0,3h1.41v9h-1.41Z"/><path class="cls-1" d="M134.15,4.62h1.4v2.6h1.56V8.33h-1.56v5.75c0,.72.19,1,.92,1a3.8,3.8,0,0,0,.62-.05v1.16a6.15,6.15,0,0,1-1.13.1c-1.46,0-1.81-.6-1.81-1.78V8.33h-1.3V7.22h1.3Z"/><path class="cls-1" d="M137.76,7.22h1.54l1.77,7.19h0l1.57-7.19h1.54l-2.6,9.57c-.33,1.24-.7,2.34-2.39,2.34a9.39,9.39,0,0,1-1-.05V18A5.66,5.66,0,0,0,139,18a1.11,1.11,0,0,0,1.11-.87l.26-.79Z"/><path class="cls-2" d="M152.5,8.54a11.63,11.63,0,0,1,6.57,2.17A11.23,11.23,0,0,1,162,9.63S158,1.5,156.71,0a78.2,78.2,0,0,0-4.21,8.54"/><path class="cls-2" d="M150.45,13.55l1.43-3.45a7.91,7.91,0,0,1,6.66.78,4.48,4.48,0,0,0-1.25.84,18.94,18.94,0,0,0-6.84,1.83"/><path class="cls-2" d="M162.06,13.29s.3-.24-.16-.45a11.13,11.13,0,0,0-4-1,11.93,11.93,0,0,1,4.43-1.2,58.08,58.08,0,0,1,2.89,6.61,50.16,50.16,0,0,0-9.66.37c-3.46.71-7.38,2-7.38,2l.86-2.63c.43-.36,5.75-5.43,13-3.67"/></g></g></svg>