<svg xmlns="http://www.w3.org/2000/svg" viewBox="0 0 139.19 20.29"><defs><style>.cls-1{fill:#231f20;}.cls-2{fill:#d9531e;}.cls-3{fill:#036eb0;}</style></defs><title>shopping-centreAsset 13</title><g id="Layer_2" data-name="Layer 2"><g id="Layer_1-2" data-name="Layer 1"><polygon class="cls-1" points="0 3.81 0 15.6 6.79 15.6 6.79 13.35 2.77 13.35 2.77 3.81 0 3.81"/><path class="cls-1" d="M7.38,9.41a2.71,2.71,0,0,1,1-2.4,4.2,4.2,0,0,1,2.49-.58c2.2,0,3.17.76,3.17,2.65v4.59a3.59,3.59,0,0,0,.32,1.93H11.79a4.34,4.34,0,0,1-.15-1h0a2.26,2.26,0,0,1-2.1,1.26C8,15.83,7.13,15,7.13,13.1a2.52,2.52,0,0,1,1.09-2.27,11.14,11.14,0,0,1,2.4-.73c.81-.22,1-.35,1-1s-.25-.9-.85-.9-1,.45-1,1.23ZM10.49,14c.56,0,1.07-.33,1.07-1.22,0-.74,0-1.21,0-1.57-.85.45-1.21.46-1.46.66a1.09,1.09,0,0,0-.41,1c0,.71.28,1.14.78,1.14"/><polygon class="cls-1" points="15.08 3.81 17.75 3.81 17.75 9.87 17.78 9.87 19.78 6.66 22.72 6.66 20.16 10.26 23.04 15.6 20.11 15.6 18.45 12.23 17.75 13.17 17.75 15.6 15.08 15.6 15.08 3.81"/><path class="cls-1" d="M25,11.57v.54c0,1.39.2,2.07,1,2.07s.91-.51,1-1.64h2.48c-.05,2.21-1.26,3.29-3.47,3.29-3.37,0-3.63-2.36-3.63-5,0-2.51.73-4.38,3.63-4.38,3.32,0,3.55,2.1,3.55,5.14ZM27,10c0-1.26-.17-1.94-.91-1.94S25,8.81,25,10Z"/><path class="cls-1" d="M32.15,12.76a2.63,2.63,0,0,0,.18,1,1,1,0,0,0,1.79-.49c0-.41-.2-.81-1-1.09-2.19-.74-3.25-1.17-3.25-3.06s1.25-2.69,3.4-2.69c2.51,0,3.24,1.22,3.24,2.51v.3H34.1V9.07c0-.77-.31-1-.88-1s-.9.35-.9.83c0,1.59,4.27.53,4.27,4,0,1.79-1.2,2.92-3.41,2.92-2.4,0-3.41-.89-3.41-2.68v-.39Z"/><path class="cls-1" d="M37.2,3.68h2.68v2H37.2Zm0,3h2.68V15.6H37.2Z"/><path class="cls-1" d="M45.33,14.51h0a1.9,1.9,0,0,1-1.94,1.32c-1.8,0-2.75-1.29-2.75-4.63,0-2.77.39-4.77,2.59-4.77a2,2,0,0,1,2,1.21h0V3.81H47.9V15.6H45.33Zm-1-6.13c-1,0-1,1.07-1,2.69,0,1.44,0,2.81,1,2.81.79,0,1-1,1-2.69s-.07-2.81-1-2.81"/><path class="cls-1" d="M51.16,11.57v.54c0,1.39.19,2.07,1,2.07s.91-.51,1-1.64h2.47c0,2.21-1.25,3.29-3.47,3.29-3.36,0-3.63-2.36-3.63-5,0-2.51.73-4.38,3.63-4.38,3.32,0,3.55,2.1,3.55,5.14ZM53.09,10c0-1.26-.17-1.94-.91-1.94s-1,.73-1,1.94Z"/><path class="cls-1" d="M64.15,12.08c0,2.1-.53,3.62-3,3.62A2.51,2.51,0,0,1,58.44,13V12h1.38v.86c0,1,.38,1.62,1.36,1.62,1.32,0,1.52-.86,1.52-2.48V3.68h1.45Z"/><path class="cls-1" d="M68,6.38c2.56,0,3.19,2.17,3.19,4.66S70.57,15.7,68,15.7,64.84,13.53,64.84,11,65.49,6.38,68,6.38M69.76,11c0-1.91-.28-3.57-1.76-3.57S66.3,9.13,66.3,11s.28,3.57,1.7,3.57S69.76,13,69.76,11"/><path class="cls-1" d="M74.62,6.38c2.56,0,3.19,2.17,3.19,4.66s-.65,4.66-3.19,4.66S71.43,13.53,71.43,11s.64-4.66,3.19-4.66M76.35,11c0-1.91-.28-3.57-1.76-3.57S72.88,9.13,72.88,11s.29,3.57,1.71,3.57S76.35,13,76.35,11"/><path class="cls-1" d="M78.45,6.61h1.32v1h0A2.39,2.39,0,0,1,82,6.38c2.33,0,2.33,1.77,2.33,2.81v6.28H82.89V9.36c0-.68,0-1.79-1.3-1.79a1.71,1.71,0,0,0-1.75,1.79v6.11H78.45Z"/><path class="cls-1" d="M91.18,15.46H89.86V14.37h0a2,2,0,0,1-1.92,1.32C85.81,15.69,85,13.83,85,11c0-1.85.3-4.66,2.79-4.66a2.14,2.14,0,0,1,2,1.24h0V3.67h1.39Zm-3.09-1c1.54,0,1.79-1.46,1.79-3.47,0-1.72-.3-3.47-1.79-3.47-1.28,0-1.62,1.36-1.62,3.47s.34,3.47,1.62,3.47"/><path class="cls-1" d="M92,9.29c0-2,.86-2.91,3-2.91C97.7,6.38,97.7,8,97.7,8.93v4.93c0,.37,0,.71.43.71a.49.49,0,0,0,.33-.08v1a4.72,4.72,0,0,1-.81.08c-.52,0-1.19,0-1.25-1.14h0a2.51,2.51,0,0,1-2.13,1.28c-1.66,0-2.42-1-2.42-2.58a2.28,2.28,0,0,1,1.67-2.44l1.87-.56c1-.32,1-.6,1-1.34s-.5-1.31-1.43-1.31a1.51,1.51,0,0,0-1.51,1.74v.08Zm4.28,1.35c-.52.55-1.74.66-2.37,1a1.42,1.42,0,0,0-.67,1.41c0,.89.31,1.52,1.25,1.52a1.81,1.81,0,0,0,1.79-1.69Z"/><rect class="cls-1" x="98.92" y="3.68" width="1.39" height="11.79"/><path class="cls-1" d="M107.3,15.47H106V14.42h0a2.37,2.37,0,0,1-2.14,1.28c-2.33,0-2.33-1.77-2.33-2.81V6.61h1.38v6.11c0,.68.05,1.79,1.31,1.79a1.71,1.71,0,0,0,1.75-1.79V6.61h1.39Z"/><path class="cls-1" d="M108.37,6.61h1.32V7.7h0a2,2,0,0,1,1.92-1.32c2.1,0,2.89,1.87,2.89,4.49,0,2-.6,4.82-2.89,4.82a2,2,0,0,1-1.85-1.23h0v3.91h-1.39Zm3.09,7.9c1.28,0,1.62-1.36,1.62-3.64,0-1.94-.34-3.3-1.62-3.3-1.54,0-1.79,1.45-1.79,3.47,0,1.72.3,3.47,1.79,3.47"/><path class="cls-2" d="M122.25,10.18a1.08,1.08,0,0,1-.27.1l-.19,0a1.53,1.53,0,0,1-.57-.12,1.49,1.49,0,0,1-.3-.18c-.1-.07-.18-.15-.27-.22a2.28,2.28,0,0,0-.62-.44.93.93,0,0,0-.69.05,2.19,2.19,0,0,0-.38.2.09.09,0,0,1-.14-.07v0a1.54,1.54,0,0,1,.06-.38,1.79,1.79,0,0,1,.77-1,1.34,1.34,0,0,1,1.66,0,1.72,1.72,0,0,0,.7.17.42.42,0,0,0,.31-.12s0-.06,0-.07a.65.65,0,0,1-.18,0,1.43,1.43,0,0,1-.51-.29,1.86,1.86,0,0,1-.23-.26c-.06-.09-.12-.2-.18-.3a2.19,2.19,0,0,0-.45-.6.93.93,0,0,0-.67-.17,2.14,2.14,0,0,0-.43.07c-.08,0-.13,0-.11-.1v0A1.23,1.23,0,0,1,119.7,6a1.83,1.83,0,0,1,1-.68,1.33,1.33,0,0,1,1.58.49,1.67,1.67,0,0,0,.62.38.4.4,0,0,0,.32,0s0-.06,0-.07l-.16-.1a1.28,1.28,0,0,1-.39-.43,1.48,1.48,0,0,1-.14-.32,3.38,3.38,0,0,1-.08-.34,2.33,2.33,0,0,0-.25-.71.92.92,0,0,0-.58-.37,2.91,2.91,0,0,0-.43-.07c-.08,0-.11-.06-.07-.13l0,0a1.14,1.14,0,0,1,.27-.28A1.82,1.82,0,0,1,122.63,3,1.35,1.35,0,0,1,124,4a1.58,1.58,0,0,0,.46.55.45.45,0,0,0,.32.08s0,0,0-.07l-.12-.14a1.36,1.36,0,0,1-.24-.54,1,1,0,0,1,0-.34c0-.12,0-.23,0-.35a2.17,2.17,0,0,0,0-.76,1,1,0,0,0-.44-.53,2.27,2.27,0,0,0-.39-.19c-.08,0-.09-.1,0-.15a1.29,1.29,0,0,1,.37-.19,1.79,1.79,0,0,1,1.24,0,1.32,1.32,0,0,1,1,1.33,1.6,1.6,0,0,0,.28.67.38.38,0,0,0,.27.17s0,0,0-.06a1.3,1.3,0,0,1-.08-.17,1.64,1.64,0,0,1-.06-.59,1.3,1.3,0,0,1,.08-.34,2.69,2.69,0,0,1,.13-.32,2.44,2.44,0,0,0,.22-.72.93.93,0,0,0-.26-.64,1.81,1.81,0,0,0-.31-.31c-.06,0,0-.12,0-.14h0a1.05,1.05,0,0,1,.37-.07,1.83,1.83,0,0,1,1.17.44,1.34,1.34,0,0,1,.53,1.57,1.49,1.49,0,0,0,.25,1.09l.11.11a6.75,6.75,0,0,0-6.69,6.75Z"/><path class="cls-2" d="M135.76,10.16a.79.79,0,0,1,.27-.1.58.58,0,0,1,.19,0,1.38,1.38,0,0,1,.57.12,1.49,1.49,0,0,1,.3.18l.27.22A2.07,2.07,0,0,0,138,11a.88.88,0,0,0,.69,0,2.19,2.19,0,0,0,.38-.2c.07-.05.13,0,.13.07v0a1.54,1.54,0,0,1-.06.38,1.77,1.77,0,0,1-.78,1,1.34,1.34,0,0,1-1.65,0,1.62,1.62,0,0,0-.71-.17.4.4,0,0,0-.3.12s0,.06,0,.06a.53.53,0,0,1,.18,0,1.35,1.35,0,0,1,.51.29.94.94,0,0,1,.23.26,2.2,2.2,0,0,1,.19.3,2,2,0,0,0,.45.59.94.94,0,0,0,.67.18,3.21,3.21,0,0,0,.43-.07c.08,0,.13,0,.11.1v0a1.33,1.33,0,0,1-.17.34,1.88,1.88,0,0,1-1,.69,1.34,1.34,0,0,1-1.58-.49,1.55,1.55,0,0,0-.62-.38.44.44,0,0,0-.32,0,0,0,0,0,0,0,.08.65.65,0,0,1,.15.1,1.3,1.3,0,0,1,.4.43,1.83,1.83,0,0,1,.14.32,3.38,3.38,0,0,1,.08.34,2.25,2.25,0,0,0,.25.71.92.92,0,0,0,.58.37,1.91,1.91,0,0,0,.43.06.09.09,0,0,1,.07.14l0,0a1,1,0,0,1-.27.27,1.85,1.85,0,0,1-1.2.34,1.35,1.35,0,0,1-1.35-1,1.61,1.61,0,0,0-.47-.55.37.37,0,0,0-.31-.08c-.05,0,0,0,0,.07a.87.87,0,0,1,.12.14,1.55,1.55,0,0,1,.24.53,1.42,1.42,0,0,1,0,.35c0,.12,0,.23,0,.35a2.11,2.11,0,0,0,0,.75.93.93,0,0,0,.44.54,3.38,3.38,0,0,0,.39.19c.08,0,.09.1,0,.15a1.35,1.35,0,0,1-.36.19,1.85,1.85,0,0,1-1.24-.05,1.33,1.33,0,0,1-1-1.33,1.75,1.75,0,0,0-.28-.67.42.42,0,0,0-.27-.18s0,0,0,.07a.67.67,0,0,1,.08.17,1.61,1.61,0,0,1,.06.58,1.21,1.21,0,0,1-.08.34,3.05,3.05,0,0,1-.13.32A2.53,2.53,0,0,0,131,19a.94.94,0,0,0,.26.65,1.71,1.71,0,0,0,.31.3c.06.05.05.12,0,.15h0a1.19,1.19,0,0,1-.37.06,1.81,1.81,0,0,1-1.17-.43,1.34,1.34,0,0,1-.53-1.57,1.49,1.49,0,0,0-.25-1.09l-.11-.11a6.75,6.75,0,0,0,6.69-6.75Z"/><path class="cls-3" d="M119.55,13.89a10,10,0,0,1-.51-1.72,4,4,0,0,0,1.57.31,3.6,3.6,0,0,0,1.84-.46,4,4,0,0,1,3.82,0,3.6,3.6,0,0,0,1.84.46,4.19,4.19,0,0,0,.89-.09v1.54a4.19,4.19,0,0,1-.89.09,3.7,3.7,0,0,1-1.84-.45,3.9,3.9,0,0,0-3.82,0,3.7,3.7,0,0,1-1.84.45,4.4,4.4,0,0,1-1.06-.13m2,3.12a10.5,10.5,0,0,1-1.11-1.45h.22a3.7,3.7,0,0,0,1.84-.46,4,4,0,0,1,3.82,0,3.7,3.7,0,0,0,1.84.46,4.18,4.18,0,0,0,.89-.1V17a4.18,4.18,0,0,1-.89.1,3.6,3.6,0,0,1-1.84-.46,4,4,0,0,0-3.82,0,3.13,3.13,0,0,1-1,.36m7.5,3.28a9.91,9.91,0,0,1-4.08-.86,10.06,10.06,0,0,1-2.26-1.36,4,4,0,0,1,3.61.12,3.6,3.6,0,0,0,1.84.46,4.18,4.18,0,0,0,.89-.1Zm-5.76-10.12a2.85,2.85,0,0,0-.79.34,3.6,3.6,0,0,1-1.84.46,3.75,3.75,0,0,1-1.76-.41v-.39Zm5.76.7a3.94,3.94,0,0,1-2.73-.36,2.8,2.8,0,0,0-.8-.34H129Z"/><path class="cls-3" d="M138.46,6.46a9,9,0,0,1,.5,1.72,3.74,3.74,0,0,0-1.56-.32,3.6,3.6,0,0,0-1.84.46,4,4,0,0,1-3.82,0,3.6,3.6,0,0,0-1.84-.46,4.35,4.35,0,0,0-.9.1V6.42a3.76,3.76,0,0,1,.9-.1,3.6,3.6,0,0,1,1.84.46,4,4,0,0,0,3.82,0,3.6,3.6,0,0,1,1.84-.46,3.94,3.94,0,0,1,1.06.14m-2-3.13a10.25,10.25,0,0,1,1.1,1.45h-.21a3.6,3.6,0,0,0-1.84.46,4,4,0,0,1-3.82,0,3.6,3.6,0,0,0-1.84-.46,4.36,4.36,0,0,0-.9.09V3.33a4.36,4.36,0,0,1,.9-.09,3.7,3.7,0,0,1,1.84.45,4,4,0,0,0,3.82,0,3.3,3.3,0,0,1,.95-.36M129,0a9.79,9.79,0,0,1,3.35.57,10.34,10.34,0,0,1,3,1.69,3.74,3.74,0,0,1-1.72.38,3.62,3.62,0,0,1-1.91-.49,3.6,3.6,0,0,0-1.84-.45,4.36,4.36,0,0,0-.9.09Zm5.77,10.18a3.19,3.19,0,0,0,.79-.35,4,4,0,0,1,3.59-.05c0,.13,0,.26,0,.4ZM129,9.47a4.36,4.36,0,0,1,.9-.09,3.7,3.7,0,0,1,1.84.45,3.19,3.19,0,0,0,.79.35H129Z"/><path class="cls-2" d="M122.78,10.17A6.22,6.22,0,0,1,129,4v6.22Z"/><path class="cls-2" d="M135.22,10.18A6.22,6.22,0,0,1,129,16.4V10.18Z"/></g></g></svg>