<svg xmlns="http://www.w3.org/2000/svg" xmlns:xlink="http://www.w3.org/1999/xlink" viewBox="0 0 182.26 20.6"><defs><style>.cls-1{fill:none;}.cls-2{clip-path:url(#clip-path);}.cls-3{fill:#00bfe4;}.cls-4{fill:#036eb0;}.cls-5{fill:#f47920;}.cls-6{fill:#231f20;}</style><clipPath id="clip-path" transform="translate(0)"><rect id="SVGID" class="cls-1" width="182.26" height="20.6"/></clipPath></defs><title>shopping-centreAsset 6</title><g id="Layer_2" data-name="Layer 2"><g id="Layer_1-2" data-name="Layer 1"><g class="cls-2"><path class="cls-3" d="M172.58,14.89l-.55-.34a12.52,12.52,0,0,0-1.83-.94,5.21,5.21,0,0,0-2-.41H168a7.28,7.28,0,0,0-1.83.23l-.17.06c.33.28.67.59,1.07.95l.06.07h0a2.91,2.91,0,0,1,.85-.12,6.38,6.38,0,0,1,1.09.12,10.8,10.8,0,0,1,3.39,1.29l.4.21a15,15,0,0,0,2.77,1.26,6.77,6.77,0,0,0,.69.16l.78-.74a6.57,6.57,0,0,1-1.12-.16,12.53,12.53,0,0,1-3.46-1.62" transform="translate(0)"/></g><path class="cls-4" d="M172.71,16.45l-.42-.2a10.09,10.09,0,0,0-3.26-1,5.12,5.12,0,0,0-.72-.05,3.64,3.64,0,0,0-.48,0c.63.69,1.28,1.47,1.93,2.19.38.41,1.9,1.87,2.22,2.3a4.15,4.15,0,0,0,.83.91s.65-.7.95-1c.71-.64,1.48-1.23,1.62-1.35s.49-.41.73-.62a4.37,4.37,0,0,1-.5-.09,14.51,14.51,0,0,1-2.9-1.12" transform="translate(0)"/><path class="cls-5" d="M168.23,12.61l.47,0a9.25,9.25,0,0,1,3.82,1l.45.21A11.64,11.64,0,0,0,176.32,15a8.11,8.11,0,0,0,.86.05,6.59,6.59,0,0,0,1-.08,3,3,0,0,0,.76-.2c.57-.61,1.14-1.23,1.74-1.83s1-1.27,1.56-1.81c.1-.09-5.58-5.12-6.24-5.66-.26-.21-.89-.93-1.28-1.21,0,.72,0,1.44,0,2.15a20.32,20.32,0,0,0,0,2.21,11.28,11.28,0,0,0,.54,2.13,5.34,5.34,0,0,0,1.34,2.59,2.9,2.9,0,0,0,.71.49,2,2,0,0,0,.41.14,3.55,3.55,0,0,1-1.32-.35,5.22,5.22,0,0,1-1.1-.69,7.25,7.25,0,0,1-1.87-2.07,7.86,7.86,0,0,1-.74-2.9,25.14,25.14,0,0,1-.25-4.75,28.61,28.61,0,0,1,.17-2.93.65.65,0,0,1,.11-.31c-.46.08-1.22.94-2.07,1.73a51.07,51.07,0,0,0-4.36,4.7c-.39.45-3.29,4.43-3,4.73.95.87,1.62,1.42,2.37,2.07l.35-.16a7.75,7.75,0,0,1,2.15-.46" transform="translate(0)"/><polygon class="cls-6" points="0 4.76 3.22 4.76 5.52 12.51 5.55 12.51 5.55 4.76 8.16 4.76 8.16 16.68 4.99 16.68 2.54 8.47 2.5 8.47 2.5 16.68 0 16.68 0 4.76"/><path class="cls-6" d="M8.91,12.19c0-2.7.6-4.77,3.72-4.77,3.3,0,3.72,2,3.72,4.72s-.6,4.77-3.72,4.77c-3.31,0-3.72-2-3.72-4.72m3.73-3c-.8,0-1,.78-1,3s.23,3,1,3,1-.75,1-3-.16-3-1-3" transform="translate(0)"/><path class="cls-6" d="M17,7.65h2.61V8.92h0a2.39,2.39,0,0,1,2.6-1.47V10a3.81,3.81,0,0,0-.75-.07c-1.08,0-1.78.45-1.78,1.63v5.12H17Z" transform="translate(0)"/><path class="cls-6" d="M24,9.52H22.87V7.65H24V5h2.7V7.65h1.25V9.52H26.69v4.55c0,.64.23.84.87.84a2.58,2.58,0,0,0,.38,0v1.81a13.59,13.59,0,0,1-1.55.1c-1.87,0-2.4-.34-2.4-2.44Z" transform="translate(0)"/><path class="cls-6" d="M28.5,4.77h2.71V8.64h0a2.09,2.09,0,0,1,2.07-1.22c1.53,0,2.35.77,2.35,2.5v6.76H33V10.52c0-.65-.29-1-.79-1s-1,.4-1,1.28v5.91H28.5Z" transform="translate(0)"/><path class="cls-6" d="M41.15,7.65h2.5v8.71c0,2-.9,3.38-3.75,3.38-2.62,0-3.39-1.15-3.39-2.5H39a.86.86,0,0,0,.29.55A1.08,1.08,0,0,0,40,18c.9,0,1.09-.59,1.09-2.31v-.55h0a2,2,0,0,1-2.13,1.34c-2,0-2.54-1.94-2.54-4.42,0-2.14.29-4.62,2.64-4.62a2.07,2.07,0,0,1,2.13,1.45h0ZM40,14.49c.73,0,1-.53,1-2.57,0-1.65-.2-2.43-1-2.43s-1,1-1,2.52c0,1.88.25,2.48,1,2.48" transform="translate(0)"/><path class="cls-6" d="M44.48,10.42A2.75,2.75,0,0,1,45.5,8,4.26,4.26,0,0,1,48,7.42c2.22,0,3.2.76,3.2,2.67v4.63a3.68,3.68,0,0,0,.32,2h-2.6a4,4,0,0,1-.15-1h0a2.28,2.28,0,0,1-2.11,1.27c-1.52,0-2.41-.8-2.41-2.75a2.6,2.6,0,0,1,1.1-2.31,12.11,12.11,0,0,1,2.42-.73c.82-.22,1-.35,1-1s-.25-.9-.85-.9-1,.45-1,1.23ZM47.62,15c.57,0,1.08-.33,1.08-1.23,0-.75,0-1.22,0-1.59-.85.45-1.22.47-1.47.67a1.12,1.12,0,0,0-.41,1c0,.72.28,1.15.78,1.15" transform="translate(0)"/><path class="cls-6" d="M52.83,9.52H51.71V7.65h1.12V5h2.7V7.65h1.25V9.52H55.53v4.55c0,.64.23.84.87.84a2.58,2.58,0,0,0,.38,0v1.81a13.44,13.44,0,0,1-1.55.1c-1.87,0-2.4-.34-2.4-2.44Z" transform="translate(0)"/><path class="cls-6" d="M59.58,12.61v.55c0,1.4.2,2.08,1,2.08s.91-.52,1-1.65h2.5c0,2.23-1.26,3.32-3.5,3.32-3.4,0-3.67-2.39-3.67-5.07s.73-4.42,3.67-4.42c3.35,0,3.59,2.12,3.59,5.19Zm2-1.57c0-1.27-.16-1.95-.91-1.95s-1,.73-1,1.95Z" transform="translate(0)"/><path class="cls-6" d="M73.24,7.8c0-1.25-.45-2.12-1.85-2.12a1.77,1.77,0,0,0-2,1.94C69.42,11,75,9,75,13.32c0,2.75-2,3.54-3.7,3.54-2.79,0-3.6-1.44-3.6-4H69.2c0,1.33.09,2.77,2.24,2.77a2,2,0,0,0,2.07-2.11c0-3.37-5.62-1.41-5.62-5.78,0-1.1.46-3.29,3.48-3.29,2.27,0,3.31,1.13,3.34,3.32Z" transform="translate(0)"/><path class="cls-6" d="M75.88,4.71h1.4v4h0a2.59,2.59,0,0,1,2.15-1.25c2.31,0,2.31,1.78,2.31,2.84v6.33H80.36V10.45c0-.68,0-1.8-1.31-1.8a1.73,1.73,0,0,0-1.77,1.8v6.17h-1.4Z" transform="translate(0)"/><path class="cls-6" d="M85.72,7.45c2.58,0,3.22,2.18,3.22,4.7s-.65,4.71-3.22,4.71-3.22-2.19-3.22-4.71.65-4.7,3.22-4.7m1.75,4.7c0-1.93-.28-3.6-1.79-3.6S84,10.22,84,12.15s.28,3.61,1.71,3.61,1.79-1.67,1.79-3.61" transform="translate(0)"/><path class="cls-6" d="M89.69,7.68H91v1.1h0A2,2,0,0,1,93,7.45c2.12,0,2.92,1.88,2.92,4.54,0,2-.6,4.87-2.92,4.87a2,2,0,0,1-1.87-1.25h0v3.95h-1.4Zm3.12,8c1.3,0,1.63-1.37,1.63-3.67,0-2-.33-3.34-1.63-3.34-1.55,0-1.8,1.47-1.8,3.5,0,1.74.3,3.51,1.8,3.51" transform="translate(0)"/><path class="cls-6" d="M96.69,7.68H98v1.1h0A2,2,0,0,1,100,7.45c2.12,0,2.92,1.88,2.92,4.54,0,2-.6,4.87-2.92,4.87a2,2,0,0,1-1.87-1.25h0v3.95H96.69Zm3.12,8c1.3,0,1.64-1.37,1.64-3.67,0-2-.34-3.34-1.64-3.34-1.55,0-1.8,1.47-1.8,3.5,0,1.74.3,3.51,1.8,3.51" transform="translate(0)"/><path class="cls-6" d="M103.77,4.71h1.4v1.6h-1.4Zm0,3h1.4v8.94h-1.4Z" transform="translate(0)"/><path class="cls-6" d="M106.28,7.68h1.34V8.73h0a2.4,2.4,0,0,1,2.17-1.28c2.35,0,2.35,1.78,2.35,2.83v6.34h-1.4V10.45c0-.68,0-1.8-1.32-1.8a1.72,1.72,0,0,0-1.76,1.8v6.17h-1.41Z" transform="translate(0)"/><path class="cls-6" d="M119.18,16.06c0,2.67-1.24,3.63-3,3.63-.55,0-2.7,0-2.93-2.23h1.4c.06.82.7,1.13,1.43,1.13,1.8,0,1.74-1.38,1.74-2V15.42h0a2.12,2.12,0,0,1-2,1.2c-2.61,0-2.77-3.28-2.77-4.47,0-2.42.65-4.7,2.92-4.7a2,2,0,0,1,1.93,1.37h0V7.68h1.34Zm-4.76-3.91c0,1.45.22,3.27,1.62,3.27s1.82-1.43,1.82-3.27-.3-3.5-1.8-3.5c-1.3,0-1.64,1.37-1.64,3.5" transform="translate(0)"/><path class="cls-6" d="M130,12.54c-.13,2.25-1,4.32-3.62,4.32-3.39,0-3.84-3.19-3.84-6.19s.55-6.19,3.84-6.19c2.44,0,3.45,1.37,3.52,3.7h-1.53c0-1.35-.47-2.5-2-2.5-2,0-2.3,2.24-2.3,5s.27,5,2.3,5c1.79,0,2-1.67,2.09-3.12Z" transform="translate(0)"/><path class="cls-6" d="M132.09,12.32c0,1.37,0,3.44,1.72,3.44,1.33,0,1.51-1.4,1.51-2.07h1.41a3,3,0,0,1-3,3.17c-2.18,0-3.1-1.52-3.1-4.59,0-2.23.43-4.82,3.19-4.82s3,2.39,3,4.3v.57Zm3.23-1.1v-.48c0-1-.31-2.19-1.55-2.19-1.46,0-1.63,1.8-1.63,2.34v.33Z" transform="translate(0)"/><path class="cls-6" d="M137.61,7.68h1.33V8.73h0a2.39,2.39,0,0,1,2.17-1.28c2.35,0,2.35,1.78,2.35,2.83v6.34h-1.4V10.45c0-.68,0-1.8-1.32-1.8a1.73,1.73,0,0,0-1.77,1.8v6.17h-1.4Z" transform="translate(0)"/><path class="cls-6" d="M145.17,5.08h1.4v2.6h1.55v1.1h-1.55v5.74c0,.72.18,1,.91,1a3.91,3.91,0,0,0,.62,0v1.15a5.34,5.34,0,0,1-1.13.1c-1.45,0-1.8-.6-1.8-1.76V8.78h-1.31V7.68h1.31Z" transform="translate(0)"/><path class="cls-6" d="M148.65,7.68h1.4V9h0c.4-.85.93-1.57,1.93-1.57a1.37,1.37,0,0,1,.62.1V8.92a3.44,3.44,0,0,0-.75-.07A2,2,0,0,0,150.05,11v5.65h-1.4Z" transform="translate(0)"/><path class="cls-6" d="M154.12,12.32c0,1.37,0,3.44,1.72,3.44,1.34,0,1.52-1.4,1.52-2.07h1.4a3,3,0,0,1-3,3.17c-2.19,0-3.1-1.52-3.1-4.59,0-2.23.43-4.82,3.18-4.82s3,2.39,3,4.3v.57Zm3.24-1.1v-.48c0-1-.32-2.19-1.55-2.19-1.47,0-1.64,1.8-1.64,2.34v.33Z" transform="translate(0)"/></g></g></svg>