<svg xmlns="http://www.w3.org/2000/svg" viewBox="0 0 67.85 24.63"><defs><style>.cls-1{fill:#231f20;}</style></defs><title>shopping-centreAsset 3</title><g id="Layer_2" data-name="Layer 2"><g id="Layer_1-2" data-name="Layer 1"><path class="cls-1" d="M38.9,0a6.35,6.35,0,0,0-6.29,6.25,6.29,6.29,0,0,0,6.29,6.28,6.39,6.39,0,0,0,2.92-.7l.07,0V9.6l-.4.25a4.39,4.39,0,0,1-6.94-3.6A4.43,4.43,0,0,1,38.9,1.86a4.48,4.48,0,0,1,2.76,1l.22.15V.75l-.07,0A5.93,5.93,0,0,0,38.9,0M65.84,2.59,63.19,6.33,60.57,2.59h-2s3.8,5.12,3.85,5.2v4.59H64V7.79c0-.08,3.85-5.2,3.85-5.2ZM49.36,4h2.93v8.34h1.59V4h2.93V2.59H49.36Zm-25.31,6.8H21.93V4.13h2.12a3.36,3.36,0,1,1,0,6.71m0-8.25H20.34v9.77h3.71a4.91,4.91,0,0,0,5-4.89,5,5,0,0,0-5-4.89m20.86,9.79H46.5V2.59H44.91Zm-29.27,0h1.59V2.59H15.64ZM6,7.11,1.69.16H0v12.2H1.85V3.93L5.14,9.28l.11.17,0,.06H6.62l.14-.23,3.29-5.35v8.43H11.9V.15H10.22L6,7.11"/><path class="cls-1" d="M16.74,22.86v-.47H13.82V16.84h-.51v6Zm1.78-5a.36.36,0,0,0,.36-.36.36.36,0,0,0-.36-.36.36.36,0,0,0-.36.36.37.37,0,0,0,.36.36m.24.68h-.47v4.36h.47Zm2.53,4.36V18.92h.88V18.5h-.88v-.4c0-.6.26-.94.76-.94a.83.83,0,0,1,.56.22l.22-.32a1.11,1.11,0,0,0-.83-.31c-.73,0-1.18.51-1.18,1.35v.4H20.1v.42h.72v3.94Zm4.15.11a2.24,2.24,0,0,0,1.7-.71L26.9,22a1.93,1.93,0,0,1-1.42.6,1.7,1.7,0,0,1-1.71-1.73h3.65V20.7a2.1,2.1,0,0,0-2.06-2.31,2.16,2.16,0,0,0-2.1,2.28A2.16,2.16,0,0,0,25.44,23m1.5-2.51H23.77a1.64,1.64,0,0,1,1.58-1.66,1.6,1.6,0,0,1,1.59,1.66m6.83,2.4c-.44-.4-.81-.74-1.16-1.1a8.21,8.21,0,0,0,.79-1.61L33,20a5.79,5.79,0,0,1-.68,1.46c-.27-.27-.53-.57-.81-.88a11.52,11.52,0,0,1-.77-.95c.77-.41,1.56-.81,1.56-1.71A1.13,1.13,0,0,0,31,16.75a1.38,1.38,0,0,0-1.43,1.37,2.68,2.68,0,0,0,.5,1.38,2.06,2.06,0,0,0-1.35,1.82A1.64,1.64,0,0,0,30.54,23a2.3,2.3,0,0,0,1.76-.83c.28.28.56.54.77.72Zm-3.2-.31a1.23,1.23,0,0,1-1.32-1.25,1.65,1.65,0,0,1,1-1.45,11.92,11.92,0,0,0,.81,1c.18.21.53.58.9,1a1.9,1.9,0,0,1-1.43.73m-.49-4.42a.93.93,0,0,1,.93-1,.72.72,0,0,1,.79.76c0,.67-.62,1-1.31,1.37a2.36,2.36,0,0,1-.41-1.15M37.17,23c1.63,0,2.14-.93,2.14-1.71,0-2.24-3.61-1.4-3.61-2.94,0-.65.61-1.11,1.41-1.11a2.15,2.15,0,0,1,1.72.76l.35-.38a2.6,2.6,0,0,0-2-.85c-1.09,0-2,.62-2,1.61,0,2.1,3.61,1.18,3.61,2.95,0,.51-.35,1.2-1.59,1.2a2.44,2.44,0,0,1-1.87-.88L35,22a2.77,2.77,0,0,0,2.2,1m4.59,0a1,1,0,0,0,.74-.27l-.18-.37a.68.68,0,0,1-.49.21c-.31,0-.45-.24-.45-.59v-3h.88V18.5h-.88V17.31H40.9V18.5h-.72v.42h.72V22c0,.59.28.95.86.95m1.69,1.59a1.7,1.7,0,0,0,.46.07A1.16,1.16,0,0,0,45,23.81l2.25-5.31h-.53l-1.57,3.81L43.6,18.5h-.53l1.84,4.39-.34.78c-.17.41-.37.53-.66.53a1.22,1.22,0,0,1-.38-.07ZM49,16.84h-.47v6H49ZM52.84,23a2.24,2.24,0,0,0,1.7-.71L54.3,22a1.93,1.93,0,0,1-1.42.6,1.7,1.7,0,0,1-1.71-1.73h3.65V20.7a2.1,2.1,0,0,0-2.06-2.31,2.16,2.16,0,0,0-2.1,2.28A2.16,2.16,0,0,0,52.84,23m1.5-2.51H51.17a1.64,1.64,0,0,1,1.58-1.66,1.6,1.6,0,0,1,1.59,1.66"/></g></g></svg>