<svg xmlns="http://www.w3.org/2000/svg" viewBox="0 0 145.81 22.94"><defs><style>.cls-1{fill:#231f20;}.cls-2{fill:#ffc425;}.cls-3{fill:#f08b1d;}.cls-4{fill:#566c11;}.cls-5{fill:#009eb8;}</style></defs><title>shopping-centreAsset 2</title><g id="Layer_2" data-name="Layer 2"><g id="Layer_1-2" data-name="Layer 1"><polygon class="cls-1" points="7.13 4.77 5.69 12.71 5.66 12.71 4.17 4.77 0 4.77 0 16.86 2.54 16.86 2.54 7.45 2.58 7.45 4.52 16.86 6.72 16.86 8.57 7.45 8.61 7.45 8.61 16.86 11.25 16.86 11.25 4.77 7.13 4.77"/><path class="cls-1" d="M15.11,12.73v.56c0,1.42.21,2.12,1,2.12s.94-.53,1-1.68h2.54c0,2.27-1.28,3.37-3.55,3.37-3.46,0-3.73-2.42-3.73-5.15,0-2.57.75-4.49,3.73-4.49,3.4,0,3.64,2.16,3.64,5.27Zm2-1.59c0-1.29-.17-2-.94-2s-1.05.74-1.05,2Z"/><path class="cls-1" d="M20.59,7.7h2.64V8.79h0a2.34,2.34,0,0,1,2.2-1.33c1.56,0,2.39.78,2.39,2.55v6.85H25.11V10.61c0-.66-.29-1-.8-1s-1,.41-1,1.31v6H20.59Z"/><path class="cls-1" d="M29,10.51a2.78,2.78,0,0,1,1-2.45,4.34,4.34,0,0,1,2.56-.6c2.25,0,3.25.78,3.25,2.71v4.71a3.63,3.63,0,0,0,.33,2H33.49a4.43,4.43,0,0,1-.15-1h0a2.33,2.33,0,0,1-2.15,1.29c-1.55,0-2.44-.81-2.44-2.79A2.62,2.62,0,0,1,29.83,12a12.53,12.53,0,0,1,2.46-.75c.83-.22,1-.35,1-1.05s-.25-.91-.86-.91-1,.46-1,1.25Zm3.19,4.69c.57,0,1.1-.33,1.1-1.25,0-.76,0-1.24,0-1.61-.86.46-1.23.48-1.49.68a1.13,1.13,0,0,0-.42,1c0,.72.29,1.16.8,1.16"/><path class="cls-1" d="M37.14,4.64h2.74v2.1H37.14Zm0,3.06h2.74v9.16H37.14Z"/><polygon class="cls-1" points="43.77 4.72 46.28 4.72 48.7 14.3 48.73 14.3 51.16 4.72 53.66 4.72 53.66 16.81 52.17 16.81 52.17 6.24 52.14 6.24 49.46 16.81 47.97 16.81 45.3 6.24 45.26 6.24 45.26 16.81 43.77 16.81 43.77 4.72"/><path class="cls-1" d="M55.14,10.48c0-2.07.88-3,3-3C61,7.5,61,9.16,61,10.1v5.07c0,.37,0,.73.44.73a.51.51,0,0,0,.34-.09v1a4.9,4.9,0,0,1-.83.08c-.54,0-1.22,0-1.28-1.17h0a2.57,2.57,0,0,1-2.18,1.31c-1.7,0-2.48-1-2.48-2.64a2.36,2.36,0,0,1,1.71-2.51l1.92-.58c1-.32,1-.61,1-1.37s-.51-1.34-1.46-1.34a1.55,1.55,0,0,0-1.55,1.78v.09Zm4.39,1.39c-.52.55-1.78.67-2.42,1.06a1.45,1.45,0,0,0-.7,1.44c0,.92.33,1.56,1.29,1.56a1.85,1.85,0,0,0,1.83-1.73Z"/><path class="cls-1" d="M62.55,7.73H64V9.09h0c.4-.87.94-1.59,2-1.59a1.44,1.44,0,0,1,.63.1V9a3.7,3.7,0,0,0-.77-.07A2,2,0,0,0,64,11.07v5.74H62.55Z"/><polygon class="cls-1" points="74.09 16.81 72.43 16.81 69.91 12.32 68.74 13.75 68.74 16.81 67.31 16.81 67.31 4.72 68.74 4.72 68.74 11.92 68.77 11.92 71.95 7.73 73.61 7.73 70.85 11.15 74.09 16.81"/><path class="cls-1" d="M75.49,12.44c0,1.39,0,3.49,1.75,3.49,1.35,0,1.54-1.42,1.54-2.1H80.2a3.07,3.07,0,0,1-3,3.22c-2.22,0-3.15-1.54-3.15-4.66,0-2.27.44-4.89,3.24-4.89s3,2.42,3,4.37v.57Zm3.29-1.12v-.49c0-1-.32-2.22-1.58-2.22-1.49,0-1.66,1.83-1.66,2.38v.33Z"/><path class="cls-1" d="M82,5.09h1.42V7.73H85V8.85H83.37v5.83c0,.73.19,1,.93,1a4,4,0,0,0,.63,0v1.17a6.44,6.44,0,0,1-1.15.1c-1.48,0-1.83-.61-1.83-1.79V8.85H80.63V7.73H82Z"/><path class="cls-1" d="M85.65,7.73H87V8.85h0A2.07,2.07,0,0,1,89,7.5c2.15,0,3,1.91,3,4.6,0,2.07-.61,5-3,5a2.05,2.05,0,0,1-1.9-1.27h0v4H85.65Zm3.17,8.1c1.32,0,1.66-1.39,1.66-3.73,0-2-.34-3.38-1.66-3.38-1.57,0-1.83,1.49-1.83,3.55,0,1.76.31,3.56,1.83,3.56"/><rect class="cls-1" x="93.13" y="4.72" width="1.42" height="12.09"/><path class="cls-1" d="M95.84,10.48c0-2.07.88-3,3-3,2.76,0,2.76,1.66,2.76,2.6v5.07c0,.37,0,.73.44.73a.53.53,0,0,0,.34-.09v1a5.16,5.16,0,0,1-.83.08c-.55,0-1.22,0-1.29-1.17h0a2.57,2.57,0,0,1-2.19,1.31c-1.69,0-2.47-1-2.47-2.64a2.35,2.35,0,0,1,1.71-2.51l1.91-.58c1-.32,1-.61,1-1.37s-.51-1.34-1.46-1.34a1.55,1.55,0,0,0-1.56,1.78v.09Zm4.38,1.39c-.52.55-1.77.67-2.42,1.06a1.45,1.45,0,0,0-.69,1.44c0,.92.32,1.56,1.29,1.56a1.84,1.84,0,0,0,1.82-1.73Z"/><path class="cls-1" d="M107.47,10.49c0-.88-.36-1.88-1.44-1.88-.88,0-1.78.44-1.78,3.76,0,1.19,0,3.56,1.73,3.56,1.22,0,1.49-1.29,1.49-2.27h1.42c0,1.44-.71,3.39-3,3.39s-3.15-1.54-3.15-4.66c0-2.27.44-4.89,3.23-4.89a2.73,2.73,0,0,1,2.9,3Z"/><path class="cls-1" d="M111.18,12.44c0,1.39,0,3.49,1.74,3.49,1.36,0,1.54-1.42,1.54-2.1h1.43a3.07,3.07,0,0,1-3,3.22c-2.22,0-3.15-1.54-3.15-4.66,0-2.27.44-4.89,3.23-4.89s3,2.42,3,4.37v.57Zm3.28-1.12v-.49c0-1-.32-2.22-1.57-2.22-1.49,0-1.66,1.83-1.66,2.38v.33Z"/><path class="cls-2" d="M134.34,0c-.27,0-.55,0-.82,0l-1,8.69a6.43,6.43,0,0,1,1.24.12l2.9-8.6A11.19,11.19,0,0,0,134.34,0m-4.51.92L130.62,9a6.86,6.86,0,0,1,1.2-.22l1-8.65a11.36,11.36,0,0,0-3,.82m12.15,2-5.26,7.26a7.12,7.12,0,0,1,1.42,1.48,10.29,10.29,0,0,1,6.56-5.12A11.58,11.58,0,0,0,142,2.91m-17.25,2.3,3.11,5.28a8.16,8.16,0,0,1,.88-.67l-2.17-6.77a12.12,12.12,0,0,0-1.82,2.16M137.54.45l-2.91,8.61a7.27,7.27,0,0,1,1.21.53l5.31-7.35A11.4,11.4,0,0,0,137.54.45m-14,14.89a8.11,8.11,0,0,1,2.07-.75,7.43,7.43,0,0,1,.35-1.35l-3.09-1.62a11.51,11.51,0,0,0,.67,3.72M123.43,8l3.41,3.67a6.9,6.9,0,0,1,.74-.88l-3.06-5.19A11.32,11.32,0,0,0,123.43,8m-.55,3.36L126.07,13a7.89,7.89,0,0,1,.61-1.15l-3.34-3.6a11.18,11.18,0,0,0-.46,3.07m4-8.58,2.2,6.86a7,7,0,0,1,1-.46l-.79-8a11.35,11.35,0,0,0-2.41,1.57"/><path class="cls-3" d="M129.44,14.55c1.31.21,5.59,1.23,8.07-1.94a5.8,5.8,0,0,0-10.81,1.82,11.18,11.18,0,0,1,2.74.12"/><path class="cls-4" d="M145.49,8.75c-.07-.26-.14-.52-.22-.77a9.77,9.77,0,0,0-5.84,3.48,12.93,12.93,0,0,0-.77,1.06,10.27,10.27,0,0,1-.76,1c-1.3,1.49-3.42,2.86-7.76,1.83a12.15,12.15,0,0,0-3.5-.35,8.25,8.25,0,0,0-1.07.13,6.87,6.87,0,0,0-1.88.63c0,.09.07.18.11.27a9.85,9.85,0,0,0,.48,1,3.77,3.77,0,0,1,1.32-.42,9.4,9.4,0,0,1,1.12-.13,23.3,23.3,0,0,1,5.13.36c3.39.55,5.36-.31,6.36-1a3.71,3.71,0,0,0,.88-.86v0A3.25,3.25,0,0,1,138,17c-.89.87-2.49,1.72-5.39,2a16.1,16.1,0,0,0-4,.84c-.42.16-.85.34-1.27.55l-.18.09a11.15,11.15,0,0,0,1.39,1,11.6,11.6,0,0,0,5.78,1.56A11.5,11.5,0,0,0,145.49,8.75"/><path class="cls-5" d="M138.18,16.08c-1,.89-2.79,1.9-6,1.57a19.74,19.74,0,0,0-5,.05,8.13,8.13,0,0,0-1.16.26,6.31,6.31,0,0,0-.83.3,1.89,1.89,0,0,0,.2.27,11.66,11.66,0,0,0,1.53,1.61l.24-.14a8.29,8.29,0,0,1,1.2-.55,13.53,13.53,0,0,1,3.56-.72,15.65,15.65,0,0,0,4-.78l0,0a6,6,0,0,0,2.21-1.36,3.83,3.83,0,0,0,.79-1.14,4.29,4.29,0,0,0,.19-.5,4.21,4.21,0,0,1-.9,1.15"/></g></g></svg>