<svg xmlns="http://www.w3.org/2000/svg" viewBox="0 0 170.95 26.34"><defs><style>.cls-1{fill:#231f20;}.cls-2{fill:#ffc425;}</style></defs><title>shopping-centreAsset 10</title><g id="Layer_2" data-name="Layer 2"><g id="Layer_1-2" data-name="Layer 1"><path class="cls-1" d="M2.69,16.66v.41c0,.9.25,1.58,1.21,1.58s1.26-.73,1.26-1.41c0-2.56-5.09-1.13-5.09-5.56,0-1.9,1-3.49,3.88-3.49S7.74,9.6,7.74,11.43v.28H5.05a2.55,2.55,0,0,0-.23-1.25A.9.9,0,0,0,4,10.05c-.7,0-1.11.41-1.11,1.28C2.86,13.8,8,12.56,8,16.74c0,2.69-1.49,3.77-4.05,3.77-2,0-3.9-.61-3.9-3.09v-.76Z"/><path class="cls-1" d="M8.57,15.81c0-2.69.6-4.75,3.7-4.75,3.29,0,3.71,2,3.71,4.7s-.6,4.75-3.71,4.75c-3.29,0-3.7-2-3.7-4.7m3.72-3c-.8,0-1,.78-1,3s.23,3,1,3,1-.75,1-2.95-.17-3-1-3"/><path class="cls-1" d="M24,20.28H21.38V19.22h0a2.3,2.3,0,0,1-2.16,1.29c-1.53,0-2.34-.76-2.34-2.49V11.29h2.69v6.13c0,.65.28,1,.78,1s1-.4,1-1.28V11.29H24Z"/><path class="cls-1" d="M25.49,13.15H24.38V11.29h1.11V8.65h2.69v2.64h1.25v1.86H28.18v4.54c0,.63.24.83.87.83l.38,0v1.79a11.38,11.38,0,0,1-1.54.1c-1.86,0-2.4-.33-2.4-2.43Z"/><path class="cls-1" d="M30.06,8.42h2.69v3.85h0a2.08,2.08,0,0,1,2.06-1.21c1.52,0,2.34.77,2.34,2.49v6.73H34.5V14.15c0-.65-.29-1-.78-1s-1,.4-1,1.28v5.88H30.06Z"/><rect class="cls-1" x="38.43" y="8.42" width="2.69" height="11.86"/><path class="cls-1" d="M42.3,14.05a2.74,2.74,0,0,1,1-2.41,4.22,4.22,0,0,1,2.5-.58c2.21,0,3.19.77,3.19,2.66v4.62a3.61,3.61,0,0,0,.32,1.94H46.74a3.88,3.88,0,0,1-.15-1h0a2.26,2.26,0,0,1-2.1,1.26c-1.52,0-2.4-.79-2.4-2.74a2.58,2.58,0,0,1,1.1-2.29,11.23,11.23,0,0,1,2.41-.73c.81-.22,1-.35,1-1s-.25-.9-.85-.9-1,.45-1,1.23Zm3.13,4.6c.56,0,1.08-.33,1.08-1.23,0-.74,0-1.21,0-1.57-.85.44-1.21.46-1.46.66a1.13,1.13,0,0,0-.42,1c0,.71.29,1.14.79,1.14"/><path class="cls-1" d="M50.34,11.29h2.59v1.07h0a2.29,2.29,0,0,1,2.16-1.3c1.52,0,2.34.77,2.34,2.49v6.73H54.78V14.15c0-.65-.29-1-.78-1s-1,.4-1,1.28v5.88H50.34Z"/><path class="cls-1" d="M63.18,19.18h0a1.9,1.9,0,0,1-1.95,1.33c-1.81,0-2.77-1.29-2.77-4.65,0-2.79.4-4.8,2.61-4.8a2,2,0,0,1,2,1.22h0V8.42h2.69V20.28H63.18Zm-1-6.16c-1,0-1,1.08-1,2.71,0,1.44,0,2.82,1.05,2.82.8,0,1-1,1-2.7s-.06-2.83-1-2.83"/><path class="cls-1" d="M69,17.42a2.74,2.74,0,0,0,.18,1,.9.9,0,0,0,.83.41.88.88,0,0,0,1-.91c0-.42-.2-.82-1-1.1-2.21-.75-3.27-1.18-3.27-3.07s1.26-2.71,3.42-2.71c2.52,0,3.25,1.23,3.25,2.53v.3H71v-.17c0-.78-.31-1-.88-1s-.91.35-.91.83c0,1.6,4.3.53,4.3,4,0,1.81-1.21,2.94-3.44,2.94-2.41,0-3.42-.9-3.42-2.69v-.4Z"/><path class="cls-1" d="M79.18,8.42h3.63a2.76,2.76,0,0,1,3,3,2.56,2.56,0,0,1-1.72,2.48v0a2.7,2.7,0,0,1,2.1,2.92c0,2.41-1.36,3.39-3.83,3.39H79.18Zm1.46,5.12h1.68a1.8,1.8,0,0,0,2-2c0-1.23-.61-1.94-2-1.94H80.64Zm0,5.54h2a1.94,1.94,0,0,0,2.08-2.19,2.09,2.09,0,0,0-2.33-2.26H80.64Z"/><path class="cls-1" d="M90.19,11.15c2.57,0,3.2,2.17,3.2,4.68s-.64,4.68-3.2,4.68S87,18.34,87,15.83s.65-4.68,3.21-4.68m1.74,4.68c0-1.93-.28-3.59-1.78-3.59s-1.71,1.66-1.71,3.59.29,3.59,1.71,3.59,1.78-1.67,1.78-3.59"/><path class="cls-1" d="M100.34,20.28H99V19.23h0a2.36,2.36,0,0,1-2.16,1.28c-2.34,0-2.34-1.78-2.34-2.82V11.38h1.4v6.14c0,.68,0,1.8,1.31,1.8a1.72,1.72,0,0,0,1.76-1.8V11.38h1.4Z"/><rect class="cls-1" x="101.91" y="8.42" width="1.4" height="11.86"/><path class="cls-1" d="M106.07,16c0,1.37,0,3.43,1.71,3.43,1.33,0,1.51-1.4,1.51-2.06h1.39a3,3,0,0,1-3,3.15c-2.17,0-3.08-1.51-3.08-4.57,0-2.22.43-4.8,3.17-4.8s3,2.38,3,4.29V16Zm3.22-1.09v-.48c0-1-.32-2.18-1.55-2.18-1.46,0-1.62,1.79-1.62,2.33v.33Z"/><polygon class="cls-1" points="111.22 11.38 112.74 11.38 114.4 18.52 114.44 18.52 116.1 11.38 117.63 11.38 115.22 20.28 113.62 20.28 111.22 11.38"/><path class="cls-1" d="M118.17,14.07c0-2,.87-2.92,3-2.92,2.71,0,2.71,1.62,2.71,2.55v5c0,.36,0,.71.43.71a.49.49,0,0,0,.33-.08v1a5.88,5.88,0,0,1-.81.08c-.53,0-1.2,0-1.26-1.15h0a2.53,2.53,0,0,1-2.15,1.28c-1.66,0-2.42-1-2.42-2.59a2.31,2.31,0,0,1,1.68-2.46l1.87-.56c1-.32,1-.6,1-1.35s-.5-1.31-1.43-1.31A1.52,1.52,0,0,0,119.57,14v.08Zm4.31,1.36c-.52.55-1.75.66-2.38,1.05a1.41,1.41,0,0,0-.68,1.41c0,.9.32,1.53,1.26,1.53a1.82,1.82,0,0,0,1.8-1.7Z"/><path class="cls-1" d="M125.45,11.38h1.39v1.33h0c.4-.85.93-1.57,1.92-1.57a1.52,1.52,0,0,1,.62.1v1.37a3.44,3.44,0,0,0-.75-.07,2,2,0,0,0-1.83,2.11v5.63h-1.39Z"/><path class="cls-1" d="M135.91,20.28h-1.33v-1.1h0a2,2,0,0,1-1.93,1.33c-2.11,0-2.9-1.87-2.9-4.68,0-1.86.3-4.68,2.8-4.68a2.15,2.15,0,0,1,2,1.24h0v-4h1.39Zm-3.1-1c1.54,0,1.79-1.46,1.79-3.49,0-1.73-.3-3.49-1.79-3.49-1.3,0-1.63,1.36-1.63,3.49s.33,3.49,1.63,3.49"/><path class="cls-1" d="M138.59,16c0,1.37,0,3.43,1.71,3.43,1.33,0,1.51-1.4,1.51-2.06h1.39a3,3,0,0,1-3,3.15c-2.17,0-3.08-1.51-3.08-4.57,0-2.22.43-4.8,3.17-4.8s3,2.38,3,4.29V16Zm3.22-1.09v-.48c0-1-.32-2.18-1.55-2.18-1.46,0-1.62,1.79-1.62,2.33v.33Z"/><polygon class="cls-2" points="153.47 0 153.44 7.29 156.05 5.34 153.47 0"/><polygon class="cls-2" points="145.61 7.4 149.58 11.44 150.86 8.97 145.61 7.4"/><polygon class="cls-2" points="148.93 16.12 145.25 21.05 150.5 18.23 148.93 16.12"/><polygon class="cls-2" points="153.4 20.09 153.19 26.34 155.79 20.59 153.4 20.09"/><polygon class="cls-2" points="162.13 18.35 160.01 19.95 163.42 24.73 162.13 18.35"/><polygon class="cls-2" points="164.98 13.47 163.47 16.23 169.91 15.37 164.98 13.47"/><polygon class="cls-2" points="165.76 8.17 165.2 11.01 170.95 8.11 165.76 8.17"/><polygon class="cls-2" points="162.37 6.15 159.58 5.68 163.3 1 162.37 6.15"/><path class="cls-2" d="M161.81,10.31c-1.06,5.12-5.08,7.93-7.17,6.25-1.53-1.22.14-6.68,3.23-6.15,1.53.27.06,2.82.09,2.83,1.58.34,3.7-2.8,2-4.59-1.82-1.94-5.08-.13-6.79,1.95s-2.51,6-.31,7.59a5.66,5.66,0,0,0,8.28-1.67c2.66-3.93.66-6.24.65-6.21"/></g></g></svg>