<svg xmlns="http://www.w3.org/2000/svg" viewBox="0 0 58.08 20.23"><defs><style>.cls-1{fill:#036eb0;}.cls-2{fill:#231f20;}</style></defs><title>shopping-centreAsset 9</title><g id="Layer_2" data-name="Layer 2"><g id="Layer_1-2" data-name="Layer 1"><path class="cls-1" d="M15.25,11.07c0-.77-.31-1-.86-1-.7,0-.9.34-.9.81,0,1.28,2.84.82,3.86,2.49V11.23h-2.1ZM0,0V17.35H5c-1.53-.76-1.68-2.58-1.68-4.58,0-2.47.71-4.31,3.58-4.31S10.4,9.91,10.4,12H8c0-1.28-.29-1.82-1-1.82-.88,0-1,1.1-1,2.91,0,2,.12,2.9,1,2.9s1-.54,1-2.09H10.4c0,1.83-.5,2.91-1.54,3.44h3.37A2.26,2.26,0,0,1,11,15.09V14.7h2.34a2.58,2.58,0,0,0,.18,1,.86.86,0,0,0,.81.41.87.87,0,0,0,.95-.9c0-.41-.2-.8-1-1.07-2.17-.74-3.21-1.16-3.21-3s1.24-2.66,3.35-2.66c1.7,0,2.56.57,3,1.33V0ZM16.22,17.35h1.13v-1a2.56,2.56,0,0,1-1.13,1"/><path class="cls-2" d="M58.08,13.19v-.55c0-1.86-.24-4.18-2.9-4.18s-3.1,2.51-3.1,4.69c0,3,.89,4.46,3,4.46A2.94,2.94,0,0,0,58,14.52H56.66c0,.65-.18,2-1.48,2-1.67,0-1.67-2-1.67-3.35Zm-4.52-1.07V11.8c0-.52.16-2.27,1.59-2.27,1.2,0,1.51,1.15,1.51,2.12v.47Zm-6,5.26h1.37v-5.5a1.93,1.93,0,0,1,1.78-2.06,4.56,4.56,0,0,1,.73.06V8.56a1.3,1.3,0,0,0-.6-.1c-1,0-1.49.7-1.88,1.52h0V8.69H47.57Zm-3.21-2.5a1.78,1.78,0,0,1-1.75,1.66c-.93,0-1.23-.62-1.23-1.5A1.39,1.39,0,0,1,42,13.66c.62-.37,1.82-.48,2.32-1Zm-2.84-3.57v-.08A1.48,1.48,0,0,1,43,9.53c.91,0,1.4.47,1.4,1.28s0,1-1,1.31l-1.83.56A2.25,2.25,0,0,0,40,15.08c0,1.55.75,2.53,2.37,2.53a2.46,2.46,0,0,0,2.09-1.25h0c.07,1.12.72,1.12,1.23,1.12a5.86,5.86,0,0,0,.8-.08v-1a.48.48,0,0,1-.32.08c-.43,0-.43-.34-.43-.69V11c0-.91,0-2.5-2.64-2.5-2.08,0-2.92.87-2.92,2.85ZM38.59,8.69H37.22v6a1.68,1.68,0,0,1-1.72,1.75c-1.23,0-1.28-1.09-1.28-1.75v-6H32.86v6.16c0,1,0,2.76,2.29,2.76a2.34,2.34,0,0,0,2.11-1.25h0v1h1.3ZM29.71,20.23h1.37V8.69h-1.3V9.76h0a2,2,0,0,0-1.89-1.3C25.8,8.46,25,10.29,25,12.87c0,2.37.58,4.74,2.83,4.74a2,2,0,0,0,1.82-1.22h0Zm.08-7.2c0,1.69-.29,3.41-1.75,3.41-1.26,0-1.59-1.33-1.59-3.57,0-1.91.33-3.24,1.59-3.24,1.51,0,1.75,1.42,1.75,3.4m-5.95-1.8c0-1-.11-2.77-2.64-2.77-1.51,0-2.78.78-2.78,2.4,0,1.8,1.09,2.11,2.14,2.46s2.13.6,2.13,1.77a1.37,1.37,0,0,1-1.44,1.45c-1.33,0-1.63-1-1.63-2H18.26c0,.9,0,3.09,3,3.09a2.55,2.55,0,0,0,2.8-2.73c0-1.72-1.07-2.09-2.12-2.45s-2.14-.55-2.14-1.57A1.25,1.25,0,0,1,21.2,9.53c1,0,1.28.6,1.28,1.7Z"/></g></g></svg>