<?xml version="1.0" encoding="UTF-8"?>
<svg width="365px" height="301px" viewBox="0 0 365 301" version="1.1" xmlns="http://www.w3.org/2000/svg" xmlns:xlink="http://www.w3.org/1999/xlink">
    <!-- Generator: Sketch 49.1 (51147) - http://www.bohemiancoding.com/sketch -->
    <title>bg-artwork</title>
    <desc>Created with Sketch.</desc>
    <defs>
        <polygon id="path-1" points="0 0.000151648543 364.477757 0.000151648543 364.477757 300.156065 0 300.156065"></polygon>
    </defs>
    <g id="Page-1" stroke="none" stroke-width="1" fill="none" fill-rule="evenodd">
        <g id="bg-artwork" transform="translate(0.000000, 0.244258)">
            <mask id="mask-2" fill="white">
                <use xlink:href="#path-1"></use>
            </mask>
            <g id="Clip-2"></g>
            <path d="M167.07609,163.306676 C171.263486,159.119281 176.751267,157.025394 182.239428,157.025394 C187.726831,157.025394 193.214991,159.119281 197.402387,163.306676 L197.402387,163.023094 C198.578421,164.553606 199.924681,165.914273 201.455194,167.090307 L201.185639,167.090307 C209.561188,175.465477 209.561188,189.041055 201.185639,197.415846 L201.455194,197.415846 C199.924681,198.578232 198.578421,199.938519 197.402387,201.468653 L197.402387,201.199856 C193.214991,205.387251 187.726831,207.481139 182.239428,207.481139 C176.751267,207.481139 171.263486,205.387251 167.07609,201.199856 L167.07609,201.468653 C165.913704,199.938519 164.553417,198.578232 163.008497,197.415846 L163.292459,197.415846 C154.917289,189.041055 154.917289,175.465477 163.292459,167.090307 L163.008497,167.090307 C164.553417,165.914273 165.913704,164.553606 167.07609,163.023094 L167.07609,163.306676 Z M150.070981,0.000151648543 C138.238224,0.000151648543 128.644179,9.60746596 128.644179,21.4409809 C128.644179,28.3989952 132.002815,34.5202886 137.147113,38.4460902 L136.86353,38.4460902 C145.2387,46.820881 145.2387,60.3968377 136.86353,68.7716285 L137.147113,68.7716285 C132.002815,72.6830235 128.644179,78.8046961 128.644179,85.7627104 C128.644179,92.7207246 132.002815,98.8427763 137.147113,102.76782 L136.86353,102.76782 C145.2387,111.143369 145.2387,124.719325 136.86353,133.094116 L137.147113,133.094116 C135.616221,134.255744 134.255934,135.61679 133.079899,137.146924 L133.079899,136.878126 C128.892504,141.065522 123.404722,143.15903 117.91694,143.15903 C112.42878,143.15903 106.940998,141.065522 102.753603,136.878126 L102.753603,137.16133 C98.8429659,132.016653 92.7209142,128.644369 85.7625208,128.644369 C73.9157366,128.644369 64.3224498,138.252441 64.3224498,150.084819 C64.3224498,161.931982 73.9157366,171.526027 85.7625208,171.526027 C92.7209142,171.526027 98.8429659,168.152985 102.753603,163.023094 L102.753603,163.306676 C106.940998,159.119281 112.42878,157.025394 117.91694,157.025394 C123.404722,157.025394 128.892504,159.119281 133.079899,163.306676 L133.079899,163.023094 C134.255934,164.553606 135.616221,165.914273 137.147113,167.090307 L136.86353,167.090307 C145.2387,175.465477 145.2387,189.041055 136.86353,197.415846 L137.147113,197.415846 C135.616221,198.578232 134.255934,199.938519 133.079899,201.468653 L133.079899,201.199856 C128.892504,205.387251 123.404722,207.481139 117.91694,207.481139 C112.42878,207.481139 106.940998,205.387251 102.753603,201.199856 L102.753603,201.468653 C98.8429659,196.339141 92.7209142,192.966098 85.7625208,192.966098 C78.8045065,192.966098 72.6832131,196.325493 68.771818,201.468653 L68.771818,201.199856 C64.5844227,205.387251 59.0928498,207.481139 53.6012769,207.481139 C48.1100832,207.481139 42.6185103,205.387251 38.4311149,201.199856 L38.4311149,201.48306 C34.5204781,196.339141 28.3984265,192.966098 21.4400331,192.966098 C9.59400715,192.966098 -3.79121357e-05,202.560522 -3.79121357e-05,214.406928 C-3.79121357e-05,226.240063 9.59400715,235.848515 21.4400331,235.848515 C28.3984265,235.848515 34.5204781,232.475472 38.4311149,227.330795 L38.4311149,227.614757 C42.6185103,223.427362 48.1100832,221.333475 53.6012769,221.333475 C59.0928498,221.333475 64.5844227,223.427362 68.771818,227.614757 L68.771818,227.345581 C72.6832131,232.475472 78.8045065,235.848515 85.7625208,235.848515 C92.7209142,235.848515 98.8429659,232.475472 102.753603,227.330795 L102.753603,227.614757 C106.940998,223.427362 112.42878,221.333475 117.91694,221.333475 C123.404722,221.333475 128.892504,223.427362 133.079899,227.614757 L133.079899,227.345581 C134.255934,228.876094 135.616221,230.236382 137.147113,231.398389 L136.86353,231.398389 C145.2387,239.773558 145.2387,253.349136 136.86353,261.724306 L137.147113,261.724306 C132.002815,265.650108 128.644179,271.771401 128.644179,278.729415 C128.644179,290.562172 138.238224,300.156217 150.070981,300.156217 C161.917765,300.156217 171.511052,290.562172 171.511052,278.729415 C171.511052,271.771401 168.153174,265.650108 163.008497,261.724306 L163.292459,261.724306 C154.917289,253.349136 154.917289,239.773558 163.292459,231.398389 L163.008497,231.398389 C164.553417,230.236382 165.913704,228.876094 167.07609,227.330795 L167.07609,227.614757 C171.263486,223.427362 176.751267,221.333475 182.239428,221.333475 C187.726831,221.333475 193.214991,223.427362 197.402387,227.614757 L197.402387,227.345581 C198.578421,228.876094 199.924681,230.236382 201.455194,231.398389 L201.185639,231.398389 C209.561188,239.773558 209.561188,253.349136 201.185639,261.724306 L201.469601,261.724306 C196.324924,265.650108 192.952639,271.771401 192.952639,278.729415 C192.952639,290.562172 202.559954,300.156217 214.39309,300.156217 C226.239495,300.156217 235.83354,290.562172 235.83354,278.729415 C235.83354,271.771401 232.460497,265.650108 227.330985,261.724306 L227.614189,261.724306 C219.239019,253.349136 219.239019,239.773558 227.614189,231.398389 L227.330985,231.398389 C228.861498,230.236382 230.221785,228.876094 231.398199,227.330795 L231.398199,227.614757 C235.585594,223.427362 241.073376,221.333475 246.561158,221.333475 C252.048939,221.333475 257.536721,223.427362 261.724116,227.614757 L261.724116,227.345581 C265.635132,232.475472 271.757184,235.848515 278.715198,235.848515 C290.561982,235.848515 300.156027,226.240063 300.156027,214.406928 C300.156027,202.560522 290.561982,192.966098 278.715198,192.966098 C271.757184,192.966098 265.635132,196.325493 261.724116,201.468653 L261.724116,201.199856 C257.536721,205.387251 252.048939,207.481139 246.561158,207.481139 C241.073376,207.481139 235.585594,205.387251 231.398199,201.199856 L231.398199,201.468653 C230.221785,199.938519 228.861498,198.578232 227.330985,197.415846 L227.614189,197.415846 C219.239019,189.041055 219.239019,175.465477 227.614189,167.090307 L227.330985,167.090307 C228.861498,165.914273 230.221785,164.553606 231.398199,163.023094 L231.398199,163.306676 C235.585594,159.119281 241.073376,157.025394 246.561158,157.025394 C252.048939,157.025394 257.536721,159.119281 261.724116,163.306676 L261.724116,163.023094 C265.635132,168.167391 271.757184,171.526027 278.715198,171.526027 C285.673212,171.526027 291.795264,168.152985 295.720308,163.023094 L295.720308,163.306676 C299.908082,159.119281 305.395864,157.025394 310.883645,157.025394 C316.371427,157.025394 321.859209,159.119281 326.046604,163.306676 L326.046604,163.023094 C329.95762,168.167391 336.079672,171.526027 343.037686,171.526027 C354.870443,171.526027 364.477757,161.931982 364.477757,150.084819 C364.477757,138.252441 354.870443,128.644369 343.037686,128.644369 C336.079672,128.644369 329.95762,132.016653 326.046604,137.146924 L326.046604,136.878126 C321.859209,141.065522 316.371427,143.15903 310.883645,143.15903 C305.395864,143.15903 299.908082,141.065522 295.720308,136.878126 L295.720308,137.16133 C291.795264,132.016653 285.673212,128.644369 278.715198,128.644369 C271.757184,128.644369 265.635132,132.016653 261.724116,137.146924 L261.724116,136.878126 C257.536721,141.065522 252.048939,143.15903 246.561158,143.15903 C241.073376,143.15903 235.585594,141.065522 231.398199,136.878126 L231.398199,137.16133 C230.221785,135.61679 228.861498,134.255744 227.330985,133.094116 L227.614189,133.094116 C219.239019,124.719325 219.239019,111.143369 227.614189,102.76782 L227.330985,102.76782 C232.474904,98.8427763 235.83354,92.7207246 235.83354,85.7627104 C235.83354,73.9299537 226.239495,64.3218811 214.39309,64.3218811 C202.559954,64.3218811 192.952639,73.9299537 192.952639,85.7627104 C192.952639,92.7207246 196.324924,98.8427763 201.455194,102.76782 L201.185639,102.76782 C209.561188,111.143369 209.561188,124.719325 201.185639,133.094116 L201.455194,133.094116 C199.924681,134.255744 198.578421,135.61679 197.402387,137.146924 L197.402387,136.878126 C193.214991,141.065522 187.726831,143.15903 182.239428,143.15903 C176.751267,143.15903 171.263486,141.065522 167.07609,136.878126 L167.07609,137.16133 C165.913704,135.61679 164.553417,134.255744 163.008497,133.094116 L163.292459,133.094116 C154.917289,124.719325 154.917289,111.143369 163.292459,102.76782 L163.008497,102.76782 C168.153174,98.8427763 171.511052,92.7207246 171.511052,85.7627104 C171.511052,78.8046961 168.153174,72.6830235 163.008497,68.7716285 L163.292459,68.7716285 C154.917289,60.3968377 154.917289,46.820881 163.292459,38.4460902 L163.008497,38.4460902 C168.153174,34.5202886 171.511052,28.3989952 171.511052,21.4409809 C171.511052,9.60746596 161.917765,0.000151648543 150.070981,0.000151648543 Z" id="Fill-1" fill="#269DC5" mask="url(#mask-2)"></path>
        </g>
    </g>
</svg>