<?xml version="1.0" encoding="UTF-8"?>
<svg width="71px" height="71px" viewBox="0 0 71 71" version="1.1" xmlns="http://www.w3.org/2000/svg" xmlns:xlink="http://www.w3.org/1999/xlink">
    <!-- Generator: Sketch 49.1 (51147) - http://www.bohemiancoding.com/sketch -->
    <title>calendar-icon</title>
    <desc>Created with Sketch.</desc>
    <defs>
        <polygon id="path-1" points="0 0.192 70.8079 0.192 70.8079 71 0 71"></polygon>
    </defs>
    <g id="Page-1" stroke="none" stroke-width="1" fill="none" fill-rule="evenodd">
        <g id="calendar-icon" transform="translate(0.000000, -0.742568)">
            <g id="Group-3" transform="translate(0.000000, 0.807700)">
                <mask id="mask-2" fill="white">
                    <use xlink:href="#path-1"></use>
                </mask>
                <g id="Clip-2"></g>
                <path d="M35.4039,71 C54.9569,71 70.8079,55.149 70.8079,35.596 C70.8079,16.043 54.9569,0.192 35.4039,0.192 C15.8509,0.192 -0.0001,16.043 -0.0001,35.596 C-0.0001,55.149 15.8509,71 35.4039,71" id="Fill-1" fill="#FEFEFE" mask="url(#mask-2)"></path>
            </g>
            <path d="M15.522,54.1517 L55.463,54.1517 L55.463,21.3337 L15.522,21.3337 L15.522,54.1517 Z M23.331,18.6557 L23.331,24.2467 L23.331,18.6557 Z M31.439,18.6557 L31.439,24.2467 L31.439,18.6557 Z M39.547,18.6557 L39.547,24.2467 L39.547,18.6557 Z M47.654,18.6557 L47.654,24.2467 L47.654,18.6557 Z M22.689,31.7197 L22.689,33.1247 L22.689,31.7197 Z M29.1,31.7197 L29.1,33.1247 L29.1,31.7197 Z M35.51,31.7197 L35.51,33.1247 L35.51,31.7197 Z M41.921,31.7197 L41.921,33.1247 L41.921,31.7197 Z M22.689,45.8847 L22.689,47.3127 L22.689,45.8847 Z M29.1,45.8847 L29.1,47.3127 L29.1,45.8847 Z M35.51,45.8847 L35.51,47.3127 L35.51,45.8847 Z M48.296,31.6967 L48.296,33.1017 L48.296,31.6967 Z M22.689,38.7977 L22.689,40.2247 L22.689,38.7977 Z M48.295,38.7977 L48.295,40.2247 L48.295,38.7977 Z M35.474,38.7977 L35.474,40.2247 L35.474,38.7977 Z M29.063,38.7977 L29.063,40.2247 L29.063,38.7977 Z" id="Stroke-4" stroke="#2655A2" stroke-width="1.813" stroke-linecap="round" stroke-linejoin="round"></path>
            <path d="M40.4435,36.9932 L43.2335,36.9932 C43.8755,36.9932 44.3985,37.5172 44.3985,38.1582 L44.3985,40.9372 C44.3985,41.5782 43.8755,42.1002 43.2335,42.1002 L40.4435,42.1002 C39.8025,42.1002 39.2785,41.5782 39.2785,40.9372 L39.2785,38.1582 C39.2785,37.5172 39.8025,36.9932 40.4435,36.9932 Z" id="Stroke-5" stroke="#E5B122" stroke-width="1.813" stroke-linecap="round" stroke-linejoin="round"></path>
        </g>
    </g>
</svg>