<?xml version="1.0" encoding="UTF-8"?>
<svg width="71px" height="71px" viewBox="0 0 71 71" version="1.1" xmlns="http://www.w3.org/2000/svg" xmlns:xlink="http://www.w3.org/1999/xlink">
    <!-- Generator: Sketch 49.1 (51147) - http://www.bohemiancoding.com/sketch -->
    <title>cycle-icon</title>
    <desc>Created with Sketch.</desc>
    <defs>
        <polygon id="path-1" points="0 0.192 70.8078 0.192 70.8078 71 0 71"></polygon>
    </defs>
    <g id="Page-1" stroke="none" stroke-width="1" fill="none" fill-rule="evenodd">
        <g id="cycle-icon" transform="translate(0.124277, -1.000000)">
            <g id="Group-3" transform="translate(0.000000, 0.807700)">
                <mask id="mask-2" fill="white">
                    <use xlink:href="#path-1"></use>
                </mask>
                <g id="Clip-2"></g>
                <path d="M35.4038,71 C54.9568,71 70.8078,55.149 70.8078,35.596 C70.8078,16.043 54.9568,0.192 35.4038,0.192 C15.8508,0.192 -0.0002,16.043 -0.0002,35.596 C-0.0002,55.149 15.8508,71 35.4038,71" id="Fill-1" fill="#FEFEFE" mask="url(#mask-2)"></path>
            </g>
            <path d="M25.0143,54.3915 C24.8053,54.3915 24.5963,54.3115 24.4363,54.1515 C24.1163,53.8325 24.1163,53.3155 24.4363,52.9955 L28.7643,48.6685 L24.4363,44.3405 C24.1163,44.0215 24.1163,43.5035 24.4363,43.1845 C24.7553,42.8645 25.2733,42.8645 25.5923,43.1845 L31.0763,48.6685 L25.5923,54.1515 C25.4323,54.3115 25.2233,54.3915 25.0143,54.3915" id="Fill-4" fill="#2655A2"></path>
            <path d="M25.0143,54.3915 C24.8053,54.3915 24.5963,54.3115 24.4363,54.1515 C24.1163,53.8325 24.1163,53.3155 24.4363,52.9955 L28.7643,48.6685 L24.4363,44.3405 C24.1163,44.0215 24.1163,43.5035 24.4363,43.1845 C24.7553,42.8645 25.2733,42.8645 25.5923,43.1845 L31.0763,48.6685 L25.5923,54.1515 C25.4323,54.3115 25.2233,54.3915 25.0143,54.3915 Z" id="Stroke-6" stroke="#2655A2" stroke-width="1.058"></path>
            <path d="M47.9076,29.8629 C47.6986,29.8629 47.4896,29.7829 47.3296,29.6229 L41.8456,24.1399 L47.3296,18.6559 C47.6486,18.3359 48.1666,18.3359 48.4856,18.6559 C48.8056,18.9749 48.8056,19.4929 48.4856,19.8119 L44.1586,24.1399 L48.4856,28.4669 C48.8056,28.7869 48.8056,29.3039 48.4856,29.6229 C48.3256,29.7829 48.1166,29.8629 47.9076,29.8629" id="Fill-8" fill="#E5B122"></path>
            <path d="M47.9076,29.8629 C47.6986,29.8629 47.4896,29.7829 47.3296,29.6229 L41.8456,24.1399 L47.3296,18.6559 C47.6486,18.3359 48.1666,18.3359 48.4856,18.6559 C48.8056,18.9749 48.8056,19.4929 48.4856,19.8119 L44.1586,24.1399 L48.4856,28.4669 C48.8056,28.7869 48.8056,29.3039 48.4856,29.6229 C48.3256,29.7829 48.1166,29.8629 47.9076,29.8629 Z" id="Stroke-10" stroke="#E5B122" stroke-width="1.058"></path>
            <path d="M29.1024,49.4858 L26.6494,49.4858 C19.4364,49.4858 13.5674,43.6168 13.5674,36.4038 C13.5674,29.1908 19.4364,23.3218 26.6494,23.3218 L38.0964,23.3218 C38.5484,23.3218 38.9134,23.6878 38.9134,24.1398 C38.9134,24.5918 38.5484,24.9568 38.0964,24.9568 L26.6494,24.9568 C20.3374,24.9568 15.2024,30.0918 15.2024,36.4038 C15.2024,42.7158 20.3374,47.8508 26.6494,47.8508 L29.1024,47.8508 C29.5544,47.8508 29.9204,48.2158 29.9204,48.6678 C29.9204,49.1198 29.5544,49.4858 29.1024,49.4858" id="Fill-12" fill="#2655A2"></path>
            <path d="M29.1024,49.4858 L26.6494,49.4858 C19.4364,49.4858 13.5674,43.6168 13.5674,36.4038 C13.5674,29.1908 19.4364,23.3218 26.6494,23.3218 L38.0964,23.3218 C38.5484,23.3218 38.9134,23.6878 38.9134,24.1398 C38.9134,24.5918 38.5484,24.9568 38.0964,24.9568 L26.6494,24.9568 C20.3374,24.9568 15.2024,30.0918 15.2024,36.4038 C15.2024,42.7158 20.3374,47.8508 26.6494,47.8508 L29.1024,47.8508 C29.5544,47.8508 29.9204,48.2158 29.9204,48.6678 C29.9204,49.1198 29.5544,49.4858 29.1024,49.4858 Z" id="Stroke-14" stroke="#2655A2" stroke-width="1.058"></path>
            <path d="M46.2725,49.4858 L34.8255,49.4858 C34.3735,49.4858 34.0085,49.1198 34.0085,48.6678 C34.0085,48.2158 34.3735,47.8508 34.8255,47.8508 L46.2725,47.8508 C52.5845,47.8508 57.7195,42.7158 57.7195,36.4038 C57.7195,30.0918 52.5845,24.9568 46.2725,24.9568 L44.6375,24.9568 C44.1855,24.9568 43.8195,24.5918 43.8195,24.1398 C43.8195,23.6878 44.1855,23.3218 44.6375,23.3218 L46.2725,23.3218 C53.4855,23.3218 59.3545,29.1908 59.3545,36.4038 C59.3545,43.6168 53.4855,49.4858 46.2725,49.4858" id="Fill-16" fill="#E5B122"></path>
            <path d="M46.2725,49.4858 L34.8255,49.4858 C34.3735,49.4858 34.0085,49.1198 34.0085,48.6678 C34.0085,48.2158 34.3735,47.8508 34.8255,47.8508 L46.2725,47.8508 C52.5845,47.8508 57.7195,42.7158 57.7195,36.4038 C57.7195,30.0918 52.5845,24.9568 46.2725,24.9568 L44.6375,24.9568 C44.1855,24.9568 43.8195,24.5918 43.8195,24.1398 C43.8195,23.6878 44.1855,23.3218 44.6375,23.3218 L46.2725,23.3218 C53.4855,23.3218 59.3545,29.1908 59.3545,36.4038 C59.3545,43.6168 53.4855,49.4858 46.2725,49.4858 Z" id="Stroke-18" stroke="#E5B122" stroke-width="1.058"></path>
        </g>
    </g>
</svg>