<?xml version="1.0" encoding="UTF-8"?>
<svg width="115px" height="50px" viewBox="0 0 115 50" version="1.1" xmlns="http://www.w3.org/2000/svg" xmlns:xlink="http://www.w3.org/1999/xlink">
    <!-- Generator: Sketch 49.1 (51147) - http://www.bohemiancoding.com/sketch -->
    <title>logo-blue</title>
    <desc>Created with Sketch.</desc>
    <defs>
        <polygon id="path-1" points="0.948 0.6872 6.341 0.6872 6.341 7 0.948 7"></polygon>
        <polygon id="path-3" points="0 0.9679 23.4149 0.9679 23.4149 20.2509 0 20.2509"></polygon>
    </defs>
    <g id="Page-1" stroke="none" stroke-width="1" fill="none" fill-rule="evenodd">
        <g id="logo-blue" transform="translate(0.500000, -0.500000)">
            <g id="Group-5" transform="translate(16.000000, 13.032700)" fill="#2655A2">
                <path d="M21.2528,18.5808 L24.8198,19.4938 C24.0958,22.3208 22.7928,24.5068 20.9078,26.0488 C18.9558,27.6448 16.5328,28.4438 13.6388,28.4438 C8.0818,28.4438 4.3278,26.1508 2.3758,21.5638 C1.4198,19.3318 0.9418,16.9368 0.9418,14.3808 C0.9418,8.6168 3.0108,4.6118 7.1478,2.3658 C9.1268,1.2828 11.3098,0.7418 13.6998,0.7418 C16.3618,0.7418 18.6218,1.4118 20.4778,2.7508 C22.3348,4.0898 23.6318,6.0178 24.3688,8.5338 L20.8428,9.3668 C19.6408,5.6608 17.2278,3.8058 13.6068,3.8058 C9.4118,3.8058 6.6918,5.6158 5.4488,9.2348 C4.8878,10.8958 4.6078,12.6118 4.6078,14.3808 C4.6078,19.2418 5.9808,22.4898 8.7288,24.1228 C10.1498,24.9608 11.6798,25.3798 13.3198,25.3798 C17.6098,25.3798 20.2548,23.1128 21.2528,18.5808" id="Fill-1"></path>
                <path d="M30.7749,24.7905 L37.5029,24.7905 C38.6509,24.7905 39.4649,24.7505 39.9439,24.6695 C41.5839,24.3725 42.7259,23.6365 43.3689,22.4615 C43.7239,21.8145 43.9019,21.0655 43.9019,20.2145 C43.9019,18.0815 42.9309,16.6975 40.9899,16.0625 C40.0729,15.7655 38.7539,15.6175 37.0309,15.6175 L30.7749,15.6175 L30.7749,24.7905 Z M30.7749,12.4315 L36.6219,12.4315 C38.1939,12.4315 39.3289,12.3305 40.0259,12.1285 C41.8589,11.5775 42.7749,10.3585 42.7749,8.4735 C42.7749,6.5085 41.9479,5.2695 40.2929,4.7585 C39.4859,4.5025 38.1119,4.3745 36.1699,4.3745 L30.7749,4.3745 L30.7749,12.4315 Z M27.1919,27.9775 L27.1919,1.2085 L37.3499,1.2085 C41.2359,1.2085 43.8759,2.3105 45.2709,4.5135 C45.9689,5.6355 46.3179,6.8115 46.3179,8.0405 C46.3179,10.5955 45.0619,12.4885 42.5499,13.7185 C45.9089,14.7075 47.5869,16.8735 47.5869,20.2175 C47.5869,22.8315 46.6589,24.8285 44.8019,26.2095 C43.2189,27.3875 40.7819,27.9775 37.4919,27.9775 L27.1919,27.9775 Z" id="Fill-3"></path>
            </g>
            <polygon id="Fill-6" fill="#2655A2" points="66.7378 41.0098 66.7378 14.2418 70.3208 14.2418 70.3208 25.1998 84.3488 25.1998 84.3488 14.2418 87.9328 14.2418 87.9328 41.0098 84.3488 41.0098 84.3488 28.3858 70.3208 28.3858 70.3208 41.0098"></polygon>
            <g id="Group-24" transform="translate(19.000000, 13.032700)">
                <path d="M71.7753,19.3721 L75.1133,19.0881 C75.4273,21.6911 76.7153,23.4771 78.9733,24.4481 C80.2053,24.9751 81.5883,25.2371 83.1213,25.2371 C85.9963,25.2371 87.9813,24.4871 89.0763,22.9891 C89.5973,22.2871 89.8573,21.5241 89.8573,20.7011 C89.8573,18.9861 88.7973,17.7311 86.6793,16.9341 C85.8313,16.6101 84.1363,16.1581 81.5953,15.5771 C79.4083,15.0771 77.7543,14.5351 76.6333,13.9531 C74.0763,12.6141 72.7993,10.6731 72.7993,8.1291 C72.7993,6.6671 73.2153,5.3561 74.0483,4.1921 C74.8683,3.0691 75.9653,2.2231 77.3453,1.6551 C78.8323,1.0461 80.4913,0.7421 82.3213,0.7421 C86.5263,0.7421 89.4683,2.0001 91.1473,4.5161 C91.9663,5.7621 92.4033,7.1681 92.4573,8.7381 L89.0583,9.0021 C88.6883,5.5921 86.4913,3.8871 82.4643,3.8871 C80.8213,3.8871 79.4583,4.1501 78.3763,4.6751 C76.9383,5.3621 76.2183,6.4321 76.2183,7.8861 C76.2183,9.2461 76.9983,10.2831 78.5563,10.9971 C79.1983,11.2921 80.5723,11.6761 82.6773,12.1471 C85.6023,12.7971 87.5983,13.3661 88.6643,13.8541 C91.7393,15.2501 93.2773,17.4301 93.2773,20.3971 C93.2773,21.9281 92.8333,23.3231 91.9463,24.5831 C91.0853,25.7891 89.9393,26.7241 88.5053,27.3871 C86.9623,28.0921 85.2213,28.4441 83.2833,28.4441 C78.4783,28.4441 75.1333,27.0231 73.2503,24.1821 C72.3073,22.7621 71.8163,21.1581 71.7753,19.3721" id="Fill-7" fill="#2655A2"></path>
                <g id="Group-11" transform="translate(0.000000, 30.000000)">
                    <mask id="mask-2" fill="white">
                        <use xlink:href="#path-1"></use>
                    </mask>
                    <g id="Clip-10"></g>
                    <path d="M5.535,4.7522 L6.341,4.9602 C6.177,5.6042 5.883,6.1022 5.458,6.4532 C5.016,6.8182 4.469,7.0002 3.815,7.0002 C2.561,7.0002 1.713,6.4772 1.272,5.4322 C1.056,4.9232 0.948,4.3782 0.948,3.7952 C0.948,2.4812 1.415,1.5692 2.35,1.0572 C2.796,0.8102 3.29,0.6872 3.829,0.6872 C4.431,0.6872 4.941,0.8402 5.36,1.1452 C5.779,1.4502 6.072,1.8902 6.239,2.4632 L5.442,2.6532 C5.171,1.8082 4.626,1.3852 3.808,1.3852 C2.861,1.3852 2.247,1.7982 1.966,2.6232 C1.84,3.0012 1.776,3.3922 1.776,3.7952 C1.776,4.9032 2.087,5.6422 2.706,6.0152 C3.028,6.2062 3.373,6.3022 3.743,6.3022 C4.713,6.3022 5.31,5.7852 5.535,4.7522" id="Fill-9" fill="#58585B" mask="url(#mask-2)"></path>
                </g>
                <path d="M7.9172,33.9358 C7.9172,34.6058 8.0942,35.1588 8.4462,35.5958 C8.8262,36.0658 9.3442,36.3018 10.0032,36.3018 C10.6852,36.3018 11.2142,36.0548 11.5882,35.5638 C11.9282,35.1208 12.0982,34.5498 12.0982,33.8478 C12.0982,32.8278 11.7672,32.1098 11.1062,31.6948 C10.7812,31.4918 10.4192,31.3898 10.0162,31.3898 C9.2972,31.3898 8.7562,31.6438 8.3952,32.1518 C8.0762,32.5938 7.9172,33.1888 7.9172,33.9358 M7.0892,33.9218 C7.0892,32.9798 7.3342,32.2138 7.8252,31.6248 C8.3492,30.9998 9.0782,30.6878 10.0122,30.6878 C10.5702,30.6878 11.0732,30.8188 11.5232,31.0798 C11.9832,31.3478 12.3322,31.7248 12.5692,32.2108 C12.8072,32.6948 12.9262,33.2428 12.9262,33.8528 C12.9262,34.4408 12.8142,34.9708 12.5902,35.4428 C12.3392,35.9658 11.9742,36.3598 11.4962,36.6208 C11.0372,36.8738 10.5412,36.9998 10.0082,36.9998 C9.4442,36.9998 8.9362,36.8668 8.4832,36.5978 C8.0262,36.3238 7.6792,35.9398 7.4392,35.4468 C7.2062,34.9658 7.0892,34.4578 7.0892,33.9218" id="Fill-12" fill="#58585B"></path>
                <path d="M14.7896,33.4802 L16.5256,33.4802 C17.2126,33.4802 17.6586,33.3212 17.8646,33.0012 C17.9756,32.8352 18.0316,32.6542 18.0316,32.4592 C18.0316,31.7992 17.5956,31.4692 16.7226,31.4692 L14.7896,31.4692 L14.7896,33.4802 Z M13.9806,36.8932 L13.9806,30.7932 L16.6856,30.7932 C17.1576,30.7932 17.5166,30.8302 17.7626,30.9052 C18.1336,31.0122 18.4136,31.2232 18.6046,31.5382 C18.7746,31.8152 18.8596,32.1222 18.8596,32.4582 C18.8596,33.4072 18.2856,33.9612 17.1386,34.1182 C17.3546,34.2202 17.5166,34.3202 17.6246,34.4192 C17.8676,34.6412 18.0916,34.9122 18.2946,35.2332 L19.3586,36.8932 L18.3456,36.8932 L17.5366,35.6262 C17.3576,35.3392 17.2086,35.1162 17.0876,34.9562 C16.8716,34.6632 16.6916,34.4702 16.5466,34.3782 C16.4206,34.2942 16.2976,34.2392 16.1776,34.2112 C16.0936,34.1922 15.9446,34.1832 15.7286,34.1832 L14.7896,34.1832 L14.7896,36.8932 L13.9806,36.8932 Z" id="Fill-14" fill="#58585B"></path>
                <path d="M20.9308,33.689 L22.5108,33.689 C23.4708,33.689 23.9508,33.32 23.9508,32.584 C23.9508,32.344 23.8928,32.134 23.7748,31.953 C23.6488,31.759 23.4718,31.632 23.2468,31.57 C23.1138,31.534 22.8618,31.515 22.4908,31.515 L20.9308,31.515 L20.9308,33.689 Z M20.1218,36.893 L20.1218,30.794 L22.4248,30.794 C22.8188,30.794 23.1298,30.812 23.3548,30.849 C23.9458,30.954 24.3598,31.245 24.5938,31.723 C24.7158,31.976 24.7778,32.253 24.7778,32.556 C24.7778,33.795 24.0168,34.415 22.4938,34.415 L20.9308,34.415 L20.9308,36.893 L20.1218,36.893 Z" id="Fill-16" fill="#58585B"></path>
                <path d="M26.3877,33.9358 C26.3877,34.6058 26.5637,35.1588 26.9167,35.5958 C27.2957,36.0658 27.8147,36.3018 28.4737,36.3018 C29.1557,36.3018 29.6847,36.0548 30.0587,35.5638 C30.3987,35.1208 30.5677,34.5498 30.5677,33.8478 C30.5677,32.8278 30.2377,32.1098 29.5767,31.6948 C29.2517,31.4918 28.8897,31.3898 28.4867,31.3898 C27.7677,31.3898 27.2267,31.6438 26.8657,32.1518 C26.5467,32.5938 26.3877,33.1888 26.3877,33.9358 M25.5597,33.9218 C25.5597,32.9798 25.8047,32.2138 26.2957,31.6248 C26.8197,30.9998 27.5487,30.6878 28.4827,30.6878 C29.0407,30.6878 29.5437,30.8188 29.9937,31.0798 C30.4537,31.3478 30.8027,31.7248 31.0397,32.2108 C31.2777,32.6948 31.3967,33.2428 31.3967,33.8528 C31.3967,34.4408 31.2847,34.9708 31.0607,35.4428 C30.8097,35.9658 30.4447,36.3598 29.9667,36.6208 C29.5077,36.8738 29.0117,36.9998 28.4787,36.9998 C27.9147,36.9998 27.4067,36.8668 26.9537,36.5978 C26.4967,36.3238 26.1487,35.9398 25.9097,35.4468 C25.6767,34.9658 25.5597,34.4578 25.5597,33.9218" id="Fill-18" fill="#58585B"></path>
                <path d="M33.26,33.4802 L34.996,33.4802 C35.682,33.4802 36.129,33.3212 36.335,33.0012 C36.446,32.8352 36.502,32.6542 36.502,32.4592 C36.502,31.7992 36.066,31.4692 35.193,31.4692 L33.26,31.4692 L33.26,33.4802 Z M32.451,36.8932 L32.451,30.7932 L35.156,30.7932 C35.628,30.7932 35.987,30.8302 36.233,30.9052 C36.604,31.0122 36.884,31.2232 37.075,31.5382 C37.245,31.8152 37.329,32.1222 37.329,32.4582 C37.329,33.4072 36.756,33.9612 35.609,34.1182 C35.824,34.2202 35.987,34.3202 36.095,34.4192 C36.338,34.6412 36.562,34.9122 36.765,35.2332 L37.829,36.8932 L36.816,36.8932 L36.007,35.6262 C35.828,35.3392 35.679,35.1162 35.559,34.9562 C35.342,34.6632 35.162,34.4702 35.017,34.3782 C34.89,34.2942 34.767,34.2392 34.647,34.2112 C34.564,34.1922 34.414,34.1832 34.199,34.1832 L33.26,34.1832 L33.26,36.8932 L32.451,36.8932 Z" id="Fill-20" fill="#58585B"></path>
                <path d="M39.6829,34.3823 L41.7509,34.3823 L41.1169,32.6973 C40.9189,32.1763 40.7749,31.7553 40.6829,31.4323 C40.6029,31.8373 40.4919,32.2253 40.3539,32.5953 L39.6829,34.3823 Z M37.9219,36.8933 L40.2669,30.7933 L41.1349,30.7933 L43.6329,36.8933 L42.7129,36.8933 L41.9999,35.0433 L39.4519,35.0433 L38.7819,36.8933 L37.9219,36.8933 Z" id="Fill-22" fill="#58585B"></path>
            </g>
            <polygon id="Fill-25" fill="#58585B" points="62.8227 43.8263 62.8227 44.5473 64.8287 44.5473 64.8287 49.9263 65.6377 49.9263 65.6377 44.5473 67.6547 44.5473 67.6547 43.8263"></polygon>
            <polygon id="Fill-26" fill="#58585B" points="68.5008 43.8263 68.5008 49.9263 73.0518 49.9263 73.0518 49.1993 69.3108 49.1993 69.3108 47.1273 72.6818 47.1273 72.6818 46.4063 69.3108 46.4063 69.3108 44.5473 72.9128 44.5473 72.9128 43.8263"></polygon>
            <polygon id="Fill-27" fill="#58585B" points="80.802 43.8263 80.802 46.3233 77.635 46.3233 77.635 43.8263 76.825 43.8263 76.825 49.9263 77.635 49.9263 77.635 47.0493 80.802 47.0493 80.802 49.9263 81.612 49.9263 81.612 43.8263"></polygon>
            <polygon id="Fill-28" fill="#58585B" points="82.971 43.8263 82.971 49.9263 87.522 49.9263 87.522 49.1993 83.78 49.1993 83.78 47.1273 87.151 47.1273 87.151 46.4063 83.78 46.4063 83.78 44.5473 87.383 44.5473 87.383 43.8263"></polygon>
            <path d="M89.7271,47.415 L91.7951,47.415 L91.1611,45.73 C90.9631,45.209 90.8191,44.788 90.7271,44.465 C90.6471,44.87 90.5361,45.258 90.3981,45.628 L89.7271,47.415 Z M87.9661,49.926 L90.3101,43.826 L91.1791,43.826 L93.6761,49.926 L92.7571,49.926 L92.0441,48.076 L89.4961,48.076 L88.8261,49.926 L87.9661,49.926 Z" id="Fill-29" fill="#58585B"></path>
            <polygon id="Fill-31" fill="#58585B" points="94.2867 43.8263 94.2867 49.9263 98.0987 49.9263 98.0987 49.1993 95.0967 49.1993 95.0967 43.8263"></polygon>
            <polygon id="Fill-32" fill="#58585B" points="98.6067 43.8263 98.6067 44.5473 100.6137 44.5473 100.6137 49.9263 101.4227 49.9263 101.4227 44.5473 103.4387 44.5473 103.4387 43.8263"></polygon>
            <polygon id="Fill-33" fill="#58585B" points="108.2718 43.8263 108.2718 46.3233 105.1048 46.3233 105.1048 43.8263 104.2948 43.8263 104.2948 49.9263 105.1048 49.9263 105.1048 47.0493 108.2718 47.0493 108.2718 49.9263 109.0808 49.9263 109.0808 43.8263"></polygon>
            <g id="Group-41" transform="translate(0.000000, 0.032700)">
                <path d="M15.151,23.0059 C15.151,23.7669 14.535,24.3829 13.774,24.3829 C13.013,24.3829 12.396,23.7669 12.396,23.0059 C12.396,22.2449 13.013,21.6289 13.774,21.6289 C14.535,21.6289 15.151,22.2449 15.151,23.0059" id="Fill-34" fill="#E5B122"></path>
                <g id="Group-38">
                    <mask id="mask-4" fill="white">
                        <use xlink:href="#path-3"></use>
                    </mask>
                    <g id="Clip-37"></g>
                    <path d="M12.9249,13.6499 L12.9419,13.6499 C12.8439,13.7239 12.7579,13.8119 12.6819,13.9109 L12.6819,13.8929 C12.1439,14.4309 11.2719,14.4309 10.7339,13.8929 L10.7339,13.9109 C10.6589,13.8119 10.5719,13.7239 10.4719,13.6499 L10.4909,13.6499 C9.9529,13.1119 9.9529,12.2399 10.4909,11.7019 L10.4719,11.7019 C10.5719,11.6259 10.6589,11.5389 10.7339,11.4409 L10.7339,11.4589 C11.2719,10.9209 12.1439,10.9209 12.6819,11.4589 L12.6819,11.4409 C12.7579,11.5389 12.8439,11.6259 12.9419,11.7019 L12.9249,11.7019 C13.4629,12.2399 13.4629,13.1119 12.9249,13.6499 M22.0379,9.2319 C21.5909,9.2319 21.1979,9.4489 20.9459,9.7779 L20.9459,9.7609 C20.4079,10.2989 19.5359,10.2989 18.9979,9.7609 L18.9979,9.7789 C18.7459,9.4489 18.3529,9.2319 17.9059,9.2319 C17.4589,9.2319 17.0649,9.4489 16.8139,9.7779 L16.8139,9.7609 C16.2759,10.2989 15.4039,10.2989 14.8659,9.7609 L14.8659,9.7789 C14.7899,9.6799 14.7029,9.5919 14.6049,9.5179 L14.6229,9.5179 C14.0849,8.9799 14.0849,8.1079 14.6229,7.5699 L14.6049,7.5699 C14.9349,7.3169 15.1509,6.9239 15.1509,6.4769 C15.1509,5.7169 14.5339,5.0989 13.7729,5.0989 C13.0129,5.0989 12.3959,5.7169 12.3959,6.4769 C12.3959,6.9239 12.6129,7.3169 12.9419,7.5699 L12.9249,7.5699 C13.4629,8.1079 13.4629,8.9799 12.9249,9.5179 L12.9419,9.5179 C12.8439,9.5919 12.7579,9.6799 12.6819,9.7779 L12.6819,9.7609 C12.1439,10.2989 11.2719,10.2989 10.7339,9.7609 L10.7339,9.7789 C10.6589,9.6799 10.5719,9.5919 10.4719,9.5179 L10.4909,9.5179 C9.9529,8.9799 9.9529,8.1079 10.4909,7.5699 L10.4719,7.5699 C10.8029,7.3169 11.0189,6.9239 11.0189,6.4769 C11.0189,6.0299 10.8029,5.6369 10.4719,5.3859 L10.4909,5.3859 C9.9529,4.8479 9.9529,3.9749 10.4909,3.4369 L10.4719,3.4369 C10.8029,3.1849 11.0189,2.7919 11.0189,2.3449 C11.0189,1.5849 10.4019,0.9679 9.6409,0.9679 C8.8809,0.9679 8.2649,1.5849 8.2649,2.3449 C8.2649,2.7919 8.4809,3.1849 8.8109,3.4369 L8.7929,3.4369 C9.3309,3.9749 9.3309,4.8479 8.7929,5.3859 L8.8109,5.3859 C8.4809,5.6369 8.2649,6.0299 8.2649,6.4769 C8.2649,6.9239 8.4809,7.3169 8.8109,7.5699 L8.7929,7.5699 C9.3309,8.1079 9.3309,8.9799 8.7929,9.5179 L8.8109,9.5179 C8.7129,9.5919 8.6249,9.6799 8.5499,9.7779 L8.5499,9.7609 C8.0119,10.2989 7.1389,10.2989 6.6009,9.7609 L6.6009,9.7789 C6.3499,9.4489 5.9569,9.2319 5.5099,9.2319 C4.7489,9.2319 4.1319,9.8489 4.1319,10.6089 C4.1319,11.3699 4.7489,11.9869 5.5099,11.9869 C5.9569,11.9869 6.3499,11.7699 6.6009,11.4409 L6.6009,11.4589 C7.1389,10.9209 8.0119,10.9209 8.5499,11.4589 L8.5499,11.4409 C8.6249,11.5389 8.7129,11.6259 8.8109,11.7019 L8.7929,11.7019 C9.3309,12.2399 9.3309,13.1119 8.7929,13.6499 L8.8109,13.6499 C8.7129,13.7239 8.6249,13.8119 8.5499,13.9109 L8.5499,13.8929 C8.0119,14.4309 7.1389,14.4309 6.6009,13.8929 L6.6009,13.9109 C6.3499,13.5809 5.9569,13.3639 5.5099,13.3639 C5.0629,13.3639 4.6699,13.5799 4.4179,13.9109 L4.4179,13.8929 C3.8799,14.4309 3.0069,14.4309 2.4689,13.8929 L2.4689,13.9109 C2.2179,13.5809 1.8249,13.3639 1.3779,13.3639 C0.6159,13.3639 -0.0001,13.9809 -0.0001,14.7419 C-0.0001,15.5019 0.6159,16.1189 1.3779,16.1189 C1.8249,16.1189 2.2179,15.9019 2.4689,15.5719 L2.4689,15.5899 C3.0069,15.0519 3.8799,15.0519 4.4179,15.5899 L4.4179,15.5729 C4.6699,15.9019 5.0629,16.1189 5.5099,16.1189 C5.9569,16.1189 6.3499,15.9019 6.6009,15.5719 L6.6009,15.5899 C7.1389,15.0519 8.0119,15.0519 8.5499,15.5899 L8.5499,15.5729 C8.6249,15.6709 8.7129,15.7579 8.8109,15.8329 L8.7929,15.8329 C9.3309,16.3709 9.3309,17.2439 8.7929,17.7809 L8.8109,17.7809 C8.4809,18.0339 8.2649,18.4269 8.2649,18.8739 C8.2649,19.6339 8.8809,20.2509 9.6409,20.2509 C10.4019,20.2509 11.0189,19.6339 11.0189,18.8739 C11.0189,18.4269 10.8029,18.0339 10.4719,17.7809 L10.4909,17.7809 C9.9529,17.2439 9.9529,16.3709 10.4909,15.8329 L10.4719,15.8329 C10.5719,15.7579 10.6589,15.6709 10.7339,15.5719 L10.7339,15.5899 C11.2719,15.0519 12.1439,15.0519 12.6819,15.5899 L12.6819,15.5729 C12.7579,15.6709 12.8439,15.7579 12.9419,15.8329 L12.9249,15.8329 C13.4629,16.3709 13.4629,17.2439 12.9249,17.7809 L12.9429,17.7809 C12.6129,18.0339 12.3959,18.4269 12.3959,18.8739 C12.3959,19.6339 13.0129,20.2509 13.7729,20.2509 C14.5339,20.2509 15.1509,19.6339 15.1509,18.8739 C15.1509,18.4269 14.9339,18.0339 14.6049,17.7809 L14.6229,17.7809 C14.0849,17.2439 14.0849,16.3709 14.6229,15.8329 L14.6049,15.8329 C14.7029,15.7579 14.7899,15.6709 14.8659,15.5719 L14.8659,15.5899 C15.4039,15.0519 16.2759,15.0519 16.8139,15.5899 L16.8139,15.5729 C17.0649,15.9019 17.4589,16.1189 17.9059,16.1189 C18.6669,16.1189 19.2829,15.5019 19.2829,14.7419 C19.2829,13.9809 18.6669,13.3639 17.9059,13.3639 C17.4589,13.3639 17.0649,13.5799 16.8139,13.9109 L16.8139,13.8929 C16.2759,14.4309 15.4039,14.4309 14.8659,13.8929 L14.8659,13.9109 C14.7899,13.8119 14.7029,13.7239 14.6049,13.6499 L14.6229,13.6499 C14.0849,13.1119 14.0849,12.2399 14.6229,11.7019 L14.6049,11.7019 C14.7029,11.6259 14.7899,11.5389 14.8659,11.4409 L14.8659,11.4589 C15.4039,10.9209 16.2759,10.9209 16.8139,11.4589 L16.8139,11.4409 C17.0649,11.7709 17.4589,11.9869 17.9059,11.9869 C18.3529,11.9869 18.7459,11.7699 18.9979,11.4409 L18.9979,11.4589 C19.5359,10.9209 20.4079,10.9209 20.9459,11.4589 L20.9459,11.4409 C21.1979,11.7709 21.5909,11.9869 22.0379,11.9869 C22.7979,11.9869 23.4149,11.3699 23.4149,10.6089 C23.4149,9.8489 22.7979,9.2319 22.0379,9.2319" id="Fill-36" fill="#E5B122" mask="url(#mask-4)"></path>
                </g>
                <path d="M113.7028,48.4902 C113.7028,49.1512 113.1668,49.6872 112.5058,49.6872 C111.8448,49.6872 111.3088,49.1512 111.3088,48.4902 C111.3088,47.8292 111.8448,47.2932 112.5058,47.2932 C113.1668,47.2932 113.7028,47.8292 113.7028,48.4902" id="Fill-39" fill="#E5B122"></path>
            </g>
        </g>
    </g>
</svg>