<?xml version="1.0" encoding="UTF-8"?>
<svg width="115px" height="50px" viewBox="0 0 115 50" version="1.1" xmlns="http://www.w3.org/2000/svg" xmlns:xlink="http://www.w3.org/1999/xlink">
    <!-- Generator: Sketch 49.1 (51147) - http://www.bohemiancoding.com/sketch -->
    <title>logo-white</title>
    <desc>Created with Sketch.</desc>
    <defs>
        <polygon id="path-1" points="0.117746818 0.771390797 5.52501024 0.771390797 5.52501024 7.10173814 0.117746818 7.10173814"></polygon>
        <polygon id="path-3" points="0 0.546833837 23.4791985 0.546833837 23.4791985 19.8820261 0 19.8820261"></polygon>
        <polygon id="path-5" points="0.824511799 0.126552974 3.22418912 0.126552974 3.22418912 2.52694047 0.824511799 2.52694047"></polygon>
    </defs>
    <g id="Page-1" stroke="none" stroke-width="1" fill="none" fill-rule="evenodd">
        <g id="logo-white" transform="translate(0.500000, -1.000000)">
            <g id="Group-5" transform="translate(16.623824, 13.657353)" fill="#FEFEFE">
                <path d="M20.7304665,18.45969 L24.3069018,19.3758142 C23.5811042,22.2108281 22.2743844,24.4010041 20.3839017,25.9477627 C18.4266627,27.5484945 15.9964479,28.3495705 13.0946777,28.3495705 C7.52407426,28.3495705 3.7587327,26.0500277 1.80149366,21.4509421 C0.844179361,19.2124742 0.364101863,16.8106664 0.364101863,14.2483593 C0.364101863,8.46896477 2.4378094,4.45222168 6.58664483,2.20097069 C8.57087046,1.1158251 10.7610465,0.571831955 13.157173,0.571831955 C15.8260062,0.571831955 18.092881,1.24365638 19.9535364,2.58588489 C21.8141918,3.92953375 23.1152302,5.86262687 23.8552313,8.38658461 L20.319986,9.22032867 C19.1141109,5.50469927 16.6952589,3.64404388 13.06343,3.64404388 C8.85636034,3.64404388 6.13071324,5.45924815 4.88364802,9.08823634 C4.32119036,10.7543041 4.03996153,12.4743451 4.03996153,14.2483593 C4.03996153,19.1229923 5.41769873,22.3798494 8.17175278,24.0175103 C9.59636145,24.8569357 11.1317572,25.2773586 12.7750994,25.2773586 C17.0773324,25.2773586 19.7305418,23.0048024 20.7304665,18.45969" id="Fill-1"></path>
                <path d="M30.2781853,24.686494 L37.0248365,24.686494 C38.1753181,24.686494 38.992018,24.6467243 39.4720955,24.5657645 C41.1168581,24.2674914 42.2616583,23.5289107 42.9064961,22.3514425 C43.261583,21.7023436 43.4405468,20.9509797 43.4405468,20.0973508 C43.4405468,17.9583073 42.4676087,16.5706276 40.5203121,15.9343119 C39.6013471,15.6374593 38.2790035,15.4883228 36.5518608,15.4883228 L30.2781853,15.4883228 L30.2781853,24.686494 Z M30.2781853,12.2939609 L36.1413803,12.2939609 C37.7165458,12.2939609 38.8556646,12.1916959 39.5544757,11.9900065 C41.3924055,11.4374913 42.3113704,10.214572 42.3113704,8.32550966 C42.3113704,6.35406715 41.4818874,5.11268333 39.821501,4.59993783 C39.0133232,4.34285491 37.635586,4.21502362 35.6882894,4.21502362 L30.2781853,4.21502362 L30.2781853,12.2939609 Z M26.6847058,27.8822762 L26.6847058,1.04054667 L36.871439,1.04054667 C40.7674526,1.04054667 43.4149805,2.14557713 44.8140229,4.35421769 C45.512834,5.47913301 45.8636598,6.65802155 45.8636598,7.89088329 C45.8636598,10.4531904 44.6038115,12.3507748 42.0855351,13.5836366 C45.4531794,14.5750392 47.1362913,16.7481711 47.1362913,20.1016119 C47.1362913,22.7221532 46.2045433,24.7248434 44.3438879,26.1096823 C42.7559392,27.2914116 40.3129413,27.8822762 37.0134738,27.8822762 L26.6847058,27.8822762 Z" id="Fill-3"></path>
            </g>
            <polygon id="Fill-6" fill="#FEFEFE" points="66.9192524 41.5389186 66.9192524 14.6986095 70.5127319 14.6986095 70.5127319 25.6864187 84.5784345 25.6864187 84.5784345 14.6986095 88.171914 14.6986095 88.171914 41.5389186 84.5784345 41.5389186 84.5784345 28.8807805 70.5127319 28.8807805 70.5127319 41.5389186"></polygon>
            <g id="Group-24" transform="translate(19.884867, 13.657353)">
                <path d="M71.1372588,19.2532382 L74.4850181,18.9691687 C74.8003353,21.5783473 76.090011,23.3694056 78.3554654,24.3437641 C79.5897475,24.8707131 80.9774272,25.1334774 82.5142433,25.1334774 C85.397549,25.1334774 87.387456,24.3821135 88.4853847,22.8808061 C89.0080727,22.1763136 89.2679963,21.4107463 89.2679963,20.5855243 C89.2679963,18.8669037 88.2055762,17.6070553 86.0821565,16.8088199 C85.2313683,16.4835603 83.5326325,16.0304694 80.9831085,15.4481269 C78.7900918,14.9467442 77.1325461,14.4027511 76.0076308,13.8204085 C73.4453237,12.4767597 72.1641701,10.5294631 72.1641701,7.97993908 C72.1641701,6.51414033 72.5817523,5.19889843 73.4169167,4.03279302 C74.2378777,2.90503701 75.3386471,2.05708947 76.7220657,1.48753007 C78.2134307,0.876780591 79.8766577,0.572826199 81.7117469,0.572826199 C85.928759,0.572826199 88.8774007,1.83409489 90.561933,4.35663228 C91.3828939,5.6065382 91.820361,7.01694339 91.8757545,8.59068856 L88.4669202,8.85487322 C88.0962095,5.43609648 85.8932503,3.72599793 81.855202,3.72599793 C80.2075987,3.72599793 78.8412243,3.99018259 77.7560787,4.51571122 C76.3144259,5.20457982 75.5928893,6.27836262 75.5928893,7.73563929 C75.5928893,9.09917302 76.3740805,10.1388675 77.9364629,10.8547227 C78.5813007,11.1515753 79.9576176,11.5364895 82.0682541,12.0094653 C85.001272,12.6614049 87.0025418,13.2309643 88.0720636,13.7209842 C91.1556383,15.1200266 92.6967154,17.3059416 92.6967154,20.2815699 C92.6967154,21.8155453 92.2521466,23.2145878 91.363009,24.4786971 C90.500858,25.687413 89.3503764,26.6248424 87.9129846,27.2909854 C86.3662261,27.9968982 84.6206188,28.3505648 82.6761629,28.3505648 C77.8583438,28.3505648 74.504903,26.9245358 72.6158407,24.0767388 C71.6713095,22.6521301 71.1784489,21.0442966 71.1372588,19.2532382" id="Fill-7" fill="#FEFEFE"></path>
                <g id="Group-11" transform="translate(0.000000, 29.827300)">
                    <mask id="mask-2" fill="white">
                        <use xlink:href="#path-1"></use>
                    </mask>
                    <g id="Clip-10"></g>
                    <path d="M4.71683244,4.84778849 L5.52501024,5.05657959 C5.36024992,5.70283776 5.06623796,6.20137978 4.63871332,6.55362599 C4.19698521,6.91865534 3.64731068,7.10188018 2.99253042,7.10188018 C1.73410242,7.10188018 0.884734538,6.5777719 0.441586078,5.52955535 C0.225693238,5.01965056 0.117746818,4.47281672 0.117746818,3.88905384 C0.117746818,2.57097124 0.586461536,1.65626737 1.52247062,1.14210153 C1.97130047,0.894961041 2.46558145,0.771390797 3.0067339,0.771390797 C3.60896129,0.771390797 4.12028644,0.924788341 4.54212968,1.23158343 C4.96113223,1.53695817 5.25514419,1.97726593 5.42274521,2.55250672 L4.62450985,2.74283331 C4.3518031,1.89630612 3.80638961,1.47162218 2.98542868,1.47162218 C2.03521612,1.47162218 1.42020559,1.88494334 1.13897676,2.71300601 C1.01114548,3.09223882 0.947229834,3.48425477 0.947229834,3.88905384 C0.947229834,4.99976569 1.25828596,5.74118715 1.88039823,6.11331823 C2.20281714,6.30506516 2.54938196,6.4016488 2.92009269,6.4016488 C3.89303082,6.4016488 4.49099717,5.88464226 4.71683244,4.84778849" id="Fill-9" fill="#FEFEFE" mask="url(#mask-2)"></path>
                </g>
                <path d="M7.10557308,33.8565424 C7.10557308,34.5283668 7.28311654,35.0837227 7.63536275,35.5211898 C8.01601591,35.9927452 8.53728349,36.2285229 9.19632479,36.2285229 C9.88093235,36.2285229 10.4121424,35.9813824 10.7856938,35.4885218 C11.1279976,35.0453733 11.2970189,34.4715529 11.2970189,33.7684808 C11.2970189,32.7458305 10.9660779,32.0257143 10.3027756,31.6095524 C9.97751599,31.4050224 9.613907,31.3041777 9.21052827,31.3041777 C8.48899167,31.3041777 7.94783923,31.5584199 7.58565058,32.0669043 C7.26607237,32.5100528 7.10557308,33.1065988 7.10557308,33.8565424 M6.27609007,33.8423389 C6.27609007,32.8978077 6.52181021,32.13082 7.01325049,31.5399554 C7.53877911,30.9121617 8.26883779,30.5996852 9.20626723,30.5996852 C9.76588419,30.5996852 10.2701076,30.7303572 10.7217781,30.9931215 C11.1819708,31.2615672 11.5327966,31.6393797 11.7699947,32.1265589 C12.0086131,32.6123178 12.1279223,33.1619924 12.1279223,33.7741622 C12.1279223,34.3636065 12.0157148,34.8948165 11.7912999,35.3677922 C11.5398984,35.8919005 11.1734487,36.2867572 10.6947915,36.5481011 C10.2345989,36.8023433 9.73605689,36.9287543 9.20200618,36.9287543 C8.63670783,36.9287543 8.12680303,36.7952416 7.67371213,36.5253756 C7.21493985,36.2512485 6.86695468,35.8663343 6.62691593,35.3720533 C6.39255857,34.8891351 6.27609007,34.3806506 6.27609007,33.8423389" id="Fill-12" fill="#FEFEFE"></path>
                <path d="M13.9966737,33.3996165 L15.7380199,33.3996165 C16.4254681,33.3996165 16.8728776,33.2405376 17.0802484,32.919539 C17.1910355,32.7533584 17.2478494,32.5715539 17.2478494,32.3755459 C17.2478494,31.7136639 16.8103823,31.3827229 15.9340278,31.3827229 L13.9966737,31.3827229 L13.9966737,33.3996165 Z M13.1856552,36.8226543 L13.1856552,30.7052171 L15.8985191,30.7052171 C16.3714949,30.7052171 16.7308429,30.7421461 16.9779833,30.8174245 C17.3501144,30.925371 17.6313433,31.1370028 17.8230902,31.4523199 C17.9921116,31.7307081 18.0773324,32.0375032 18.0773324,32.3741255 C18.0773324,33.3271788 17.5020916,33.8811144 16.35161,34.0401933 C16.5689232,34.1424583 16.7308429,34.2418827 16.8387893,34.341307 C17.0830891,34.5628812 17.307504,34.835588 17.5106137,35.1565865 L18.5787151,36.8226543 L17.5617462,36.8226543 L16.7507277,35.5514432 C16.5717639,35.2631126 16.4226274,35.040118 16.3004775,34.8796188 C16.0845847,34.5856068 15.9042005,34.3924395 15.7579047,34.3001169 C15.6314938,34.2163164 15.5079236,34.1609229 15.387194,34.1325159 C15.3033935,34.1140514 15.154257,34.104109 14.9383642,34.104109 L13.9966737,34.104109 L13.9966737,36.8226543 L13.1856552,36.8226543 Z" id="Fill-14" fill="#FEFEFE"></path>
                <path d="M20.1545908,33.6089758 L21.7382784,33.6089758 C22.7012741,33.6089758 23.182772,33.2396854 23.182772,32.5011046 C23.182772,32.2610659 23.1245377,32.0494341 23.0066489,31.8676296 C22.8788176,31.673042 22.7026945,31.546631 22.4768592,31.4841357 C22.3433465,31.448627 22.0905246,31.4287422 21.7198139,31.4287422 L20.1545908,31.4287422 L20.1545908,33.6089758 Z M19.3435723,36.8218021 L19.3435723,30.7057852 L21.6530576,30.7057852 C22.0479142,30.7057852 22.3589703,30.7242497 22.5848056,30.7611788 C23.1785109,30.8662845 23.5918321,31.1588761 23.8276098,31.6375333 C23.9497597,31.8917755 24.012255,32.1687433 24.012255,32.4726977 C24.012255,33.7155018 23.2495283,34.3361938 21.7226546,34.3361938 L20.1545908,34.3361938 L20.1545908,36.8218021 L19.3435723,36.8218021 Z" id="Fill-16" fill="#FEFEFE"></path>
                <path d="M25.626196,33.8565424 C25.626196,34.5283668 25.8037394,35.0837227 26.1559857,35.5211898 C26.5366388,35.9927452 27.0579064,36.2285229 27.7169477,36.2285229 C28.4015553,36.2285229 28.9327653,35.9813824 29.3063167,35.4885218 C29.6486205,35.0453733 29.8176418,34.4715529 29.8176418,33.7684808 C29.8176418,32.7458305 29.4867008,32.0257143 28.8233985,31.6095524 C28.4981389,31.4050224 28.1345299,31.3041777 27.7311512,31.3041777 C27.0096146,31.3041777 26.4684621,31.5584199 26.1048531,32.0669043 C25.7852749,32.5100528 25.626196,33.1065988 25.626196,33.8565424 M24.796713,33.8423389 C24.796713,32.8978077 25.0424331,32.13082 25.5338734,31.5399554 C26.059402,30.9121617 26.7894607,30.5996852 27.7268901,30.5996852 C28.2865071,30.5996852 28.7907305,30.7303572 29.2424011,30.9931215 C29.7025937,31.2615672 30.0534196,31.6393797 30.2906176,32.1265589 C30.529236,32.6123178 30.6485452,33.1619924 30.6485452,33.7741622 C30.6485452,34.3636065 30.5363377,34.8948165 30.3119228,35.3677922 C30.0605213,35.8919005 29.6940716,36.2867572 29.2139941,36.5481011 C28.7552218,36.8023433 28.2566798,36.9287543 27.7226291,36.9287543 C27.1573307,36.9287543 26.6474259,36.7952416 26.194335,36.5253756 C25.7355628,36.2512485 25.3875776,35.8663343 25.1461185,35.3720533 C24.9131815,34.8891351 24.796713,34.3806506 24.796713,33.8423389" id="Fill-18" fill="#FEFEFE"></path>
                <path d="M32.5172966,33.3996165 L34.2586428,33.3996165 C34.946091,33.3996165 35.3935005,33.2405376 35.6008713,32.919539 C35.7116584,32.7533584 35.7684723,32.5715539 35.7684723,32.3755459 C35.7684723,31.7136639 35.3310052,31.3827229 34.4560711,31.3827229 L32.5172966,31.3827229 L32.5172966,33.3996165 Z M31.7062781,36.8226543 L31.7062781,30.7052171 L34.4191421,30.7052171 C34.8921178,30.7052171 35.2514658,30.7421461 35.4986063,30.8174245 C35.8707373,30.925371 36.1519662,31.1370028 36.3437131,31.4523199 C36.5127345,31.7307081 36.5979553,32.0375032 36.5979553,32.3741255 C36.5979553,33.3271788 36.0227145,33.8811144 34.872233,34.0401933 C35.0881258,34.1424583 35.2514658,34.2418827 35.3594122,34.341307 C35.603712,34.5628812 35.8281269,34.835588 36.0312366,35.1565865 L37.099338,36.8226543 L36.0823691,36.8226543 L35.2713506,35.5514432 C35.0923868,35.2631126 34.9432503,35.040118 34.8225208,34.8796188 C34.6052076,34.5856068 34.4248234,34.3924395 34.2785276,34.3001169 C34.1521167,34.2163164 34.0285465,34.1609229 33.9078169,34.1325159 C33.8240164,34.1140514 33.6748799,34.104109 33.4589871,34.104109 L32.5172966,34.104109 L32.5172966,36.8226543 L31.7062781,36.8226543 Z" id="Fill-20" fill="#FEFEFE"></path>
                <path d="M38.9575788,34.304378 L41.0312864,34.304378 L40.3949706,32.6141643 C40.1975423,32.0928967 40.0526669,31.6696331 39.9603443,31.3457939 C39.8793844,31.7534336 39.7685973,32.1411885 39.6308236,32.5133196 L38.9575788,34.304378 Z M37.1906664,36.8226543 L39.5427621,30.7052171 L40.4134352,30.7052171 L42.9189284,36.8226543 L41.9957024,36.8226543 L41.2812676,34.9676803 L38.7260622,34.9676803 L38.0542377,36.8226543 L37.1906664,36.8226543 Z" id="Fill-22" fill="#FEFEFE"></path>
            </g>
            <polygon id="Fill-25" fill="#FEFEFE" points="62.9927014 44.3635639 62.9927014 45.0865209 65.005334 45.0865209 65.005334 50.4795808 65.8163525 50.4795808 65.8163525 45.0865209 67.8389275 45.0865209 67.8389275 44.3635639"></polygon>
            <polygon id="Fill-26" fill="#FEFEFE" points="68.6875852 44.3635639 68.6875852 50.4795808 73.2511622 50.4795808 73.2511622 49.7509425 69.5000241 49.7509425 69.5000241 47.6729739 72.8790311 47.6729739 72.8790311 46.9514373 69.5000241 46.9514373 69.5000241 45.0865209 73.1119681 45.0865209 73.1119681 44.3635639"></polygon>
            <polygon id="Fill-27" fill="#FEFEFE" points="81.0220261 44.3635639 81.0220261 46.8662165 77.8447084 46.8662165 77.8447084 44.3635639 77.0336899 44.3635639 77.0336899 50.4795808 77.8447084 50.4795808 77.8447084 47.5948548 81.0220261 47.5948548 81.0220261 50.4795808 81.8330446 50.4795808 81.8330446 44.3635639"></polygon>
            <polygon id="Fill-28" fill="#FEFEFE" points="83.1964363 44.3635639 83.1964363 50.4795808 87.7600132 50.4795808 87.7600132 49.7509425 84.0074548 49.7509425 84.0074548 47.6729739 87.3878821 47.6729739 87.3878821 46.9514373 84.0074548 46.9514373 84.0074548 45.0865209 87.6208191 45.0865209 87.6208191 44.3635639"></polygon>
            <path d="M89.9710683,47.9617306 L92.0447759,47.9617306 L91.4084601,46.2715169 C91.2110318,45.7502493 91.0661564,45.3269857 90.9738338,45.0031465 C90.892874,45.4107863 90.7820868,45.7985412 90.6443131,46.1706722 L89.9710683,47.9617306 Z M88.2041559,50.4800069 L90.5548312,44.3625697 L91.4269247,44.3625697 L93.9309975,50.4800069 L93.0091919,50.4800069 L92.2947571,48.6250329 L89.7395517,48.6250329 L89.0677273,50.4800069 L88.2041559,50.4800069 Z" id="Fill-29" fill="#FEFEFE"></path>
            <polygon id="Fill-31" fill="#FEFEFE" points="94.5440196 44.3635639 94.5440196 50.4795808 98.3647547 50.4795808 98.3647547 49.7509425 95.3550381 49.7509425 95.3550381 44.3635639"></polygon>
            <polygon id="Fill-32" fill="#FEFEFE" points="98.8749436 44.3635639 98.8749436 45.0865209 100.887576 45.0865209 100.887576 50.4795808 101.698595 50.4795808 101.698595 45.0865209 103.72117 45.0865209 103.72117 44.3635639"></polygon>
            <polygon id="Fill-33" fill="#FEFEFE" points="108.565833 44.3635639 108.565833 46.8662165 105.389936 46.8662165 105.389936 44.3635639 104.577497 44.3635639 104.577497 50.4795808 105.389936 50.4795808 105.389936 47.5948548 108.565833 47.5948548 108.565833 50.4795808 109.378272 50.4795808 109.378272 44.3635639"></polygon>
            <g id="Group-42" transform="translate(0.000000, 0.874224)">
                <path d="M15.1923223,22.6444602 C15.1923223,23.4071869 14.5744711,24.0250381 13.8117444,24.0250381 C13.0490177,24.0250381 12.4297462,23.4071869 12.4297462,22.6444602 C12.4297462,21.8817335 13.0490177,21.2638823 13.8117444,21.2638823 C14.5744711,21.2638823 15.1923223,21.8817335 15.1923223,22.6444602" id="Fill-34" fill="#E5B122"></path>
                <g id="Group-38">
                    <mask id="mask-4" fill="white">
                        <use xlink:href="#path-3"></use>
                    </mask>
                    <g id="Clip-37"></g>
                    <path d="M12.960104,13.2632062 L12.9771481,13.2632062 C12.8791442,13.3384846 12.792503,13.4251258 12.7158042,13.5245501 L12.7158042,13.507506 C12.1774924,14.0458177 11.3025583,14.0458177 10.7628262,13.507506 L10.7628262,13.5245501 C10.6875478,13.4251258 10.6009066,13.3384846 10.5014822,13.2632062 L10.5185264,13.2632062 C9.98021465,12.7234741 9.98021465,11.8499603 10.5185264,11.3102282 L10.5014822,11.3102282 C10.6009066,11.2335294 10.6875478,11.1468882 10.7628262,11.0474639 L10.7628262,11.0659284 C11.3025583,10.5261963 12.1774924,10.5261963 12.7158042,11.0659284 L12.7158042,11.0474639 C12.792503,11.1468882 12.8791442,11.2335294 12.9771481,11.3102282 L12.960104,11.3102282 C13.4998361,11.8499603 13.4998361,12.7234741 12.960104,13.2632062 M22.0986206,8.8331419 C21.6497908,8.8331419 21.2549341,9.05045509 21.0035326,9.38139609 L21.0035326,9.36293157 C20.4638005,9.90266367 19.5888664,9.90266367 19.0505546,9.36293157 L19.0505546,9.38139609 C18.7963124,9.05045509 18.4028761,8.8331419 17.9540462,8.8331419 C17.5066367,8.8331419 17.1117801,9.05045509 16.8603786,9.38139609 L16.8603786,9.36293157 C16.3206465,9.90266367 15.4457123,9.90266367 14.9059802,9.36293157 L14.9059802,9.38139609 C14.8307018,9.28197176 14.7426402,9.19533055 14.6446363,9.12005213 L14.6631008,9.12005213 C14.1233687,8.58032003 14.1233687,7.70538589 14.6631008,7.16707414 L14.6446363,7.16707414 C14.9755773,6.91425226 15.1914701,6.51939562 15.1914701,6.07056577 C15.1914701,5.30783909 14.5736189,4.68998787 13.8108922,4.68998787 C13.0481655,4.68998787 12.4303143,5.30783909 12.4303143,6.07056577 C12.4303143,6.51939562 12.6476275,6.91425226 12.9771481,7.16707414 L12.960104,7.16707414 C13.4998361,7.70538589 13.4998361,8.58032003 12.960104,9.12005213 L12.9771481,9.12005213 C12.8791442,9.19533055 12.792503,9.28197176 12.7158042,9.38139609 L12.7158042,9.36293157 C12.1774924,9.90266367 11.3025583,9.90266367 10.7628262,9.36293157 L10.7628262,9.38139609 C10.6875478,9.28197176 10.6009066,9.19533055 10.5014822,9.12005213 L10.5185264,9.12005213 C9.98021465,8.58032003 9.98021465,7.70538589 10.5185264,7.16707414 L10.5014822,7.16707414 C10.8324232,6.91425226 11.0483161,6.51939562 11.0483161,6.07056577 C11.0483161,5.62315626 10.8324232,5.22829962 10.5014822,4.97689809 L10.5185264,4.97689809 C9.98021465,4.43716599 9.98021465,3.56223185 10.5185264,3.02249975 L10.5014822,3.02249975 C10.8324232,2.76967788 11.0483161,2.37482124 11.0483161,1.92741173 C11.0483161,1.16468506 10.4304648,0.546833837 9.66773817,0.546833837 C8.90501149,0.546833837 8.28716028,1.16468506 8.28716028,1.92741173 C8.28716028,2.37482124 8.50305312,2.76967788 8.83541446,3.02249975 L8.81694994,3.02249975 C9.35668204,3.56223185 9.35668204,4.43716599 8.81694994,4.97689809 L8.83541446,4.97689809 C8.50305312,5.22829962 8.28716028,5.62315626 8.28716028,6.07056577 C8.28716028,6.51939562 8.50305312,6.91425226 8.83541446,7.16707414 L8.81694994,7.16707414 C9.35668204,7.70538589 9.35668204,8.58032003 8.81694994,9.12005213 L8.83541446,9.12005213 C8.73599013,9.19533055 8.64792857,9.28197176 8.57265015,9.38139609 L8.57265015,9.36293157 C8.03291805,9.90266367 7.15940426,9.90266367 6.61967216,9.36293157 L6.61967216,9.38139609 C6.36685028,9.05045509 5.97341399,8.8331419 5.52458414,8.8331419 C4.76185746,8.8331419 4.14400624,9.45241347 4.14400624,10.2137198 C4.14400624,10.9778668 4.76185746,11.595718 5.52458414,11.595718 C5.97341399,11.595718 6.36685028,11.3784049 6.61967216,11.0474639 L6.61967216,11.0659284 C7.15940426,10.5261963 8.03291805,10.5261963 8.57265015,11.0659284 L8.57265015,11.0474639 C8.64792857,11.1468882 8.73599013,11.2335294 8.83541446,11.3102282 L8.81694994,11.3102282 C9.35668204,11.8499603 9.35668204,12.7234741 8.81694994,13.2632062 L8.83541446,13.2632062 C8.73599013,13.3384846 8.64792857,13.4251258 8.57265015,13.5245501 L8.57265015,13.507506 C8.03291805,14.0458177 7.15940426,14.0458177 6.61967216,13.507506 L6.61967216,13.5245501 C6.36685028,13.1936091 5.97341399,12.9762959 5.52458414,12.9762959 C5.07717463,12.9762959 4.68231799,13.1936091 4.43091646,13.5245501 L4.43091646,13.507506 C3.89118436,14.0458177 3.01482988,14.0458177 2.47509778,13.507506 L2.47509778,13.5245501 C2.22369625,13.1936091 1.82883961,12.9762959 1.3814301,12.9762959 C0.618703427,12.9762959 -0.000568139052,13.5941472 -0.000568139052,14.3582942 C-0.000568139052,15.1196005 0.618703427,15.7388721 1.3814301,15.7388721 C1.82883961,15.7388721 2.22369625,15.5215589 2.47509778,15.1906179 L2.47509778,15.2090824 C3.01482988,14.6693503 3.89118436,14.6693503 4.43091646,15.2090824 L4.43091646,15.1920382 C4.68231799,15.5215589 5.07717463,15.7388721 5.52458414,15.7388721 C5.97341399,15.7388721 6.36685028,15.5215589 6.61967216,15.1906179 L6.61967216,15.2090824 C7.15940426,14.6693503 8.03291805,14.6693503 8.57265015,15.2090824 L8.57265015,15.1920382 C8.64792857,15.2900422 8.73599013,15.3766834 8.83541446,15.4519619 L8.81694994,15.4519619 C9.35668204,15.991694 9.35668204,16.8666281 8.81694994,17.4063602 L8.83541446,17.4063602 C8.50305312,17.6591821 8.28716028,18.0526184 8.28716028,18.5014482 C8.28716028,19.2641749 8.90501149,19.8820261 9.66773817,19.8820261 C10.4304648,19.8820261 11.0483161,19.2641749 11.0483161,18.5014482 C11.0483161,18.0526184 10.8324232,17.6591821 10.5014822,17.4063602 L10.5185264,17.4063602 C9.98021465,16.8666281 9.98021465,15.991694 10.5185264,15.4519619 L10.5014822,15.4519619 C10.6009066,15.3766834 10.6875478,15.2900422 10.7628262,15.1906179 L10.7628262,15.2090824 C11.3025583,14.6693503 12.1774924,14.6693503 12.7158042,15.2090824 L12.7158042,15.1920382 C12.792503,15.2900422 12.8791442,15.3766834 12.9771481,15.4519619 L12.960104,15.4519619 C13.4998361,15.991694 13.4998361,16.8666281 12.960104,17.4063602 L12.9785685,17.4063602 C12.6476275,17.6591821 12.4303143,18.0526184 12.4303143,18.5014482 C12.4303143,19.2641749 13.0481655,19.8820261 13.8108922,19.8820261 C14.5736189,19.8820261 15.1914701,19.2641749 15.1914701,18.5014482 C15.1914701,18.0526184 14.9741569,17.6591821 14.6446363,17.4063602 L14.6631008,17.4063602 C14.1233687,16.8666281 14.1233687,15.991694 14.6631008,15.4519619 L14.6446363,15.4519619 C14.7426402,15.3766834 14.8307018,15.2900422 14.9059802,15.1906179 L14.9059802,15.2090824 C15.4457123,14.6693503 16.3206465,14.6693503 16.8603786,15.2090824 L16.8603786,15.1920382 C17.1117801,15.5215589 17.5066367,15.7388721 17.9540462,15.7388721 C18.7181933,15.7388721 19.3360445,15.1196005 19.3360445,14.3582942 C19.3360445,13.5941472 18.7181933,12.9762959 17.9540462,12.9762959 C17.5066367,12.9762959 17.1117801,13.1936091 16.8603786,13.5245501 L16.8603786,13.507506 C16.3206465,14.0458177 15.4457123,14.0458177 14.9059802,13.507506 L14.9059802,13.5245501 C14.8307018,13.4251258 14.7426402,13.3384846 14.6446363,13.2632062 L14.6631008,13.2632062 C14.1233687,12.7234741 14.1233687,11.8499603 14.6631008,11.3102282 L14.6446363,11.3102282 C14.7426402,11.2335294 14.8307018,11.1468882 14.9059802,11.0474639 L14.9059802,11.0659284 C15.4457123,10.5261963 16.3206465,10.5261963 16.8603786,11.0659284 L16.8603786,11.0474639 C17.1117801,11.3798252 17.5066367,11.595718 17.9540462,11.595718 C18.4028761,11.595718 18.7963124,11.3784049 19.0505546,11.0474639 L19.0505546,11.0659284 C19.5888664,10.5261963 20.4638005,10.5261963 21.0035326,11.0659284 L21.0035326,11.0474639 C21.2549341,11.3798252 21.6497908,11.595718 22.0986206,11.595718 C22.8599269,11.595718 23.4791985,10.9778668 23.4791985,10.2137198 C23.4791985,9.45241347 22.8599269,8.8331419 22.0986206,8.8331419" id="Fill-36" fill="#E5B122" mask="url(#mask-4)"></path>
                </g>
                <g id="Group-41" transform="translate(110.787115, 46.871472)">
                    <mask id="mask-6" fill="white">
                        <use xlink:href="#path-5"></use>
                    </mask>
                    <g id="Clip-40"></g>
                    <path d="M3.22489929,1.32674672 C3.22489929,1.99004906 2.68800789,2.52694047 2.02470555,2.52694047 C1.3614032,2.52694047 0.824511799,1.99004906 0.824511799,1.32674672 C0.824511799,0.663444377 1.3614032,0.126552974 2.02470555,0.126552974 C2.68800789,0.126552974 3.22489929,0.663444377 3.22489929,1.32674672" id="Fill-39" fill="#E5B122" mask="url(#mask-6)"></path>
                </g>
            </g>
        </g>
    </g>
</svg>