<?xml version="1.0" encoding="UTF-8"?>
<svg width="71px" height="71px" viewBox="0 0 71 71" version="1.1" xmlns="http://www.w3.org/2000/svg" xmlns:xlink="http://www.w3.org/1999/xlink">
    <!-- Generator: Sketch 49.1 (51147) - http://www.bohemiancoding.com/sketch -->
    <title>money-icon</title>
    <desc>Created with Sketch.</desc>
    <defs>
        <polygon id="path-1" points="0 0.1921 70.8078 0.1921 70.8078 71 0 71"></polygon>
    </defs>
    <g id="Page-1" stroke="none" stroke-width="1" fill="none" fill-rule="evenodd">
        <g id="money-icon" transform="translate(0.000000, -1.000000)">
            <g id="Group-3" transform="translate(0.000000, 0.807700)">
                <mask id="mask-2" fill="white">
                    <use xlink:href="#path-1"></use>
                </mask>
                <g id="Clip-2"></g>
                <path d="M35.4038,71.0001 C54.9568,71.0001 70.8078,55.1491 70.8078,35.5961 C70.8078,16.0431 54.9568,0.1921 35.4038,0.1921 C15.8508,0.1921 -0.0002,16.0431 -0.0002,35.5961 C-0.0002,55.1491 15.8508,71.0001 35.4038,71.0001" id="Fill-1" fill="#FEFEFE" mask="url(#mask-2)"></path>
            </g>
            <path d="M37.1581,43.888 L43.0261,40.767 C44.4071,40.032 47.1021,38.918 47.1181,41.673 L48.1081,40.994 C50.8901,39.09 53.0091,40.44 51.9671,43.07 C56.9101,39.476 58.6581,44.027 56.4571,45.145 L45.5181,52.054 L40.8801,54.984 C37.6011,57.055 33.2701,57.087 32.0531,56.36 C25.1311,54.575 23.1351,52.877 17.1001,53.651 M14.1901,41.334 L21.3441,38.426 C23.1681,37.685 25.2131,37.875 25.9841,38.445 C27.2741,39.402 28.5671,40.36 29.8591,41.316 C35.2381,45.303 35.6741,44.306 42.0101,44.685 C43.4171,44.768 44.3391,47.029 42.0101,47.925 C36.0961,50.629 32.4451,49.417 27.0541,46.656" id="Stroke-4" stroke="#2655A2" stroke-width="1.92" stroke-linecap="round" stroke-linejoin="round"></path>
            <path d="M35.7919,16.8384 L35.7919,19.3164 L35.7919,16.8384 Z M35.7919,30.1264 L35.7919,32.6044 L35.7919,30.1264 Z M35.7919,13.1764 C42.1689,13.1764 47.3379,18.3454 47.3379,24.7214 C47.3379,31.0984 42.1689,36.2654 35.7919,36.2654 C29.4159,36.2654 24.2469,31.0984 24.2469,24.7214 C24.2469,18.3454 29.4159,13.1764 35.7919,13.1764 Z M39.3849,20.6094 C38.2429,20.2284 37.2119,19.8734 36.1799,19.7574 C30.6119,19.1304 29.8979,24.7404 35.8239,24.7224 C41.5839,24.7034 41.0409,30.3164 35.4609,29.6874 C34.4269,29.5704 33.3999,29.2114 32.2639,28.8354 L39.3849,20.6094 Z" id="Stroke-6" stroke="#E5B122" stroke-width="1.92" stroke-linecap="round" stroke-linejoin="round"></path>
        </g>
    </g>
</svg>