<?xml version="1.0" encoding="UTF-8"?>
<svg width="72px" height="71px" viewBox="0 0 72 71" version="1.1" xmlns="http://www.w3.org/2000/svg" xmlns:xlink="http://www.w3.org/1999/xlink">
    <!-- Generator: Sketch 49.1 (51147) - http://www.bohemiancoding.com/sketch -->
    <title>thumbs-up-icon</title>
    <desc>Created with Sketch.</desc>
    <defs>
        <polygon id="path-1" points="0 0.192 70.8078 0.192 70.8078 70.9999 0 70.9999"></polygon>
    </defs>
    <g id="Page-1" stroke="none" stroke-width="1" fill="none" fill-rule="evenodd">
        <g id="thumbs-up-icon" transform="translate(0.871590, -1.000000)">
            <g id="Group-3" transform="translate(0.000000, 0.807700)">
                <mask id="mask-2" fill="white">
                    <use xlink:href="#path-1"></use>
                </mask>
                <g id="Clip-2"></g>
                <path d="M35.4038,70.9999 C54.9568,70.9999 70.8078,55.1489 70.8078,35.5959 C70.8078,16.0429 54.9568,0.1919 35.4038,0.1919 C15.8508,0.1919 -0.0002,16.0429 -0.0002,35.5959 C-0.0002,55.1489 15.8508,70.9999 35.4038,70.9999" id="Fill-1" fill="#FEFEFE" mask="url(#mask-2)"></path>
            </g>
            <path d="M51.4413,35.2729 L37.4073,35.2729 C35.9723,35.2729 34.7963,36.0309 34.7963,37.3979 L34.7963,38.2939 C34.7963,39.6609 35.9813,40.4189 37.4073,40.4189 L51.4413,40.4189 C52.8643,40.4189 54.0503,39.6729 54.0503,38.2939 L54.0503,37.3979 C54.0503,36.0189 52.8743,35.2729 51.4413,35.2729 Z M49.0673,40.8529 L37.4063,40.8529 C35.9733,40.8529 34.7983,41.6729 34.7983,43.0429 L34.7983,43.9369 C34.7983,45.3069 35.9803,46.1249 37.4063,46.1249 L49.0673,46.1249 C50.4943,46.1249 51.6763,45.3159 51.6763,43.9369 L51.6763,43.0429 C51.6763,41.6629 50.5023,40.8529 49.0673,40.8529 Z M46.3113,46.5589 L37.4073,46.5589 C35.9733,46.5589 34.7973,47.3809 34.7973,48.7479 L34.7973,49.6439 C34.7973,51.0119 35.9813,51.8319 37.4073,51.8319 L46.3113,51.8319 C47.7363,51.8319 48.9203,51.0209 48.9203,49.6439 L48.9203,48.7479 C48.9203,47.3699 47.7443,46.5589 46.3113,46.5589 Z M37.2553,28.9409 C40.8553,23.0499 40.9523,20.8679 39.5103,17.3489 C36.7043,10.5049 32.3393,12.9979 32.8233,14.7189 C33.5973,17.4759 33.7393,19.6559 33.4303,21.4209 C31.6023,31.8429 16.1363,27.3559 16.9353,40.7869 L17.1383,44.1899 C17.4003,48.6209 22.0673,52.0859 25.4923,52.0859 L33.5563,52.0859 C34.4553,52.0859 35.3213,51.8989 36.0983,51.5639 L37.2553,28.9409 Z M48.5763,29.5659 L38.4903,29.5659 C37.0573,29.5659 35.8143,30.3249 35.8143,31.6929 L35.8143,32.5879 C35.8143,33.9559 36.9973,34.7129 38.4243,34.7129 L48.5763,34.7129 C50.0033,34.7129 51.1853,33.9669 51.1853,32.5879 L51.1853,31.6929 C51.1853,30.3139 50.0093,29.5659 48.5763,29.5659 Z" id="Stroke-4" stroke="#2655A2" stroke-width="1.706" stroke-linecap="round" stroke-linejoin="round"></path>
        </g>
    </g>
</svg>