<?xml version="1.0" encoding="utf-8"?>
<!-- Generator: Adobe Illustrator 21.0.0, SVG Export Plug-In . SVG Version: 6.00 Build 0)  -->
<svg version="1.1" id="Layer_1" xmlns="http://www.w3.org/2000/svg" xmlns:xlink="http://www.w3.org/1999/xlink" x="0px" y="0px"
	 viewBox="0 0 717 728.6" style="enable-background:new 0 0 717 728.6;" xml:space="preserve">
<style type="text/css">
	.st0{fill:#4F3795;}
	.st1{fill:#423393;}
	.st2{fill:none;stroke:#FFFFFF;stroke-width:3.9071;}
	.st3{fill:#FFFFFF;}
	.st4{fill:#FDBB30;}
	.st5{clip-path:url(#SVGID_2_);fill:#FFFFFF;}
	.st6{clip-path:url(#SVGID_4_);fill:#FFFFFF;}
	.st7{clip-path:url(#SVGID_4_);fill:#FDBB30;}
	.st8{clip-path:url(#SVGID_6_);fill:#E11F26;}
</style>
<rect x="-1316.5" y="-729.8" class="st0" width="1207.7" height="1700.8"/>
<rect x="-742.6" y="887.7" class="st1" width="2.9" height="11.8"/>
<g>
	<g>
		<path class="st2" d="M-1161.2-623.9h-32.8c0,0-48.9,0-48.9,48.9l0,1419.2c0,0,0.2,48.8,49.1,48.8"/>
	</g>
	<g>
		<path class="st2" d="M-1193.8,893h961.7c0,0,49.8,0,49.8-49.8V-578.9c0,0,0-44.3-49.8-44.3h-29.5"/>
	</g>
</g>
<g>
	<rect x="-1180.3" y="-626" class="st1" width="22.2" height="5.5"/>
	<rect x="-275.2" y="-643.6" class="st3" width="40.7" height="40.7"/>
	<rect x="-265.9" y="-626" class="st0" width="22.2" height="5.5"/>
	<rect x="-1190.7" y="-645.2" class="st4" width="41.5" height="41.5"/>
	<rect x="-1181.2" y="-627.3" class="st0" width="22.6" height="5.6"/>
	<g>
		<g>
			<path class="st4" d="M-1009.4-642.7l25.3,0l-65.7,80c4.9,1.2,10,1.9,15.3,1.9c34.7,0,62.9-28.1,62.9-62.9v-0.1
				c0-16.9-6.7-32.3-17.6-43.6L-1009.4-642.7z"/>
			<path class="st3" d="M-1051.1-563l24.2-58.4h-21.3l33.2-62.1c-6.1-2-12.7-3.1-19.5-3.1c-34.7,0-62.9,28.2-62.9,62.9v0
				C-1097.3-594.7-1077.7-570.3-1051.1-563"/>
			<path class="st3" d="M-890.4-607.4c0,4.1-0.8,7.6-2.4,10.4c-1.6,2.8-3.8,5.1-6.5,6.8c-2.7,1.7-5.8,2.9-9.2,3.7
				c-3.4,0.7-7,1.1-10.6,1.1h-30v-75.4h30c2.9,0,5.9,0.3,8.9,0.9c3.1,0.6,5.8,1.6,8.3,3.1c2.5,1.5,4.5,3.4,6.1,5.9
				c1.6,2.5,2.3,5.6,2.3,9.5c0,4.2-1.1,7.6-3.4,10.4c-2.3,2.7-5.3,4.7-8.9,5.9v0.2c2.1,0.4,4.1,1,6,2c1.9,1,3.5,2.2,4.9,3.7
				c1.4,1.5,2.5,3.2,3.3,5.2C-890.8-612.2-890.4-609.9-890.4-607.4 M-911-639.1c0-2.6-1-4.4-2.9-5.6c-2-1.2-4.8-1.8-8.7-1.8h-8.9
				v15.5h9.8c3.4,0,6.1-0.7,7.9-2.1C-912-634.3-911-636.4-911-639.1 M-908.6-609.2c0-3.1-1.2-5.3-3.5-6.5c-2.3-1.2-5.5-1.8-9.4-1.8
				h-10.1v17.3h10.2c1.4,0,2.9-0.1,4.4-0.4c1.5-0.2,2.9-0.7,4.2-1.3c1.2-0.6,2.3-1.5,3-2.7C-909-605.8-908.6-607.3-908.6-609.2"/>
			<path class="st3" d="M-884.7-631.3c3.1-3,6.8-5.2,10.9-6.7c4.2-1.5,8.4-2.2,12.7-2.2c4.5,0,8.3,0.6,11.3,1.6
				c3.1,1.1,5.6,2.8,7.5,5.1c1.9,2.3,3.3,5.2,4.2,8.7c0.9,3.5,1.3,7.7,1.3,12.5v26.7h-16v-5.6h-0.3c-1.3,2.2-3.4,3.9-6.1,5.1
				c-2.7,1.2-5.7,1.8-8.9,1.8c-2.1,0-4.3-0.3-6.6-0.9c-2.3-0.6-4.3-1.5-6.2-2.8c-1.9-1.3-3.4-3-4.6-5.1c-1.2-2.1-1.8-4.8-1.8-7.9
				c0-3.8,1-6.9,3.1-9.3c2.1-2.3,4.8-4.2,8.1-5.4c3.3-1.3,7-2.1,11-2.6c4-0.4,8-0.6,11.8-0.6v-0.9c0-2.6-0.9-4.6-2.8-5.8
				s-4.1-1.9-6.8-1.9c-2.5,0-4.9,0.5-7.2,1.6c-2.3,1.1-4.3,2.3-5.9,3.8L-884.7-631.3z M-852.6-608.6h-2.2c-1.9,0-3.8,0.1-5.8,0.3
				c-2,0.2-3.7,0.5-5.2,1c-1.5,0.5-2.8,1.2-3.8,2.2c-1,1-1.5,2.2-1.5,3.8c0,1,0.2,1.8,0.7,2.6c0.5,0.7,1,1.3,1.8,1.7
				c0.7,0.4,1.5,0.7,2.5,0.9c0.9,0.2,1.8,0.3,2.7,0.3c3.5,0,6.3-1,8.1-2.9c1.9-2,2.8-4.6,2.8-7.9V-608.6z"/>
			<path class="st3" d="M-809.3-625.6v20.3c0,2.5,0.5,4.4,1.4,5.6c1,1.2,2.7,1.9,5.2,1.9c0.9,0,1.8-0.1,2.7-0.2
				c1-0.1,1.8-0.4,2.4-0.6l0.2,12.8c-1.2,0.4-2.7,0.8-4.6,1.1c-1.8,0.3-3.7,0.5-5.5,0.5c-3.6,0-6.5-0.4-8.9-1.3
				c-2.4-0.9-4.3-2.2-5.8-3.8c-1.5-1.7-2.5-3.7-3.1-6c-0.6-2.3-1-4.9-1-7.7v-22.4h-8.5v-13h8.4v-13.9h17.1v13.9h12.5v13H-809.3z"/>
			<path class="st3" d="M-776.3-625.6v20.3c0,2.5,0.5,4.4,1.4,5.6c1,1.2,2.7,1.9,5.2,1.9c0.9,0,1.8-0.1,2.7-0.2
				c1-0.1,1.8-0.4,2.4-0.6l0.2,12.8c-1.2,0.4-2.7,0.8-4.6,1.1c-1.8,0.3-3.7,0.5-5.5,0.5c-3.6,0-6.5-0.4-8.9-1.3s-4.3-2.2-5.8-3.8
				c-1.5-1.7-2.5-3.7-3.1-6c-0.6-2.3-1-4.9-1-7.7v-22.4h-8.5v-13h8.4v-13.9h17.1v13.9h12.5v13H-776.3z"/>
			<path class="st3" d="M-707.6-611.4v2.1c0,0.7,0,1.4-0.1,2h-38.4c0.1,1.5,0.6,2.8,1.3,4c0.7,1.2,1.7,2.3,2.9,3.1
				c1.2,0.9,2.5,1.6,3.9,2.1c1.5,0.5,3,0.7,4.5,0.7c2.8,0,5.1-0.5,7-1.5c1.9-1,3.5-2.4,4.7-4l12.1,7.7c-2.5,3.6-5.8,6.4-9.9,8.4
				c-4.1,1.9-8.8,2.9-14.2,2.9c-4,0-7.7-0.6-11.3-1.9c-3.6-1.2-6.7-3.1-9.3-5.4s-4.8-5.3-6.3-8.8c-1.5-3.5-2.3-7.5-2.3-11.9
				c0-4.3,0.7-8.3,2.2-11.8c1.5-3.5,3.5-6.5,6.1-8.9c2.6-2.5,5.6-4.3,9-5.7c3.5-1.3,7.2-2,11.3-2c3.9,0,7.5,0.7,10.8,2
				c3.3,1.3,6.1,3.2,8.4,5.7c2.3,2.5,4.2,5.5,5.5,9C-708.2-620-707.6-615.9-707.6-611.4 M-723.7-618.1c0-2.8-0.9-5.1-2.6-7.1
				c-1.7-2-4.3-3-7.8-3c-1.7,0-3.3,0.3-4.7,0.8c-1.4,0.5-2.7,1.3-3.7,2.2c-1.1,0.9-1.9,2-2.6,3.2c-0.6,1.2-1,2.5-1.1,3.9H-723.7z"/>
			<path class="st3" d="M-669.6-624.2c-0.8-0.2-1.5-0.4-2.3-0.4c-0.7-0.1-1.5-0.1-2.2-0.1c-2.3,0-4.3,0.4-5.9,1.3
				c-1.6,0.8-2.9,1.9-3.8,3.1c-1,1.2-1.6,2.5-2.1,3.9c-0.4,1.4-0.6,2.7-0.6,3.7v27.2H-704v-53h16.8v7.7h0.2c1.3-2.7,3.3-4.9,5.8-6.6
				c2.5-1.7,5.4-2.6,8.6-2.6c0.7,0,1.4,0,2.1,0.1c0.7,0.1,1.2,0.2,1.7,0.3L-669.6-624.2z"/>
			<path class="st3" d="M-629.8-577.5c-1.1,2.8-2.3,5.2-3.6,7.4c-1.3,2.2-2.9,4-4.7,5.5c-1.8,1.5-3.9,2.7-6.4,3.5
				c-2.5,0.8-5.3,1.2-8.7,1.2c-1.6,0-3.3-0.1-5.1-0.3c-1.7-0.2-3.3-0.5-4.5-0.9l1.9-14.7c0.9,0.3,1.8,0.5,2.8,0.7
				c1,0.2,2,0.3,2.8,0.3c2.7,0,4.6-0.6,5.9-1.9c1.2-1.2,2.2-3,3.1-5.3l1.7-4.4l-22.1-52.2h19.4l11.8,34.1h0.3l10.5-34.1h18.5
				L-629.8-577.5z"/>
		</g>
		<polygon class="st4" points="-521.2,-585.5 -539.2,-585.5 -554.1,-636.5 -554.4,-636.5 -569.3,-585.5 -587.4,-585.5 
			-608.8,-660.9 -589.2,-660.9 -577.3,-610.7 -577,-610.7 -563.5,-660.9 -544.6,-660.9 -531.1,-610.7 -530.7,-610.7 -518.6,-660.9 
			-499.6,-660.9 		"/>
		<g>
			<path class="st4" d="M-449-612.2c0,4.3-0.8,8.3-2.3,11.8c-1.6,3.5-3.7,6.5-6.4,8.9c-2.7,2.5-5.8,4.3-9.4,5.7
				c-3.5,1.3-7.3,2-11.4,2c-4,0-7.8-0.7-11.3-2c-3.6-1.3-6.7-3.2-9.4-5.7c-2.7-2.4-4.8-5.4-6.3-8.9c-1.6-3.5-2.3-7.4-2.3-11.8
				c0-4.3,0.8-8.2,2.3-11.7c1.6-3.5,3.7-6.4,6.3-8.8c2.7-2.4,5.8-4.3,9.4-5.5c3.6-1.3,7.4-1.9,11.3-1.9c4,0,7.8,0.6,11.4,1.9
				c3.6,1.3,6.7,3.1,9.4,5.5c2.7,2.4,4.8,5.4,6.4,8.8C-449.7-620.5-449-616.6-449-612.2 M-465.8-612.2c0-1.7-0.3-3.4-0.9-5
				c-0.6-1.6-1.4-3.1-2.4-4.3c-1.1-1.2-2.4-2.3-3.9-3s-3.4-1.2-5.4-1.2c-2.1,0-3.9,0.4-5.4,1.2c-1.6,0.8-2.9,1.8-3.9,3
				c-1,1.2-1.8,2.7-2.3,4.3c-0.5,1.6-0.8,3.3-0.8,5s0.3,3.4,0.8,5c0.5,1.6,1.3,3.1,2.4,4.4c1.1,1.3,2.4,2.4,3.9,3.1
				c1.6,0.8,3.4,1.2,5.4,1.2c2.1,0,3.9-0.4,5.4-1.2c1.6-0.8,2.9-1.8,3.9-3.1c1.1-1.3,1.9-2.8,2.4-4.4
				C-466.1-608.9-465.8-610.5-465.8-612.2"/>
			<path class="st4" d="M-410.9-624.2c-0.8-0.2-1.5-0.4-2.3-0.4c-0.7-0.1-1.5-0.1-2.2-0.1c-2.3,0-4.3,0.4-5.9,1.3
				c-1.6,0.8-2.9,1.9-3.8,3.1s-1.6,2.5-2.1,3.9c-0.4,1.4-0.6,2.7-0.6,3.7v27.2h-17.5v-53h16.8v7.7h0.2c1.3-2.7,3.3-4.9,5.8-6.6
				c2.5-1.7,5.4-2.6,8.6-2.6c0.7,0,1.4,0,2.1,0.1c0.7,0.1,1.2,0.2,1.7,0.3L-410.9-624.2z"/>
		</g>
		<rect x="-406.5" y="-666" class="st4" width="17.8" height="80.5"/>
		<path class="st4" d="M-342.3-585.5v-6.9h-0.2c-1.7,2.7-4.1,4.8-7.3,6.2c-3.2,1.5-6.5,2.2-10.1,2.2c-4,0-7.5-0.8-10.6-2.3
			c-3.1-1.6-5.8-3.6-7.9-6.2c-2.2-2.6-3.8-5.6-5-9c-1.1-3.4-1.7-7-1.7-10.6s0.6-7.2,1.8-10.6c1.2-3.4,2.8-6.3,5-8.9
			c2.2-2.6,4.8-4.6,7.9-6.1c3.1-1.5,6.5-2.2,10.4-2.2c3.9,0,7.2,0.7,9.9,2.2c2.7,1.5,4.8,3.1,6.3,4.9h0.2V-666h17.5v80.5H-342.3z
			 M-342.9-612.1c0-1.7-0.3-3.4-0.9-5c-0.6-1.6-1.5-3.1-2.6-4.4c-1.1-1.3-2.4-2.3-4-3.1s-3.3-1.2-5.3-1.2c-2.1,0-3.9,0.4-5.4,1.2
			s-2.9,1.8-3.9,3c-1.1,1.2-1.9,2.7-2.4,4.3c-0.5,1.6-0.8,3.3-0.8,5s0.3,3.4,0.8,5.1c0.5,1.7,1.3,3.1,2.4,4.4
			c1.1,1.3,2.4,2.3,3.9,3.1c1.6,0.8,3.4,1.2,5.4,1.2c2,0,3.8-0.4,5.3-1.2c1.6-0.8,2.9-1.8,4-3.1c1.1-1.3,1.9-2.7,2.6-4.4
			C-343.2-608.8-342.9-610.4-342.9-612.1"/>
		<path class="st4" d="M-321.7-661.1c0-0.7,0.1-1.3,0.4-1.9c0.3-0.6,0.6-1.1,1.1-1.6c0.4-0.4,1-0.8,1.6-1.1c0.6-0.3,1.2-0.4,1.9-0.4
			c0.7,0,1.3,0.1,1.9,0.4c0.6,0.3,1.1,0.6,1.6,1.1c0.4,0.4,0.8,1,1.1,1.6c0.3,0.6,0.4,1.2,0.4,1.9s-0.1,1.3-0.4,1.9
			c-0.3,0.6-0.6,1.1-1.1,1.6c-0.5,0.4-1,0.8-1.6,1c-0.6,0.3-1.2,0.4-1.9,0.4c-0.7,0-1.3-0.1-1.9-0.4c-0.6-0.3-1.1-0.6-1.6-1
			c-0.4-0.4-0.8-1-1.1-1.6C-321.5-659.8-321.7-660.4-321.7-661.1 M-320.9-661.1c0,0.6,0.1,1.1,0.3,1.6c0.2,0.5,0.5,1,0.9,1.3
			c0.4,0.4,0.8,0.7,1.3,0.9c0.5,0.2,1,0.3,1.6,0.3c0.6,0,1.1-0.1,1.6-0.3c0.5-0.2,0.9-0.5,1.3-0.9c0.4-0.4,0.7-0.8,0.9-1.3
			c0.2-0.5,0.3-1,0.3-1.6c0-0.6-0.1-1.1-0.3-1.6c-0.2-0.5-0.5-0.9-0.9-1.3c-0.4-0.4-0.8-0.7-1.3-0.9c-0.5-0.2-1-0.3-1.6-0.3
			c-0.6,0-1.1,0.1-1.6,0.3c-0.5,0.2-0.9,0.5-1.3,0.9c-0.4,0.4-0.7,0.8-0.9,1.3C-320.8-662.2-320.9-661.7-320.9-661.1 M-315.5-658.4
			l-1.2-2.2h-0.8v2.2h-1.3v-5.6h2.4c0.3,0,0.5,0,0.8,0.1c0.2,0.1,0.5,0.1,0.7,0.3c0.2,0.1,0.4,0.3,0.5,0.5c0.1,0.2,0.2,0.5,0.2,0.8
			c0,0.4-0.1,0.7-0.3,0.9c-0.2,0.2-0.5,0.4-0.8,0.5l1.5,2.3H-315.5z M-316.5-661.5c0.2,0,0.4-0.1,0.6-0.2c0.2-0.1,0.2-0.3,0.2-0.5
			c0-0.2-0.1-0.4-0.3-0.5c-0.2-0.1-0.4-0.1-0.5-0.1h-1v1.4H-316.5z"/>
	</g>
</g>
<path class="st2" d="M-938.6-627.9"/>
<text transform="matrix(1.0015 0 0 1 762.0196 -364.8808)" class="st3" style="font-family:'Gotham-Black'; font-size:102.2604px;">TRADING HOURS</text>
<g>
	<g>
		<rect x="355.1" y="115.2" class="st3" width="10.7" height="37.3"/>
		<rect x="104.4" y="364.1" class="st3" width="37.3" height="10.7"/>
		<rect x="355.1" y="590.5" class="st3" width="10.7" height="37.3"/>
		<rect x="579.3" y="364.1" class="st3" width="37.3" height="10.7"/>
		<g>
			<defs>
				<rect id="SVGID_1_" width="717" height="728.6"/>
			</defs>
			<clipPath id="SVGID_2_">
				<use xlink:href="#SVGID_1_"  style="overflow:visible;"/>
			</clipPath>
			<path class="st5" d="M272.6,361.3c31.1-19.2,69.9-43.2,69.9-88.4c0-43.4-35.6-73.8-86.6-73.8c-62.4,0-86.4,47.2-87.4,49.2
				l-2.3,4.6l43,26.5l2.9-5c0.1-0.2,14.4-24.4,40-24.4c16,0,32.2,8.2,32.2,26.5c0,16.4-19.8,29.2-42.8,43.9
				c-32.8,21.1-73.6,47.4-73.6,98.1c0,6.1,0.9,12.2,1.8,18.6l1.1,7.5h175.6v-47.3H231C235.4,384.4,252.8,373.6,272.6,361.3"/>
			<path class="st5" d="M526.8,339.3V203.1h-62.1l-110,149.1v33.1H471v59.4h55.8v-59.4h32.2v-46H526.8z M419.1,339.3l50.9-65.2
				c0.4-0.5,0.7-1,1.1-1.5c0,0.3,0,0.6,0,1v65.7H419.1z"/>
			<polygon class="st5" points="224.6,491.3 194.2,491.3 194.2,458.3 170.4,458.3 170.4,542.8 194.2,542.8 194.2,510.5 224.6,510.5 
				224.6,542.8 248.4,542.8 248.4,458.3 224.6,458.3 			"/>
			<path class="st5" d="M308.8,456.9c-27.1,0-47.6,18.5-47.6,43.1c0,25.2,20.5,44.1,47.6,44.1c27.1,0,47.6-19,47.6-44.1
				C356.4,475.5,335.9,456.9,308.8,456.9 M308.8,523.7c-12.9,0-23-10.4-23-23.7c0-12.7,10.1-22.6,23-22.6c12.9,0,23,9.9,23,22.6
				C331.8,513.3,321.7,523.7,308.8,523.7"/>
			<path class="st5" d="M420.7,511.5c0,7.8-5.3,12.3-14.4,12.3c-9.2,0-14.4-4.5-14.4-12.3v-53.1H368v53.1
				c0,19.6,15.4,32.7,38.4,32.7c22.8,0,38.1-13.1,38.1-32.7v-53.1h-23.8V511.5z"/>
		</g>
		<g>
			<defs>
				<rect id="SVGID_3_" x="1.5" width="714" height="728.6"/>
			</defs>
			<clipPath id="SVGID_4_">
				<use xlink:href="#SVGID_3_"  style="overflow:visible;"/>
			</clipPath>
			<path class="st6" d="M518.8,512.4c-1.3-2.1-2.2-3.5-2.8-4.3c7.9-4.2,12.9-13.1,12.9-22.9c0-12-6.2-21.1-17.1-24.9
				c-4.2-1.5-8.8-2-17.7-2h-32v84.5H486V515h8.6l15.8,27.8h26.7L518.8,512.4z M486,477.6h6.4c10.4,0,12.5,3.3,12.5,8.9
				c0,5.8-3.8,9.2-10.3,9.2H486V477.6z"/>
			<path class="st7" d="M617.9,123.8l-60.6,57.1c48.3,51.3,74.9,118.5,74.9,189.3c0,151.8-122.8,275.3-273.8,275.3
				c-150.9,0-273.8-123.5-273.8-275.3c0-151.8,122.8-275.3,273.8-275.3c26.8,0,53,3.8,78.2,11.4l-12.2,25.5l145.6-11.1L487.7,0
				l-14.6,30.4c-36.8-12.5-75.2-18.9-114.5-18.9c-196.8,0-357,160.8-357,358.5s160.1,358.5,357,358.5s357-160.8,357-358.5
				C715.5,278.1,680.8,190.6,617.9,123.8"/>
		</g>
		<g>
			<defs>
				<rect id="SVGID_5_" width="717" height="728.6"/>
			</defs>
			<clipPath id="SVGID_6_">
				<use xlink:href="#SVGID_5_"  style="overflow:visible;"/>
			</clipPath>
			<path class="st8" d="M132.2,552.2l9.3,9.9l-9.5,19.2c-1.4,2.9-3.9,7.2-3.9,7.2l0.1,0.1c0,0,4.5-2.2,7.5-3.5l19.7-8.3l9.3,9.9
				l-31.6,35.6l-8.6-9.1l14.5-15.8c2.4-2.7,5.8-5.5,5.8-5.5l-0.1-0.1c0,0-4.8,2.2-7.8,3.4l-13.7,5.5l-7.4-7.8l6.3-13.3
				c1.4-2.9,3.8-7.5,3.8-7.5l-0.1-0.1c0,0-3,3.2-5.8,5.5l-16.6,13.5l-8.7-9.2L132.2,552.2z"/>
			<path class="st8" d="M191.3,605.8c12.6,9,15.6,24.2,7.7,35.3c-8.1,11.3-23.6,13.6-36.2,4.6c-12.6-9-15.5-24.4-7.4-35.8
				C163.4,598.9,178.7,596.8,191.3,605.8 M169,637.1c6.2,4.5,14.8,3.1,19.5-3.5c4.5-6.3,2.9-14.6-3.3-19.1c-6.2-4.5-14.6-3.3-19.2,3
				C161.3,624.1,162.7,632.6,169,637.1"/>
			<path class="st8" d="M217.3,623.9l17,8.2c9.2,4.5,13.8,11.4,10.3,18.8c-1.7,3.6-5.4,6.3-9.7,6.5l-0.1,0.1c4.6,4,4.4,9.3,2.6,13.1
				c-4.5,9.3-14.5,8.7-23.7,4.2l-17-8.2L217.3,623.9z M219.1,666.4c3.3,1.6,5.9,0.3,7.1-2.1c1.2-2.4,0.6-5.1-2.7-6.7l-6.8-3.3
				l-4.3,8.8L219.1,666.4z M226.4,648.7c2.8,1.4,5,0.1,6-2c1-2,0.5-4.2-2.5-5.7l-5.6-2.7l-3.7,7.6L226.4,648.7z"/>
			
				<rect x="233.4" y="660.8" transform="matrix(0.326 -0.9454 0.9454 0.326 -457.3705 692.679)" class="st8" width="47.4" height="12.5"/>
			<polygon class="st8" points="280.6,650 292.9,652.8 284.5,689.3 304.9,694 302.6,703.7 270,696.2 			"/>
			<polygon class="st8" points="317.1,657.8 349.1,660.9 348.1,670.8 328.6,668.9 327.8,677.5 343.3,679.1 342.4,689 326.8,687.4 
				325.9,696.4 346.4,698.4 345.4,708.3 312.5,705.1 			"/>
			<path class="st8" d="M381,692.9c0,0,6.3,4.3,12.7,3.7c2.6-0.3,5.3-1.5,5-4.3c-0.6-5.6-23.5-3.1-25-17.6
				c-0.9-8.7,6.5-15.3,16.6-16.3c11-1.1,16.9,3.7,16.9,3.7l-4.3,10c0,0-5.5-3.6-11.7-3c-2.6,0.3-5.3,1.6-5,4.2
				c0.6,5.9,23.5,2.6,25,17.5c0.8,7.9-5,15.3-16.5,16.5c-12,1.2-19.3-4.9-19.3-4.9L381,692.9z"/>
			<polygon class="st8" points="413.9,656.1 445.1,648.6 447.5,658.3 428.5,662.9 430.5,671.3 445.7,667.6 448,677.3 432.8,680.9 
				434.9,689.6 454.9,684.8 457.3,694.5 425.1,702.3 			"/>
			<path class="st8" d="M452.3,646.4l16.5-6.7c4.8-2,7.3-2.6,9.7-2.7c6.2-0.3,11.4,2.8,14,9.2c1.9,4.7,1.6,10.7-2.2,14.9l0.1,0.1
				c0,0,1,0.5,2.9,1.9l15.5,11.6l-12.9,5.3l-14.4-11.4l-5.4,2.2l6,14.8l-11.6,4.7L452.3,646.4z M477,659.6c3.7-1.5,5.3-4.4,3.8-7.9
				c-1.3-3.3-3.5-4.7-9.3-2.4l-3.9,1.6l4.3,10.7L477,659.6z"/>
			<path class="st8" d="M487.4,632.6l11.7-6.9l21.6,18.6c2.4,2.1,5.6,5.6,5.6,5.6l0.1-0.1c0,0-1.6-4.5-2.2-7.6l-5.9-27.9l11.5-6.8
				l8.7,50l-11.2,6.7L487.4,632.6z"/>
			
				<rect x="545.5" y="595.7" transform="matrix(0.7939 -0.608 0.608 0.7939 -262.9348 463.1255)" class="st8" width="12.5" height="47.4"/>
			<path class="st8" d="M566.5,573.9c9-8.9,18.4-8.7,18.4-8.7l2,10.3c0,0-7.5,0.6-12.5,5.5c-7,6.9-5.6,14.9-0.8,19.8
				c4.9,5,13.6,6.7,20.3,0c5.5-5.4,5.6-13.7,5.6-13.7l10.6,1.5c0,0,0.4,10.8-9.1,20.1c-11.5,11.2-26.6,11.3-36.4,1.3
				C554.8,600.3,555.5,584.7,566.5,573.9"/>
			<polygon class="st8" points="584,556.5 603.3,530.9 611.2,536.9 599.5,552.5 606.3,557.7 615.8,545.2 623.7,551.2 614.3,563.7 
				621.4,569.1 633.8,552.6 641.8,558.6 621.8,585.1 			"/>
		</g>
	</g>
</g>
<text transform="matrix(1 0 0 1 -1159.2683 -152.6386)" class="st3" style="font-family:'Gotham-Black'; font-size:186.6998px;">YOU FOR</text>
<g>
	<text transform="matrix(1 0 0 1 -2541.4832 -153.5712)"><tspan x="0" y="0" class="st3" style="font-family:'Gotham-Bold'; font-size:61.4941px;">Monday</tspan><tspan x="0" y="73.8" class="st3" style="font-family:'Gotham-Bold'; font-size:61.4941px;">Tuesday</tspan><tspan x="0" y="147.6" class="st3" style="font-family:'Gotham-Bold'; font-size:61.4941px;">Wednesday</tspan><tspan x="369.9" y="147.6" class="st3" style="font-family:'Gotham-Bold'; font-size:61.4941px; letter-spacing:165;">	</tspan><tspan x="0" y="221.4" class="st3" style="font-family:'Gotham-Bold'; font-size:61.4941px;">Thursday</tspan><tspan x="0" y="295.2" class="st3" style="font-family:'Gotham-Bold'; font-size:61.4941px;">Friday</tspan><tspan x="0" y="369" class="st3" style="font-family:'Gotham-Bold'; font-size:61.4941px;">Saturday</tspan><tspan x="0" y="442.8" class="st3" style="font-family:'Gotham-Bold'; font-size:61.4941px;">Sunday</tspan></text>
	<text transform="matrix(1 0 0 1 -2148.76 -153.5712)"><tspan x="0" y="0" class="st3" style="font-family:'Gotham-Bold'; font-size:61.4941px;">7:30am–5:30pm</tspan><tspan x="0" y="73.8" class="st3" style="font-family:'Gotham-Bold'; font-size:61.4941px;">7:30am–5:30pm</tspan><tspan x="0" y="147.6" class="st3" style="font-family:'Gotham-Bold'; font-size:61.4941px;">7:30am–5:30pm</tspan><tspan x="0" y="221.4" class="st3" style="font-family:'Gotham-Bold'; font-size:61.4941px;">7:30am–5:30pm</tspan><tspan x="0" y="295.2" class="st3" style="font-family:'Gotham-Bold'; font-size:61.4941px;">7:30am–5:30pm</tspan><tspan x="-19.7" y="369" class="st3" style="font-family:'Gotham-Bold'; font-size:61.4941px;">9:00am–4:00pm</tspan><tspan x="-45.6" y="442.8" class="st3" style="font-family:'Gotham-Bold'; font-size:61.4941px;">10:00am–3:00pm</tspan></text>
</g>
<text transform="matrix(1 0 0 1 -1164.1678 -310.3777)" class="st3" style="font-family:'Gotham-Black'; font-size:237.8795px;">THANK</text>
<text transform="matrix(1 0 0 1 -1143.2953 23.8472)" class="st3" style="font-family:'Gotham-Black'; font-size:205.4702px;">VISTING</text>
</svg>
