<?xml version="1.0" encoding="utf-8"?>
<!-- Generator: Adobe Illustrator 21.0.0, SVG Export Plug-In . SVG Version: 6.00 Build 0)  -->
<svg version="1.1" id="Layer_1" xmlns="http://www.w3.org/2000/svg" xmlns:xlink="http://www.w3.org/1999/xlink" x="0px" y="0px"
	 viewBox="0 0 785.6 126.7" style="enable-background:new 0 0 785.6 126.7;" xml:space="preserve">
<style type="text/css">
	.st0{fill:#4F3795;}
	.st1{fill:#423393;}
	.st2{fill:none;stroke:#FFFFFF;stroke-width:3.9071;}
	.st3{fill:#FFFFFF;}
	.st4{fill:#FDBB30;}
	.st5{clip-path:url(#SVGID_2_);fill:#FFFFFF;}
	.st6{clip-path:url(#SVGID_4_);fill:#FFFFFF;}
	.st7{clip-path:url(#SVGID_4_);fill:#FDBB30;}
	.st8{clip-path:url(#SVGID_6_);fill:#E11F26;}
</style>
<rect x="-190.6" y="248.5" class="st0" width="1207.7" height="1700.8"/>
<rect x="383.3" y="1866" class="st1" width="2.9" height="11.8"/>
<g>
	<g>
		<path class="st2" d="M-35.3,354.4h-32.8c0,0-48.9,0-48.9,48.9l0,1419.2c0,0,0.2,48.8,49.1,48.8"/>
	</g>
	<g>
		<path class="st2" d="M-68,1871.3h961.7c0,0,49.8,0,49.8-49.8V399.3c0,0,0-44.3-49.8-44.3h-29.5"/>
	</g>
</g>
<rect x="-82.9" y="60.6" class="st1" width="22.2" height="5.5"/>
<rect x="822.1" y="43" class="st3" width="40.7" height="40.7"/>
<rect x="831.4" y="60.6" class="st0" width="22.2" height="5.5"/>
<rect x="-93.3" y="41.4" class="st4" width="41.5" height="41.5"/>
<rect x="-83.9" y="59.3" class="st0" width="22.6" height="5.6"/>
<g>
	<g>
		<path class="st4" d="M88,43.9l25.3,0l-65.7,80c4.9,1.2,10,1.9,15.3,1.9c34.7,0,62.9-28.1,62.9-62.9v-0.1
			c0-16.9-6.7-32.3-17.6-43.6L88,43.9z"/>
		<path class="st3" d="M46.3,123.6l24.2-58.4H49.2L82.4,3.1C76.2,1.1,69.7,0,62.9,0C28.2,0,0,28.2,0,62.9v0
			C0,91.9,19.6,116.3,46.3,123.6"/>
		<path class="st3" d="M207,79.2c0,4.1-0.8,7.6-2.4,10.4c-1.6,2.8-3.8,5.1-6.5,6.8c-2.7,1.7-5.8,2.9-9.2,3.7
			c-3.4,0.7-7,1.1-10.6,1.1h-30V25.7h30c2.9,0,5.9,0.3,8.9,0.9c3.1,0.6,5.8,1.6,8.3,3.1c2.5,1.5,4.5,3.4,6.1,5.9
			c1.6,2.5,2.3,5.6,2.3,9.5c0,4.2-1.1,7.6-3.4,10.4c-2.3,2.7-5.3,4.7-8.9,5.9v0.2c2.1,0.4,4.1,1,6,2c1.9,1,3.5,2.2,4.9,3.7
			c1.4,1.5,2.5,3.2,3.3,5.2C206.6,74.4,207,76.7,207,79.2 M186.3,47.5c0-2.6-1-4.4-2.9-5.6c-2-1.2-4.8-1.8-8.7-1.8h-8.9v15.5h9.8
			c3.4,0,6.1-0.7,7.9-2.1C185.4,52.3,186.3,50.2,186.3,47.5 M188.8,77.5c0-3.1-1.2-5.3-3.5-6.5c-2.3-1.2-5.5-1.8-9.4-1.8h-10.1v17.3
			H176c1.4,0,2.9-0.1,4.4-0.4c1.5-0.2,2.9-0.7,4.2-1.3c1.2-0.6,2.3-1.5,3-2.7C188.4,80.8,188.8,79.3,188.8,77.5"/>
		<path class="st3" d="M212.7,55.3c3.1-3,6.8-5.2,10.9-6.7c4.2-1.5,8.4-2.2,12.7-2.2c4.5,0,8.3,0.6,11.3,1.6
			c3.1,1.1,5.6,2.8,7.5,5.1c1.9,2.3,3.3,5.2,4.2,8.7c0.9,3.5,1.3,7.7,1.3,12.5v26.7h-16v-5.6h-0.3c-1.3,2.2-3.4,3.9-6.1,5.1
			c-2.7,1.2-5.7,1.8-8.9,1.8c-2.1,0-4.3-0.3-6.6-0.9c-2.3-0.6-4.3-1.5-6.2-2.8c-1.9-1.3-3.4-3-4.6-5.1c-1.2-2.1-1.8-4.8-1.8-7.9
			c0-3.8,1-6.9,3.1-9.3c2.1-2.3,4.8-4.2,8.1-5.4c3.3-1.3,7-2.1,11-2.6c4-0.4,8-0.6,11.8-0.6V67c0-2.6-0.9-4.6-2.8-5.8
			c-1.8-1.2-4.1-1.9-6.8-1.9c-2.5,0-4.9,0.5-7.2,1.6c-2.3,1.1-4.3,2.3-5.9,3.8L212.7,55.3z M244.8,78h-2.2c-1.9,0-3.8,0.1-5.8,0.3
			c-2,0.2-3.7,0.5-5.2,1c-1.5,0.5-2.8,1.2-3.8,2.2c-1,1-1.5,2.2-1.5,3.8c0,1,0.2,1.8,0.7,2.6c0.5,0.7,1,1.3,1.8,1.7
			c0.7,0.4,1.5,0.7,2.5,0.9c0.9,0.2,1.8,0.3,2.7,0.3c3.5,0,6.3-1,8.1-2.9c1.9-2,2.8-4.6,2.8-7.9V78z"/>
		<path class="st3" d="M288,61.1v20.3c0,2.5,0.5,4.4,1.4,5.6c1,1.2,2.7,1.9,5.2,1.9c0.9,0,1.8-0.1,2.7-0.2c1-0.1,1.8-0.4,2.4-0.6
			l0.2,12.8c-1.2,0.4-2.7,0.8-4.6,1.1c-1.8,0.3-3.7,0.5-5.5,0.5c-3.6,0-6.5-0.4-8.9-1.3c-2.4-0.9-4.3-2.2-5.8-3.8
			c-1.5-1.7-2.5-3.7-3.1-6c-0.6-2.3-1-4.9-1-7.7V61.1h-8.5v-13h8.4V34.1H288v13.9h12.5v13H288z"/>
		<path class="st3" d="M321,61.1v20.3c0,2.5,0.5,4.4,1.4,5.6c1,1.2,2.7,1.9,5.2,1.9c0.9,0,1.8-0.1,2.7-0.2c1-0.1,1.8-0.4,2.4-0.6
			l0.2,12.8c-1.2,0.4-2.7,0.8-4.6,1.1c-1.8,0.3-3.7,0.5-5.5,0.5c-3.6,0-6.5-0.4-8.9-1.3c-2.4-0.9-4.3-2.2-5.8-3.8
			c-1.5-1.7-2.5-3.7-3.1-6c-0.6-2.3-1-4.9-1-7.7V61.1h-8.5v-13h8.4V34.1H321v13.9h12.5v13H321z"/>
		<path class="st3" d="M389.8,75.2v2.1c0,0.7,0,1.4-0.1,2h-38.4c0.1,1.5,0.6,2.8,1.3,4c0.7,1.2,1.7,2.3,2.9,3.1
			c1.2,0.9,2.5,1.6,3.9,2.1c1.5,0.5,3,0.7,4.5,0.7c2.8,0,5.1-0.5,7-1.5c1.9-1,3.5-2.4,4.7-4l12.1,7.7c-2.5,3.6-5.8,6.4-9.9,8.4
			c-4.1,1.9-8.8,2.9-14.2,2.9c-4,0-7.7-0.6-11.3-1.9c-3.6-1.2-6.7-3.1-9.3-5.4c-2.7-2.4-4.8-5.3-6.3-8.8c-1.5-3.5-2.3-7.5-2.3-11.9
			c0-4.3,0.7-8.3,2.2-11.8c1.5-3.5,3.5-6.5,6.1-8.9c2.6-2.5,5.6-4.3,9-5.7c3.5-1.3,7.2-2,11.3-2c3.9,0,7.5,0.7,10.8,2
			s6.1,3.2,8.4,5.7c2.3,2.5,4.2,5.5,5.5,9C389.1,66.6,389.8,70.7,389.8,75.2 M373.7,68.5c0-2.8-0.9-5.1-2.6-7.1c-1.7-2-4.3-3-7.8-3
			c-1.7,0-3.3,0.3-4.7,0.8c-1.4,0.5-2.7,1.3-3.7,2.2c-1.1,0.9-1.9,2-2.6,3.2c-0.6,1.2-1,2.5-1.1,3.9H373.7z"/>
		<path class="st3" d="M427.7,62.5c-0.8-0.2-1.5-0.4-2.3-0.4c-0.7-0.1-1.5-0.1-2.2-0.1c-2.3,0-4.3,0.4-5.9,1.3
			c-1.6,0.8-2.9,1.9-3.8,3.1c-1,1.2-1.6,2.5-2.1,3.9c-0.4,1.4-0.6,2.7-0.6,3.7v27.2h-17.5v-53h16.8v7.7h0.2c1.3-2.7,3.3-4.9,5.8-6.6
			c2.5-1.7,5.4-2.6,8.6-2.6c0.7,0,1.4,0,2.1,0.1c0.7,0.1,1.2,0.2,1.7,0.3L427.7,62.5z"/>
		<path class="st3" d="M467.6,109.1c-1.1,2.8-2.3,5.2-3.6,7.4c-1.3,2.2-2.9,4-4.7,5.5c-1.8,1.5-3.9,2.7-6.4,3.5
			c-2.5,0.8-5.3,1.2-8.7,1.2c-1.6,0-3.3-0.1-5.1-0.3c-1.7-0.2-3.3-0.5-4.5-0.9l1.9-14.7c0.9,0.3,1.8,0.5,2.8,0.7
			c1,0.2,2,0.3,2.8,0.3c2.7,0,4.6-0.6,5.9-1.9c1.2-1.2,2.2-3,3.1-5.3l1.7-4.4l-22.1-52.2h19.4l11.8,34.1h0.3l10.5-34.1h18.5
			L467.6,109.1z"/>
	</g>
	<polygon class="st4" points="576.2,101.1 558.2,101.1 543.3,50.1 543,50.1 528.1,101.1 510,101.1 488.6,25.7 508.1,25.7 
		520.1,75.9 520.4,75.9 533.8,25.7 552.8,25.7 566.3,75.9 566.6,75.9 578.8,25.7 597.7,25.7 	"/>
	<g>
		<path class="st4" d="M648.4,74.4c0,4.3-0.8,8.3-2.3,11.8c-1.6,3.5-3.7,6.5-6.4,8.9c-2.7,2.5-5.8,4.3-9.4,5.7
			c-3.5,1.3-7.3,2-11.4,2c-4,0-7.8-0.7-11.3-2c-3.6-1.3-6.7-3.2-9.4-5.7c-2.7-2.4-4.8-5.4-6.3-8.9c-1.6-3.5-2.3-7.4-2.3-11.8
			c0-4.3,0.8-8.2,2.3-11.7c1.6-3.5,3.7-6.4,6.3-8.8c2.7-2.4,5.8-4.3,9.4-5.5c3.6-1.3,7.4-1.9,11.3-1.9c4,0,7.8,0.6,11.4,1.9
			c3.6,1.3,6.7,3.1,9.4,5.5c2.7,2.4,4.8,5.4,6.4,8.8C647.6,66.1,648.4,70,648.4,74.4 M631.6,74.4c0-1.7-0.3-3.4-0.9-5
			c-0.6-1.6-1.4-3.1-2.4-4.3c-1.1-1.2-2.4-2.3-3.9-3c-1.6-0.8-3.4-1.2-5.4-1.2c-2.1,0-3.9,0.4-5.4,1.2c-1.6,0.8-2.9,1.8-3.9,3
			c-1,1.2-1.8,2.7-2.3,4.3c-0.5,1.6-0.8,3.3-0.8,5c0,1.7,0.3,3.4,0.8,5c0.5,1.6,1.3,3.1,2.4,4.4c1.1,1.3,2.4,2.4,3.9,3.1
			c1.6,0.8,3.4,1.2,5.4,1.2c2.1,0,3.9-0.4,5.4-1.2c1.6-0.8,2.9-1.8,3.9-3.1c1.1-1.3,1.9-2.8,2.4-4.4
			C631.3,77.7,631.6,76.1,631.6,74.4"/>
		<path class="st4" d="M686.4,62.5c-0.8-0.2-1.5-0.4-2.3-0.4c-0.7-0.1-1.5-0.1-2.2-0.1c-2.3,0-4.3,0.4-5.9,1.3
			c-1.6,0.8-2.9,1.9-3.8,3.1c-1,1.2-1.6,2.5-2.1,3.9c-0.4,1.4-0.6,2.7-0.6,3.7v27.2H652v-53h16.8v7.7h0.2c1.3-2.7,3.3-4.9,5.8-6.6
			c2.5-1.7,5.4-2.6,8.6-2.6c0.7,0,1.4,0,2.1,0.1c0.7,0.1,1.2,0.2,1.7,0.3L686.4,62.5z"/>
	</g>
	<rect x="690.8" y="20.6" class="st4" width="17.8" height="80.5"/>
	<path class="st4" d="M755.1,101.1v-6.9h-0.2c-1.7,2.7-4.1,4.8-7.3,6.2c-3.2,1.5-6.5,2.2-10.1,2.2c-4,0-7.5-0.8-10.6-2.3
		c-3.1-1.6-5.8-3.6-7.9-6.2c-2.2-2.6-3.8-5.6-5-9c-1.1-3.4-1.7-7-1.7-10.6c0-3.7,0.6-7.2,1.8-10.6c1.2-3.4,2.8-6.3,5-8.9
		c2.2-2.6,4.8-4.6,7.9-6.1c3.1-1.5,6.5-2.2,10.4-2.2c3.9,0,7.2,0.7,9.9,2.2c2.7,1.5,4.8,3.1,6.3,4.9h0.2V20.6h17.5v80.5H755.1z
		 M754.4,74.5c0-1.7-0.3-3.4-0.9-5c-0.6-1.6-1.5-3.1-2.6-4.4c-1.1-1.3-2.4-2.3-4-3.1c-1.6-0.8-3.3-1.2-5.3-1.2
		c-2.1,0-3.9,0.4-5.4,1.2c-1.6,0.8-2.9,1.8-3.9,3c-1.1,1.2-1.9,2.7-2.4,4.3c-0.5,1.6-0.8,3.3-0.8,5c0,1.7,0.3,3.4,0.8,5.1
		c0.5,1.7,1.3,3.1,2.4,4.4c1.1,1.3,2.4,2.3,3.9,3.1c1.6,0.8,3.4,1.2,5.4,1.2c2,0,3.8-0.4,5.3-1.2c1.6-0.8,2.9-1.8,4-3.1
		c1.1-1.3,1.9-2.7,2.6-4.4C754.1,77.9,754.4,76.2,754.4,74.5"/>
	<path class="st4" d="M775.7,25.5c0-0.7,0.1-1.3,0.4-1.9c0.3-0.6,0.6-1.1,1.1-1.6c0.4-0.4,1-0.8,1.6-1.1c0.6-0.3,1.2-0.4,1.9-0.4
		c0.7,0,1.3,0.1,1.9,0.4c0.6,0.3,1.1,0.6,1.6,1.1c0.4,0.4,0.8,1,1.1,1.6c0.3,0.6,0.4,1.2,0.4,1.9c0,0.7-0.1,1.3-0.4,1.9
		c-0.3,0.6-0.6,1.1-1.1,1.6c-0.5,0.4-1,0.8-1.6,1c-0.6,0.3-1.2,0.4-1.9,0.4c-0.7,0-1.3-0.1-1.9-0.4c-0.6-0.3-1.1-0.6-1.6-1
		c-0.4-0.4-0.8-1-1.1-1.6C775.8,26.8,775.7,26.2,775.7,25.5 M776.5,25.5c0,0.6,0.1,1.1,0.3,1.6c0.2,0.5,0.5,1,0.9,1.3
		c0.4,0.4,0.8,0.7,1.3,0.9c0.5,0.2,1,0.3,1.6,0.3c0.6,0,1.1-0.1,1.6-0.3c0.5-0.2,0.9-0.5,1.3-0.9c0.4-0.4,0.7-0.8,0.9-1.3
		c0.2-0.5,0.3-1,0.3-1.6c0-0.6-0.1-1.1-0.3-1.6c-0.2-0.5-0.5-0.9-0.9-1.3c-0.4-0.4-0.8-0.7-1.3-0.9c-0.5-0.2-1-0.3-1.6-0.3
		c-0.6,0-1.1,0.1-1.6,0.3c-0.5,0.2-0.9,0.5-1.3,0.9c-0.4,0.4-0.7,0.8-0.9,1.3C776.6,24.4,776.5,25,776.5,25.5 M781.8,28.2l-1.2-2.2
		h-0.8v2.2h-1.3v-5.6h2.4c0.3,0,0.5,0,0.8,0.1c0.2,0.1,0.5,0.1,0.7,0.3c0.2,0.1,0.4,0.3,0.5,0.5c0.1,0.2,0.2,0.5,0.2,0.8
		c0,0.4-0.1,0.7-0.3,0.9c-0.2,0.2-0.5,0.4-0.8,0.5l1.5,2.3H781.8z M780.9,25.1c0.2,0,0.4-0.1,0.6-0.2c0.2-0.1,0.2-0.3,0.2-0.5
		c0-0.2-0.1-0.4-0.3-0.5c-0.2-0.1-0.4-0.1-0.5-0.1h-1v1.4H780.9z"/>
</g>
<path class="st2" d="M187.3,350.3"/>
<text transform="matrix(1.0015 0 0 1 1887.8842 613.3696)" class="st3" style="font-family:'Gotham-Black'; font-size:102.2604px;">TRADING HOURS</text>
<g>
	<g>
		<rect x="409.8" y="1171.4" class="st3" width="10.7" height="37.3"/>
		<rect x="159.2" y="1420.3" class="st3" width="37.3" height="10.7"/>
		<rect x="409.8" y="1646.7" class="st3" width="10.7" height="37.3"/>
		<rect x="634.1" y="1420.3" class="st3" width="37.3" height="10.7"/>
		<g>
			<defs>
				<rect id="SVGID_1_" x="54.8" y="1056.3" width="717" height="728.6"/>
			</defs>
			<clipPath id="SVGID_2_">
				<use xlink:href="#SVGID_1_"  style="overflow:visible;"/>
			</clipPath>
			<path class="st5" d="M327.4,1417.6c31.1-19.2,69.9-43.2,69.9-88.4c0-43.4-35.6-73.8-86.6-73.8c-62.4,0-86.4,47.2-87.4,49.2
				l-2.3,4.6l43,26.5l2.9-5c0.1-0.2,14.4-24.4,40-24.4c16,0,32.2,8.2,32.2,26.5c0,16.4-19.8,29.2-42.8,43.9
				c-32.8,21.1-73.6,47.4-73.6,98.1c0,6.1,0.9,12.2,1.8,18.6l1.1,7.5h175.6v-47.3H285.8C290.1,1440.6,307.6,1429.8,327.4,1417.6"/>
			<path class="st5" d="M581.6,1395.6v-136.2h-62.1l-110,149.1v33.1h116.4v59.4h55.8v-59.4h32.2v-46H581.6z M473.8,1395.6l50.9-65.2
				c0.4-0.5,0.7-1,1.1-1.5c0,0.3,0,0.6,0,1v65.7H473.8z"/>
			<polygon class="st5" points="279.3,1547.6 248.9,1547.6 248.9,1514.6 225.1,1514.6 225.1,1599 248.9,1599 248.9,1566.8 
				279.3,1566.8 279.3,1599 303.1,1599 303.1,1514.6 279.3,1514.6 			"/>
			<path class="st5" d="M363.6,1513.2c-27.1,0-47.6,18.5-47.6,43.1c0,25.2,20.5,44.1,47.6,44.1c27.1,0,47.6-19,47.6-44.1
				C411.2,1531.7,390.7,1513.2,363.6,1513.2 M363.6,1580c-12.9,0-23-10.4-23-23.7c0-12.7,10.1-22.6,23-22.6c12.9,0,23,9.9,23,22.6
				C386.6,1569.6,376.5,1580,363.6,1580"/>
			<path class="st5" d="M475.4,1567.7c0,7.8-5.3,12.3-14.4,12.3c-9.2,0-14.4-4.5-14.4-12.3v-53.1h-23.8v53.1
				c0,19.6,15.4,32.7,38.4,32.7c22.8,0,38.1-13.1,38.1-32.7v-53.1h-23.8V1567.7z"/>
		</g>
		<g>
			<defs>
				<rect id="SVGID_3_" x="56.3" y="1056.3" width="714" height="728.6"/>
			</defs>
			<clipPath id="SVGID_4_">
				<use xlink:href="#SVGID_3_"  style="overflow:visible;"/>
			</clipPath>
			<path class="st6" d="M573.6,1568.7c-1.3-2.1-2.2-3.5-2.8-4.3c7.9-4.2,12.9-13.1,12.9-22.9c0-12-6.2-21.1-17.1-24.9
				c-4.2-1.5-8.8-2-17.7-2h-32v84.5h23.8v-27.8h8.6l15.8,27.8h26.7L573.6,1568.7z M540.7,1533.9h6.4c10.4,0,12.5,3.3,12.5,8.9
				c0,5.8-3.8,9.2-10.3,9.2h-8.5V1533.9z"/>
			<path class="st7" d="M672.7,1180l-60.6,57.1c48.3,51.3,74.9,118.5,74.9,189.3c0,151.8-122.8,275.3-273.8,275.3
				c-150.9,0-273.8-123.5-273.8-275.3S262.3,1151,413.3,1151c26.8,0,53,3.8,78.2,11.4l-12.2,25.5l145.6-11.1l-82.4-120.6l-14.6,30.4
				c-36.8-12.5-75.2-18.9-114.5-18.9c-196.8,0-357,160.8-357,358.5c0,197.7,160.1,358.5,357,358.5s357-160.8,357-358.5
				C770.3,1334.3,735.6,1246.8,672.7,1180"/>
		</g>
		<g>
			<defs>
				<rect id="SVGID_5_" x="54.8" y="1056.3" width="717" height="728.6"/>
			</defs>
			<clipPath id="SVGID_6_">
				<use xlink:href="#SVGID_5_"  style="overflow:visible;"/>
			</clipPath>
			<path class="st8" d="M186.9,1608.4l9.3,9.9l-9.5,19.2c-1.4,2.9-3.9,7.2-3.9,7.2l0.1,0.1c0,0,4.5-2.2,7.5-3.5l19.7-8.3l9.3,9.9
				l-31.6,35.6l-8.6-9.1l14.5-15.8c2.4-2.7,5.8-5.5,5.8-5.5l-0.1-0.1c0,0-4.8,2.2-7.8,3.4l-13.7,5.5l-7.4-7.8l6.3-13.3
				c1.4-2.9,3.8-7.5,3.8-7.5l-0.1-0.1c0,0-3,3.2-5.8,5.5l-16.6,13.5l-8.7-9.2L186.9,1608.4z"/>
			<path class="st8" d="M246.1,1662.1c12.6,9,15.6,24.2,7.7,35.3c-8.1,11.3-23.6,13.6-36.2,4.6c-12.6-9-15.5-24.4-7.4-35.8
				C218.1,1655.1,233.5,1653.1,246.1,1662.1 M223.7,1693.4c6.2,4.5,14.8,3.1,19.5-3.5c4.5-6.3,2.9-14.6-3.3-19.1
				c-6.2-4.5-14.6-3.3-19.2,3C216,1680.3,217.5,1688.9,223.7,1693.4"/>
			<path class="st8" d="M272.1,1680.2l17,8.2c9.2,4.5,13.8,11.4,10.3,18.8c-1.7,3.6-5.4,6.3-9.7,6.5l-0.1,0.1
				c4.6,4,4.4,9.3,2.6,13.1c-4.5,9.3-14.5,8.7-23.7,4.2l-17-8.2L272.1,1680.2z M273.8,1722.7c3.3,1.6,5.9,0.3,7.1-2.1
				c1.2-2.4,0.6-5.1-2.7-6.7l-6.8-3.3l-4.3,8.8L273.8,1722.7z M281.2,1705c2.8,1.4,5,0.1,6-2c1-2,0.5-4.2-2.5-5.7l-5.6-2.7l-3.7,7.6
				L281.2,1705z"/>
			
				<rect x="288.1" y="1717.1" transform="matrix(0.326 -0.9454 0.9454 0.326 -1419.0143 1456.348)" class="st8" width="47.4" height="12.5"/>
			<polygon class="st8" points="335.4,1706.2 347.6,1709 339.2,1745.6 359.6,1750.3 357.4,1760 324.8,1752.5 			"/>
			<polygon class="st8" points="371.9,1714.1 403.8,1717.2 402.9,1727.1 383.4,1725.2 382.5,1733.8 398.1,1735.3 397.1,1745.2 
				381.6,1743.7 380.7,1752.6 401.2,1754.6 400.2,1764.5 367.3,1761.3 			"/>
			<path class="st8" d="M435.8,1749.2c0,0,6.3,4.3,12.7,3.7c2.6-0.3,5.3-1.5,5-4.3c-0.6-5.6-23.5-3.1-25-17.6
				c-0.9-8.7,6.5-15.3,16.6-16.3c11-1.1,16.9,3.7,16.9,3.7l-4.3,10c0,0-5.5-3.6-11.7-3c-2.6,0.3-5.3,1.6-5,4.2
				c0.6,5.9,23.5,2.6,25,17.5c0.8,7.9-5,15.3-16.5,16.5c-12,1.2-19.3-4.9-19.3-4.9L435.8,1749.2z"/>
			<polygon class="st8" points="468.7,1712.4 499.9,1704.8 502.2,1714.5 483.2,1719.1 485.2,1727.5 500.4,1723.8 502.8,1733.5 
				487.6,1737.2 489.7,1745.9 509.7,1741.1 512,1750.7 479.8,1758.5 			"/>
			<path class="st8" d="M507,1702.7l16.5-6.7c4.8-2,7.3-2.6,9.7-2.7c6.2-0.3,11.4,2.8,14,9.2c1.9,4.7,1.6,10.7-2.2,14.9l0.1,0.1
				c0,0,1,0.5,2.9,1.9l15.5,11.6l-12.9,5.3l-14.4-11.4l-5.4,2.2l6,14.8l-11.6,4.7L507,1702.7z M531.8,1715.8
				c3.7-1.5,5.3-4.4,3.8-7.9c-1.3-3.3-3.5-4.7-9.3-2.4l-3.9,1.6l4.3,10.7L531.8,1715.8z"/>
			<path class="st8" d="M542.2,1688.8l11.7-6.9l21.6,18.6c2.4,2.1,5.6,5.6,5.6,5.6l0.1-0.1c0,0-1.6-4.5-2.2-7.6l-5.9-27.9l11.5-6.8
				l8.7,50l-11.2,6.7L542.2,1688.8z"/>
			
				<rect x="600.2" y="1652" transform="matrix(0.7939 -0.608 0.608 0.7939 -893.8894 714.102)" class="st8" width="12.5" height="47.4"/>
			<path class="st8" d="M621.2,1630.2c9-8.9,18.4-8.7,18.4-8.7l2,10.3c0,0-7.5,0.6-12.5,5.5c-7,6.9-5.6,14.9-0.8,19.8
				c4.9,5,13.6,6.7,20.3,0c5.5-5.4,5.6-13.7,5.6-13.7l10.6,1.5c0,0,0.4,10.8-9.1,20.1c-11.5,11.2-26.6,11.3-36.4,1.3
				C609.5,1656.6,610.3,1641,621.2,1630.2"/>
			<polygon class="st8" points="638.7,1612.8 658.1,1587.1 666,1593.1 654.2,1608.7 661.1,1613.9 670.5,1601.5 678.5,1607.5 
				669.1,1619.9 676.2,1625.3 688.6,1608.9 696.5,1614.9 676.6,1641.3 			"/>
		</g>
	</g>
</g>
<text transform="matrix(1 0 0 1 -33.4037 825.6118)" class="st3" style="font-family:'Gotham-Black'; font-size:186.6998px;">YOU FOR</text>
<g>
	<text transform="matrix(1 0 0 1 -1415.6187 824.6792)"><tspan x="0" y="0" class="st3" style="font-family:'Gotham-Bold'; font-size:61.4941px;">Monday</tspan><tspan x="0" y="73.8" class="st3" style="font-family:'Gotham-Bold'; font-size:61.4941px;">Tuesday</tspan><tspan x="0" y="147.6" class="st3" style="font-family:'Gotham-Bold'; font-size:61.4941px;">Wednesday</tspan><tspan x="369.9" y="147.6" class="st3" style="font-family:'Gotham-Bold'; font-size:61.4941px; letter-spacing:165;">	</tspan><tspan x="0" y="221.4" class="st3" style="font-family:'Gotham-Bold'; font-size:61.4941px;">Thursday</tspan><tspan x="0" y="295.2" class="st3" style="font-family:'Gotham-Bold'; font-size:61.4941px;">Friday</tspan><tspan x="0" y="369" class="st3" style="font-family:'Gotham-Bold'; font-size:61.4941px;">Saturday</tspan><tspan x="0" y="442.8" class="st3" style="font-family:'Gotham-Bold'; font-size:61.4941px;">Sunday</tspan></text>
	<text transform="matrix(1 0 0 1 -1022.8955 824.6792)"><tspan x="0" y="0" class="st3" style="font-family:'Gotham-Bold'; font-size:61.4941px;">7:30am–5:30pm</tspan><tspan x="0" y="73.8" class="st3" style="font-family:'Gotham-Bold'; font-size:61.4941px;">7:30am–5:30pm</tspan><tspan x="0" y="147.6" class="st3" style="font-family:'Gotham-Bold'; font-size:61.4941px;">7:30am–5:30pm</tspan><tspan x="0" y="221.4" class="st3" style="font-family:'Gotham-Bold'; font-size:61.4941px;">7:30am–5:30pm</tspan><tspan x="0" y="295.2" class="st3" style="font-family:'Gotham-Bold'; font-size:61.4941px;">7:30am–5:30pm</tspan><tspan x="-19.7" y="369" class="st3" style="font-family:'Gotham-Bold'; font-size:61.4941px;">9:00am–4:00pm</tspan><tspan x="-45.6" y="442.8" class="st3" style="font-family:'Gotham-Bold'; font-size:61.4941px;">10:00am–3:00pm</tspan></text>
</g>
<text transform="matrix(1 0 0 1 -38.3032 667.8728)" class="st3" style="font-family:'Gotham-Black'; font-size:237.8795px;">THANK</text>
<text transform="matrix(1 0 0 1 -17.4307 1002.0977)" class="st3" style="font-family:'Gotham-Black'; font-size:205.4702px;">VISTING</text>
</svg>
