<?xml version="1.0" encoding="utf-8"?>
<!-- Generator: Adobe Illustrator 21.0.0, SVG Export Plug-In . SVG Version: 6.00 Build 0)  -->
<svg version="1.1" id="Layer_1" xmlns="http://www.w3.org/2000/svg" xmlns:xlink="http://www.w3.org/1999/xlink" x="0px" y="0px"
	 viewBox="0 0 785.3 757.3" style="enable-background:new 0 0 785.3 757.3;" xml:space="preserve">
<style type="text/css">
	.st0{fill:#4F3795;}
	.st1{fill:#423393;}
	.st2{fill:none;stroke:#FFFFFF;stroke-width:3.9071;}
	.st3{fill:#FFFFFF;}
	.st4{fill:#FDBB30;}
	.st5{clip-path:url(#SVGID_2_);fill:#FFFFFF;}
	.st6{clip-path:url(#SVGID_4_);fill:#FFFFFF;}
	.st7{clip-path:url(#SVGID_4_);fill:#FDBB30;}
	.st8{clip-path:url(#SVGID_6_);fill:#E11F26;}
	.st9{clip-path:url(#SVGID_8_);fill:#FDBB30;}
	.st10{fill:#FCB813;}
	.st11{fill:#32353A;}
	.st12{fill:#758DB3;}
</style>
<rect x="-1533.4" y="672.1" class="st0" width="1207.7" height="1700.8"/>
<rect x="-959.4" y="2289.6" class="st1" width="2.9" height="11.8"/>
<g>
	<g>
		<path class="st2" d="M-1378,778h-32.8c0,0-48.9,0-48.9,48.9l0,1419.2c0,0,0.2,48.8,49.1,48.8"/>
	</g>
	<g>
		<path class="st2" d="M-1410.7,2294.9h961.7c0,0,49.8,0,49.8-49.8V822.9c0,0,0-44.3-49.8-44.3h-29.5"/>
	</g>
</g>
<g>
	<rect x="-1397.1" y="775.8" class="st1" width="22.2" height="5.5"/>
	<rect x="-492.1" y="758.2" class="st3" width="40.7" height="40.7"/>
	<rect x="-482.8" y="775.8" class="st0" width="22.2" height="5.5"/>
	<rect x="-1407.5" y="756.6" class="st4" width="41.5" height="41.5"/>
	<rect x="-1398.1" y="774.6" class="st0" width="22.6" height="5.6"/>
	<g>
		<g>
			<path class="st4" d="M-1226.3,759.1l25.3,0l-65.7,80c4.9,1.2,10,1.9,15.3,1.9c34.7,0,62.9-28.1,62.9-62.9v-0.1
				c0-16.9-6.7-32.3-17.6-43.6L-1226.3,759.1z"/>
			<path class="st3" d="M-1267.9,838.8l24.2-58.4h-21.3l33.2-62.1c-6.1-2-12.7-3.1-19.5-3.1c-34.7,0-62.9,28.2-62.9,62.9v0
				C-1314.2,807.1-1294.6,831.5-1267.9,838.8"/>
			<path class="st3" d="M-1107.2,794.4c0,4.1-0.8,7.6-2.4,10.4c-1.6,2.8-3.8,5.1-6.5,6.8c-2.7,1.7-5.8,2.9-9.2,3.7
				c-3.4,0.7-7,1.1-10.6,1.1h-30V741h30c2.9,0,5.9,0.3,8.9,0.9c3.1,0.6,5.8,1.6,8.3,3.1s4.5,3.4,6.1,5.9c1.6,2.5,2.3,5.6,2.3,9.5
				c0,4.2-1.1,7.6-3.4,10.4c-2.3,2.7-5.3,4.7-8.9,5.9v0.2c2.1,0.4,4.1,1,6,2c1.9,1,3.5,2.2,4.9,3.7c1.4,1.5,2.5,3.2,3.3,5.2
				C-1107.6,789.7-1107.2,791.9-1107.2,794.4 M-1127.9,762.8c0-2.6-1-4.4-2.9-5.6c-2-1.2-4.8-1.8-8.7-1.8h-8.9V771h9.8
				c3.4,0,6.1-0.7,7.9-2.1C-1128.8,767.5-1127.9,765.5-1127.9,762.8 M-1125.4,792.7c0-3.1-1.2-5.3-3.5-6.5c-2.3-1.2-5.5-1.8-9.4-1.8
				h-10.1v17.3h10.2c1.4,0,2.9-0.1,4.4-0.4c1.5-0.2,2.9-0.7,4.2-1.3c1.2-0.6,2.3-1.5,3-2.7C-1125.8,796.1-1125.4,794.6-1125.4,792.7
				"/>
			<path class="st3" d="M-1101.5,770.6c3.1-3,6.8-5.2,10.9-6.7c4.2-1.5,8.4-2.2,12.7-2.2c4.5,0,8.3,0.6,11.3,1.6
				c3.1,1.1,5.6,2.8,7.5,5.1c1.9,2.3,3.3,5.2,4.2,8.7c0.9,3.5,1.3,7.7,1.3,12.5v26.7h-16v-5.6h-0.3c-1.3,2.2-3.4,3.9-6.1,5.1
				c-2.7,1.2-5.7,1.8-8.9,1.8c-2.1,0-4.3-0.3-6.6-0.9c-2.3-0.6-4.3-1.5-6.2-2.8c-1.9-1.3-3.4-3-4.6-5.1c-1.2-2.1-1.8-4.8-1.8-7.9
				c0-3.8,1-6.9,3.1-9.3c2.1-2.3,4.8-4.2,8.1-5.4c3.3-1.3,7-2.1,11-2.6c4-0.4,8-0.6,11.8-0.6v-0.9c0-2.6-0.9-4.6-2.8-5.8
				c-1.8-1.2-4.1-1.9-6.8-1.9c-2.5,0-4.9,0.5-7.2,1.6c-2.3,1.1-4.3,2.3-5.9,3.8L-1101.5,770.6z M-1069.5,793.2h-2.2
				c-1.9,0-3.8,0.1-5.8,0.3c-2,0.2-3.7,0.5-5.2,1c-1.5,0.5-2.8,1.2-3.8,2.2c-1,1-1.5,2.2-1.5,3.8c0,1,0.2,1.8,0.7,2.6
				c0.5,0.7,1,1.3,1.8,1.7c0.7,0.4,1.5,0.7,2.5,0.9c0.9,0.2,1.8,0.3,2.7,0.3c3.5,0,6.3-1,8.1-2.9c1.9-2,2.8-4.6,2.8-7.9V793.2z"/>
			<path class="st3" d="M-1026.2,776.3v20.3c0,2.5,0.5,4.4,1.4,5.6c1,1.2,2.7,1.9,5.2,1.9c0.9,0,1.8-0.1,2.7-0.2
				c1-0.1,1.8-0.4,2.4-0.6l0.2,12.8c-1.2,0.4-2.7,0.8-4.6,1.1c-1.8,0.3-3.7,0.5-5.5,0.5c-3.6,0-6.5-0.4-8.9-1.3s-4.3-2.2-5.8-3.8
				c-1.5-1.7-2.5-3.7-3.1-6c-0.6-2.3-1-4.9-1-7.7v-22.4h-8.5v-13h8.4v-13.9h17.1v13.9h12.5v13H-1026.2z"/>
			<path class="st3" d="M-993.2,776.3v20.3c0,2.5,0.5,4.4,1.4,5.6c1,1.2,2.7,1.9,5.2,1.9c0.9,0,1.8-0.1,2.7-0.2s1.8-0.4,2.4-0.6
				l0.2,12.8c-1.2,0.4-2.7,0.8-4.6,1.1c-1.8,0.3-3.7,0.5-5.5,0.5c-3.6,0-6.5-0.4-8.9-1.3s-4.3-2.2-5.8-3.8c-1.5-1.7-2.5-3.7-3.1-6
				c-0.6-2.3-1-4.9-1-7.7v-22.4h-8.5v-13h8.4v-13.9h17.1v13.9h12.5v13H-993.2z"/>
			<path class="st3" d="M-924.4,790.5v2.1c0,0.7,0,1.4-0.1,2H-963c0.1,1.5,0.6,2.8,1.3,4c0.7,1.2,1.7,2.3,2.9,3.1
				c1.2,0.9,2.5,1.6,3.9,2.1c1.5,0.5,3,0.7,4.5,0.7c2.8,0,5.1-0.5,7-1.5c1.9-1,3.5-2.4,4.7-4l12.1,7.7c-2.5,3.6-5.8,6.4-9.9,8.4
				c-4.1,1.9-8.8,2.9-14.2,2.9c-4,0-7.7-0.6-11.3-1.9c-3.6-1.2-6.7-3.1-9.3-5.4c-2.7-2.4-4.8-5.3-6.3-8.8c-1.5-3.5-2.3-7.5-2.3-11.9
				c0-4.3,0.7-8.3,2.2-11.8c1.5-3.5,3.5-6.5,6.1-8.9c2.6-2.5,5.6-4.3,9-5.7c3.5-1.3,7.2-2,11.3-2c3.9,0,7.5,0.7,10.8,2
				c3.3,1.3,6.1,3.2,8.4,5.7c2.3,2.5,4.2,5.5,5.5,9C-925.1,781.9-924.4,785.9-924.4,790.5 M-940.5,783.8c0-2.8-0.9-5.1-2.6-7.1
				c-1.7-2-4.3-3-7.8-3c-1.7,0-3.3,0.3-4.7,0.8c-1.4,0.5-2.7,1.3-3.7,2.2c-1.1,0.9-1.9,2-2.6,3.2c-0.6,1.2-1,2.5-1.1,3.9H-940.5z"/>
			<path class="st3" d="M-886.5,777.7c-0.8-0.2-1.5-0.4-2.3-0.4c-0.7-0.1-1.5-0.1-2.2-0.1c-2.3,0-4.3,0.4-5.9,1.3
				c-1.6,0.8-2.9,1.9-3.8,3.1c-1,1.2-1.6,2.5-2.1,3.9c-0.4,1.4-0.6,2.7-0.6,3.7v27.2h-17.5v-53h16.8v7.7h0.2
				c1.3-2.7,3.3-4.9,5.8-6.6c2.5-1.7,5.4-2.6,8.6-2.6c0.7,0,1.4,0,2.1,0.1c0.7,0.1,1.2,0.2,1.7,0.3L-886.5,777.7z"/>
			<path class="st3" d="M-846.6,824.3c-1.1,2.8-2.3,5.2-3.6,7.4c-1.3,2.2-2.9,4-4.7,5.5c-1.8,1.5-3.9,2.7-6.4,3.5
				c-2.5,0.8-5.3,1.2-8.7,1.2c-1.6,0-3.3-0.1-5.1-0.3c-1.7-0.2-3.3-0.5-4.5-0.9l1.9-14.7c0.9,0.3,1.8,0.5,2.8,0.7
				c1,0.2,2,0.3,2.8,0.3c2.7,0,4.6-0.6,5.9-1.9c1.2-1.2,2.2-3,3.1-5.3l1.7-4.4l-22.1-52.2h19.4l11.8,34.1h0.3l10.5-34.1h18.5
				L-846.6,824.3z"/>
		</g>
		<polygon class="st4" points="-738,816.3 -756,816.3 -770.9,765.3 -771.2,765.3 -786.1,816.3 -804.2,816.3 -825.7,741 -806.1,741 
			-794.1,791.1 -793.8,791.1 -780.4,741 -761.4,741 -747.9,791.1 -747.6,791.1 -735.5,741 -716.5,741 		"/>
		<g>
			<path class="st4" d="M-665.8,789.6c0,4.3-0.8,8.3-2.3,11.8c-1.6,3.5-3.7,6.5-6.4,8.9c-2.7,2.5-5.8,4.3-9.4,5.7
				c-3.5,1.3-7.3,2-11.4,2c-4,0-7.8-0.7-11.3-2c-3.6-1.3-6.7-3.2-9.4-5.7c-2.7-2.4-4.8-5.4-6.3-8.9c-1.6-3.5-2.3-7.4-2.3-11.8
				c0-4.3,0.8-8.2,2.3-11.7c1.6-3.5,3.7-6.4,6.3-8.8c2.7-2.4,5.8-4.3,9.4-5.5c3.6-1.3,7.4-1.9,11.3-1.9c4,0,7.8,0.6,11.4,1.9
				c3.6,1.3,6.7,3.1,9.4,5.5c2.7,2.4,4.8,5.4,6.4,8.8C-666.6,781.4-665.8,785.3-665.8,789.6 M-682.7,789.6c0-1.7-0.3-3.4-0.9-5
				c-0.6-1.6-1.4-3.1-2.4-4.3c-1.1-1.2-2.4-2.3-3.9-3c-1.6-0.8-3.4-1.2-5.4-1.2c-2.1,0-3.9,0.4-5.4,1.2c-1.6,0.8-2.9,1.8-3.9,3
				c-1,1.2-1.8,2.7-2.3,4.3c-0.5,1.6-0.8,3.3-0.8,5c0,1.7,0.3,3.4,0.8,5c0.5,1.6,1.3,3.1,2.4,4.4c1.1,1.3,2.4,2.4,3.9,3.1
				c1.6,0.8,3.4,1.2,5.4,1.2c2.1,0,3.9-0.4,5.4-1.2c1.6-0.8,2.9-1.8,3.9-3.1c1.1-1.3,1.9-2.8,2.4-4.4
				C-682.9,793-682.7,791.3-682.7,789.6"/>
			<path class="st4" d="M-627.8,777.7c-0.8-0.2-1.5-0.4-2.3-0.4c-0.7-0.1-1.5-0.1-2.2-0.1c-2.3,0-4.3,0.4-5.9,1.3
				c-1.6,0.8-2.9,1.9-3.8,3.1s-1.6,2.5-2.1,3.9c-0.4,1.4-0.6,2.7-0.6,3.7v27.2h-17.5v-53h16.8v7.7h0.2c1.3-2.7,3.3-4.9,5.8-6.6
				c2.5-1.7,5.4-2.6,8.6-2.6c0.7,0,1.4,0,2.1,0.1c0.7,0.1,1.2,0.2,1.7,0.3L-627.8,777.7z"/>
		</g>
		<rect x="-623.4" y="735.8" class="st4" width="17.8" height="80.5"/>
		<path class="st4" d="M-559.1,816.3v-6.9h-0.2c-1.7,2.7-4.1,4.8-7.3,6.2c-3.2,1.5-6.5,2.2-10.1,2.2c-4,0-7.5-0.8-10.6-2.3
			c-3.1-1.6-5.8-3.6-7.9-6.2c-2.2-2.6-3.8-5.6-5-9c-1.1-3.4-1.7-7-1.7-10.6c0-3.7,0.6-7.2,1.8-10.6c1.2-3.4,2.8-6.3,5-8.9
			c2.2-2.6,4.8-4.6,7.9-6.1c3.1-1.5,6.5-2.2,10.4-2.2c3.9,0,7.2,0.7,9.9,2.2c2.7,1.5,4.8,3.1,6.3,4.9h0.2v-33.1h17.5v80.5H-559.1z
			 M-559.8,789.7c0-1.7-0.3-3.4-0.9-5c-0.6-1.6-1.5-3.1-2.6-4.4c-1.1-1.3-2.4-2.3-4-3.1c-1.6-0.8-3.3-1.2-5.3-1.2
			c-2.1,0-3.9,0.4-5.4,1.2s-2.9,1.8-3.9,3c-1.1,1.2-1.9,2.7-2.4,4.3c-0.5,1.6-0.8,3.3-0.8,5c0,1.7,0.3,3.4,0.8,5.1
			c0.5,1.7,1.3,3.1,2.4,4.4c1.1,1.3,2.4,2.3,3.9,3.1c1.6,0.8,3.4,1.2,5.4,1.2c2,0,3.8-0.4,5.3-1.2c1.6-0.8,2.9-1.8,4-3.1
			c1.1-1.3,1.9-2.7,2.6-4.4C-560.1,793.1-559.8,791.4-559.8,789.7"/>
		<path class="st4" d="M-538.5,740.8c0-0.7,0.1-1.3,0.4-1.9c0.3-0.6,0.6-1.1,1.1-1.6c0.4-0.4,1-0.8,1.6-1.1c0.6-0.3,1.2-0.4,1.9-0.4
			c0.7,0,1.3,0.1,1.9,0.4c0.6,0.3,1.1,0.6,1.6,1.1c0.4,0.4,0.8,1,1.1,1.6c0.3,0.6,0.4,1.2,0.4,1.9c0,0.7-0.1,1.3-0.4,1.9
			c-0.3,0.6-0.6,1.1-1.1,1.6c-0.5,0.4-1,0.8-1.6,1c-0.6,0.3-1.2,0.4-1.9,0.4c-0.7,0-1.3-0.1-1.9-0.4c-0.6-0.3-1.1-0.6-1.6-1
			c-0.4-0.4-0.8-1-1.1-1.6C-538.4,742.1-538.5,741.5-538.5,740.8 M-537.7,740.8c0,0.6,0.1,1.1,0.3,1.6c0.2,0.5,0.5,1,0.9,1.3
			c0.4,0.4,0.8,0.7,1.3,0.9c0.5,0.2,1,0.3,1.6,0.3c0.6,0,1.1-0.1,1.6-0.3c0.5-0.2,0.9-0.5,1.3-0.9c0.4-0.4,0.7-0.8,0.9-1.3
			c0.2-0.5,0.3-1,0.3-1.6c0-0.6-0.1-1.1-0.3-1.6c-0.2-0.5-0.5-0.9-0.9-1.3c-0.4-0.4-0.8-0.7-1.3-0.9c-0.5-0.2-1-0.3-1.6-0.3
			c-0.6,0-1.1,0.1-1.6,0.3c-0.5,0.2-0.9,0.5-1.3,0.9c-0.4,0.4-0.7,0.8-0.9,1.3C-537.6,739.7-537.7,740.2-537.7,740.8 M-532.4,743.5
			l-1.2-2.2h-0.8v2.2h-1.3v-5.6h2.4c0.3,0,0.5,0,0.8,0.1c0.2,0.1,0.5,0.1,0.7,0.3c0.2,0.1,0.4,0.3,0.5,0.5c0.1,0.2,0.2,0.5,0.2,0.8
			c0,0.4-0.1,0.7-0.3,0.9c-0.2,0.2-0.5,0.4-0.8,0.5l1.5,2.3H-532.4z M-533.3,740.4c0.2,0,0.4-0.1,0.6-0.2c0.2-0.1,0.2-0.3,0.2-0.5
			c0-0.2-0.1-0.4-0.3-0.5c-0.2-0.1-0.4-0.2-0.5-0.2h-1v1.4H-533.3z"/>
	</g>
</g>
<path class="st2" d="M-1155.4,773.9"/>
<text transform="matrix(1.0015 0 0 1 545.1614 1036.9784)" class="st3" style="font-family:'Gotham-Black'; font-size:102.2604px;">TRADING HOURS</text>
<g>
	<g>
		<rect x="1249" y="1845.2" class="st3" width="5.2" height="18.1"/>
		<rect x="1127.7" y="1965.6" class="st3" width="18.1" height="5.2"/>
		<rect x="1249" y="2075.2" class="st3" width="5.2" height="18.1"/>
		<rect x="1357.6" y="1965.6" class="st3" width="18.1" height="5.2"/>
		<g>
			<defs>
				<rect id="SVGID_1_" x="1077.2" y="1789.4" width="347" height="352.6"/>
			</defs>
			<clipPath id="SVGID_2_">
				<use xlink:href="#SVGID_1_"  style="overflow:visible;"/>
			</clipPath>
			<path class="st5" d="M1209.1,1964.3c15.1-9.3,33.8-20.9,33.8-42.8c0-21-17.2-35.7-41.9-35.7c-30.2,0-41.8,22.8-42.3,23.8
				l-1.1,2.2l20.8,12.8l1.4-2.4c0.1-0.1,7-11.8,19.3-11.8c7.8,0,15.6,4,15.6,12.8c0,7.9-9.6,14.1-20.7,21.3
				c-15.9,10.2-35.6,22.9-35.6,47.5c0,3,0.4,5.9,0.9,9l0.5,3.6h85v-22.9H1189C1191.1,1975.5,1199.5,1970.2,1209.1,1964.3"/>
			<path class="st5" d="M1332.2,1953.7v-65.9h-30.1l-53.3,72.2v16h56.3v28.7h27v-28.7h15.6v-22.3H1332.2z M1280,1953.7l24.6-31.6
				c0.2-0.2,0.4-0.5,0.5-0.7c0,0.2,0,0.3,0,0.5v31.8H1280z"/>
			<polygon class="st5" points="1185.9,2027.2 1171.2,2027.2 1171.2,2011.2 1159.6,2011.2 1159.6,2052.1 1171.2,2052.1 
				1171.2,2036.5 1185.9,2036.5 1185.9,2052.1 1197.4,2052.1 1197.4,2011.2 1185.9,2011.2 			"/>
			<path class="st5" d="M1226.6,2010.6c-13.1,0-23,9-23,20.9c0,12.2,9.9,21.4,23,21.4s23-9.2,23-21.4
				C1249.7,2019.5,1239.8,2010.6,1226.6,2010.6 M1226.6,2042.9c-6.2,0-11.1-5-11.1-11.5c0-6.1,4.9-11,11.1-11
				c6.3,0,11.1,4.8,11.1,11C1237.8,2037.8,1232.9,2042.9,1226.6,2042.9"/>
			<path class="st5" d="M1280.8,2036.9c0,3.8-2.5,5.9-7,5.9c-4.4,0-7-2.2-7-5.9v-25.7h-11.5v25.7c0,9.5,7.5,15.8,18.6,15.8
				c11,0,18.5-6.4,18.5-15.8v-25.7h-11.5V2036.9z"/>
		</g>
		<g>
			<defs>
				<rect id="SVGID_3_" x="1077.9" y="1789.4" width="345.5" height="352.6"/>
			</defs>
			<clipPath id="SVGID_4_">
				<use xlink:href="#SVGID_3_"  style="overflow:visible;"/>
			</clipPath>
			<path class="st6" d="M1328.3,2037.4c-0.6-1-1.1-1.7-1.4-2.1c3.8-2,6.3-6.3,6.3-11.1c0-5.8-3-10.2-8.3-12.1c-2-0.7-4.3-1-8.5-1
				h-15.5v40.9h11.5v-13.4h4.2l7.7,13.4h12.9L1328.3,2037.4z M1312.4,2020.6h3.1c5,0,6,1.6,6,4.3c0,2.8-1.8,4.4-5,4.4h-4.1V2020.6z"
				/>
			<path class="st7" d="M1376.2,1849.3l-29.3,27.6c23.4,24.8,36.3,57.4,36.3,91.6c0,73.5-59.4,133.2-132.5,133.2
				c-73.1,0-132.5-59.8-132.5-133.2s59.4-133.2,132.5-133.2c13,0,25.6,1.9,37.8,5.5l-5.9,12.3l70.5-5.4l-39.9-58.3l-7.1,14.7
				c-17.8-6.1-36.4-9.1-55.4-9.1c-95.3,0-172.8,77.8-172.8,173.5c0,95.7,77.5,173.5,172.8,173.5s172.8-77.8,172.8-173.5
				C1423.5,1924,1406.7,1881.7,1376.2,1849.3"/>
		</g>
		<g>
			<defs>
				<rect id="SVGID_5_" x="1077.2" y="1789.4" width="347" height="352.6"/>
			</defs>
			<clipPath id="SVGID_6_">
				<use xlink:href="#SVGID_5_"  style="overflow:visible;"/>
			</clipPath>
			<path class="st8" d="M1141.2,2056.7l4.5,4.8l-4.6,9.3c-0.7,1.4-1.9,3.5-1.9,3.5l0,0c0,0,2.2-1.1,3.6-1.7l9.5-4l4.5,4.8
				l-15.3,17.2l-4.2-4.4l7-7.7c1.2-1.3,2.8-2.6,2.8-2.6l0,0c0,0-2.3,1-3.8,1.6l-6.6,2.7l-3.6-3.8l3-6.5c0.7-1.4,1.9-3.7,1.9-3.7
				l0-0.1c0,0-1.4,1.6-2.8,2.6l-8,6.5l-4.2-4.4L1141.2,2056.7z"/>
			<path class="st8" d="M1169.8,2082.6c6.1,4.4,7.6,11.7,3.7,17.1c-3.9,5.5-11.4,6.6-17.5,2.2c-6.1-4.4-7.5-11.8-3.6-17.3
				C1156.3,2079.3,1163.7,2078.3,1169.8,2082.6 M1159,2097.8c3,2.2,7.2,1.5,9.4-1.7c2.2-3.1,1.4-7.1-1.6-9.2c-3-2.2-7.1-1.6-9.3,1.5
				C1155.2,2091.5,1156,2095.6,1159,2097.8"/>
			<path class="st8" d="M1182.4,2091.4l8.2,4c4.5,2.2,6.7,5.5,5,9.1c-0.8,1.7-2.6,3.1-4.7,3.1l0,0.1c2.2,2,2.1,4.5,1.2,6.3
				c-2.2,4.5-7,4.2-11.5,2.1l-8.2-4L1182.4,2091.4z M1183.2,2111.9c1.6,0.8,2.9,0.1,3.4-1c0.6-1.2,0.3-2.5-1.3-3.2l-3.3-1.6
				l-2.1,4.3L1183.2,2111.9z M1186.8,2103.4c1.4,0.7,2.4,0,2.9-1c0.5-1,0.3-2.1-1.2-2.8l-2.7-1.3l-1.8,3.7L1186.8,2103.4z"/>
			
				<rect x="1190.1" y="2109.2" transform="matrix(0.326 -0.9454 0.9454 0.326 -1186.9958 2559.6177)" class="st8" width="23" height="6.1"/>
			<polygon class="st8" points="1213,2104 1218.9,2105.3 1214.9,2123 1224.7,2125.3 1223.7,2130 1207.9,2126.4 			"/>
			<polygon class="st8" points="1230.7,2107.8 1246.1,2109.3 1245.7,2114.1 1236.2,2113.2 1235.8,2117.3 1243.4,2118.1 
				1242.9,2122.9 1235.4,2122.1 1234.9,2126.4 1244.8,2127.4 1244.4,2132.2 1228.4,2130.6 			"/>
			<path class="st8" d="M1261.6,2124.8c0,0,3,2.1,6.1,1.8c1.2-0.1,2.5-0.7,2.4-2.1c-0.3-2.7-11.4-1.5-12.1-8.5
				c-0.4-4.2,3.1-7.4,8-7.9c5.3-0.5,8.2,1.8,8.2,1.8l-2.1,4.8c0,0-2.7-1.8-5.7-1.5c-1.2,0.1-2.6,0.8-2.4,2.1
				c0.3,2.9,11.4,1.2,12.1,8.5c0.4,3.8-2.4,7.4-8,8c-5.8,0.6-9.3-2.4-9.3-2.4L1261.6,2124.8z"/>
			<polygon class="st8" points="1277.5,2107 1292.6,2103.3 1293.8,2108 1284.5,2110.2 1285.5,2114.3 1292.9,2112.5 1294,2117.2 
				1286.7,2119 1287.7,2123.2 1297.4,2120.8 1298.5,2125.5 1282.9,2129.3 			"/>
			<path class="st8" d="M1296.1,2102.3l8-3.2c2.3-1,3.5-1.3,4.7-1.3c3-0.1,5.5,1.4,6.8,4.5c0.9,2.3,0.8,5.2-1.1,7.2l0,0.1
				c0,0,0.5,0.3,1.4,0.9l7.5,5.6l-6.3,2.5l-7-5.5l-2.6,1.1l2.9,7.2l-5.6,2.3L1296.1,2102.3z M1308,2108.6c1.8-0.7,2.5-2.1,1.9-3.8
				c-0.7-1.6-1.7-2.3-4.5-1.2l-1.9,0.8l2.1,5.2L1308,2108.6z"/>
			<path class="st8" d="M1313.1,2095.6l5.7-3.4l10.4,9c1.2,1,2.7,2.7,2.7,2.7l0.1,0c0,0-0.8-2.2-1.1-3.7l-2.9-13.5l5.6-3.3l4.2,24.2
				l-5.4,3.2L1313.1,2095.6z"/>
			
				<rect x="1341.2" y="2077.7" transform="matrix(0.7939 -0.608 0.608 0.7939 -993.2828 1247.8813)" class="st8" width="6.1" height="23"/>
			<path class="st8" d="M1351.3,2067.2c4.4-4.3,8.9-4.2,8.9-4.2l1,5c0,0-3.6,0.3-6.1,2.7c-3.4,3.3-2.7,7.2-0.4,9.6
				c2.4,2.4,6.6,3.2,9.8,0c2.7-2.6,2.7-6.6,2.7-6.6l5.1,0.7c0,0,0.2,5.2-4.4,9.7c-5.5,5.4-12.9,5.5-17.6,0.6
				C1345.7,2079.9,1346,2072.4,1351.3,2067.2"/>
			<polygon class="st8" points="1359.8,2058.7 1369.2,2046.3 1373,2049.2 1367.3,2056.8 1370.6,2059.3 1375.2,2053.3 1379,2056.2 
				1374.5,2062.2 1377.9,2064.8 1383.9,2056.9 1387.8,2059.8 1378.1,2072.6 			"/>
		</g>
	</g>
	<g>
		<text transform="matrix(1 0 0 1 1137.7086 2225.9255)" class="st3" style="font-family:'Gotham-Black'; font-size:65.8908px;">13 17 60</text>
		<g>
			<defs>
				<rect id="SVGID_7_" x="1072.9" y="2179.6" width="47.1" height="46.3"/>
			</defs>
			<clipPath id="SVGID_8_">
				<use xlink:href="#SVGID_7_"  style="overflow:visible;"/>
			</clipPath>
			<path class="st9" d="M1118.7,2215.8l-7.1-7.1c-1.4-1.4-3.8-1.4-5.2,0.1l-3.6,3.6c-0.2-0.1-0.5-0.3-0.7-0.4
				c-2.3-1.3-5.4-3-8.6-6.2c-3.3-3.3-5-6.4-6.2-8.6c-0.1-0.2-0.3-0.5-0.4-0.7l2.4-2.4l1.2-1.2c1.5-1.5,1.5-3.8,0.1-5.2l-7.1-7.1
				c-1.4-1.4-3.8-1.4-5.2,0.1l-2,2l0.1,0.1c-0.7,0.9-1.2,1.8-1.6,2.9c-0.4,1-0.6,2-0.7,3c-0.9,7.8,2.6,14.9,12.2,24.5
				c13.3,13.3,24.1,12.3,24.5,12.3c1-0.1,2-0.4,3-0.7c1.1-0.4,2-1,2.9-1.6l0,0l2-2C1120,2219.5,1120.1,2217.2,1118.7,2215.8"/>
		</g>
	</g>
</g>
<text transform="matrix(1 0 0 1 570.4127 2064.2996)"><tspan x="0" y="0" class="st4" style="font-family:'Gotham-Black'; font-size:96.6438px;">WE CAN </tspan><tspan x="0" y="82.6" class="st4" style="font-family:'Gotham-Black'; font-size:96.6438px;">COME</tspan><tspan x="0" y="165.2" class="st4" style="font-family:'Gotham-Black'; font-size:96.6438px;">TO YOU.</tspan></text>
<text transform="matrix(1 0 0 1 569.1842 1891.9188)"><tspan x="0" y="0" class="st3" style="font-family:'Gotham-Black'; font-size:96.6438px;">DID YOU</tspan><tspan x="0" y="82.6" class="st3" style="font-family:'Gotham-Black'; font-size:96.6438px;">KNOW?</tspan></text>
<g>
	<text transform="matrix(1 0 0 1 -2758.3416 1248.288)"><tspan x="0" y="0" class="st3" style="font-family:'Gotham-Bold'; font-size:61.4941px;">Monday</tspan><tspan x="0" y="73.8" class="st3" style="font-family:'Gotham-Bold'; font-size:61.4941px;">Tuesday</tspan><tspan x="0" y="147.6" class="st3" style="font-family:'Gotham-Bold'; font-size:61.4941px;">Wednesday</tspan><tspan x="369.9" y="147.6" class="st3" style="font-family:'Gotham-Bold'; font-size:61.4941px; letter-spacing:165;">	</tspan><tspan x="0" y="221.4" class="st3" style="font-family:'Gotham-Bold'; font-size:61.4941px;">Thursday</tspan><tspan x="0" y="295.2" class="st3" style="font-family:'Gotham-Bold'; font-size:61.4941px;">Friday</tspan><tspan x="0" y="369" class="st3" style="font-family:'Gotham-Bold'; font-size:61.4941px;">Saturday</tspan><tspan x="0" y="442.8" class="st3" style="font-family:'Gotham-Bold'; font-size:61.4941px;">Sunday</tspan></text>
	<text transform="matrix(1 0 0 1 -2365.6184 1248.288)"><tspan x="0" y="0" class="st3" style="font-family:'Gotham-Bold'; font-size:61.4941px;">7:30am–5:30pm</tspan><tspan x="0" y="73.8" class="st3" style="font-family:'Gotham-Bold'; font-size:61.4941px;">7:30am–5:30pm</tspan><tspan x="0" y="147.6" class="st3" style="font-family:'Gotham-Bold'; font-size:61.4941px;">7:30am–5:30pm</tspan><tspan x="0" y="221.4" class="st3" style="font-family:'Gotham-Bold'; font-size:61.4941px;">7:30am–5:30pm</tspan><tspan x="0" y="295.2" class="st3" style="font-family:'Gotham-Bold'; font-size:61.4941px;">7:30am–5:30pm</tspan><tspan x="-19.7" y="369" class="st3" style="font-family:'Gotham-Bold'; font-size:61.4941px;">9:00am–4:00pm</tspan><tspan x="-45.6" y="442.8" class="st3" style="font-family:'Gotham-Bold'; font-size:61.4941px;">10:00am–3:00pm</tspan></text>
</g>
<g>
	<g>
		<path class="st3" d="M-1395.4,964.3h23.7v64.7h41.4v20.7h-65V964.3z"/>
		<path class="st3" d="M-1319.6,964.3h23.7v85.4h-23.7V964.3z"/>
		<path class="st3" d="M-1280.3,964.3h23.7V999l29.5-34.7h27.9l-32.3,36.6l33.4,48.8h-28.3l-21.6-31.7l-8.7,9.5v22.2h-23.7V964.3z"
			/>
		<path class="st3" d="M-1191.2,964.3h68.7v20h-45.3v13.1h41v18.7h-41v13.5h45.9v20.1h-69.3V964.3z"/>
		<path class="st3" d="M-1076.9,1012.3v-47.9h23.9v47.5c0,12.3,6.2,18.2,15.7,18.2c9.6,0,15.9-5.6,15.9-17.6v-48.1h23.9v47.3
			c0,27.5-15.7,39.7-40,39.7C-1061.6,1051.3-1076.9,1039-1076.9,1012.3z"/>
		<path class="st3" d="M-989.9,1037l13.2-15.7c8.5,6.7,17.8,10.2,27.7,10.2c6.5,0,9.9-2.2,9.9-5.9v-0.2c0-3.7-2.8-5.5-14.5-8.3
			c-18.2-4.1-32.2-9.3-32.2-26.7v-0.2c0-15.9,12.6-27.3,33.1-27.3c14.5,0,25.9,3.9,35.1,11.3l-11.8,16.7c-7.8-5.6-16.3-8.4-23.9-8.4
			c-5.7,0-8.5,2.3-8.5,5.5v0.2c0,3.9,2.9,5.6,14.9,8.3c19.5,4.3,31.7,10.6,31.7,26.6v0.2c0,17.4-13.8,27.8-34.5,27.8
			C-965,1051.2-979.3,1046.4-989.9,1037z"/>
	</g>
	<g>
		<path class="st10" d="M-1398.3,1110.4v-0.2c0-24.5,19.8-44.4,46.1-44.4c26.4,0,45.9,19.6,45.9,44.2v0.2
			c0,24.5-19.8,44.4-46.1,44.4C-1378.7,1154.6-1398.3,1134.9-1398.3,1110.4z M-1330.5,1110.4v-0.2c0-12.4-8.8-23.1-21.8-23.1
			s-21.7,10.5-21.7,22.8v0.2c0,12.3,8.9,23.1,22,23.1C-1339.2,1133.2-1330.5,1122.7-1330.5,1110.4z"/>
		<path class="st10" d="M-1294.1,1067.4h22.1l35.1,45.1v-45.1h23.4v85.4h-20.6l-36.6-46.9v46.9h-23.4V1067.4z"/>
		<path class="st10" d="M-1164.5,1067.4h68.3v20.7h-44.7v14.5h40.4v19.6h-40.4v30.5h-23.7V1067.4z"/>
		<path class="st10" d="M-1065.5,1066.8h22.8l36.4,86h-25.4l-6.1-15.4h-33.1l-6.1,15.4h-24.8L-1065.5,1066.8z M-1044.8,1119
			l-9.5-24.2l-9.6,24.2H-1044.8z"/>
		<path class="st10" d="M-1006.4,1110.4v-0.2c0-24.9,19-44.4,44.9-44.4c17.4,0,28.7,7.3,36.2,17.7l-17.8,13.8
			c-4.9-6-10.5-10-18.7-10c-12,0-20.4,10.2-20.4,22.7v0.2c0,12.8,8.4,22.8,20.4,22.8c8.9,0,14.2-4.1,19.3-10.4l17.8,12.7
			c-8.1,11.1-18.9,19.3-37.7,19.3C-986.7,1154.6-1006.4,1135.9-1006.4,1110.4z"/>
		<path class="st10" d="M-914.4,1067.4h68.7v20H-891v13.1h41v18.7h-41v13.5h45.9v20.1h-69.3V1067.4z"/>
		<path class="st10" d="M-832.9,1067.4h43.8c10.7,0,18.3,2.7,23.3,7.6c3.4,3.5,5.5,8.1,5.5,13.9v0.2c0,9.9-5.6,15.7-13.2,19
			c10.4,3.4,17,9.3,17,20.9v0.2c0,14.6-12,23.5-32.3,23.5h-44V1067.4z M-783.6,1093.8c0-4.8-3.8-7.3-10.7-7.3h-15.5v15h14.9
			c7.2,0,11.3-2.4,11.3-7.4V1093.8z M-791.8,1118.1h-18.1v15.7h18.3c7.3,0,11.3-2.8,11.3-7.8v-0.2
			C-780.2,1121.1-783.8,1118.1-791.8,1118.1z"/>
		<path class="st10" d="M-748.5,1110.4v-0.2c0-24.5,19.8-44.4,46.1-44.4c26.4,0,45.9,19.6,45.9,44.2v0.2c0,24.5-19.8,44.4-46.1,44.4
			C-728.9,1154.6-748.5,1134.9-748.5,1110.4z M-680.7,1110.4v-0.2c0-12.4-8.8-23.1-21.8-23.1s-21.7,10.5-21.7,22.8v0.2
			c0,12.3,8.9,23.1,22,23.1C-689.4,1133.2-680.7,1122.7-680.7,1110.4z"/>
		<path class="st10" d="M-647.1,1110.4v-0.2c0-24.5,19.8-44.4,46.1-44.4c26.4,0,45.9,19.6,45.9,44.2v0.2c0,24.5-19.8,44.4-46.1,44.4
			C-627.6,1154.6-647.1,1134.9-647.1,1110.4z M-579.4,1110.4v-0.2c0-12.4-8.8-23.1-21.8-23.1s-21.7,10.5-21.7,22.8v0.2
			c0,12.3,8.9,23.1,22,23.1C-588,1133.2-579.4,1122.7-579.4,1110.4z"/>
		<path class="st10" d="M-542.9,1067.4h23.7v34.7l29.5-34.7h27.9l-32.3,36.6l33.4,48.8H-489l-21.6-31.7l-8.7,9.5v22.2h-23.7V1067.4z
			"/>
	</g>
</g>
<g>
	<g>
		<g>
			<path class="st3" d="M345,721.8L345,721.8c-1.8,0-45.3-0.3-78.9-28.9c-2.9-2.5-5.4-4.1-7.7-5.2l-24.7-11.2V388.1l35.2-30.1
				l94.1-174.4c2.6-4.3,4.5-8.9,5.7-13.7c1.2-4.8,1.6-9.8,1.2-14.8L361,37.6l6.3-5.3c13.7-11.4,31-17.7,48.8-17.7
				c61.5,0,109.3,82.2,109.3,152.9c0,9.2-0.7,18.4-2.1,27.4l-11,71.5h171.3c21.8,0,43.3,9,58.9,24.7c15,15.1,23.2,34.8,23.1,55.4
				c-0.1,17.9-6.1,34.8-16.9,48.4c15.1,14.8,24,35.2,24,56.8c0,28.3-14.7,53.7-38,67.9c4.1,9.7,6.2,20.1,6.2,30.9
				c0,32.5-19.4,60.8-48.1,73c1.5,6.1,2.2,12.3,2.2,18.7c0,42.1-33,77-75.1,79.3l-0.9,0L345,721.8z"/>
		</g>
		<path class="st11" d="M340.6,735.2L340.6,735.2c-1.9,0-47.1-0.3-82.1-30.1c-3-2.6-5.6-4.3-8-5.4l-25.7-11.7V388.3l36.6-31.3
			l97.9-181.3c2.7-4.4,4.7-9.2,5.9-14.2c1.2-5,1.6-10.1,1.2-15.4l-9.3-122.1l6.6-5.5C378.1,6.5,396.1,0,414.6,0
			c64,0,113.6,85.4,113.6,159c0,9.5-0.7,19.1-2.2,28.5l-11.5,74.3h178.1c22.7,0,45,9.4,61.2,25.7c15.6,15.7,24.2,36.2,24,57.6
			c-0.1,18.6-6.4,36.1-17.6,50.4c15.7,15.4,24.9,36.6,24.9,59.1c0,29.5-15.3,55.9-39.5,70.6c4.3,10.1,6.5,20.9,6.5,32.1
			c0,33.8-20.1,63.2-50,75.9c1.5,6.3,2.3,12.8,2.3,19.4c0,43.8-34.3,80.1-78.1,82.5l-0.9,0L340.6,735.2z M258.3,666.6l6.1,2.8
			c5.3,2.4,10.3,5.7,15.8,10.3c25.2,21.5,59.6,22.1,60.5,22.1l284.5-0.1c25.9-1.7,46.2-23.2,46.2-49.2c0-7.9-1.9-15.6-5.5-22.6
			l-10.6-20.4l22.6-3.8c23.9-4,41.2-24.4,41.2-48.6c0-10.7-3.4-21-10-29.6l-14.2-18.9l22.6-7c20.7-6.5,34.6-25.4,34.6-47.1
			c0-17.7-9.6-34.2-25.1-43l-22-12.5l20.2-15.3c12.4-9.4,19.5-23.6,19.6-38.9c0.1-12.4-5-24.4-14.3-33.8
			c-10-10.1-23.7-15.9-37.6-15.9h-217l17.4-112.7c1.2-7.7,1.8-15.6,1.8-23.4c0-56.5-37-125.6-80.3-125.6c-8,0-15.8,2.1-22.7,6
			l7.9,104.1c0.7,8.7,0,17.4-2.1,25.8c-2,8.2-5.2,16.1-9.6,23.4L288,378.3l-29.7,25.4V666.6z"/>
	</g>
	<g>
		<path class="st12" d="M17.8,351.9c-0.6,0-1.1,0.5-1.1,0.9v386.8c0,0.5,0.5,0.9,1.1,0.9h222.8c0.6,0,1.1-0.5,1.1-0.9V352.8
			c0-0.5-0.5-0.9-1.1-0.9H17.8z"/>
	</g>
	<g>
		<path class="st11" d="M224,757.3H34.3C15.4,757.3,0,741.9,0,723V365.1c0-18.9,15.4-34.3,34.3-34.3H224c18.9,0,34.3,15.4,34.3,34.3
			V723C258.3,741.9,242.9,757.3,224,757.3z M34.3,364.2c-0.5,0-0.9,0.5-0.9,0.9V723c0,0.5,0.5,0.9,0.9,0.9H224
			c0.5,0,0.9-0.5,0.9-0.9V365.1c0-0.5-0.5-0.9-0.9-0.9H34.3z"/>
	</g>
</g>
</svg>
