<?xml version="1.0" encoding="utf-8"?>
<!-- Generator: Adobe Illustrator 22.0.0, SVG Export Plug-In . SVG Version: 6.00 Build 0)  -->
<svg version="1.1" id="Layer_1" xmlns="http://www.w3.org/2000/svg" xmlns:xlink="http://www.w3.org/1999/xlink" x="0px" y="0px"
	 viewBox="0 0 273.5 278" style="enable-background:new 0 0 273.5 278;" xml:space="preserve">
<style type="text/css">
	.st0{fill:#FFFFFF;}
	.st1{clip-path:url(#SVGID_2_);fill:#FFFFFF;}
	.st2{clip-path:url(#SVGID_4_);fill:#FFFFFF;}
	.st3{clip-path:url(#SVGID_4_);fill:#FFB71B;}
	.st4{clip-path:url(#SVGID_6_);fill:#E20613;}
</style>
<g>
	<rect x="135.5" y="49.1" class="st0" width="3.8" height="13.5"/>
	<rect x="45.1" y="138.9" class="st0" width="13.5" height="3.8"/>
	<rect x="135.5" y="220.6" class="st0" width="3.8" height="13.5"/>
	<rect x="216.4" y="138.9" class="st0" width="13.5" height="3.8"/>
	<g>
		<defs>
			<rect id="SVGID_1_" x="7.4" y="7.6" width="258.7" height="262.8"/>
		</defs>
		<clipPath id="SVGID_2_">
			<use xlink:href="#SVGID_1_"  style="overflow:visible;"/>
		</clipPath>
		<path class="st1" d="M105.8,137.9C117,131,131,122.3,131,106c0-15.7-12.8-26.6-31.2-26.6c-22.5,0-31.2,17-31.5,17.8l-0.8,1.7
			l15.5,9.6l1.1-1.8c0.1-0.1,5.2-8.8,14.4-8.8c5.8,0,11.6,3,11.6,9.5c0,5.9-7.2,10.5-15.4,15.9C82.7,130.8,68,140.3,68,158.6
			c0,2.2,0.3,4.4,0.6,6.7L69,168h63.4v-17.1H90.8C92.3,146.2,98.6,142.3,105.8,137.9"/>
		<path class="st1" d="M197.5,130V80.8h-22.4l-39.7,53.8v12h42V168h20.1v-21.4h11.6V130H197.5z M158.6,130l18.4-23.5
			c0.1-0.2,0.3-0.3,0.4-0.5c0,0.1,0,0.2,0,0.3V130H158.6z"/>
		<polygon class="st1" points="88.5,184.8 77.5,184.8 77.5,172.9 68.9,172.9 68.9,203.4 77.5,203.4 77.5,191.7 88.5,191.7 
			88.5,203.4 97,203.4 97,172.9 88.5,172.9 		"/>
		<path class="st1" d="M118.8,172.4c-9.8,0-17.2,6.7-17.2,15.5c0,9.1,7.4,15.9,17.2,15.9c9.8,0,17.2-6.8,17.2-15.9
			C136,179.1,128.6,172.4,118.8,172.4 M118.8,196.5c-4.7,0-8.3-3.8-8.3-8.5c0-4.6,3.7-8.2,8.3-8.2c4.7,0,8.3,3.6,8.3,8.2
			C127.1,192.7,123.5,196.5,118.8,196.5"/>
		<path class="st1" d="M159.2,192.1c0,2.8-1.9,4.4-5.2,4.4s-5.2-1.6-5.2-4.4v-19.2h-8.6v19.2c0,7.1,5.6,11.8,13.8,11.8
			c8.2,0,13.8-4.7,13.8-11.8v-19.2h-8.6V192.1z"/>
	</g>
	<g>
		<defs>
			<rect id="SVGID_3_" x="8" y="7.6" width="257.6" height="262.8"/>
		</defs>
		<clipPath id="SVGID_4_">
			<use xlink:href="#SVGID_3_"  style="overflow:visible;"/>
		</clipPath>
		<path class="st2" d="M194.6,192.4c-0.5-0.7-0.8-1.2-1-1.5c2.8-1.5,4.7-4.7,4.7-8.3c0-4.3-2.3-7.6-6.2-9c-1.5-0.5-3.2-0.7-6.4-0.7
			h-11.6v30.5h8.6v-10h3.1l5.7,10h9.6L194.6,192.4z M182.8,179.9h2.3c3.8,0,4.5,1.2,4.5,3.2c0,2.1-1.4,3.3-3.7,3.3h-3.1V179.9z"/>
		<path class="st3" d="M230.4,52.2l-21.9,20.6c17.4,18.5,27,42.8,27,68.3c0,54.8-44.3,99.3-98.8,99.3c-54.5,0-98.8-44.6-98.8-99.3
			s44.3-99.3,98.8-99.3c9.7,0,19.1,1.4,28.2,4.1l-4.4,9.2l52.5-4L183.4,7.6l-5.3,11c-13.3-4.5-27.1-6.8-41.3-6.8
			C65.8,11.7,8,69.8,8,141.1s57.8,129.3,128.8,129.3c71,0,128.8-58,128.8-129.3C265.6,107.9,253.1,76.3,230.4,52.2"/>
	</g>
	<g>
		<defs>
			<rect id="SVGID_5_" x="7.4" y="7.6" width="258.7" height="262.8"/>
		</defs>
		<clipPath id="SVGID_6_">
			<use xlink:href="#SVGID_5_"  style="overflow:visible;"/>
		</clipPath>
		<path class="st4" d="M55.1,206.8l3.4,3.6l-3.4,6.9c-0.5,1.1-1.4,2.6-1.4,2.6l0,0c0,0,1.6-0.8,2.7-1.3l7.1-3l3.4,3.6L55.4,232
			l-3.1-3.3l5.2-5.7c0.9-1,2.1-2,2.1-2l0,0c0,0-1.7,0.8-2.8,1.2l-4.9,2l-2.7-2.8l2.3-4.8c0.5-1,1.4-2.7,1.4-2.7l0,0
			c0,0-1.1,1.2-2.1,2l-6,4.9l-3.1-3.3L55.1,206.8z"/>
		<path class="st4" d="M76.5,226.1c4.5,3.3,5.6,8.7,2.8,12.7c-2.9,4.1-8.5,4.9-13.1,1.7c-4.5-3.2-5.6-8.8-2.7-12.9
			C66.4,223.6,71.9,222.9,76.5,226.1 M68.4,237.4c2.2,1.6,5.3,1.1,7-1.3c1.6-2.3,1-5.3-1.2-6.9c-2.2-1.6-5.3-1.2-6.9,1.1
			C65.6,232.7,66.2,235.8,68.4,237.4"/>
		<path class="st4" d="M85.8,232.6l6.1,3c3.3,1.6,5,4.1,3.7,6.8c-0.6,1.3-1.9,2.3-3.5,2.3l0,0c1.6,1.5,1.6,3.4,0.9,4.7
			c-1.6,3.4-5.2,3.1-8.6,1.5l-6.1-3L85.8,232.6z M86.5,248c1.2,0.6,2.1,0.1,2.6-0.8c0.4-0.9,0.2-1.8-1-2.4l-2.5-1.2l-1.5,3.2
			L86.5,248z M89.1,241.6c1,0.5,1.8,0,2.2-0.7c0.3-0.7,0.2-1.5-0.9-2.1l-2-1l-1.3,2.7L89.1,241.6z"/>
		
			<rect x="91.6" y="246" transform="matrix(0.326 -0.9454 0.9454 0.326 -167.1329 262.0226)" class="st4" width="17.1" height="4.5"/>
		<polygon class="st4" points="108.7,242 113.1,243.1 110.1,256.2 117.4,257.9 116.6,261.4 104.8,258.7 		"/>
		<polygon class="st4" points="121.8,244.9 133.4,246 133,249.6 126,248.9 125.7,252 131.3,252.5 130.9,256.1 125.3,255.6 
			125,258.8 132.4,259.5 132.1,263.1 120.2,261.9 		"/>
		<path class="st4" d="M144.9,257.5c0,0,2.3,1.6,4.6,1.3c0.9-0.1,1.9-0.5,1.8-1.6c-0.2-2-8.5-1.1-9-6.4c-0.3-3.1,2.3-5.5,6-5.9
			c4-0.4,6.1,1.3,6.1,1.3l-1.6,3.6c0,0-2-1.3-4.2-1.1c-0.9,0.1-1.9,0.6-1.8,1.5c0.2,2.1,8.5,0.9,9,6.3c0.3,2.8-1.8,5.5-5.9,5.9
			c-4.3,0.4-7-1.8-7-1.8L144.9,257.5z"/>
		<polygon class="st4" points="156.8,244.3 168,241.5 168.9,245 162,246.7 162.7,249.7 168.2,248.4 169.1,251.9 163.6,253.2 
			164.3,256.3 171.6,254.6 172.4,258.1 160.8,260.9 		"/>
		<path class="st4" d="M170.6,240.8l6-2.4c1.7-0.7,2.6-0.9,3.5-1c2.2-0.1,4.1,1,5,3.3c0.7,1.7,0.6,3.9-0.8,5.4l0,0
			c0,0,0.4,0.2,1,0.7l5.6,4.2l-4.7,1.9l-5.2-4.1l-2,0.8l2.2,5.3l-4.2,1.7L170.6,240.8z M179.5,245.5c1.3-0.5,1.9-1.6,1.4-2.8
			c-0.5-1.2-1.3-1.7-3.4-0.9l-1.4,0.6l1.6,3.9L179.5,245.5z"/>
		<path class="st4" d="M183.3,235.8l4.2-2.5l7.8,6.7c0.9,0.7,2,2,2,2l0,0c0,0-0.6-1.6-0.8-2.7l-2.1-10.1l4.2-2.5l3.1,18l-4,2.4
			L183.3,235.8z"/>
		
			<rect x="204.2" y="222.5" transform="matrix(0.7939 -0.608 0.608 0.7939 -97.9193 173.1551)" class="st4" width="4.5" height="17.1"/>
		<path class="st4" d="M211.8,214.6c3.3-3.2,6.6-3.1,6.6-3.1l0.7,3.7c0,0-2.7,0.2-4.5,2c-2.5,2.5-2,5.4-0.3,7.1
			c1.8,1.8,4.9,2.4,7.3,0c2-2,2-4.9,2-4.9l3.8,0.6c0,0,0.2,3.9-3.3,7.3c-4.1,4.1-9.6,4.1-13.1,0.5
			C207.6,224.1,207.8,218.5,211.8,214.6"/>
		<polygon class="st4" points="218.1,208.3 225.1,199.1 227.9,201.2 223.7,206.9 226.2,208.7 229.6,204.2 232.4,206.4 229,210.9 
			231.6,212.9 236.1,206.9 239,209.1 231.8,218.6 		"/>
	</g>
</g>
</svg>
