<?xml version="1.0" encoding="utf-8"?>
<!-- Generator: Adobe Illustrator 21.0.0, SVG Export Plug-In . SVG Version: 6.00 Build 0)  -->
<svg version="1.1" id="Layer_1" xmlns="http://www.w3.org/2000/svg" xmlns:xlink="http://www.w3.org/1999/xlink" x="0px" y="0px"
	 viewBox="0 0 100.2 156.8" style="enable-background:new 0 0 100.2 156.8;" xml:space="preserve">
<style type="text/css">
	.st0{fill:#423393;}
	.st1{clip-path:url(#SVGID_2_);fill:none;stroke:#FFFFFF;stroke-width:2.725;stroke-miterlimit:10;}
	.st2{clip-path:url(#SVGID_2_);fill:#FCB715;}
	.st3{clip-path:url(#SVGID_2_);fill:#423692;}
	.st4{clip-path:url(#SVGID_2_);fill:#FFFFFF;}
	.st5{clip-path:url(#SVGID_4_);fill:#FFFFFF;}
	.st6{fill:none;stroke:#FFFFFF;stroke-width:0.492;stroke-miterlimit:10;}
	.st7{fill-rule:evenodd;clip-rule:evenodd;fill:#FFFFFF;}
	.st8{fill:none;}
	.st9{fill:#FDB913;}
	.st10{fill:#FFFFFF;}
</style>
<g>
	<defs>
		<rect id="SVGID_3_" y="85.1" width="100.2" height="71.6"/>
	</defs>
	<clipPath id="SVGID_2_">
		<use xlink:href="#SVGID_3_"  style="overflow:visible;"/>
	</clipPath>
	<path class="st4" d="M92.6,151.4l-2.1-1.3l4.2-20.6l-7.8-1.8l0.2-0.9l6.2,1.4l2.7-11.9l-4.7-1.1l2.9-12.7c1.2-5.3,0.7-8.2-4.5-9.4
		l-32.8-7.6c-5.3-1.2-6.8,0.4-8,5.7l-3.1,13.5l-4.7-1.1l-2.8,11.9l7.8,1.8l-2,8.8l3.3,3.7l33,7.6l4-2l-2.2,9.5L73,139
		c0,0-13.7-7.4-17.6-3.5l-6.8,6.8l-6.8-6.8l4-17.3l-9.1-2.1l-3,13.1c-3.2-0.8-6.8,0-9.3,2.6L7.7,148.4c-1.9,1.9-5.2,4.3-7.7,6.8
		h96.5C95.4,154,94,152.8,92.6,151.4 M48.6,112.7c-0.5,2.2-2.7,3.5-4.8,3c-2.2-0.5-3.5-2.7-3-4.8c0.5-2.2,2.7-3.5,4.8-3
		C47.8,108.4,49.1,110.6,48.6,112.7 M92.9,122.5c-0.5,2.2-2.7,3.5-4.8,3c-2.2-0.5-3.5-2.7-3-4.8c0.5-2.2,2.7-3.5,4.8-3
		C92,118.2,93.4,120.4,92.9,122.5 M75.3,126.2l-19.9-4.6l2.3-9.9l19.9,4.6L75.3,126.2z M51.9,102l2.8-12.2L90.2,98l-2.8,12.2
		L51.9,102z"/>
	
		<rect x="91.8" y="108.2" transform="matrix(0.3755 -0.9268 0.9268 0.3755 -44.6402 156.8635)" class="st4" width="4.5" height="6.6"/>
	
		<rect x="42.7" y="96.9" transform="matrix(4.949434e-02 -0.9988 0.9988 4.949434e-02 -57.379 140.1722)" class="st4" width="4.5" height="6.6"/>
</g>
<path class="st7" d="M2.8,4.2v39.2c0,0.2,0,0.3,0,0.5v11.5c0,2.2,1.8,4,4,4h8c1.3,4.6,5.6,8,10.7,8c5,0,9.3-3.4,10.7-8h30.5
	c1.3,4.6,5.6,8,10.7,8c5,0,9.3-3.4,10.7-8h4.1c2.2,0,4-1.8,4-4V40.5c0-2.1-1.5-4.3-3.5-5.1l-7.8-3c-1.5-0.6-3.3-2.3-3.9-3.8
	l-3.2-7.9c-0.8-1.9-3-3.5-5.1-3.5H57.2v-3.2h10.2c1.3,0,2.4-1.1,2.4-2.4V2.4c0-1.3-1.1-2.4-2.4-2.4H7.1C4.7,0,2.8,1.9,2.8,4.2
	 M71.8,56.2c0-3,2.5-5.5,5.5-5.5c3,0,5.5,2.5,5.5,5.5c0,3-2.5,5.5-5.5,5.5C74.3,61.8,71.8,59.3,71.8,56.2 M61.2,25.2
	c0-1.4,1.2-2.6,2.6-2.6h6.5c1.5,0,3,1.1,3.4,2.5l1.9,6.2c0.4,1.4-0.4,2.6-1.9,2.6l-9.9,0.2c-1.4,0-2.6-1.1-2.6-2.6V25.2z M39.8,10.1
	c-0.4,0-0.8-0.4-0.8-0.8V4.8C39,4.4,39.3,4,39.8,4h23c0.4,0,0.8,0.4,0.8,0.8v4.5c0,0.4-0.4,0.8-0.8,0.8v0H39.8z M34.2,20.4
	c0-0.9,0.8-1.7,1.7-1.7h11.9c0.9,0,1.7,0.8,1.7,1.7v12.2c0,0.9-0.8,1.7-1.7,1.7H35.9c-0.9,0-1.7-0.8-1.7-1.7V20.4z M20,56.2
	c0-3,2.5-5.5,5.5-5.5s5.5,2.5,5.5,5.5c0,3-2.5,5.5-5.5,5.5S20,59.3,20,56.2 M11.2,20.4c0-0.9,0.8-1.7,1.7-1.7h11.9
	c0.9,0,1.7,0.8,1.7,1.7v12.2c0,0.9-0.8,1.7-1.7,1.7H12.9c-0.9,0-1.7-0.8-1.7-1.7V20.4z"/>
</svg>
