<?xml version="1.0" encoding="utf-8"?>
<!-- Generator: Adobe Illustrator 21.0.0, SVG Export Plug-In . SVG Version: 6.00 Build 0)  -->
<svg version="1.1" id="Layer_1" xmlns="http://www.w3.org/2000/svg" xmlns:xlink="http://www.w3.org/1999/xlink" x="0px" y="0px"
	 viewBox="0 0 170.1 130.4" style="enable-background:new 0 0 170.1 130.4;" xml:space="preserve">
<style type="text/css">
	.st0{fill:#423393;}
	.st1{clip-path:url(#SVGID_2_);fill:none;stroke:#FFFFFF;stroke-width:2.725;stroke-miterlimit:10;}
	.st2{fill:#FFFFFF;}
	.st3{fill:#FDB913;}
	.st4{clip-path:url(#SVGID_4_);fill:#FCB715;}
	.st5{clip-path:url(#SVGID_4_);fill:#423692;}
	.st6{clip-path:url(#SVGID_4_);fill:#FFFFFF;}
	.st7{clip-path:url(#SVGID_6_);fill-rule:evenodd;clip-rule:evenodd;fill:#FFFFFF;}
</style>
<g>
	<defs>
		<rect id="SVGID_5_" width="170.1" height="130.4"/>
	</defs>
	<clipPath id="SVGID_2_">
		<use xlink:href="#SVGID_5_"  style="overflow:visible;"/>
	</clipPath>
	<path style="clip-path:url(#SVGID_2_);fill-rule:evenodd;clip-rule:evenodd;fill:#FFFFFF;" d="M167.4,11h-26.1V2.7
		c0-1.5-1.2-2.7-2.7-2.7h-18.7c-1.5,0-2.7,1.2-2.7,2.7V11H53V2.7C53,1.2,51.7,0,50.2,0H31.6c-1.5,0-2.7,1.2-2.7,2.7V11H2.7
		C1.2,11,0,12.2,0,13.8v17.4c0,1.5,1.2,2.7,2.7,2.7h164.7c1.5,0,2.7-1.2,2.7-2.7V13.8C170.1,12.2,168.9,11,167.4,11 M11.6,126.9
		c0,2,1.6,3.5,3.5,3.5H155c2,0,3.5-1.6,3.5-3.5V43.2h-147V126.9z M68.3,90.8l8.3-26.5c0.1-0.5,0.6-0.8,1-0.8h12.9
		c0.3,0,0.7,0.2,0.9,0.4c0.2,0.3,0.3,0.6,0.2,1l-5,15.6h14.2c0.4,0,0.8,0.2,1,0.6c0.2,0.4,0.2,0.8,0,1.1l-19,29.5
		c-0.2,0.3-0.6,0.5-0.9,0.5c-0.1,0-0.3,0-0.4-0.1c-0.5-0.2-0.8-0.7-0.7-1.2l3.1-18.7H69.4c-0.3,0-0.7-0.2-0.9-0.4
		C68.3,91.4,68.2,91.1,68.3,90.8"/>
</g>
</svg>
