<?xml version="1.0" encoding="utf-8"?>
<!-- Generator: Adobe Illustrator 21.0.0, SVG Export Plug-In . SVG Version: 6.00 Build 0)  -->
<svg version="1.1" id="Layer_1" xmlns="http://www.w3.org/2000/svg" xmlns:xlink="http://www.w3.org/1999/xlink" x="0px" y="0px"
	 viewBox="0 0 95.2 168" style="enable-background:new 0 0 95.2 168;" xml:space="preserve">
<style type="text/css">
	.st0{fill:#423393;}
	.st1{clip-path:url(#SVGID_2_);fill:none;stroke:#FFFFFF;stroke-width:2.725;stroke-miterlimit:10;}
	.st2{fill:#FFFFFF;}
	.st3{fill:#FDB913;}
	.st4{clip-path:url(#SVGID_4_);fill:#FCB715;}
	.st5{clip-path:url(#SVGID_4_);fill:#423692;}
	.st6{clip-path:url(#SVGID_4_);fill:#FFFFFF;}
	.st7{fill:none;}
</style>
<path class="st2" d="M82.9,0H12.2C5.5,0,0,5.5,0,12.2v143.6c0,6.7,5.5,12.2,12.2,12.2h70.7c6.8,0,12.2-5.5,12.2-12.2V12.2
	C95.2,5.5,89.7,0,82.9,0 M30.1,7.4H65c0.9,0,1.6,1.3,1.6,2.9c0,1.6-0.7,3-1.6,3H30.1c-0.9,0-1.6-1.3-1.6-3
	C28.5,8.8,29.2,7.4,30.1,7.4 M47.6,163.3c-3.5,0-6.4-2.9-6.4-6.4c0-3.5,2.9-6.4,6.4-6.4c3.5,0,6.4,2.9,6.4,6.4
	C54,160.4,51.1,163.3,47.6,163.3 M86,145.7H9.2v-125H86V145.7z"/>
</svg>
