<?xml version="1.0" encoding="utf-8"?>
<!-- Generator: Adobe Illustrator 16.0.0, SVG Export Plug-In . SVG Version: 6.00 Build 0)  -->
<!DOCTYPE svg PUBLIC "-//W3C//DTD SVG 1.1//EN" "http://www.w3.org/Graphics/SVG/1.1/DTD/svg11.dtd">
<svg version="1.1" id="Layer_1" xmlns="http://www.w3.org/2000/svg" xmlns:xlink="http://www.w3.org/1999/xlink" x="0px" y="0px"
	 width="95.722px" height="179.011px" viewBox="0 0 95.722 179.011" enable-background="new 0 0 95.722 179.011"
	 xml:space="preserve">
<path fill="#FFFFFF" d="M32.169,0c-4.415,0-7.995,3.921-7.995,8.757v161.498c0,4.835,3.58,8.756,7.995,8.756h31.978
	c4.415,0,7.994-3.921,7.994-8.756V8.757C72.141,3.921,68.562,0,64.146,0H32.169z"/>
<path fill="none" stroke="#FFFFFF" stroke-width="4.524" stroke-linejoin="round" stroke-miterlimit="10" d="M32.169,7.013
	c-4.415,0-7.995,3.58-7.995,7.995v147.457c0,4.414,3.58,7.994,7.995,7.994h31.978c4.415,0,7.994-3.58,7.994-7.994V15.008
	c0-4.415-3.579-7.995-7.994-7.995H32.169z"/>
<path fill="#FDB913" d="M47.861,43.729c-25.185,0-45.599,20.415-45.599,45.599c0,25.187,20.414,45.6,45.599,45.6
	c25.186,0,45.599-20.413,45.599-45.6C93.46,64.144,73.047,43.729,47.861,43.729"/>
<path fill="none" stroke="#FFFFFF" stroke-width="4.524" stroke-linejoin="round" stroke-miterlimit="10" d="M47.861,86.959
	l-22.503-8.882 M47.27,88.736l23.095-26.649 M47.861,43.729c-25.185,0-45.599,20.415-45.599,45.599
	c0,25.187,20.414,45.6,45.599,45.6c25.186,0,45.599-20.413,45.599-45.6C93.46,64.144,73.047,43.729,47.861,43.729z"/>
</svg>
