<?xml version="1.0" encoding="utf-8"?>
<!-- Generator: Adobe Illustrator 16.0.0, SVG Export Plug-In . SVG Version: 6.00 Build 0)  -->
<!DOCTYPE svg PUBLIC "-//W3C//DTD SVG 1.1//EN" "http://www.w3.org/Graphics/SVG/1.1/DTD/svg11.dtd">
<svg version="1.1" id="Layer_1" xmlns="http://www.w3.org/2000/svg" xmlns:xlink="http://www.w3.org/1999/xlink" x="0px" y="0px"
	 width="298.368px" height="156.957px" viewBox="0 0 298.368 156.957" enable-background="new 0 0 298.368 156.957"
	 xml:space="preserve">
<rect x="-564.461" y="177.249" fill="#423393" width="595.275" height="841.89"/>
<path fill="none" stroke="#FFFFFF" stroke-width="2" d="M-46.116,215.427"/>
<rect x="-285.244" y="972.822" fill="#FDB913" width="11.128" height="11.128"/>
<rect x="-282.708" y="977.636" fill="#423393" width="6.057" height="1.503"/>
<rect x="-280.431" y="975.358" fill="#423393" width="1.503" height="6.058"/>
<rect x="-35.28" y="972.822" fill="#FFFFFF" width="11.128" height="11.128"/>
<rect x="-32.745" y="977.636" fill="#423393" width="6.058" height="1.503"/>
<g>
	<defs>
		<rect id="SVGID_1_" x="-564.461" y="177.249" width="595.276" height="841.89"/>
	</defs>
	<clipPath id="SVGID_2_">
		<use xlink:href="#SVGID_1_"  overflow="visible"/>
	</clipPath>
	<path clip-path="url(#SVGID_2_)" fill="#FDB913" d="M-235.993,973.071l6.92,0.002l-17.955,21.878
		c1.34,0.335,2.742,0.515,4.186,0.515c9.493,0,17.19-7.691,17.197-17.184v-0.025c-0.004-4.631-1.841-8.83-4.821-11.921
		L-235.993,973.071z"/>
	<path clip-path="url(#SVGID_2_)" fill="#FFFFFF" d="M-247.385,994.856l6.61-15.96h-5.827l9.077-16.981
		c-1.676-0.544-3.462-0.842-5.318-0.842c-9.495,0-17.193,7.695-17.197,17.189v0.014
		C-260.037,986.198-254.676,992.864-247.385,994.856"/>
	<path clip-path="url(#SVGID_2_)" fill="#FFFFFF" d="M-203.451,982.717c0,1.125-0.223,2.072-0.669,2.838
		c-0.446,0.768-1.039,1.383-1.775,1.85c-0.738,0.466-1.577,0.8-2.519,1.004s-1.907,0.306-2.896,0.306h-8.21v-20.612h8.21
		c0.796,0,1.61,0.083,2.444,0.248s1.593,0.446,2.271,0.845c0.679,0.397,1.232,0.937,1.659,1.615c0.427,0.68,0.641,1.542,0.641,2.592
		c0,1.145-0.311,2.091-0.931,2.838c-0.622,0.747-1.438,1.286-2.446,1.615v0.059c0.582,0.097,1.13,0.277,1.645,0.539
		s0.962,0.596,1.34,1.004c0.379,0.408,0.679,0.883,0.902,1.427C-203.562,981.426-203.451,982.038-203.451,982.717 M-209.098,974.07
		c0-0.699-0.269-1.208-0.801-1.528c-0.534-0.32-1.325-0.48-2.373-0.48h-2.445v4.25h2.678c0.933,0,1.655-0.188,2.169-0.567
		C-209.355,975.366-209.098,974.808-209.098,974.07 M-208.429,982.251c0-0.854-0.32-1.446-0.961-1.776s-1.494-0.495-2.563-0.495
		h-2.765v4.717h2.795c0.388,0,0.79-0.033,1.208-0.102c0.417-0.067,0.796-0.189,1.135-0.365c0.34-0.174,0.616-0.421,0.83-0.741
		C-208.536,983.168-208.429,982.756-208.429,982.251"/>
	<path clip-path="url(#SVGID_2_)" fill="#FFFFFF" d="M-201.892,976.195c0.854-0.814,1.85-1.427,2.984-1.834
		c1.135-0.408,2.295-0.611,3.479-0.611c1.224,0,2.257,0.15,3.101,0.45c0.845,0.303,1.529,0.769,2.053,1.398
		c0.524,0.631,0.907,1.427,1.15,2.387c0.242,0.961,0.363,2.102,0.363,3.421v7.308h-4.366v-1.543h-0.087
		c-0.369,0.603-0.929,1.067-1.676,1.396c-0.747,0.331-1.557,0.496-2.43,0.496c-0.583,0-1.184-0.078-1.805-0.232
		c-0.622-0.155-1.189-0.408-1.704-0.758c-0.515-0.349-0.937-0.814-1.267-1.396c-0.329-0.583-0.494-1.301-0.494-2.155
		c0-1.048,0.285-1.892,0.858-2.533c0.572-0.64,1.311-1.135,2.213-1.484s1.906-0.582,3.014-0.698c1.105-0.116,2.183-0.175,3.23-0.175
		v-0.233c0-0.718-0.252-1.246-0.757-1.586s-1.126-0.51-1.863-0.51c-0.68,0-1.334,0.146-1.965,0.437s-1.17,0.641-1.616,1.048
		L-201.892,976.195z M-193.128,982.396h-0.612c-0.524,0-1.052,0.024-1.586,0.073c-0.534,0.048-1.01,0.141-1.427,0.275
		c-0.417,0.137-0.763,0.336-1.033,0.598c-0.272,0.262-0.408,0.606-0.408,1.034c0,0.271,0.063,0.505,0.19,0.697
		c0.125,0.195,0.285,0.351,0.479,0.467c0.193,0.116,0.417,0.198,0.67,0.246c0.252,0.05,0.494,0.073,0.728,0.073
		c0.97,0,1.713-0.266,2.228-0.8c0.513-0.534,0.771-1.257,0.771-2.169V982.396z"/>
	<path clip-path="url(#SVGID_2_)" fill="#FFFFFF" d="M-181.3,977.768v5.553c0,0.683,0.132,1.193,0.394,1.534
		s0.731,0.511,1.412,0.511c0.232,0,0.479-0.019,0.742-0.058c0.262-0.039,0.48-0.097,0.654-0.175l0.059,3.494
		c-0.33,0.116-0.747,0.219-1.251,0.305c-0.506,0.088-1.011,0.131-1.515,0.131c-0.971,0-1.786-0.121-2.445-0.364
		c-0.66-0.242-1.189-0.593-1.587-1.051c-0.397-0.457-0.685-1.002-0.858-1.634c-0.175-0.632-0.262-1.338-0.262-2.117v-6.129h-2.329
		v-3.552h2.3v-3.813h4.687v3.813h3.406v3.552H-181.3z"/>
	<path clip-path="url(#SVGID_2_)" fill="#FFFFFF" d="M-172.279,977.768v5.553c0,0.683,0.132,1.193,0.394,1.534
		s0.731,0.511,1.412,0.511c0.232,0,0.479-0.019,0.742-0.058c0.262-0.039,0.48-0.097,0.654-0.175l0.059,3.494
		c-0.33,0.116-0.747,0.219-1.251,0.305c-0.505,0.088-1.011,0.131-1.515,0.131c-0.971,0-1.786-0.121-2.445-0.364
		c-0.66-0.242-1.189-0.593-1.586-1.051c-0.398-0.457-0.686-1.002-0.859-1.634c-0.175-0.632-0.262-1.338-0.262-2.117v-6.129h-2.329
		v-3.552h2.3v-3.813h4.687v3.813h3.406v3.552H-172.279z"/>
	<path clip-path="url(#SVGID_2_)" fill="#FFFFFF" d="M-153.483,981.64v0.582c0,0.194-0.01,0.379-0.028,0.553h-10.511
		c0.039,0.408,0.16,0.777,0.364,1.107s0.466,0.616,0.786,0.858s0.68,0.433,1.077,0.567c0.397,0.136,0.81,0.204,1.237,0.204
		c0.758,0,1.397-0.142,1.922-0.422c0.523-0.281,0.95-0.646,1.28-1.092l3.319,2.096c-0.68,0.99-1.577,1.752-2.693,2.286
		c-1.115,0.532-2.412,0.8-3.887,0.8c-1.087,0-2.115-0.17-3.086-0.509c-0.97-0.34-1.819-0.835-2.547-1.485
		c-0.729-0.65-1.3-1.451-1.717-2.402c-0.418-0.949-0.626-2.038-0.626-3.26c0-1.184,0.203-2.257,0.61-3.218
		c0.407-0.96,0.961-1.775,1.66-2.445c0.698-0.67,1.523-1.188,2.474-1.557c0.951-0.369,1.98-0.553,3.087-0.553
		c1.066,0,2.047,0.179,2.939,0.538c0.894,0.358,1.66,0.878,2.3,1.558c0.642,0.679,1.141,1.504,1.5,2.474
		C-153.663,979.292-153.483,980.397-153.483,981.64 M-157.879,979.806c0-0.757-0.238-1.407-0.713-1.951
		c-0.477-0.543-1.189-0.814-2.141-0.814c-0.466,0-0.893,0.072-1.28,0.218c-0.389,0.146-0.729,0.345-1.02,0.597
		c-0.291,0.253-0.524,0.549-0.699,0.888c-0.174,0.341-0.271,0.694-0.291,1.063H-157.879z"/>
	<path clip-path="url(#SVGID_2_)" fill="#FFFFFF" d="M-143.103,978.146c-0.214-0.059-0.422-0.098-0.626-0.117
		s-0.402-0.029-0.597-0.029c-0.64,0-1.179,0.117-1.616,0.349c-0.436,0.232-0.786,0.514-1.048,0.843s-0.451,0.687-0.567,1.073
		c-0.116,0.388-0.175,0.727-0.175,1.017v7.433h-4.774v-14.48h4.6v2.096h0.059c0.368-0.742,0.893-1.348,1.572-1.817
		c0.68-0.469,1.465-0.704,2.358-0.704c0.192,0,0.383,0.011,0.566,0.029c0.186,0.021,0.335,0.049,0.452,0.088L-143.103,978.146z"/>
	<path clip-path="url(#SVGID_2_)" fill="#FFFFFF" d="M-132.21,990.897c-0.291,0.757-0.615,1.431-0.975,2.022
		c-0.36,0.593-0.787,1.098-1.281,1.515c-0.495,0.417-1.077,0.732-1.747,0.946c-0.67,0.213-1.461,0.319-2.373,0.319
		c-0.446,0-0.906-0.027-1.382-0.086c-0.477-0.059-0.889-0.137-1.238-0.233l0.524-4.018c0.233,0.077,0.49,0.14,0.772,0.189
		c0.28,0.048,0.537,0.072,0.771,0.072c0.737,0,1.271-0.171,1.601-0.509c0.33-0.34,0.612-0.821,0.846-1.441l0.465-1.193
		l-6.055-14.265h5.298l3.231,9.315h0.088l2.883-9.315h5.064L-132.21,990.897z"/>
</g>
<polygon fill="#FDB913" points="-102.515,988.714 -107.436,988.714 -111.511,974.769 -111.598,974.769 -115.674,988.714 
	-120.623,988.714 -126.475,968.103 -121.118,968.103 -117.857,981.814 -117.771,981.814 -114.102,968.103 -108.92,968.103 
	-105.222,981.814 -105.135,981.814 -101.816,968.103 -96.634,968.103 "/>
<g>
	<defs>
		<rect id="SVGID_3_" x="-564.461" y="177.249" width="595.276" height="841.89"/>
	</defs>
	<clipPath id="SVGID_4_">
		<use xlink:href="#SVGID_3_"  overflow="visible"/>
	</clipPath>
	<path clip-path="url(#SVGID_4_)" fill="#FDB913" d="M-82.779,981.406c0,1.185-0.214,2.257-0.642,3.218
		c-0.427,0.96-1.009,1.775-1.747,2.444c-0.736,0.67-1.591,1.189-2.562,1.559c-0.97,0.368-2.008,0.553-3.115,0.553
		c-1.087,0-2.12-0.185-3.1-0.553c-0.98-0.369-1.834-0.889-2.563-1.559c-0.728-0.669-1.306-1.484-1.731-2.444
		c-0.428-0.961-0.641-2.033-0.641-3.218c0-1.184,0.213-2.251,0.641-3.202c0.426-0.95,1.004-1.757,1.731-2.416
		c0.729-0.659,1.582-1.164,2.563-1.515c0.979-0.349,2.013-0.523,3.1-0.523c1.107,0,2.146,0.175,3.115,0.523
		c0.971,0.351,1.825,0.855,2.562,1.515c0.738,0.659,1.32,1.466,1.747,2.416C-82.993,979.155-82.779,980.223-82.779,981.406
		 M-87.38,981.406c0-0.466-0.078-0.922-0.232-1.368c-0.156-0.446-0.378-0.84-0.669-1.179c-0.292-0.34-0.651-0.617-1.078-0.83
		s-0.922-0.319-1.485-0.319c-0.563,0-1.058,0.106-1.483,0.319c-0.429,0.213-0.782,0.49-1.063,0.83
		c-0.281,0.339-0.495,0.732-0.641,1.179s-0.219,0.902-0.219,1.368c0,0.467,0.073,0.923,0.219,1.368
		c0.146,0.447,0.363,0.851,0.655,1.209c0.291,0.359,0.65,0.646,1.077,0.858c0.427,0.214,0.921,0.321,1.485,0.321
		c0.562,0,1.057-0.107,1.484-0.321c0.427-0.213,0.786-0.499,1.076-0.858c0.292-0.358,0.511-0.762,0.656-1.209
		C-87.452,982.329-87.38,981.873-87.38,981.406"/>
	<path clip-path="url(#SVGID_4_)" fill="#FDB913" d="M-72.374,978.146c-0.214-0.059-0.422-0.098-0.626-0.117S-73.403,978-73.598,978
		c-0.64,0-1.179,0.117-1.615,0.349c-0.437,0.232-0.786,0.514-1.049,0.843c-0.262,0.329-0.45,0.687-0.567,1.073
		c-0.116,0.388-0.174,0.727-0.174,1.017v7.433h-4.775v-14.48h4.6v2.096h0.06c0.368-0.742,0.892-1.348,1.572-1.817
		c0.679-0.469,1.465-0.704,2.357-0.704c0.193,0,0.383,0.011,0.567,0.029c0.185,0.021,0.335,0.049,0.452,0.088L-72.374,978.146z"/>
</g>
<rect x="-71.172" y="966.705" fill="#FDB913" width="4.862" height="22.009"/>
<g>
	<defs>
		<rect id="SVGID_5_" x="-564.461" y="177.249" width="595.276" height="841.89"/>
	</defs>
	<clipPath id="SVGID_6_">
		<use xlink:href="#SVGID_5_"  overflow="visible"/>
	</clipPath>
	<path clip-path="url(#SVGID_6_)" fill="#FDB913" d="M-53.607,988.714v-1.893h-0.06c-0.465,0.738-1.13,1.307-1.994,1.703
		c-0.863,0.397-1.78,0.598-2.751,0.598c-1.087,0-2.057-0.215-2.91-0.641c-0.855-0.427-1.577-0.995-2.17-1.704
		c-0.592-0.708-1.044-1.527-1.354-2.46c-0.311-0.931-0.466-1.901-0.466-2.911c0-1.009,0.161-1.975,0.48-2.896
		c0.32-0.921,0.776-1.732,1.368-2.431s1.311-1.252,2.154-1.659c0.845-0.408,1.791-0.612,2.839-0.612
		c1.067,0,1.969,0.204,2.708,0.612c0.737,0.407,1.309,0.854,1.717,1.339h0.059v-9.054h4.774v22.009H-53.607z M-53.783,981.436
		c0-0.466-0.083-0.922-0.246-1.368c-0.166-0.446-0.398-0.845-0.699-1.193c-0.301-0.35-0.665-0.63-1.092-0.845
		c-0.428-0.214-0.912-0.319-1.456-0.319c-0.563,0-1.059,0.105-1.484,0.319c-0.427,0.215-0.786,0.49-1.077,0.829
		c-0.291,0.34-0.51,0.734-0.656,1.181c-0.145,0.445-0.218,0.901-0.218,1.367c0,0.467,0.073,0.928,0.218,1.384
		c0.146,0.456,0.365,0.858,0.656,1.208c0.291,0.349,0.65,0.631,1.077,0.844c0.426,0.214,0.921,0.32,1.484,0.32
		c0.544,0,1.028-0.106,1.456-0.32c0.427-0.213,0.791-0.495,1.092-0.844c0.301-0.35,0.533-0.747,0.699-1.194
		C-53.866,982.357-53.783,981.901-53.783,981.436"/>
	<path clip-path="url(#SVGID_6_)" fill="#FDB913" d="M-47.977,968.053c0-0.186,0.035-0.361,0.106-0.525
		c0.072-0.164,0.169-0.308,0.291-0.428c0.123-0.121,0.267-0.217,0.431-0.288s0.34-0.106,0.526-0.106
		c0.186,0,0.361,0.035,0.524,0.106c0.166,0.071,0.309,0.167,0.432,0.288c0.123,0.12,0.22,0.264,0.291,0.428s0.106,0.34,0.106,0.525
		c0,0.187-0.035,0.36-0.106,0.522c-0.071,0.163-0.168,0.304-0.291,0.425s-0.266,0.216-0.432,0.285
		c-0.163,0.069-0.339,0.104-0.524,0.104c-0.187,0-0.362-0.034-0.526-0.104s-0.308-0.164-0.431-0.285
		c-0.122-0.121-0.219-0.262-0.291-0.425C-47.941,968.413-47.977,968.239-47.977,968.053 M-47.762,968.053
		c0,0.154,0.028,0.301,0.089,0.439c0.059,0.139,0.14,0.261,0.243,0.366c0.103,0.104,0.224,0.187,0.361,0.245
		c0.14,0.06,0.287,0.09,0.446,0.09c0.158,0,0.307-0.03,0.445-0.09c0.139-0.059,0.259-0.142,0.361-0.245
		c0.104-0.105,0.185-0.228,0.244-0.366s0.089-0.285,0.089-0.439c0-0.158-0.029-0.307-0.089-0.445s-0.141-0.26-0.244-0.362
		c-0.103-0.104-0.223-0.185-0.361-0.243c-0.139-0.06-0.287-0.089-0.445-0.089c-0.159,0-0.307,0.029-0.446,0.089
		c-0.138,0.059-0.259,0.14-0.361,0.243c-0.104,0.103-0.185,0.224-0.243,0.362C-47.733,967.746-47.762,967.895-47.762,968.053
		 M-46.296,968.795l-0.326-0.588h-0.214v0.588h-0.362v-1.52h0.653c0.07,0,0.14,0.008,0.208,0.023
		c0.066,0.016,0.128,0.041,0.184,0.077c0.056,0.035,0.101,0.084,0.134,0.145c0.033,0.063,0.051,0.139,0.051,0.229
		c0,0.103-0.029,0.188-0.086,0.255c-0.059,0.068-0.131,0.117-0.218,0.149l0.404,0.641H-46.296z M-46.557,967.946
		c0.055,0,0.105-0.019,0.15-0.055c0.046-0.034,0.069-0.083,0.069-0.142c0-0.063-0.026-0.109-0.077-0.137
		c-0.052-0.027-0.1-0.041-0.143-0.041h-0.279v0.374H-46.557z"/>
	<path clip-path="url(#SVGID_6_)" fill="none" stroke="#FFFFFF" stroke-width="2" d="M-489.511,296.871h-23.344
		c0,0-25.037,0-25.037,25.038v631.43c0,0,0,25.037,25.037,25.037h232.44"/>
</g>
<rect x="-285.551" y="972.391" fill="#FDB913" width="11.339" height="11.339"/>
<rect x="-282.968" y="977.296" fill="#423393" width="6.172" height="1.529"/>
<rect x="-280.647" y="974.974" fill="#423393" width="1.53" height="6.172"/>
<path fill="none" stroke="#FFFFFF" stroke-width="2" d="M-41.875,324.895"/>
<path fill="none" stroke="#FFFFFF" stroke-width="2" d="M-41.906,200.687"/>
<path fill="none" stroke="#FFFFFF" stroke-width="2" d="M-123.559,262.739"/>
<path fill="none" stroke="#FFFFFF" stroke-width="2" d="M-41.906,200.687"/>
<g>
	<defs>
		<rect id="SVGID_7_" x="-564.461" y="177.249" width="595.276" height="841.89"/>
	</defs>
	<clipPath id="SVGID_8_">
		<use xlink:href="#SVGID_7_"  overflow="visible"/>
	</clipPath>
	<path clip-path="url(#SVGID_8_)" fill="none" stroke="#FFFFFF" stroke-width="2" d="M-25.196,978.067h4.724
		c0,0,25.513,0,25.513-25.512V318.763c0,0,0-22.678-25.513-22.678h-62.836"/>
</g>
<rect x="-505.436" y="389.848" fill="#FFFFFF" width="478.019" height="536.22"/>
<polyline fill="none" stroke="#FFFFFF" stroke-width="2.072" points="-124.063,296.31 -124.063,296.055 -76.505,296.055 "/>
<path fill="#FFFFFF" d="M-125.784,299.513c-2.293,0-4.152-1.844-4.152-4.119c0-2.276,1.859-4.12,4.152-4.12s4.153,1.844,4.153,4.12
	C-121.631,297.669-123.491,299.513-125.784,299.513"/>
<path fill="#FFFFFF" d="M-405.036,300.378c-2.294,0-4.153-1.844-4.153-4.119c0-2.276,1.859-4.12,4.153-4.12
	c2.294,0,4.153,1.844,4.153,4.12C-400.883,298.534-402.742,300.378-405.036,300.378"/>
<path fill="#FFFFFF" d="M90.955,56.713c-2.294,0-4.152-1.844-4.152-4.119c0-2.276,1.858-4.12,4.152-4.12s4.153,1.844,4.153,4.12
	C95.108,54.869,93.249,56.713,90.955,56.713"/>
<path fill="#FFFFFF" d="M224.172,16.272c-2.293,0-4.152-1.844-4.152-4.119c0-2.276,1.859-4.12,4.152-4.12s4.153,1.844,4.153,4.12
	C228.325,14.429,226.465,16.272,224.172,16.272"/>
<path fill="#FFFFFF" d="M194.782,16.272c-2.293,0-4.153-1.844-4.153-4.119c0-2.276,1.86-4.12,4.153-4.12s4.153,1.844,4.153,4.12
	C198.936,14.429,197.075,16.272,194.782,16.272"/>
<path fill="#FFFFFF" d="M64.525,59.796c-2.294,0-4.152-1.844-4.152-4.119c0-2.276,1.858-4.12,4.152-4.12
	c2.295,0,4.153,1.844,4.153,4.12C68.679,57.952,66.82,59.796,64.525,59.796"/>
<path fill="none" stroke="#FFFFFF" stroke-width="2" stroke-miterlimit="10" d="M69.74,91.32c-17.969,0-32.588,14.499-32.588,32.318
	c0,17.821,14.619,32.318,32.588,32.318c17.968,0,32.585-14.497,32.585-32.318C102.325,105.819,87.708,91.32,69.74,91.32z"/>
<path fill="none" stroke="#FFFFFF" stroke-width="2" stroke-miterlimit="10" d="M231.373,91.32
	c-17.966,0-32.583,14.499-32.583,32.318c0,17.821,14.617,32.318,32.583,32.318c17.967,0,32.585-14.497,32.585-32.318
	C263.958,105.819,249.34,91.32,231.373,91.32z"/>
<path fill="none" stroke="#FFFFFF" stroke-width="2" stroke-linejoin="round" stroke-miterlimit="10" d="M21.205,39.947
	L64.018,55.45c0,0,13.206-3.807,15.674-5.565c7.43-5.292,36.258-44.939,60.197-47.074c24.965-2.227,103.824-3.487,126.838,2.892
	c13.53,3.75,16.103,44.097,21.023,88.965 M198.132,123.639h-95.526 M36.684,123.639H11.535C5.711,123.639,1,118.965,1,113.186
	c0-5.141,3.73-9.408,8.656-10.286 M8.854,102.734c0,0-3.667-26.464,3.148-32.631c1.265-1.143,4.082-2.342,7.893-3.576"/>
<path fill="none" stroke="#FFFFFF" stroke-width="2" stroke-linejoin="round" stroke-miterlimit="10" d="M186.685,38.479
	l9.057-28.046V1.573 M178.947,1.279v9.842c-24.721,0-28.266,0.888-38.146,1.769c-11.844,1.059-29.896,18.853-40.621,30.296
	l-5.008,5.57c-1.572,1.709-2.912,3.147-4.101,4.383h4.13h14.968h85.572V40.682 M208.857,1.181v51.958h62.6
	c-1.024-8.031-2.141-15.35-3.464-21.515c-2.653-12.358-5.295-15.662-5.912-16.292c-5.138-1.35-23.131-2.408-39.13-3.125
	 M8.939,76.451c-1.053,4.538-1.162,10.364-0.969,15.381 M263.658,123.639l7.073-0.116h15.889c5.939,0,10.748-4.764,10.748-10.659
	v-7.596c0-5.896-4.809-10.66-10.748-10.66"/>
<rect x="-564.461" y="177.249" fill="none" width="595.276" height="841.89"/>
<rect x="149.985" y="120.876" fill="#423393" width="5.229" height="5.717"/>
<rect x="154.608" y="117.376" fill="#FFFFFF" width="2.089" height="12.596"/>
<rect x="148.667" y="112.481" fill="#FFFFFF" width="2.088" height="22.387"/>
<polygon fill="#423393" points="288.326,73.854 288.871,79.014 283.141,79.611 282.596,74.451 "/>
<polygon fill="#FFFFFF" points="291.559,72.038 278.932,73.355 279.149,75.415 291.777,74.099 "/>
<polygon fill="#FFFFFF" points="297.088,77.39 274.646,79.729 274.864,81.79 297.306,79.45 "/>
<rect x="-564.461" y="177.249" fill="none" width="595.276" height="841.89"/>
<polyline fill="none" stroke="#FFFFFF" stroke-width="2" points="-490.93,296.875 -484.735,296.875 -482.279,299.714 
	-478.731,291.379 -474.271,303.322 -470.05,285.774 -463.864,314.601 -458.021,279.02 -453.347,306.541 -448.334,288.719 
	-444.385,302.026 -439.527,292.329 -435.825,300.673 -432.808,296.837 -408.725,296.837 "/>
<rect x="-186.319" y="260.021" fill="#423393" width="26.079" height="3.827"/>
<polygon fill="#FFFFFF" points="253.007,52.585 251.932,52.12 247.727,48.763 245.384,51.837 242.627,48.219 239.871,51.837 
	237.113,48.22 234.356,51.837 231.601,48.219 228.135,52.769 226.874,52.12 222.846,52.184 222.846,54.133 225.301,54.07 
	229.553,56.256 231.601,53.57 234.356,57.188 237.113,53.569 239.871,57.188 242.627,53.57 245.384,57.188 248.554,53.026 
	250.002,54.145 255.388,54.145 "/>
<text transform="matrix(1 0 0 1 -484.1079 460.8076)" font-family="'Gotham-Black'" font-size="52.351">O</text>
<text transform="matrix(1 0 0 1 -442.3315 460.8076)" font-family="'Gotham-Black'" font-size="52.351">Z CHARGE</text>
<text transform="matrix(1 0 0 1 -482.5371 513.1587)" font-family="'Gotham-Black'" font-size="52.351">12V 6A</text>
<text transform="matrix(1 0 0 1 -482.5371 565.5098)" font-family="'Gotham-Black'" font-size="52.351">Batt</text>
<text transform="matrix(1 0 0 1 -369.6162 565.5098)" font-family="'Gotham-Black'" font-size="52.351">ery Charger</text>
<text transform="matrix(1 0 0 1 -483.061 617.8613)" font-family="'Gotham-Black'" font-size="52.351">&amp; Maintainer</text>
<text transform="matrix(1 0 0 1 -482.5376 655.9023)" font-family="'Gotham-Book'" font-size="20">•1</text>
<text transform="matrix(1 0 0 1 -459.8174 655.9023)" font-family="'Gotham-Book'" font-size="20">00% au</text>
<text transform="matrix(1 0 0 1 -384.6377 655.9023)" font-family="'Gotham-Book'" font-size="20">to</text>
<text transform="matrix(1 0 0 1 -363.9175 655.9023)" font-family="'Gotham-Book'" font-size="20">matic smart 9 stage batt</text>
<text transform="matrix(1 0 0 1 -119.7773 655.9023)" font-family="'Gotham-Book'" font-size="20">ery</text>
<text transform="matrix(1 0 0 1 -464.5376 681.1025)" font-family="'Gotham-Book'" font-size="20">char</text>
<text transform="matrix(1 0 0 1 -421.5176 681.1025)" font-family="'Gotham-Book'" font-size="20">ger &amp; maintainer with </text>
<text transform="matrix(1 0 0 1 -202.1377 681.1025)" font-family="'Gotham-Book'" font-size="20">re</text>
<text transform="matrix(1 0 0 1 -182.6377 681.1025)" font-family="'Gotham-Book'" font-size="20">c</text>
<text transform="matrix(1 0 0 1 -171.4971 681.1025)" font-family="'Gotham-Book'" font-size="20">onditioning</text>
<text transform="matrix(1 0 0 1 -482.5376 712.3027)" font-family="'Gotham-Book'" font-size="20">•E</text>
<text transform="matrix(1 0 0 1 -453.7573 712.3027)" font-family="'Gotham-Book'" font-size="20">c</text>
<text transform="matrix(1 0 0 1 -442.6372 712.3027)" font-family="'Gotham-Book'" font-size="20">o mode - Ultr</text>
<text transform="matrix(1 0 0 1 -310.3774 712.3027)" font-family="'Gotham-Book'" font-size="20">a l</text>
<text transform="matrix(1 0 0 1 -287.5376 712.3027)" font-family="'Gotham-Book'" font-size="20">ow</text>
<text transform="matrix(1 0 0 1 -257.8975 712.3027)" font-family="'Gotham-Book'" font-size="20"> p</text>
<text transform="matrix(1 0 0 1 -238.6172 712.3027)" font-family="'Gotham-Book'" font-size="20">ow</text>
<text transform="matrix(1 0 0 1 -209.457 712.3027)" font-family="'Gotham-Book'" font-size="20">er c</text>
<text transform="matrix(1 0 0 1 -172.3975 712.3027)" font-family="'Gotham-Book'" font-size="20">onsumption</text>
<text transform="matrix(1 0 0 1 -482.5376 743.5029)" font-family="'Gotham-Book'" font-size="20">•5</text>
<text transform="matrix(1 0 0 1 -454.7373 743.5029)" font-family="'Gotham-Book'" font-size="20"> y</text>
<text transform="matrix(1 0 0 1 -437.4976 743.5029)" font-family="'Gotham-Book'" font-size="20">ear </text>
<text transform="matrix(1 0 0 1 -399.9775 743.5029)" font-family="'Gotham-Book'" font-size="20">wa</text>
<text transform="matrix(1 0 0 1 -371.5576 743.5029)" font-family="'Gotham-Book'" font-size="20">rr</text>
<text transform="matrix(1 0 0 1 -355.8574 743.5029)" font-family="'Gotham-Book'" font-size="20">anty</text>
<text transform="matrix(1 0 0 1 -482.5376 856.8906)" font-family="'Gotham-Bold'" font-size="82.691">$</text>
<text transform="matrix(1 0 0 1 -434.4609 892.5527)" font-family="'Gotham-Bold'" font-size="142.83">14</text>
<text transform="matrix(1 0 0 1 -283.6323 892.5527)" font-family="'Gotham-Bold'" font-size="142.83">5</text>
<text transform="matrix(1 0 0 1 -196.627 844.2607)" font-family="'Gotham-Bold'" font-size="67.656">95</text>
<text transform="matrix(1 0 0 1 -91.8682 898.3379)" fill="#636466" font-family="'Gotham-Book'" font-size="9">OC1206U</text>
</svg>
