<?xml version="1.0" encoding="utf-8"?>
<!-- Generator: Adobe Illustrator 22.0.0, SVG Export Plug-In . SVG Version: 6.00 Build 0)  -->
<svg version="1.1" id="Layer_1" xmlns="http://www.w3.org/2000/svg" xmlns:xlink="http://www.w3.org/1999/xlink" x="0px" y="0px"
	 viewBox="0 0 703.2 119.4" style="enable-background:new 0 0 703.2 119.4;" xml:space="preserve">
<style type="text/css">
	.st0{fill:#FFB71B;}
	.st1{fill:#FFFFFF;}
	.st2{fill:#FBBA09;}
</style>
<g>
	<path class="st0" d="M78.1,39.5l22.6,0l-58.6,71.5c4.4,1.1,9,1.7,13.7,1.7c31,0,56.1-25.1,56.2-56.1v-0.1c0-15.1-6-28.8-15.7-38.9
		L78.1,39.5z"/>
	<path class="st1" d="M40.9,110.6l21.6-52.1h0h-19L73.1,3c-5.5-1.8-11.3-2.8-17.4-2.8c-31,0-56.2,25.1-56.2,56.1v0
		C-0.4,82.3,17.1,104.1,40.9,110.6"/>
	<path class="st1" d="M168.1,69.4c0-2.8-1-4.7-3.1-5.8c-2.1-1.1-4.9-1.6-8.4-1.6h-9v15.4h9.1c1.3,0,2.6-0.1,3.9-0.3
		c1.4-0.2,2.6-0.6,3.7-1.2c1.1-0.6,2-1.4,2.7-2.4C167.8,72.4,168.1,71.1,168.1,69.4 M166,42.7c0-2.3-0.9-3.9-2.6-5
		c-1.7-1-4.3-1.6-7.7-1.6h-8V50h8.7c3,0,5.4-0.6,7.1-1.9C165.1,47,166,45.1,166,42.7 M184.4,71c0,3.7-0.7,6.8-2.2,9.3
		c-1.5,2.5-3.4,4.5-5.8,6c-2.4,1.5-5.2,2.6-8.2,3.3c-3.1,0.7-6.2,1-9.5,1h-26.8V23.2h26.8c2.6,0,5.3,0.3,8,0.8
		c2.7,0.5,5.2,1.5,7.4,2.8c2.2,1.3,4,3.1,5.4,5.3c1.4,2.2,2.1,5,2.1,8.5c0,3.7-1,6.8-3,9.3c-2,2.4-4.7,4.2-8,5.3v0.2
		c1.9,0.3,3.7,0.9,5.4,1.8c1.7,0.9,3.1,1.9,4.4,3.3c1.2,1.3,2.2,2.9,2.9,4.7C184,66.8,184.4,68.8,184.4,71"/>
	<path class="st1" d="M218.1,69.9h-2c-1.7,0-3.4,0.1-5.2,0.2c-1.7,0.2-3.3,0.5-4.7,0.9c-1.4,0.4-2.5,1.1-3.4,1.9
		c-0.9,0.9-1.3,2-1.3,3.4c0,0.9,0.2,1.6,0.6,2.3c0.4,0.6,0.9,1.1,1.6,1.5c0.6,0.4,1.4,0.7,2.2,0.8c0.8,0.2,1.6,0.2,2.4,0.2
		c3.2,0,5.6-0.9,7.3-2.6c1.7-1.7,2.5-4.1,2.5-7.1V69.9z M189.5,49.7c2.8-2.7,6-4.7,9.7-6c3.7-1.3,7.5-2,11.4-2c4,0,7.4,0.5,10.1,1.5
		c2.8,1,5,2.5,6.7,4.6c1.7,2.1,3,4.7,3.8,7.8c0.8,3.1,1.2,6.9,1.2,11.2v23.9h-14.3v-5h-0.3c-1.2,2-3,3.5-5.5,4.6
		c-2.4,1.1-5.1,1.6-7.9,1.6c-1.9,0-3.9-0.3-5.9-0.8c-2-0.5-3.9-1.3-5.6-2.5c-1.7-1.1-3.1-2.7-4.1-4.6c-1.1-1.9-1.6-4.2-1.6-7
		c0-3.4,0.9-6.2,2.8-8.3c1.9-2.1,4.3-3.7,7.2-4.9c2.9-1.1,6.2-1.9,9.8-2.3c3.6-0.4,7.1-0.6,10.6-0.6v-0.8c0-2.3-0.8-4.1-2.5-5.2
		c-1.6-1.1-3.7-1.7-6.1-1.7c-2.2,0-4.4,0.5-6.4,1.4c-2.1,1-3.8,2.1-5.3,3.4L189.5,49.7z"/>
	<path class="st1" d="M256.7,54.8v18.1c0,2.2,0.4,3.9,1.3,5c0.9,1.1,2.4,1.7,4.6,1.7c0.8,0,1.6-0.1,2.4-0.2c0.9-0.1,1.6-0.3,2.1-0.6
		l0.2,11.4c-1.1,0.4-2.4,0.7-4.1,1c-1.6,0.3-3.3,0.4-4.9,0.4c-3.2,0-5.8-0.4-8-1.2c-2.2-0.8-3.9-1.9-5.2-3.4
		c-1.3-1.5-2.2-3.3-2.8-5.3c-0.6-2.1-0.9-4.4-0.9-6.9v-20h-7.6V43.2h7.5V30.7h15.3v12.5h11.1v11.6H256.7z"/>
	<path class="st1" d="M286.2,54.8v18.1c0,2.2,0.4,3.9,1.3,5c0.9,1.1,2.4,1.7,4.6,1.7c0.8,0,1.6-0.1,2.4-0.2c0.9-0.1,1.6-0.3,2.1-0.6
		l0.2,11.4c-1.1,0.4-2.4,0.7-4.1,1c-1.6,0.3-3.3,0.4-4.9,0.4c-3.2,0-5.8-0.4-8-1.2c-2.2-0.8-3.9-1.9-5.2-3.4
		c-1.3-1.5-2.2-3.3-2.8-5.3c-0.6-2.1-0.9-4.4-0.9-6.9v-20h-7.6V43.2h7.5V30.7h15.3v12.5h11.1v11.6H286.2z"/>
	<path class="st1" d="M333.2,61.5c0-2.5-0.8-4.6-2.3-6.4c-1.6-1.8-3.9-2.7-7-2.7c-1.5,0-2.9,0.2-4.2,0.7c-1.3,0.5-2.4,1.1-3.3,2
		c-1,0.8-1.7,1.8-2.3,2.9c-0.6,1.1-0.9,2.3-1,3.5H333.2z M347.6,67.5v1.9c0,0.6,0,1.2-0.1,1.8h-34.3c0.1,1.3,0.5,2.5,1.2,3.6
		c0.7,1.1,1.5,2,2.6,2.8c1,0.8,2.2,1.4,3.5,1.9c1.3,0.4,2.6,0.7,4,0.7c2.5,0,4.6-0.5,6.3-1.4c1.7-0.9,3.1-2.1,4.2-3.6l10.8,6.8
		c-2.2,3.2-5.2,5.7-8.8,7.5c-3.6,1.7-7.9,2.6-12.7,2.6c-3.6,0-6.9-0.6-10.1-1.7c-3.2-1.1-5.9-2.7-8.3-4.8c-2.4-2.1-4.2-4.7-5.6-7.8
		c-1.4-3.1-2-6.7-2-10.6c0-3.9,0.7-7.4,2-10.5c1.3-3.1,3.1-5.8,5.4-8c2.3-2.2,5-3.9,8.1-5.1c3.1-1.2,6.5-1.8,10.1-1.8
		c3.5,0,6.7,0.6,9.6,1.8c2.9,1.2,5.4,2.9,7.5,5.1c2.1,2.2,3.7,4.9,4.9,8.1C347,59.8,347.6,63.4,347.6,67.5"/>
	<path class="st1" d="M381.5,56c-0.7-0.2-1.4-0.3-2-0.4c-0.7-0.1-1.3-0.1-1.9-0.1c-2.1,0-3.9,0.4-5.3,1.1c-1.4,0.8-2.6,1.7-3.4,2.7
		c-0.9,1.1-1.5,2.2-1.9,3.5c-0.4,1.3-0.6,2.4-0.6,3.3v24.3h-15.6V43.3h15v6.8h0.2c1.2-2.4,2.9-4.4,5.1-5.9c2.2-1.5,4.8-2.3,7.7-2.3
		c0.6,0,1.3,0,1.9,0.1c0.6,0.1,1.1,0.2,1.5,0.3L381.5,56z"/>
	<path class="st1" d="M417.1,97.7c-1,2.5-2,4.7-3.2,6.6c-1.2,1.9-2.6,3.6-4.2,4.9c-1.6,1.4-3.5,2.4-5.7,3.1c-2.2,0.7-4.8,1-7.7,1
		c-1.5,0-3-0.1-4.5-0.3c-1.6-0.2-2.9-0.4-4-0.8l1.7-13.1c0.8,0.3,1.6,0.5,2.5,0.6c0.9,0.2,1.8,0.2,2.5,0.2c2.4,0,4.2-0.6,5.2-1.7
		c1.1-1.1,2-2.7,2.8-4.7l1.5-3.9l-19.8-46.6h17.3L412,73.6h0.3l9.4-30.4h16.5L417.1,97.7z"/>
	<polygon class="st2" points="514.1,90.6 498,90.6 484.7,45 484.4,45 471.1,90.6 454.9,90.6 435.8,23.2 453.3,23.2 464,68 464.2,68 
		476.2,23.2 493.1,23.2 505.2,68 505.5,68 516.3,23.2 533.3,23.2 	"/>
	<path class="st2" d="M563.5,66.7c0-1.5-0.3-3-0.8-4.5c-0.5-1.5-1.2-2.7-2.2-3.8c-1-1.1-2.1-2-3.5-2.7c-1.4-0.7-3-1-4.8-1
		c-1.8,0-3.5,0.3-4.8,1c-1.4,0.7-2.6,1.6-3.5,2.7c-0.9,1.1-1.6,2.4-2.1,3.8c-0.5,1.5-0.7,2.9-0.7,4.5c0,1.5,0.2,3,0.7,4.5
		c0.5,1.5,1.2,2.8,2.1,3.9c1,1.2,2.1,2.1,3.5,2.8c1.4,0.7,3,1,4.8,1c1.8,0,3.5-0.3,4.8-1c1.4-0.7,2.6-1.6,3.5-2.8
		c1-1.2,1.7-2.5,2.1-3.9C563.3,69.7,563.5,68.2,563.5,66.7 M578.5,66.7c0,3.9-0.7,7.4-2.1,10.5c-1.4,3.1-3.3,5.8-5.7,8
		c-2.4,2.2-5.2,3.9-8.4,5.1c-3.2,1.2-6.6,1.8-10.2,1.8c-3.6,0-6.9-0.6-10.1-1.8c-3.2-1.2-6-2.9-8.4-5.1c-2.4-2.2-4.3-4.8-5.7-8
		c-1.4-3.1-2.1-6.6-2.1-10.5c0-3.9,0.7-7.4,2.1-10.5c1.4-3.1,3.3-5.7,5.7-7.9c2.4-2.2,5.2-3.8,8.4-4.9c3.2-1.1,6.6-1.7,10.1-1.7
		c3.6,0,7,0.6,10.2,1.7c3.2,1.1,6,2.8,8.4,4.9c2.4,2.2,4.3,4.8,5.7,7.9C577.8,59.3,578.5,62.8,578.5,66.7"/>
	<path class="st2" d="M612.5,56c-0.7-0.2-1.4-0.3-2-0.4c-0.7-0.1-1.3-0.1-1.9-0.1c-2.1,0-3.9,0.4-5.3,1.1c-1.4,0.8-2.6,1.7-3.4,2.7
		c-0.9,1.1-1.5,2.2-1.9,3.5c-0.4,1.3-0.6,2.4-0.6,3.3v24.3h-15.6V43.3h15v6.8h0.2c1.2-2.4,2.9-4.4,5.1-5.9c2.2-1.5,4.8-2.3,7.7-2.3
		c0.6,0,1.3,0,1.9,0.1c0.6,0.1,1.1,0.2,1.5,0.3L612.5,56z"/>
	<rect x="616.4" y="18.7" class="st2" width="15.9" height="71.9"/>
	<path class="st2" d="M673.2,66.8c0-1.5-0.3-3-0.8-4.5c-0.5-1.5-1.3-2.8-2.3-3.9c-1-1.1-2.2-2.1-3.6-2.8c-1.4-0.7-3-1-4.8-1
		c-1.8,0-3.5,0.3-4.8,1c-1.4,0.7-2.6,1.6-3.5,2.7c-1,1.1-1.7,2.4-2.1,3.9c-0.5,1.5-0.7,2.9-0.7,4.5c0,1.5,0.2,3,0.7,4.5
		c0.5,1.5,1.2,2.8,2.1,3.9c1,1.1,2.1,2.1,3.5,2.8c1.4,0.7,3,1,4.8,1c1.8,0,3.4-0.3,4.8-1c1.4-0.7,2.6-1.6,3.6-2.8
		c1-1.1,1.7-2.4,2.3-3.9C673,69.8,673.2,68.3,673.2,66.8 M673.8,90.6v-6.2h-0.2c-1.5,2.4-3.7,4.3-6.5,5.6c-2.8,1.3-5.8,1.9-9,1.9
		c-3.6,0-6.7-0.7-9.5-2.1c-2.8-1.4-5.2-3.2-7.1-5.6c-1.9-2.3-3.4-5-4.4-8c-1-3-1.5-6.2-1.5-9.5c0-3.3,0.5-6.4,1.6-9.5
		c1-3,2.5-5.7,4.5-7.9c1.9-2.3,4.3-4.1,7-5.4c2.8-1.3,5.8-2,9.3-2c3.5,0,6.4,0.7,8.8,2c2.4,1.3,4.3,2.8,5.6,4.4h0.2V18.7h15.6v71.9
		H673.8z"/>
	<path class="st2" d="M696.8,22.7c0.2,0,0.3-0.1,0.5-0.2c0.1-0.1,0.2-0.3,0.2-0.5c0-0.2-0.1-0.4-0.3-0.4c-0.2-0.1-0.3-0.1-0.5-0.1
		h-0.9v1.2H696.8z M697.7,25.5l-1.1-1.9h-0.7v1.9h-1.2v-5h2.1c0.2,0,0.5,0,0.7,0.1c0.2,0.1,0.4,0.1,0.6,0.3c0.2,0.1,0.3,0.3,0.4,0.5
		c0.1,0.2,0.2,0.4,0.2,0.7c0,0.3-0.1,0.6-0.3,0.8c-0.2,0.2-0.4,0.4-0.7,0.5l1.3,2.1H697.7z M692.9,23.1c0,0.5,0.1,1,0.3,1.4
		c0.2,0.5,0.5,0.8,0.8,1.2c0.3,0.3,0.7,0.6,1.2,0.8c0.5,0.2,0.9,0.3,1.5,0.3s1-0.1,1.5-0.3c0.5-0.2,0.8-0.5,1.2-0.8
		c0.3-0.3,0.6-0.7,0.8-1.2c0.2-0.5,0.3-0.9,0.3-1.4c0-0.5-0.1-1-0.3-1.5c-0.2-0.5-0.5-0.8-0.8-1.2c-0.3-0.3-0.7-0.6-1.2-0.8
		c-0.5-0.2-0.9-0.3-1.5-0.3s-1,0.1-1.5,0.3c-0.5,0.2-0.8,0.5-1.2,0.8c-0.3,0.3-0.6,0.7-0.8,1.2C693,22.1,692.9,22.6,692.9,23.1
		 M692.2,23.1c0-0.6,0.1-1.2,0.3-1.7c0.2-0.5,0.5-1,1-1.4c0.4-0.4,0.9-0.7,1.4-0.9c0.5-0.2,1.1-0.3,1.7-0.3c0.6,0,1.2,0.1,1.7,0.3
		c0.5,0.2,1,0.5,1.4,0.9c0.4,0.4,0.7,0.9,1,1.4c0.2,0.5,0.3,1.1,0.3,1.7c0,0.6-0.1,1.2-0.3,1.7c-0.2,0.5-0.5,1-1,1.4
		c-0.4,0.4-0.9,0.7-1.4,0.9c-0.5,0.2-1.1,0.3-1.7,0.3c-0.6,0-1.2-0.1-1.7-0.3c-0.5-0.2-1-0.5-1.4-0.9c-0.4-0.4-0.7-0.9-1-1.4
		C692.3,24.3,692.2,23.7,692.2,23.1"/>
</g>
</svg>
