<?xml version="1.0" encoding="utf-8"?>
<!-- Generator: Adobe Illustrator 16.0.0, SVG Export Plug-In . SVG Version: 6.00 Build 0)  -->
<!DOCTYPE svg PUBLIC "-//W3C//DTD SVG 1.1//EN" "http://www.w3.org/Graphics/SVG/1.1/DTD/svg11.dtd">
<svg version="1.1" id="Layer_1" xmlns="http://www.w3.org/2000/svg" xmlns:xlink="http://www.w3.org/1999/xlink" x="0px" y="0px"
	 width="333.546px" height="95.016px" viewBox="0 0 333.546 95.016" enable-background="new 0 0 333.546 95.016"
	 xml:space="preserve">
<rect x="-210.587" y="140.174" fill="#423393" width="595.275" height="841.89"/>
<rect x="68.629" y="935.748" fill="#FDB913" width="11.128" height="11.128"/>
<rect x="71.166" y="940.562" fill="#423393" width="6.057" height="1.503"/>
<rect x="73.442" y="938.284" fill="#423393" width="1.503" height="6.058"/>
<rect x="318.593" y="935.748" fill="#FFFFFF" width="11.128" height="11.128"/>
<rect x="321.128" y="940.562" fill="#423393" width="6.058" height="1.503"/>
<g>
	<defs>
		<rect id="SVGID_1_" x="-210.587" y="140.174" width="595.276" height="841.89"/>
	</defs>
	<clipPath id="SVGID_2_">
		<use xlink:href="#SVGID_1_"  overflow="visible"/>
	</clipPath>
	<path clip-path="url(#SVGID_2_)" fill="#FDB913" d="M117.88,935.997l6.92,0.002l-17.955,21.878c1.34,0.335,2.742,0.515,4.186,0.515
		c9.493,0,17.19-7.691,17.197-17.184v-0.025c-0.004-4.631-1.841-8.83-4.821-11.921L117.88,935.997z"/>
	<path clip-path="url(#SVGID_2_)" fill="#FFFFFF" d="M106.489,957.782l6.61-15.96h-5.827l9.077-16.981
		c-1.676-0.544-3.462-0.842-5.318-0.842c-9.495,0-17.193,7.695-17.197,17.189v0.014C93.836,949.124,99.198,955.79,106.489,957.782"
		/>
	<path clip-path="url(#SVGID_2_)" fill="#FFFFFF" d="M150.422,945.643c0,1.125-0.223,2.072-0.669,2.838
		c-0.446,0.768-1.039,1.383-1.775,1.85c-0.738,0.466-1.577,0.8-2.519,1.004s-1.907,0.306-2.896,0.306h-8.21v-20.612h8.21
		c0.796,0,1.61,0.083,2.444,0.248s1.593,0.446,2.271,0.845c0.679,0.397,1.232,0.937,1.659,1.615c0.427,0.68,0.641,1.542,0.641,2.592
		c0,1.145-0.311,2.091-0.931,2.838c-0.622,0.747-1.438,1.286-2.446,1.615v0.059c0.582,0.097,1.13,0.277,1.645,0.539
		s0.962,0.596,1.34,1.004c0.379,0.408,0.679,0.883,0.902,1.427C150.312,944.352,150.422,944.964,150.422,945.643 M144.776,936.996
		c0-0.699-0.269-1.208-0.801-1.528c-0.534-0.32-1.325-0.48-2.373-0.48h-2.445v4.25h2.678c0.933,0,1.655-0.188,2.169-0.567
		C144.518,938.292,144.776,937.733,144.776,936.996 M145.445,945.177c0-0.854-0.32-1.446-0.961-1.776s-1.494-0.495-2.563-0.495
		h-2.765v4.717h2.795c0.388,0,0.79-0.033,1.208-0.102c0.417-0.067,0.796-0.189,1.135-0.365c0.34-0.174,0.616-0.421,0.83-0.741
		C145.337,946.094,145.445,945.682,145.445,945.177"/>
	<path clip-path="url(#SVGID_2_)" fill="#FFFFFF" d="M151.982,939.121c0.854-0.814,1.85-1.427,2.984-1.834
		c1.135-0.408,2.295-0.611,3.479-0.611c1.224,0,2.257,0.15,3.101,0.45c0.845,0.303,1.529,0.769,2.053,1.398
		c0.524,0.631,0.907,1.427,1.15,2.387c0.242,0.961,0.363,2.102,0.363,3.421v7.308h-4.366v-1.543h-0.087
		c-0.369,0.603-0.929,1.067-1.676,1.396c-0.747,0.331-1.557,0.496-2.43,0.496c-0.583,0-1.184-0.078-1.805-0.232
		c-0.622-0.155-1.189-0.408-1.704-0.758c-0.515-0.349-0.937-0.814-1.267-1.396c-0.329-0.583-0.494-1.301-0.494-2.155
		c0-1.048,0.285-1.892,0.858-2.533c0.572-0.64,1.311-1.135,2.213-1.484s1.906-0.582,3.014-0.698c1.105-0.116,2.183-0.175,3.23-0.175
		v-0.233c0-0.718-0.252-1.246-0.757-1.586s-1.126-0.51-1.863-0.51c-0.68,0-1.334,0.146-1.965,0.437s-1.17,0.641-1.616,1.048
		L151.982,939.121z M160.746,945.322h-0.612c-0.524,0-1.052,0.024-1.586,0.073c-0.534,0.048-1.01,0.141-1.427,0.275
		c-0.417,0.137-0.763,0.336-1.033,0.598c-0.272,0.262-0.408,0.606-0.408,1.034c0,0.271,0.063,0.505,0.19,0.697
		c0.125,0.195,0.285,0.351,0.479,0.467c0.193,0.116,0.417,0.198,0.67,0.246c0.252,0.05,0.494,0.073,0.728,0.073
		c0.97,0,1.713-0.266,2.228-0.8c0.513-0.534,0.771-1.257,0.771-2.169V945.322z"/>
	<path clip-path="url(#SVGID_2_)" fill="#FFFFFF" d="M172.574,940.693v5.553c0,0.683,0.132,1.193,0.394,1.534
		s0.731,0.511,1.412,0.511c0.232,0,0.479-0.019,0.742-0.058c0.262-0.039,0.48-0.097,0.654-0.175l0.059,3.494
		c-0.33,0.116-0.747,0.219-1.251,0.305c-0.506,0.088-1.011,0.131-1.515,0.131c-0.971,0-1.786-0.121-2.445-0.364
		c-0.66-0.242-1.189-0.593-1.587-1.051c-0.397-0.457-0.685-1.002-0.858-1.634c-0.175-0.632-0.262-1.338-0.262-2.117v-6.129h-2.329
		v-3.552h2.3v-3.813h4.687v3.813h3.406v3.552H172.574z"/>
	<path clip-path="url(#SVGID_2_)" fill="#FFFFFF" d="M181.594,940.693v5.553c0,0.683,0.132,1.193,0.394,1.534
		s0.731,0.511,1.412,0.511c0.232,0,0.479-0.019,0.742-0.058c0.262-0.039,0.48-0.097,0.654-0.175l0.059,3.494
		c-0.33,0.116-0.747,0.219-1.251,0.305c-0.505,0.088-1.011,0.131-1.515,0.131c-0.971,0-1.786-0.121-2.445-0.364
		c-0.66-0.242-1.189-0.593-1.586-1.051c-0.398-0.457-0.686-1.002-0.859-1.634c-0.175-0.632-0.262-1.338-0.262-2.117v-6.129h-2.329
		v-3.552h2.3v-3.813h4.687v3.813H185v3.552H181.594z"/>
	<path clip-path="url(#SVGID_2_)" fill="#FFFFFF" d="M200.39,944.565v0.582c0,0.194-0.01,0.379-0.028,0.553h-10.511
		c0.039,0.408,0.16,0.777,0.364,1.107s0.466,0.616,0.786,0.858s0.68,0.433,1.077,0.567c0.397,0.136,0.81,0.204,1.237,0.204
		c0.758,0,1.397-0.142,1.922-0.422c0.523-0.281,0.95-0.646,1.28-1.092l3.319,2.096c-0.68,0.99-1.577,1.752-2.693,2.286
		c-1.115,0.532-2.412,0.8-3.887,0.8c-1.087,0-2.115-0.17-3.086-0.509c-0.97-0.34-1.819-0.835-2.547-1.485
		c-0.729-0.65-1.3-1.451-1.717-2.402c-0.418-0.949-0.626-2.038-0.626-3.26c0-1.184,0.203-2.257,0.61-3.218
		c0.407-0.96,0.961-1.775,1.66-2.445c0.698-0.67,1.523-1.188,2.474-1.557c0.951-0.369,1.98-0.553,3.087-0.553
		c1.066,0,2.047,0.179,2.939,0.538c0.894,0.358,1.66,0.878,2.3,1.558c0.642,0.679,1.141,1.504,1.5,2.474
		C200.21,942.218,200.39,943.323,200.39,944.565 M195.995,942.731c0-0.757-0.238-1.407-0.713-1.951
		c-0.477-0.543-1.189-0.814-2.141-0.814c-0.466,0-0.893,0.072-1.28,0.218c-0.389,0.146-0.729,0.345-1.02,0.597
		c-0.291,0.253-0.524,0.549-0.699,0.888c-0.174,0.341-0.271,0.694-0.291,1.063H195.995z"/>
	<path clip-path="url(#SVGID_2_)" fill="#FFFFFF" d="M210.771,941.072c-0.214-0.059-0.422-0.098-0.626-0.117
		s-0.402-0.029-0.597-0.029c-0.64,0-1.179,0.117-1.616,0.349c-0.436,0.232-0.786,0.514-1.048,0.843s-0.451,0.687-0.567,1.073
		c-0.116,0.388-0.175,0.727-0.175,1.017v7.433h-4.774v-14.48h4.6v2.096h0.059c0.368-0.742,0.893-1.348,1.572-1.817
		c0.68-0.469,1.465-0.704,2.358-0.704c0.192,0,0.383,0.011,0.566,0.029c0.186,0.021,0.335,0.049,0.452,0.088L210.771,941.072z"/>
	<path clip-path="url(#SVGID_2_)" fill="#FFFFFF" d="M221.664,953.823c-0.291,0.757-0.615,1.431-0.975,2.022
		c-0.36,0.593-0.787,1.098-1.281,1.515c-0.495,0.417-1.077,0.732-1.747,0.946c-0.67,0.213-1.461,0.319-2.373,0.319
		c-0.446,0-0.906-0.027-1.382-0.086c-0.477-0.059-0.889-0.137-1.238-0.233l0.524-4.018c0.233,0.077,0.49,0.14,0.772,0.189
		c0.28,0.048,0.537,0.072,0.771,0.072c0.737,0,1.271-0.171,1.601-0.509c0.33-0.34,0.612-0.821,0.846-1.441l0.465-1.193
		l-6.055-14.265h5.298l3.231,9.315h0.088l2.883-9.315h5.064L221.664,953.823z"/>
</g>
<polygon fill="#FDB913" points="251.359,951.64 246.438,951.64 242.363,937.694 242.276,937.694 238.2,951.64 233.25,951.64 
	227.399,931.028 232.755,931.028 236.016,944.74 236.103,944.74 239.772,931.028 244.954,931.028 248.652,944.74 248.739,944.74 
	252.057,931.028 257.24,931.028 "/>
<g>
	<defs>
		<rect id="SVGID_3_" x="-210.587" y="140.174" width="595.276" height="841.89"/>
	</defs>
	<clipPath id="SVGID_4_">
		<use xlink:href="#SVGID_3_"  overflow="visible"/>
	</clipPath>
	<path clip-path="url(#SVGID_4_)" fill="#FDB913" d="M271.094,944.332c0,1.185-0.214,2.257-0.642,3.218
		c-0.427,0.96-1.009,1.775-1.747,2.444c-0.736,0.67-1.591,1.189-2.562,1.559c-0.97,0.368-2.008,0.553-3.115,0.553
		c-1.087,0-2.12-0.185-3.1-0.553c-0.98-0.369-1.834-0.889-2.563-1.559c-0.728-0.669-1.306-1.484-1.731-2.444
		c-0.428-0.961-0.641-2.033-0.641-3.218c0-1.184,0.213-2.251,0.641-3.202c0.426-0.95,1.004-1.757,1.731-2.416
		c0.729-0.659,1.582-1.164,2.563-1.515c0.979-0.349,2.013-0.523,3.1-0.523c1.107,0,2.146,0.175,3.115,0.523
		c0.971,0.351,1.825,0.855,2.562,1.515c0.738,0.659,1.32,1.466,1.747,2.416C270.88,942.081,271.094,943.148,271.094,944.332
		 M266.494,944.332c0-0.466-0.078-0.922-0.232-1.368c-0.156-0.446-0.378-0.84-0.669-1.179c-0.292-0.34-0.651-0.617-1.078-0.83
		s-0.922-0.319-1.485-0.319c-0.563,0-1.058,0.106-1.483,0.319c-0.429,0.213-0.782,0.49-1.063,0.83
		c-0.281,0.339-0.495,0.732-0.641,1.179s-0.219,0.902-0.219,1.368c0,0.467,0.073,0.923,0.219,1.368
		c0.146,0.447,0.363,0.851,0.655,1.209c0.291,0.359,0.65,0.646,1.077,0.858c0.427,0.214,0.921,0.321,1.485,0.321
		c0.562,0,1.057-0.107,1.484-0.321c0.427-0.213,0.786-0.499,1.076-0.858c0.292-0.358,0.511-0.762,0.656-1.209
		C266.421,945.255,266.494,944.799,266.494,944.332"/>
	<path clip-path="url(#SVGID_4_)" fill="#FDB913" d="M281.5,941.072c-0.214-0.059-0.422-0.098-0.626-0.117s-0.403-0.029-0.598-0.029
		c-0.64,0-1.179,0.117-1.615,0.349c-0.437,0.232-0.786,0.514-1.049,0.843c-0.262,0.329-0.45,0.687-0.567,1.073
		c-0.116,0.388-0.174,0.727-0.174,1.017v7.433h-4.775v-14.48h4.6v2.096h0.06c0.368-0.742,0.892-1.348,1.572-1.817
		c0.679-0.469,1.465-0.704,2.357-0.704c0.193,0,0.383,0.011,0.567,0.029c0.185,0.021,0.335,0.049,0.452,0.088L281.5,941.072z"/>
</g>
<rect x="282.702" y="929.631" fill="#FDB913" width="4.862" height="22.009"/>
<g>
	<defs>
		<rect id="SVGID_5_" x="-210.587" y="140.174" width="595.276" height="841.89"/>
	</defs>
	<clipPath id="SVGID_6_">
		<use xlink:href="#SVGID_5_"  overflow="visible"/>
	</clipPath>
	<path clip-path="url(#SVGID_6_)" fill="#FDB913" d="M300.266,951.64v-1.893h-0.06c-0.465,0.738-1.13,1.307-1.994,1.703
		c-0.863,0.397-1.78,0.598-2.751,0.598c-1.087,0-2.057-0.215-2.91-0.641c-0.855-0.427-1.577-0.995-2.17-1.704
		c-0.592-0.708-1.044-1.527-1.354-2.46c-0.311-0.931-0.466-1.901-0.466-2.911c0-1.009,0.161-1.975,0.48-2.896
		c0.32-0.921,0.776-1.732,1.368-2.431s1.311-1.252,2.154-1.659c0.845-0.408,1.791-0.612,2.839-0.612
		c1.067,0,1.969,0.204,2.708,0.612c0.737,0.407,1.309,0.854,1.717,1.339h0.059v-9.054h4.774v22.009H300.266z M300.09,944.361
		c0-0.466-0.083-0.922-0.246-1.368c-0.166-0.446-0.398-0.845-0.699-1.193c-0.301-0.35-0.665-0.63-1.092-0.845
		c-0.428-0.214-0.912-0.319-1.456-0.319c-0.563,0-1.059,0.105-1.484,0.319c-0.427,0.215-0.786,0.49-1.077,0.829
		c-0.291,0.34-0.51,0.734-0.656,1.181c-0.145,0.445-0.218,0.901-0.218,1.367c0,0.467,0.073,0.928,0.218,1.384
		c0.146,0.456,0.365,0.858,0.656,1.208c0.291,0.349,0.65,0.631,1.077,0.844c0.426,0.214,0.921,0.32,1.484,0.32
		c0.544,0,1.028-0.106,1.456-0.32c0.427-0.213,0.791-0.495,1.092-0.844c0.301-0.35,0.533-0.747,0.699-1.194
		C300.007,945.283,300.09,944.827,300.09,944.361"/>
	<path clip-path="url(#SVGID_6_)" fill="#FDB913" d="M305.897,930.979c0-0.186,0.035-0.361,0.106-0.525
		c0.072-0.164,0.169-0.308,0.291-0.428c0.123-0.121,0.267-0.217,0.431-0.288s0.34-0.106,0.526-0.106
		c0.186,0,0.361,0.035,0.524,0.106c0.166,0.071,0.309,0.167,0.432,0.288c0.123,0.12,0.22,0.264,0.291,0.428s0.106,0.34,0.106,0.525
		c0,0.187-0.035,0.36-0.106,0.522c-0.071,0.163-0.168,0.304-0.291,0.425s-0.266,0.216-0.432,0.285
		c-0.163,0.069-0.339,0.104-0.524,0.104c-0.187,0-0.362-0.034-0.526-0.104s-0.308-0.164-0.431-0.285
		c-0.122-0.121-0.219-0.262-0.291-0.425C305.932,931.339,305.897,931.165,305.897,930.979 M306.112,930.979
		c0,0.154,0.028,0.301,0.089,0.439c0.059,0.139,0.14,0.261,0.243,0.366c0.103,0.104,0.224,0.187,0.361,0.245
		c0.14,0.06,0.287,0.09,0.446,0.09c0.158,0,0.307-0.03,0.445-0.09c0.139-0.059,0.259-0.142,0.361-0.245
		c0.104-0.105,0.185-0.228,0.244-0.366s0.089-0.285,0.089-0.439c0-0.158-0.029-0.307-0.089-0.445s-0.141-0.26-0.244-0.362
		c-0.103-0.104-0.223-0.185-0.361-0.243c-0.139-0.06-0.287-0.089-0.445-0.089c-0.159,0-0.307,0.029-0.446,0.089
		c-0.138,0.059-0.259,0.14-0.361,0.243c-0.104,0.103-0.185,0.224-0.243,0.362C306.14,930.672,306.112,930.82,306.112,930.979
		 M307.578,931.721l-0.326-0.588h-0.214v0.588h-0.362v-1.52h0.653c0.07,0,0.14,0.008,0.208,0.023
		c0.066,0.016,0.128,0.041,0.184,0.077c0.056,0.035,0.101,0.084,0.134,0.145c0.033,0.063,0.051,0.139,0.051,0.229
		c0,0.103-0.029,0.188-0.086,0.255c-0.059,0.068-0.131,0.117-0.218,0.149l0.404,0.641H307.578z M307.317,930.872
		c0.055,0,0.105-0.019,0.15-0.055c0.046-0.034,0.069-0.083,0.069-0.142c0-0.063-0.026-0.109-0.077-0.137
		c-0.052-0.027-0.1-0.041-0.143-0.041h-0.279v0.374H307.317z"/>
	<path clip-path="url(#SVGID_6_)" fill="none" stroke="#FFFFFF" stroke-width="2" d="M-51.45,291.97h-107.531
		c0,0-25.038,0-25.038,25.038v599.256c0,0,0,25.038,25.038,25.038H73.458"/>
</g>
<rect x="68.323" y="935.316" fill="#FDB913" width="11.339" height="11.339"/>
<rect x="70.906" y="940.222" fill="#423393" width="6.172" height="1.529"/>
<rect x="73.227" y="937.899" fill="#423393" width="1.53" height="6.172"/>
<path fill="none" stroke="#FFFFFF" stroke-width="2" d="M311.999,346.356"/>
<g>
	<defs>
		<rect id="SVGID_7_" x="-210.587" y="140.174" width="595.276" height="841.89"/>
	</defs>
	<clipPath id="SVGID_8_">
		<use xlink:href="#SVGID_7_"  overflow="visible"/>
	</clipPath>
	<path clip-path="url(#SVGID_8_)" fill="none" stroke="#FFFFFF" stroke-width="2" d="M328.677,940.993h4.724
		c0,0,25.513,0,25.513-25.512v-600.77c0,0,0-22.677-25.513-22.677H216.778"/>
</g>
<rect x="-151.563" y="352.773" fill="#FFFFFF" width="478.019" height="536.22"/>
<line fill="none" stroke="#FFFFFF" stroke-width="2.317" stroke-linecap="round" stroke-linejoin="round" stroke-miterlimit="10" x1="226.931" y1="37.117" x2="177.111" y2="1.159"/>
<path fill="none" stroke="#FFFFFF" stroke-width="2.317" stroke-linejoin="round" stroke-miterlimit="10" d="M106.996,44.878
	l-4.866-28.093c0,0,14.289-6.108,26.46,27.039 M10.46,30.322h21.758c5.148,0,9.313,4.171,9.313,9.312v3.547v5.895V81.74
	l-6.923,0.023c-9.223,0-8.477-14.991-8.477-14.991v-8.385H10.46c-5.138,0-9.302-4.169-9.302-9.311v-9.442
	C1.159,34.493,5.323,30.322,10.46,30.322z"/>
<path fill="none" stroke="#FFFFFF" stroke-width="2.317" stroke-miterlimit="10" d="M326.443,43.218
	c0,0-32.191,20.566-284.912,26.624"/>
<path fill="none" stroke="#FFFFFF" stroke-width="2.317" stroke-linejoin="round" stroke-miterlimit="10" d="M172.486,40.824
	L41.531,49.329v40.884 M260.758,88.862c0,0,13.924-3.731,12.74-3.698c31.836-10.669,54.596-27.816,56.825-54.843l-103.393,6.796"/>
<rect x="-210.587" y="140.174" fill="none" width="595.276" height="841.89"/>
<polyline fill="none" stroke="#FFFFFF" stroke-width="1.865" points="-50.9,292.115 -50.9,291.949 -72.22,291.949 "/>
<path fill="#FFFFFF" d="M-50.9,295.839c2.048,0,3.707-1.659,3.707-3.707s-1.659-3.708-3.707-3.708c-2.048,0-3.707,1.66-3.707,3.708
	S-52.948,295.839-50.9,295.839"/>
<path fill="#FFFFFF" d="M215.397,295.839c2.048,0,3.707-1.659,3.707-3.707s-1.659-3.708-3.707-3.708s-3.707,1.66-3.707,3.708
	S213.349,295.839,215.397,295.839"/>
<path fill="#FFFFFF" d="M172.486,44.532c2.048,0,3.707-1.659,3.707-3.707s-1.659-3.708-3.707-3.708s-3.707,1.66-3.707,3.708
	S170.438,44.532,172.486,44.532"/>
<path fill="#FFFFFF" d="M226.931,39.576c2.049,0,3.707-1.659,3.707-3.707s-1.658-3.708-3.707-3.708c-2.048,0-3.707,1.66-3.707,3.708
	S224.883,39.576,226.931,39.576"/>
<path fill="#FFFFFF" d="M329.839,33.409c2.048,0,3.707-1.659,3.707-3.707s-1.659-3.708-3.707-3.708s-3.707,1.66-3.707,3.708
	S327.792,33.409,329.839,33.409"/>
<rect x="-210.587" y="140.174" fill="none" width="595.276" height="841.89"/>
<polygon fill="#FFFFFF" points="222.174,62.19 221.981,60.335 229.077,59.59 232.728,55.979 235.256,58.668 237.507,54.956 
	240.483,58.12 242.735,54.405 245.709,57.57 247.961,53.856 251.703,57.834 252.833,57.092 260.564,56.28 260.757,58.135 
	254.518,58.791 250.706,61.293 248.497,58.942 246.245,62.657 243.27,59.491 241.018,63.207 238.042,60.042 235.792,63.755 
	232.37,60.115 231.235,61.238 "/>
<polygon fill="#FFFFFF" points="118.229,68.58 118.147,66.716 125.276,66.405 129.141,63.024 131.5,65.863 133.975,62.293 
	136.75,65.634 139.227,62.064 142.003,65.404 144.477,61.834 147.968,66.036 149.141,65.362 156.907,65.023 156.989,66.888 
	150.72,67.162 146.761,69.425 144.7,66.944 142.226,70.515 139.45,67.173 136.974,70.743 134.2,67.403 131.724,70.974 
	128.532,67.13 127.331,68.182 "/>
<polyline fill="none" stroke="#FFFFFF" stroke-width="1.865" points="215.468,292.115 215.468,291.949 236.788,291.949 "/>
<rect x="19.322" y="25.734" fill="#423393" width="4.522" height="6.427"/>
<rect x="23.06" y="24.394" fill="#FFFFFF" width="1.865" height="11.337"/>
<rect x="17.755" y="24.394" fill="#FFFFFF" width="1.865" height="11.337"/>
<rect x="-53.911" y="244.317" fill="#FFFFFF" width="7.616" height="1.865"/>
<rect x="-66.394" y="244.317" fill="#FFFFFF" width="7.178" height="1.865"/>
<path fill="#FFFFFF" d="M13.354,303.676H-1.457h-0.756v0.373c0,2.467-2.03,4.474-4.525,4.474c-2.495,0-4.525-2.007-4.525-4.474
	v-0.373h-0.018c-0.196-2.704-2.478-4.848-5.263-4.848c-2.783,0-5.066,2.144-5.261,4.848h-14.83v0.747h14.811h0.756v-0.374
	c0-2.466,2.03-4.473,4.524-4.473c2.496,0,4.526,2.007,4.526,4.473v0.374h0.019c0.195,2.705,2.477,4.847,5.261,4.847
	c2.785,0,5.067-2.142,5.262-4.847h14.83V303.676z"/>
<path fill="none" stroke="#FFFFFF" stroke-width="1.865" stroke-miterlimit="10" d="M91.257,88.489H76.446H75.69v0.373
	c0,2.467-2.03,4.474-4.525,4.474c-2.495,0-4.525-2.007-4.525-4.474v-0.373h-0.018c-0.196-2.704-2.478-4.848-5.263-4.848
	c-2.783,0-5.066,2.144-5.261,4.848h-14.83v0.747h14.811h0.756v-0.374c0-2.466,2.03-4.473,4.524-4.473
	c2.496,0,4.526,2.007,4.526,4.473v0.374h0.019c0.195,2.705,2.477,4.847,5.261,4.847c2.785,0,5.067-2.142,5.262-4.847h14.83V88.489z"
	/>
<path fill="#FFFFFF" d="M85.307,303.676H70.496H69.74v0.373c0,2.467-2.03,4.474-4.525,4.474s-4.525-2.007-4.525-4.474v-0.373h-0.018
	c-0.196-2.704-2.478-4.848-5.263-4.848c-2.783,0-5.066,2.144-5.261,4.848h-14.83v0.747h14.811h0.756v-0.374
	c0-2.466,2.03-4.473,4.524-4.473c2.496,0,4.526,2.007,4.526,4.473v0.374h0.019c0.195,2.705,2.477,4.847,5.261,4.847
	c2.785,0,5.067-2.142,5.262-4.847h14.83V303.676z"/>
<path fill="none" stroke="#FFFFFF" stroke-width="1.865" stroke-miterlimit="10" d="M163.21,88.489h-14.812h-0.756v0.373
	c0,2.467-2.029,4.474-4.525,4.474c-2.494,0-4.524-2.007-4.524-4.474v-0.373h-0.019c-0.195-2.704-2.478-4.848-5.263-4.848
	c-2.782,0-5.065,2.144-5.261,4.848h-14.83v0.747h14.811h0.756v-0.374c0-2.466,2.031-4.473,4.524-4.473
	c2.496,0,4.526,2.007,4.526,4.473v0.374h0.019c0.195,2.705,2.478,4.847,5.261,4.847c2.785,0,5.067-2.142,5.263-4.847h14.83V88.489z"
	/>
<path fill="#FFFFFF" d="M159.022,303.676H144.21h-0.756v0.373c0,2.467-2.03,4.474-4.524,4.474c-2.495,0-4.525-2.007-4.525-4.474
	v-0.373h-0.019c-0.195-2.704-2.478-4.848-5.263-4.848c-2.783,0-5.065,2.144-5.261,4.848h-14.83v0.747h14.811h0.757v-0.374
	c0-2.466,2.029-4.473,4.523-4.473c2.496,0,4.526,2.007,4.526,4.473v0.374h0.019c0.195,2.705,2.478,4.847,5.262,4.847
	s5.066-2.142,5.262-4.847h14.83V303.676z"/>
<path fill="none" stroke="#FFFFFF" stroke-width="1.865" stroke-miterlimit="10" d="M236.925,88.489h-14.812h-0.756v0.373
	c0,2.467-2.03,4.474-4.524,4.474c-2.495,0-4.525-2.007-4.525-4.474v-0.373h-0.019c-0.195-2.704-2.478-4.848-5.263-4.848
	c-2.783,0-5.065,2.144-5.261,4.848h-14.83v0.747h14.811h0.757v-0.374c0-2.466,2.029-4.473,4.523-4.473
	c2.496,0,4.526,2.007,4.526,4.473v0.374h0.019c0.195,2.705,2.478,4.847,5.262,4.847s5.066-2.142,5.262-4.847h14.83V88.489z"/>
<rect x="-210.587" y="140.174" fill="none" width="595.276" height="841.89"/>
<rect x="79.629" y="87.563" fill="#FFFFFF" width="36.649" height="2.607"/>
<rect x="155.394" y="87.563" fill="#FFFFFF" width="36.648" height="2.607"/>
<polygon fill="#FFFFFF" points="226.931,87.563 226.931,90.17 260.758,90.17 263.581,87.563 "/>
<text transform="matrix(1 0 0 1 -130.2344 423.7334)" font-family="'Gotham-Black'" font-size="52.351">O</text>
<text transform="matrix(1 0 0 1 -88.458 423.7334)" font-family="'Gotham-Black'" font-size="52.351">Z CHARGE</text>
<text transform="matrix(1 0 0 1 -128.6636 476.0845)" font-family="'Gotham-Black'" font-size="52.351">12V 6A</text>
<text transform="matrix(1 0 0 1 -128.6636 528.4355)" font-family="'Gotham-Black'" font-size="52.351">Batt</text>
<text transform="matrix(1 0 0 1 -15.7427 528.4355)" font-family="'Gotham-Black'" font-size="52.351">ery Charger</text>
<text transform="matrix(1 0 0 1 -129.1875 580.7871)" font-family="'Gotham-Black'" font-size="52.351">&amp; Maintainer</text>
<text transform="matrix(1 0 0 1 -128.6641 618.8281)" font-family="'Gotham-Book'" font-size="20">•1</text>
<text transform="matrix(1 0 0 1 -105.9438 618.8281)" font-family="'Gotham-Book'" font-size="20">00% au</text>
<text transform="matrix(1 0 0 1 -30.7642 618.8281)" font-family="'Gotham-Book'" font-size="20">to</text>
<text transform="matrix(1 0 0 1 -10.0439 618.8281)" font-family="'Gotham-Book'" font-size="20">matic smart 9 stage batt</text>
<text transform="matrix(1 0 0 1 234.0962 618.8281)" font-family="'Gotham-Book'" font-size="20">ery</text>
<text transform="matrix(1 0 0 1 -110.6641 644.0283)" font-family="'Gotham-Book'" font-size="20">char</text>
<text transform="matrix(1 0 0 1 -67.644 644.0283)" font-family="'Gotham-Book'" font-size="20">ger &amp; maintainer with </text>
<text transform="matrix(1 0 0 1 151.7358 644.0283)" font-family="'Gotham-Book'" font-size="20">re</text>
<text transform="matrix(1 0 0 1 171.2358 644.0283)" font-family="'Gotham-Book'" font-size="20">c</text>
<text transform="matrix(1 0 0 1 182.3765 644.0283)" font-family="'Gotham-Book'" font-size="20">onditioning</text>
<text transform="matrix(1 0 0 1 -128.6641 675.2285)" font-family="'Gotham-Book'" font-size="20">•E</text>
<text transform="matrix(1 0 0 1 -99.8838 675.2285)" font-family="'Gotham-Book'" font-size="20">c</text>
<text transform="matrix(1 0 0 1 -88.7637 675.2285)" font-family="'Gotham-Book'" font-size="20">o mode - Ultr</text>
<text transform="matrix(1 0 0 1 43.4961 675.2285)" font-family="'Gotham-Book'" font-size="20">a l</text>
<text transform="matrix(1 0 0 1 66.3359 675.2285)" font-family="'Gotham-Book'" font-size="20">ow</text>
<text transform="matrix(1 0 0 1 95.9761 675.2285)" font-family="'Gotham-Book'" font-size="20"> p</text>
<text transform="matrix(1 0 0 1 115.2563 675.2285)" font-family="'Gotham-Book'" font-size="20">ow</text>
<text transform="matrix(1 0 0 1 144.4165 675.2285)" font-family="'Gotham-Book'" font-size="20">er c</text>
<text transform="matrix(1 0 0 1 181.4761 675.2285)" font-family="'Gotham-Book'" font-size="20">onsumption</text>
<text transform="matrix(1 0 0 1 -128.6641 706.4287)" font-family="'Gotham-Book'" font-size="20">•5</text>
<text transform="matrix(1 0 0 1 -100.8638 706.4287)" font-family="'Gotham-Book'" font-size="20"> y</text>
<text transform="matrix(1 0 0 1 -83.624 706.4287)" font-family="'Gotham-Book'" font-size="20">ear </text>
<text transform="matrix(1 0 0 1 -46.104 706.4287)" font-family="'Gotham-Book'" font-size="20">wa</text>
<text transform="matrix(1 0 0 1 -17.6841 706.4287)" font-family="'Gotham-Book'" font-size="20">rr</text>
<text transform="matrix(1 0 0 1 -1.9839 706.4287)" font-family="'Gotham-Book'" font-size="20">anty</text>
<text transform="matrix(1 0 0 1 -128.6641 819.8164)" font-family="'Gotham-Bold'" font-size="82.691">$</text>
<text transform="matrix(1 0 0 1 -80.5874 855.4785)" font-family="'Gotham-Bold'" font-size="142.83">14</text>
<text transform="matrix(1 0 0 1 70.2412 855.4785)" font-family="'Gotham-Bold'" font-size="142.83">5</text>
<text transform="matrix(1 0 0 1 157.2466 807.1865)" font-family="'Gotham-Bold'" font-size="67.656">95</text>
<text transform="matrix(1 0 0 1 262.0054 861.2637)" fill="#636466" font-family="'Gotham-Book'" font-size="9">OC1206U</text>
</svg>
