<?xml version="1.0" encoding="utf-8"?>
<!-- Generator: Adobe Illustrator 16.0.0, SVG Export Plug-In . SVG Version: 6.00 Build 0)  -->
<!DOCTYPE svg PUBLIC "-//W3C//DTD SVG 1.1//EN" "http://www.w3.org/Graphics/SVG/1.1/DTD/svg11.dtd">
<svg version="1.1" id="Layer_1" xmlns="http://www.w3.org/2000/svg" xmlns:xlink="http://www.w3.org/1999/xlink" x="0px" y="0px"
	 width="301.662px" height="151.752px" viewBox="0 0 301.662 151.752" enable-background="new 0 0 301.662 151.752"
	 xml:space="preserve">
<rect x="-183.586" y="203.356" fill="#423393" width="595.275" height="841.89"/>
<path fill="none" stroke="#FFFFFF" stroke-width="2" d="M334.362,241.534"/>
<rect x="95.234" y="998.93" fill="#FDB913" width="11.128" height="11.128"/>
<rect x="97.77" y="1003.743" fill="#423393" width="6.057" height="1.503"/>
<rect x="100.047" y="1001.466" fill="#423393" width="1.503" height="6.058"/>
<rect x="345.198" y="998.93" fill="#FFFFFF" width="11.128" height="11.128"/>
<rect x="347.733" y="1003.743" fill="#423393" width="6.057" height="1.503"/>
<g>
	<defs>
		<rect id="SVGID_1_" x="-183.586" y="203.356" width="595.276" height="841.89"/>
	</defs>
	<clipPath id="SVGID_2_">
		<use xlink:href="#SVGID_1_"  overflow="visible"/>
	</clipPath>
	<path clip-path="url(#SVGID_2_)" fill="#FDB913" d="M144.484,999.179l6.92,0.002l-17.955,21.878
		c1.341,0.335,2.742,0.515,4.187,0.515c9.493,0,17.189-7.691,17.197-17.184v-0.025c-0.004-4.631-1.842-8.83-4.821-11.921
		L144.484,999.179z"/>
	<path clip-path="url(#SVGID_2_)" fill="#FFFFFF" d="M133.094,1020.964l6.609-15.96h-5.827l9.077-16.981
		c-1.675-0.544-3.461-0.842-5.317-0.842c-9.495,0-17.193,7.695-17.197,17.189v0.014
		C120.441,1012.306,125.803,1018.972,133.094,1020.964"/>
	<path clip-path="url(#SVGID_2_)" fill="#FFFFFF" d="M177.027,1008.824c0,1.125-0.223,2.072-0.669,2.838
		c-0.447,0.768-1.039,1.383-1.776,1.85c-0.737,0.466-1.576,0.8-2.518,1.004c-0.942,0.204-1.907,0.306-2.897,0.306h-8.21v-20.612
		h8.21c0.796,0,1.611,0.083,2.445,0.248s1.592,0.446,2.271,0.845c0.679,0.397,1.232,0.937,1.658,1.615
		c0.428,0.68,0.642,1.542,0.642,2.592c0,1.145-0.312,2.091-0.932,2.838c-0.621,0.747-1.437,1.286-2.445,1.615v0.059
		c0.582,0.097,1.13,0.277,1.645,0.539s0.961,0.596,1.339,1.004c0.379,0.408,0.68,0.883,0.903,1.427
		C176.916,1007.533,177.027,1008.146,177.027,1008.824 M171.381,1000.178c0-0.699-0.269-1.208-0.802-1.528
		c-0.534-0.32-1.325-0.48-2.373-0.48h-2.444v4.25h2.678c0.932,0,1.655-0.188,2.169-0.567
		C171.122,1001.474,171.381,1000.915,171.381,1000.178 M172.05,1008.358c0-0.854-0.32-1.446-0.962-1.776
		c-0.64-0.33-1.493-0.495-2.562-0.495h-2.765v4.717h2.795c0.388,0,0.79-0.033,1.208-0.102c0.417-0.067,0.796-0.189,1.135-0.365
		c0.34-0.174,0.616-0.421,0.83-0.741C171.942,1009.275,172.05,1008.863,172.05,1008.358"/>
	<path clip-path="url(#SVGID_2_)" fill="#FFFFFF" d="M178.587,1002.303c0.854-0.814,1.849-1.427,2.984-1.834
		c1.135-0.408,2.295-0.611,3.479-0.611c1.224,0,2.256,0.15,3.101,0.45c0.845,0.303,1.528,0.769,2.053,1.398
		c0.523,0.631,0.907,1.427,1.149,2.387c0.242,0.961,0.364,2.102,0.364,3.421v7.308h-4.367v-1.543h-0.087
		c-0.369,0.603-0.928,1.067-1.675,1.396c-0.747,0.331-1.557,0.496-2.43,0.496c-0.583,0-1.186-0.078-1.806-0.232
		c-0.622-0.155-1.188-0.408-1.703-0.758c-0.515-0.349-0.937-0.814-1.267-1.396c-0.33-0.583-0.495-1.301-0.495-2.155
		c0-1.048,0.286-1.892,0.859-2.533c0.572-0.64,1.31-1.135,2.213-1.484c0.902-0.35,1.906-0.582,3.013-0.698s2.184-0.175,3.231-0.175
		v-0.233c0-0.718-0.252-1.246-0.757-1.586s-1.126-0.51-1.863-0.51c-0.68,0-1.334,0.146-1.965,0.437s-1.17,0.641-1.616,1.048
		L178.587,1002.303z M187.35,1008.504h-0.611c-0.524,0-1.053,0.024-1.586,0.073c-0.534,0.048-1.011,0.141-1.428,0.275
		c-0.417,0.137-0.762,0.336-1.032,0.598c-0.272,0.262-0.408,0.606-0.408,1.034c0,0.271,0.063,0.505,0.189,0.697
		c0.125,0.195,0.286,0.351,0.48,0.467c0.192,0.116,0.417,0.198,0.67,0.246c0.251,0.05,0.494,0.073,0.727,0.073
		c0.971,0,1.714-0.266,2.229-0.8c0.513-0.534,0.771-1.257,0.771-2.169V1008.504z"/>
	<path clip-path="url(#SVGID_2_)" fill="#FFFFFF" d="M199.179,1003.875v5.553c0,0.683,0.131,1.193,0.393,1.534
		c0.263,0.341,0.732,0.511,1.412,0.511c0.233,0,0.48-0.019,0.742-0.058s0.481-0.097,0.655-0.175l0.058,3.494
		c-0.33,0.116-0.747,0.219-1.251,0.305c-0.505,0.088-1.01,0.131-1.514,0.131c-0.971,0-1.786-0.121-2.446-0.364
		c-0.66-0.242-1.188-0.593-1.586-1.051c-0.398-0.457-0.685-1.002-0.859-1.634s-0.262-1.338-0.262-2.117v-6.129h-2.329v-3.552h2.3
		v-3.813h4.688v3.813h3.406v3.552H199.179z"/>
	<path clip-path="url(#SVGID_2_)" fill="#FFFFFF" d="M208.199,1003.875v5.553c0,0.683,0.131,1.193,0.393,1.534
		c0.263,0.341,0.733,0.511,1.412,0.511c0.233,0,0.48-0.019,0.742-0.058s0.481-0.097,0.655-0.175l0.058,3.494
		c-0.33,0.116-0.747,0.219-1.251,0.305c-0.505,0.088-1.01,0.131-1.514,0.131c-0.971,0-1.786-0.121-2.446-0.364
		c-0.66-0.242-1.188-0.593-1.586-1.051c-0.397-0.457-0.685-1.002-0.859-1.634s-0.262-1.338-0.262-2.117v-6.129h-2.329v-3.552h2.301
		v-3.813h4.687v3.813h3.406v3.552H208.199z"/>
	<path clip-path="url(#SVGID_2_)" fill="#FFFFFF" d="M226.995,1007.747v0.582c0,0.194-0.01,0.379-0.029,0.553h-10.51
		c0.039,0.408,0.16,0.777,0.364,1.107s0.466,0.616,0.785,0.858c0.32,0.242,0.681,0.433,1.077,0.567
		c0.398,0.136,0.811,0.204,1.238,0.204c0.757,0,1.397-0.142,1.921-0.422c0.524-0.281,0.951-0.646,1.281-1.092l3.319,2.096
		c-0.681,0.99-1.577,1.752-2.693,2.286c-1.116,0.532-2.412,0.8-3.887,0.8c-1.087,0-2.115-0.17-3.085-0.509
		c-0.972-0.34-1.82-0.835-2.549-1.485c-0.728-0.65-1.3-1.451-1.717-2.402c-0.418-0.949-0.626-2.038-0.626-3.26
		c0-1.184,0.203-2.257,0.611-3.218c0.407-0.96,0.961-1.775,1.66-2.445c0.697-0.67,1.522-1.188,2.474-1.557
		c0.951-0.369,1.98-0.553,3.086-0.553c1.067,0,2.047,0.179,2.94,0.538c0.893,0.358,1.66,0.878,2.3,1.558
		c0.641,0.679,1.14,1.504,1.5,2.474C226.814,1005.399,226.995,1006.505,226.995,1007.747 M222.599,1005.913
		c0-0.757-0.237-1.407-0.713-1.951c-0.476-0.543-1.188-0.814-2.14-0.814c-0.466,0-0.894,0.072-1.281,0.218s-0.728,0.345-1.019,0.597
		c-0.291,0.253-0.524,0.549-0.699,0.888c-0.174,0.341-0.272,0.694-0.291,1.063H222.599z"/>
	<path clip-path="url(#SVGID_2_)" fill="#FFFFFF" d="M237.376,1004.254c-0.214-0.059-0.422-0.098-0.626-0.117
		s-0.403-0.029-0.597-0.029c-0.641,0-1.18,0.117-1.616,0.349c-0.437,0.232-0.786,0.514-1.048,0.843
		c-0.263,0.329-0.451,0.687-0.568,1.073c-0.116,0.388-0.174,0.727-0.174,1.017v7.433h-4.775v-14.48h4.601v2.096h0.058
		c0.369-0.742,0.894-1.348,1.573-1.817c0.679-0.469,1.465-0.704,2.358-0.704c0.192,0,0.383,0.011,0.566,0.029
		c0.186,0.021,0.335,0.049,0.452,0.088L237.376,1004.254z"/>
	<path clip-path="url(#SVGID_2_)" fill="#FFFFFF" d="M248.269,1017.005c-0.291,0.757-0.617,1.431-0.975,2.022
		c-0.36,0.593-0.787,1.098-1.281,1.515c-0.495,0.417-1.077,0.732-1.747,0.946c-0.67,0.213-1.461,0.319-2.373,0.319
		c-0.447,0-0.907-0.027-1.382-0.086c-0.478-0.059-0.89-0.137-1.238-0.233l0.524-4.018c0.232,0.077,0.489,0.14,0.771,0.189
		c0.282,0.048,0.539,0.072,0.772,0.072c0.736,0,1.271-0.171,1.601-0.509c0.33-0.34,0.612-0.821,0.845-1.441l0.466-1.193
		l-6.056-14.265h5.298l3.232,9.315h0.087l2.883-9.315h5.065L248.269,1017.005z"/>
</g>
<polygon fill="#FDB913" points="277.963,1014.821 273.043,1014.821 268.967,1000.876 268.88,1000.876 264.804,1014.821 
	259.855,1014.821 254.003,994.21 259.36,994.21 262.621,1007.922 262.708,1007.922 266.376,994.21 271.559,994.21 275.256,1007.922 
	275.343,1007.922 278.662,994.21 283.844,994.21 "/>
<g>
	<defs>
		<rect id="SVGID_3_" x="-183.586" y="203.356" width="595.276" height="841.89"/>
	</defs>
	<clipPath id="SVGID_4_">
		<use xlink:href="#SVGID_3_"  overflow="visible"/>
	</clipPath>
	<path clip-path="url(#SVGID_4_)" fill="#FDB913" d="M297.698,1007.514c0,1.185-0.214,2.257-0.641,3.218
		c-0.427,0.96-1.009,1.775-1.747,2.444c-0.737,0.67-1.591,1.189-2.562,1.559c-0.971,0.368-2.009,0.553-3.115,0.553
		c-1.087,0-2.12-0.185-3.101-0.553c-0.979-0.369-1.834-0.889-2.562-1.559c-0.728-0.669-1.306-1.484-1.732-2.444
		c-0.427-0.961-0.641-2.033-0.641-3.218c0-1.184,0.214-2.251,0.641-3.202c0.427-0.95,1.005-1.757,1.732-2.416
		s1.582-1.164,2.562-1.515c0.98-0.349,2.014-0.523,3.101-0.523c1.106,0,2.145,0.175,3.115,0.523
		c0.971,0.351,1.824,0.855,2.562,1.515c0.738,0.659,1.32,1.466,1.747,2.416C297.484,1005.263,297.698,1006.33,297.698,1007.514
		 M293.099,1007.514c0-0.466-0.078-0.922-0.233-1.368s-0.378-0.84-0.669-1.179c-0.292-0.34-0.65-0.617-1.077-0.83
		c-0.428-0.213-0.923-0.319-1.485-0.319c-0.563,0-1.059,0.106-1.484,0.319c-0.428,0.213-0.782,0.49-1.063,0.83
		c-0.281,0.339-0.495,0.732-0.642,1.179c-0.145,0.446-0.218,0.902-0.218,1.368c0,0.467,0.073,0.923,0.218,1.368
		c0.146,0.447,0.364,0.851,0.656,1.209c0.291,0.359,0.65,0.646,1.077,0.858c0.427,0.214,0.921,0.321,1.485,0.321
		c0.562,0,1.057-0.107,1.483-0.321c0.427-0.213,0.787-0.499,1.077-0.858c0.292-0.358,0.51-0.762,0.656-1.209
		C293.025,1008.437,293.099,1007.98,293.099,1007.514"/>
	<path clip-path="url(#SVGID_4_)" fill="#FDB913" d="M308.104,1004.254c-0.214-0.059-0.422-0.098-0.626-0.117
		s-0.402-0.029-0.597-0.029c-0.64,0-1.179,0.117-1.616,0.349c-0.436,0.232-0.786,0.514-1.048,0.843s-0.451,0.687-0.567,1.073
		c-0.116,0.388-0.175,0.727-0.175,1.017v7.433H298.7v-14.48h4.6v2.096h0.058c0.369-0.742,0.894-1.348,1.573-1.817
		c0.679-0.469,1.465-0.704,2.358-0.704c0.192,0,0.383,0.011,0.566,0.029c0.186,0.021,0.335,0.049,0.452,0.088L308.104,1004.254z"/>
</g>
<rect x="309.306" y="992.813" fill="#FDB913" width="4.862" height="22.009"/>
<g>
	<defs>
		<rect id="SVGID_5_" x="-183.586" y="203.356" width="595.276" height="841.89"/>
	</defs>
	<clipPath id="SVGID_6_">
		<use xlink:href="#SVGID_5_"  overflow="visible"/>
	</clipPath>
	<path clip-path="url(#SVGID_6_)" fill="#FDB913" d="M326.87,1014.821v-1.893h-0.059c-0.465,0.738-1.13,1.307-1.994,1.703
		c-0.864,0.397-1.781,0.598-2.751,0.598c-1.087,0-2.057-0.215-2.911-0.641c-0.854-0.427-1.577-0.995-2.169-1.704
		c-0.592-0.708-1.044-1.527-1.354-2.46c-0.311-0.931-0.467-1.901-0.467-2.911c0-1.009,0.161-1.975,0.481-2.896
		c0.32-0.921,0.776-1.732,1.368-2.431s1.31-1.252,2.154-1.659c0.845-0.408,1.79-0.612,2.839-0.612c1.066,0,1.969,0.204,2.708,0.612
		c0.736,0.407,1.309,0.854,1.717,1.339h0.058v-9.054h4.775v22.009H326.87z M326.695,1007.543c0-0.466-0.083-0.922-0.247-1.368
		c-0.166-0.446-0.397-0.845-0.699-1.193c-0.301-0.35-0.665-0.63-1.092-0.845c-0.427-0.214-0.912-0.319-1.455-0.319
		c-0.563,0-1.058,0.105-1.484,0.319c-0.428,0.215-0.786,0.49-1.077,0.829c-0.291,0.34-0.51,0.734-0.656,1.181
		c-0.145,0.445-0.218,0.901-0.218,1.367c0,0.467,0.073,0.928,0.218,1.384c0.146,0.456,0.365,0.858,0.656,1.208
		c0.291,0.349,0.649,0.631,1.077,0.844c0.427,0.214,0.921,0.32,1.484,0.32c0.543,0,1.028-0.106,1.455-0.32
		c0.427-0.213,0.791-0.495,1.092-0.844c0.302-0.35,0.533-0.747,0.699-1.194C326.612,1008.465,326.695,1008.009,326.695,1007.543"/>
	<path clip-path="url(#SVGID_6_)" fill="#FDB913" d="M332.502,994.16c0-0.186,0.035-0.361,0.107-0.525
		c0.07-0.164,0.168-0.308,0.29-0.428c0.123-0.121,0.267-0.217,0.431-0.288s0.34-0.106,0.526-0.106c0.186,0,0.36,0.035,0.524,0.106
		c0.165,0.071,0.309,0.167,0.432,0.288c0.123,0.12,0.22,0.264,0.291,0.428c0.07,0.164,0.106,0.34,0.106,0.525
		c0,0.187-0.036,0.36-0.106,0.522c-0.071,0.163-0.168,0.304-0.291,0.425s-0.267,0.216-0.432,0.285
		c-0.164,0.069-0.339,0.104-0.524,0.104c-0.187,0-0.362-0.034-0.526-0.104s-0.308-0.164-0.431-0.285
		c-0.122-0.121-0.22-0.262-0.29-0.425C332.537,994.521,332.502,994.347,332.502,994.16 M332.716,994.16
		c0,0.154,0.029,0.301,0.089,0.439s0.141,0.261,0.243,0.366c0.104,0.104,0.225,0.187,0.362,0.245c0.139,0.06,0.287,0.09,0.446,0.09
		c0.157,0,0.307-0.03,0.444-0.09c0.14-0.059,0.26-0.142,0.362-0.245c0.103-0.105,0.185-0.228,0.244-0.366
		c0.059-0.139,0.089-0.285,0.089-0.439c0-0.158-0.03-0.307-0.089-0.445c-0.06-0.139-0.142-0.26-0.244-0.362
		c-0.103-0.104-0.223-0.185-0.362-0.243c-0.138-0.06-0.287-0.089-0.444-0.089c-0.159,0-0.308,0.029-0.446,0.089
		c-0.138,0.059-0.259,0.14-0.362,0.243c-0.103,0.103-0.184,0.224-0.243,0.362S332.716,994.002,332.716,994.16 M334.183,994.902
		l-0.326-0.588h-0.215v0.588h-0.361v-1.52h0.652c0.071,0,0.141,0.008,0.208,0.023s0.129,0.041,0.185,0.077
		c0.055,0.035,0.1,0.084,0.134,0.145c0.033,0.063,0.05,0.139,0.05,0.229c0,0.103-0.028,0.188-0.086,0.255
		c-0.058,0.068-0.13,0.117-0.217,0.149l0.404,0.641H334.183z M333.921,994.054c0.056,0,0.106-0.019,0.152-0.055
		c0.045-0.034,0.067-0.083,0.067-0.142c0-0.063-0.025-0.109-0.076-0.137c-0.053-0.027-0.1-0.041-0.144-0.041h-0.279v0.374H333.921z"
		/>
	<path clip-path="url(#SVGID_6_)" fill="none" stroke="#FFFFFF" stroke-width="2" d="M-1.316,368.333h-131.06
		c0,0-25.038,0-25.038,25.038v586.075c0,0,0,25.038,25.038,25.038h232.439"/>
</g>
<rect x="94.927" y="998.498" fill="#FDB913" width="11.339" height="11.339"/>
<rect x="97.51" y="1003.403" fill="#423393" width="6.172" height="1.529"/>
<rect x="99.831" y="1001.081" fill="#423393" width="1.53" height="6.172"/>
<path fill="none" stroke="#FFFFFF" stroke-width="2" d="M338.603,351.087"/>
<path fill="none" stroke="#FFFFFF" stroke-width="2.526" stroke-miterlimit="10" d="M126.623,91.795h-30.31
	c-3.699,0-6.725-3.012-6.725-6.695v-3.405c0-3.682,3.026-6.695,6.725-6.695h30.31c3.699,0,6.727,3.013,6.727,6.695v3.405
	C133.35,88.783,130.322,91.795,126.623,91.795z M95.221,91.533l8.866,15.483h32.952l-9.622-15.483 M27.374,144.936
	c2.373,0,7.908,2.362,9.227-8.135c1.318-10.497,8.831-79.644,8.699-80.169 M45.397,132.077c0-6.561,0.298-77.414,0.298-77.414
	 M89.289,144.083c0,0-41.485-47.432-43.594-94.93 M107.098,49.152h30.074c0,0,3.69,0.525,4.217,4.724
	c0.527,4.198,7.381,31.752,15.555,46.71c8.172,14.958,20.035,33.59,23.462,37.526c3.427,3.937,6.063,6.823,2.372,6.823
	 M89.487,144.279c-46.672,0-83.115,0.656-84.389,0.656c-2.372,0-2.9-2.362-0.791-4.461c2.109-2.099,18.454-24.667,24.781-39.363
	c6.326-14.695,15.026-31.753,16.607-51.959h35.201"/>
<path fill="none" stroke="#FFFFFF" stroke-width="2.526" d="M84.546,51.394l19.556-4.84 M106.785,48.907
	c0,1.321-1.23,2.392-2.747,2.392c-1.517,0-2.747-1.071-2.747-2.392c0-1.321,1.23-2.392,2.747-2.392
	C105.555,46.516,106.785,47.586,106.785,48.907z M86.696,48.907c0,1.321-1.23,2.392-2.748,2.392c-1.517,0-2.747-1.071-2.747-2.392
	c0-1.321,1.23-2.392,2.747-2.392C85.466,46.516,86.696,47.586,86.696,48.907z"/>
<rect x="-183.586" y="203.356" fill="none" width="595.276" height="841.89"/>
<polyline fill="none" stroke="#FFFFFF" stroke-width="2.526" stroke-miterlimit="10" points="182.869,144.661 144.102,144.557 
	142.42,142.625 139.248,146.304 136.379,142.554 133.129,146.233 129.94,142.479 126.73,146.158 125.287,144.356 89.465,144.356 "/>
<path fill="#FFFFFF" d="M188.001,144.546c0,1.573-1.274,2.848-2.848,2.848s-2.849-1.275-2.849-2.848
	c0-1.573,1.275-2.848,2.849-2.848S188.001,142.973,188.001,144.546"/>
<path fill="#FFFFFF" d="M5.696,144.546c0,1.573-1.275,2.848-2.848,2.848c-1.573,0-2.848-1.275-2.848-2.848
	c0-1.573,1.275-2.848,2.848-2.848C4.421,141.698,5.696,142.973,5.696,144.546"/>
<path fill="#FFFFFF" d="M91.151,144.546c0,1.573-1.275,2.848-2.848,2.848c-1.573,0-2.848-1.275-2.848-2.848
	c0-1.573,1.275-2.848,2.848-2.848C89.876,141.698,91.151,142.973,91.151,144.546"/>
<path fill="#FFFFFF" d="M98.77,91.881c0,1.573-1.275,2.848-2.848,2.848c-1.573,0-2.848-1.275-2.848-2.848
	c0-1.573,1.275-2.848,2.848-2.848C97.495,89.033,98.77,90.308,98.77,91.881"/>
<path fill="#FFFFFF" d="M131.1,91.881c0,1.573-1.274,2.848-2.848,2.848c-1.572,0-2.848-1.275-2.848-2.848
	c0-1.573,1.275-2.848,2.848-2.848C129.825,89.033,131.1,90.308,131.1,91.881"/>
<path fill="#FFFFFF" d="M47.695,133.417c0,1.573-1.275,2.848-2.848,2.848c-1.573,0-2.848-1.275-2.848-2.848
	c0-1.573,1.275-2.848,2.848-2.848C46.42,130.568,47.695,131.844,47.695,133.417"/>
<path fill="none" stroke="#FFFFFF" stroke-width="2" d="M284.709,102.083c-0.378-2.186,1.086-4.266,3.271-4.645
	c2.185-0.378,4.262,1.087,4.641,3.273l1.521-0.891c5.548-3.304,5.742-6.442,6.476-15.463c0.925-11.366-12.941-15.199-12.941-15.199
	s13.471-1.586,12.811-20.618c-0.757-21.808-26.676-21.807-26.676-21.807c2.112-21.675-12.811-24.847-16.641-25.243
	c-3.83-0.397-17.3-2.644-26.676,7.401c-9.376,10.044-8.32,26.3-8.32,26.3s-24.167,1.19-24.167,23.922
	c0,22.733,19.678,22.997,19.678,22.997c-4.095,10.705-1.057,18.239,3.962,23.393c5.018,5.154,12.149,3.701,14.791,2.775
	c2.641-0.925,6.734-2.907,9.111-4.493s3.434,0.264,3.434,2.247v30.265c0,8.459-3.961,8.084-7.791,8.084h-1.723 M276.59,103.492
	c-0.379-2.187,1.085-4.266,3.271-4.645c2.185-0.379,4.263,1.087,4.641,3.273 M276.59,103.492c-0.379-2.187-2.456-3.652-4.641-3.274
	c-2.186,0.379-3.672,1.91-3.294,4.096l-2.377,0.133c-2.371,0.018-3.447-0.409-4.089-0.529c-2.113-0.397-4.887-1.057-4.887,2.247
	v32.38c0,2.247,0.539,5.502,5.812,5.837c2.768,0.177-10.102,0.054,29.568,0.054 M229.999,140.34v8.26 M233.823,137.02v14.733
	 M233.486,144.471l6.568-0.089 M185.722,144.889l44.277-0.418"/>
<rect x="-183.586" y="203.356" fill="none" width="595.276" height="841.89"/>
<path fill="none" stroke="#FFFFFF" stroke-width="2" d="M338.572,226.794"/>
<path fill="none" stroke="#FFFFFF" stroke-width="2" d="M256.92,288.846"/>
<path fill="none" stroke="#FFFFFF" stroke-width="2" d="M338.572,226.794"/>
<g>
	<defs>
		<rect id="SVGID_7_" x="-183.586" y="203.356" width="595.276" height="841.89"/>
	</defs>
	<clipPath id="SVGID_8_">
		<use xlink:href="#SVGID_7_"  overflow="visible"/>
	</clipPath>
	<path clip-path="url(#SVGID_8_)" fill="none" stroke="#FFFFFF" stroke-width="2" d="M355.282,1004.175h4.724
		c0,0,25.512,0,25.512-25.512V390.309c0,0,0-22.677-25.512-22.677h-108.19"/>
</g>
<rect x="-124.958" y="415.955" fill="#FFFFFF" width="478.02" height="536.22"/>
<text transform="matrix(1 0 0 1 -103.2329 486.915)" font-family="'Gotham-Black'" font-size="52.351">O</text>
<text transform="matrix(1 0 0 1 -61.4565 486.915)" font-family="'Gotham-Black'" font-size="52.351">Z CHARGE</text>
<text transform="matrix(1 0 0 1 -101.6621 539.2661)" font-family="'Gotham-Black'" font-size="52.351">12V 6A</text>
<text transform="matrix(1 0 0 1 -101.6621 591.6172)" font-family="'Gotham-Black'" font-size="52.351">Batt</text>
<text transform="matrix(1 0 0 1 11.2588 591.6172)" font-family="'Gotham-Black'" font-size="52.351">ery Charger</text>
<text transform="matrix(1 0 0 1 -102.186 643.9688)" font-family="'Gotham-Black'" font-size="52.351">&amp; Maintainer</text>
<text transform="matrix(1 0 0 1 -101.6626 682.0098)" font-family="'Gotham-Book'" font-size="20">•1</text>
<text transform="matrix(1 0 0 1 -78.9424 682.0098)" font-family="'Gotham-Book'" font-size="20">00% au</text>
<text transform="matrix(1 0 0 1 -3.7627 682.0098)" font-family="'Gotham-Book'" font-size="20">to</text>
<text transform="matrix(1 0 0 1 16.9575 682.0098)" font-family="'Gotham-Book'" font-size="20">matic smart 9 stage batt</text>
<text transform="matrix(1 0 0 1 261.0977 682.0098)" font-family="'Gotham-Book'" font-size="20">ery</text>
<text transform="matrix(1 0 0 1 -83.6626 707.21)" font-family="'Gotham-Book'" font-size="20">char</text>
<text transform="matrix(1 0 0 1 -40.6426 707.21)" font-family="'Gotham-Book'" font-size="20">ger &amp; maintainer with </text>
<text transform="matrix(1 0 0 1 178.7373 707.21)" font-family="'Gotham-Book'" font-size="20">re</text>
<text transform="matrix(1 0 0 1 198.2373 707.21)" font-family="'Gotham-Book'" font-size="20">c</text>
<text transform="matrix(1 0 0 1 209.3779 707.21)" font-family="'Gotham-Book'" font-size="20">onditioning</text>
<text transform="matrix(1 0 0 1 -101.6626 738.4102)" font-family="'Gotham-Book'" font-size="20">•E</text>
<text transform="matrix(1 0 0 1 -72.8823 738.4102)" font-family="'Gotham-Book'" font-size="20">c</text>
<text transform="matrix(1 0 0 1 -61.7622 738.4102)" font-family="'Gotham-Book'" font-size="20">o mode - Ultr</text>
<text transform="matrix(1 0 0 1 70.4976 738.4102)" font-family="'Gotham-Book'" font-size="20">a l</text>
<text transform="matrix(1 0 0 1 93.3374 738.4102)" font-family="'Gotham-Book'" font-size="20">ow</text>
<text transform="matrix(1 0 0 1 122.9775 738.4102)" font-family="'Gotham-Book'" font-size="20"> p</text>
<text transform="matrix(1 0 0 1 142.2578 738.4102)" font-family="'Gotham-Book'" font-size="20">ow</text>
<text transform="matrix(1 0 0 1 171.418 738.4102)" font-family="'Gotham-Book'" font-size="20">er c</text>
<text transform="matrix(1 0 0 1 208.4775 738.4102)" font-family="'Gotham-Book'" font-size="20">onsumption</text>
<text transform="matrix(1 0 0 1 -101.6626 769.6104)" font-family="'Gotham-Book'" font-size="20">•5</text>
<text transform="matrix(1 0 0 1 -73.8623 769.6104)" font-family="'Gotham-Book'" font-size="20"> y</text>
<text transform="matrix(1 0 0 1 -56.6226 769.6104)" font-family="'Gotham-Book'" font-size="20">ear </text>
<text transform="matrix(1 0 0 1 -19.1025 769.6104)" font-family="'Gotham-Book'" font-size="20">wa</text>
<text transform="matrix(1 0 0 1 9.3174 769.6104)" font-family="'Gotham-Book'" font-size="20">rr</text>
<text transform="matrix(1 0 0 1 25.0176 769.6104)" font-family="'Gotham-Book'" font-size="20">anty</text>
<text transform="matrix(1 0 0 1 -101.6626 882.998)" font-family="'Gotham-Bold'" font-size="82.691">$</text>
<text transform="matrix(1 0 0 1 -53.5859 918.6602)" font-family="'Gotham-Bold'" font-size="142.83">14</text>
<text transform="matrix(1 0 0 1 97.2427 918.6602)" font-family="'Gotham-Bold'" font-size="142.83">5</text>
<text transform="matrix(1 0 0 1 184.248 870.3682)" font-family="'Gotham-Bold'" font-size="67.656">95</text>
<text transform="matrix(1 0 0 1 289.0068 924.4453)" fill="#636466" font-family="'Gotham-Book'" font-size="9">OC1206U</text>
</svg>
