<?xml version="1.0" encoding="utf-8"?>
<!-- Generator: Adobe Illustrator 16.0.0, SVG Export Plug-In . SVG Version: 6.00 Build 0)  -->
<!DOCTYPE svg PUBLIC "-//W3C//DTD SVG 1.1//EN" "http://www.w3.org/Graphics/SVG/1.1/DTD/svg11.dtd">
<svg version="1.1" id="Layer_1" xmlns="http://www.w3.org/2000/svg" xmlns:xlink="http://www.w3.org/1999/xlink" x="0px" y="0px"
	 width="261.654px" height="145.704px" viewBox="0 0 261.654 145.704" enable-background="new 0 0 261.654 145.704"
	 xml:space="preserve">
<rect x="-188.368" y="166.627" fill="#423393" width="595.275" height="841.89"/>
<rect x="90.452" y="962.201" fill="#FDB913" width="11.128" height="11.128"/>
<rect x="92.988" y="967.014" fill="#423393" width="6.057" height="1.503"/>
<rect x="95.265" y="964.737" fill="#423393" width="1.503" height="6.058"/>
<rect x="340.417" y="962.201" fill="#FFFFFF" width="11.128" height="11.128"/>
<rect x="342.952" y="967.014" fill="#423393" width="6.057" height="1.503"/>
<g>
	<defs>
		<rect id="SVGID_1_" x="-188.368" y="166.627" width="595.276" height="841.89"/>
	</defs>
	<clipPath id="SVGID_2_">
		<use xlink:href="#SVGID_1_"  overflow="visible"/>
	</clipPath>
	<path clip-path="url(#SVGID_2_)" fill="#FDB913" d="M139.703,962.45l6.92,0.002l-17.955,21.878
		c1.341,0.335,2.742,0.515,4.187,0.515c9.493,0,17.189-7.691,17.197-17.184v-0.025c-0.004-4.631-1.842-8.83-4.821-11.921
		L139.703,962.45z"/>
	<path clip-path="url(#SVGID_2_)" fill="#FFFFFF" d="M128.312,984.235l6.609-15.96h-5.827l9.077-16.981
		c-1.675-0.544-3.461-0.842-5.317-0.842c-9.495,0-17.193,7.695-17.197,17.189v0.014C115.66,975.577,121.021,982.243,128.312,984.235
		"/>
	<path clip-path="url(#SVGID_2_)" fill="#FFFFFF" d="M172.246,972.095c0,1.125-0.223,2.072-0.669,2.838
		c-0.447,0.768-1.039,1.383-1.776,1.85c-0.737,0.466-1.576,0.8-2.518,1.004c-0.942,0.204-1.907,0.306-2.897,0.306h-8.21V957.48h8.21
		c0.796,0,1.611,0.083,2.445,0.248s1.592,0.446,2.271,0.845c0.679,0.397,1.232,0.937,1.658,1.615
		c0.428,0.68,0.642,1.542,0.642,2.592c0,1.145-0.312,2.091-0.932,2.838c-0.621,0.747-1.437,1.286-2.445,1.615v0.059
		c0.582,0.097,1.13,0.277,1.645,0.539s0.961,0.596,1.339,1.004c0.379,0.408,0.68,0.883,0.903,1.427
		C172.134,970.804,172.246,971.417,172.246,972.095 M166.599,963.449c0-0.699-0.269-1.208-0.802-1.528
		c-0.534-0.32-1.325-0.48-2.373-0.48h-2.444v4.25h2.678c0.932,0,1.655-0.188,2.169-0.567
		C166.34,964.745,166.599,964.186,166.599,963.449 M167.268,971.629c0-0.854-0.32-1.446-0.962-1.776
		c-0.64-0.33-1.493-0.495-2.562-0.495h-2.765v4.717h2.795c0.388,0,0.79-0.033,1.208-0.102c0.417-0.067,0.796-0.189,1.135-0.365
		c0.34-0.174,0.616-0.421,0.83-0.741C167.161,972.546,167.268,972.134,167.268,971.629"/>
	<path clip-path="url(#SVGID_2_)" fill="#FFFFFF" d="M173.805,965.574c0.854-0.814,1.849-1.427,2.984-1.834
		c1.135-0.408,2.295-0.611,3.479-0.611c1.224,0,2.256,0.15,3.101,0.45c0.845,0.303,1.528,0.769,2.053,1.398
		c0.523,0.631,0.907,1.427,1.149,2.387c0.242,0.961,0.364,2.102,0.364,3.421v7.308h-4.367v-1.543h-0.087
		c-0.369,0.603-0.928,1.067-1.675,1.396c-0.747,0.331-1.557,0.496-2.43,0.496c-0.583,0-1.186-0.078-1.806-0.232
		c-0.622-0.155-1.188-0.408-1.703-0.758c-0.515-0.349-0.937-0.814-1.267-1.396c-0.33-0.583-0.495-1.301-0.495-2.155
		c0-1.048,0.286-1.892,0.859-2.533c0.572-0.64,1.31-1.135,2.213-1.484c0.902-0.35,1.906-0.582,3.013-0.698s2.184-0.175,3.231-0.175
		v-0.233c0-0.718-0.252-1.246-0.757-1.586s-1.126-0.51-1.863-0.51c-0.68,0-1.334,0.146-1.965,0.437s-1.17,0.641-1.616,1.048
		L173.805,965.574z M182.568,971.775h-0.611c-0.524,0-1.053,0.024-1.586,0.073c-0.534,0.048-1.011,0.141-1.428,0.275
		c-0.417,0.137-0.762,0.336-1.032,0.598c-0.272,0.262-0.408,0.606-0.408,1.034c0,0.271,0.063,0.505,0.189,0.697
		c0.125,0.195,0.286,0.351,0.48,0.467c0.192,0.116,0.417,0.198,0.67,0.246c0.251,0.05,0.494,0.073,0.727,0.073
		c0.971,0,1.714-0.266,2.229-0.8c0.513-0.534,0.771-1.257,0.771-2.169V971.775z"/>
	<path clip-path="url(#SVGID_2_)" fill="#FFFFFF" d="M194.397,967.146v5.553c0,0.683,0.131,1.193,0.393,1.534
		c0.263,0.341,0.732,0.511,1.412,0.511c0.233,0,0.48-0.019,0.742-0.058s0.481-0.097,0.655-0.175l0.058,3.494
		c-0.33,0.116-0.747,0.219-1.251,0.305c-0.505,0.088-1.01,0.131-1.514,0.131c-0.971,0-1.786-0.121-2.446-0.364
		c-0.66-0.242-1.188-0.593-1.586-1.051c-0.398-0.457-0.685-1.002-0.859-1.634s-0.262-1.338-0.262-2.117v-6.129h-2.329v-3.552h2.3
		v-3.813h4.688v3.813h3.406v3.552H194.397z"/>
	<path clip-path="url(#SVGID_2_)" fill="#FFFFFF" d="M203.417,967.146v5.553c0,0.683,0.131,1.193,0.393,1.534
		c0.263,0.341,0.733,0.511,1.412,0.511c0.233,0,0.48-0.019,0.742-0.058s0.481-0.097,0.655-0.175l0.058,3.494
		c-0.33,0.116-0.747,0.219-1.251,0.305c-0.505,0.088-1.01,0.131-1.514,0.131c-0.971,0-1.786-0.121-2.446-0.364
		c-0.66-0.242-1.188-0.593-1.586-1.051c-0.397-0.457-0.685-1.002-0.859-1.634s-0.262-1.338-0.262-2.117v-6.129h-2.329v-3.552h2.301
		v-3.813h4.687v3.813h3.406v3.552H203.417z"/>
	<path clip-path="url(#SVGID_2_)" fill="#FFFFFF" d="M222.213,971.018v0.582c0,0.194-0.01,0.379-0.029,0.553h-10.51
		c0.039,0.408,0.16,0.777,0.364,1.107s0.466,0.616,0.785,0.858c0.32,0.242,0.681,0.433,1.077,0.567
		c0.398,0.136,0.811,0.204,1.238,0.204c0.757,0,1.397-0.142,1.921-0.422c0.524-0.281,0.951-0.646,1.281-1.092l3.319,2.096
		c-0.681,0.99-1.577,1.752-2.693,2.286c-1.116,0.532-2.412,0.8-3.887,0.8c-1.087,0-2.115-0.17-3.085-0.509
		c-0.972-0.34-1.82-0.835-2.549-1.485c-0.728-0.65-1.3-1.451-1.717-2.402c-0.418-0.949-0.626-2.038-0.626-3.26
		c0-1.184,0.203-2.257,0.611-3.218c0.407-0.96,0.961-1.775,1.66-2.445c0.697-0.67,1.522-1.188,2.474-1.557
		c0.951-0.369,1.98-0.553,3.086-0.553c1.067,0,2.047,0.179,2.94,0.538c0.893,0.358,1.66,0.878,2.3,1.558
		c0.641,0.679,1.14,1.504,1.5,2.474C222.033,968.67,222.213,969.776,222.213,971.018 M217.817,969.184
		c0-0.757-0.237-1.407-0.713-1.951c-0.476-0.543-1.188-0.814-2.14-0.814c-0.466,0-0.894,0.072-1.281,0.218s-0.728,0.345-1.019,0.597
		c-0.291,0.253-0.524,0.549-0.699,0.888c-0.174,0.341-0.272,0.694-0.291,1.063H217.817z"/>
	<path clip-path="url(#SVGID_2_)" fill="#FFFFFF" d="M232.594,967.525c-0.214-0.059-0.422-0.098-0.626-0.117
		s-0.403-0.029-0.597-0.029c-0.641,0-1.18,0.117-1.616,0.349c-0.437,0.232-0.786,0.514-1.048,0.843
		c-0.263,0.329-0.451,0.687-0.568,1.073c-0.116,0.388-0.174,0.727-0.174,1.017v7.433h-4.775v-14.48h4.601v2.096h0.058
		c0.369-0.742,0.894-1.348,1.573-1.817c0.679-0.469,1.465-0.704,2.358-0.704c0.192,0,0.383,0.011,0.566,0.029
		c0.186,0.021,0.335,0.049,0.452,0.088L232.594,967.525z"/>
	<path clip-path="url(#SVGID_2_)" fill="#FFFFFF" d="M243.487,980.276c-0.291,0.757-0.617,1.431-0.975,2.022
		c-0.36,0.593-0.787,1.098-1.281,1.515c-0.495,0.417-1.077,0.732-1.747,0.946c-0.67,0.213-1.461,0.319-2.373,0.319
		c-0.447,0-0.907-0.027-1.382-0.086c-0.478-0.059-0.89-0.137-1.238-0.233l0.524-4.018c0.232,0.077,0.489,0.14,0.771,0.189
		c0.282,0.048,0.539,0.072,0.772,0.072c0.736,0,1.271-0.171,1.601-0.509c0.33-0.34,0.612-0.821,0.845-1.441l0.466-1.193
		l-6.056-14.265h5.298l3.232,9.315h0.087l2.883-9.315h5.065L243.487,980.276z"/>
</g>
<polygon fill="#FDB913" points="273.181,978.092 268.261,978.092 264.185,964.147 264.098,964.147 260.022,978.092 255.074,978.092 
	249.221,957.481 254.579,957.481 257.839,971.193 257.926,971.193 261.594,957.481 266.777,957.481 270.474,971.193 
	270.561,971.193 273.88,957.481 279.062,957.481 "/>
<g>
	<defs>
		<rect id="SVGID_3_" x="-188.368" y="166.627" width="595.276" height="841.89"/>
	</defs>
	<clipPath id="SVGID_4_">
		<use xlink:href="#SVGID_3_"  overflow="visible"/>
	</clipPath>
	<path clip-path="url(#SVGID_4_)" fill="#FDB913" d="M292.917,970.785c0,1.185-0.214,2.257-0.641,3.218
		c-0.427,0.96-1.009,1.775-1.747,2.444c-0.737,0.67-1.591,1.189-2.562,1.559c-0.971,0.368-2.009,0.553-3.115,0.553
		c-1.087,0-2.12-0.185-3.101-0.553c-0.979-0.369-1.834-0.889-2.562-1.559c-0.728-0.669-1.306-1.484-1.732-2.444
		c-0.427-0.961-0.641-2.033-0.641-3.218c0-1.184,0.214-2.251,0.641-3.202c0.427-0.95,1.005-1.757,1.732-2.416
		s1.582-1.164,2.562-1.515c0.98-0.349,2.014-0.523,3.101-0.523c1.106,0,2.145,0.175,3.115,0.523
		c0.971,0.351,1.824,0.855,2.562,1.515c0.738,0.659,1.32,1.466,1.747,2.416C292.703,968.534,292.917,969.601,292.917,970.785
		 M288.317,970.785c0-0.466-0.078-0.922-0.233-1.368s-0.378-0.84-0.669-1.179c-0.292-0.34-0.65-0.617-1.077-0.83
		c-0.428-0.213-0.923-0.319-1.485-0.319c-0.563,0-1.059,0.106-1.484,0.319c-0.428,0.213-0.782,0.49-1.063,0.83
		c-0.281,0.339-0.495,0.732-0.642,1.179c-0.145,0.446-0.218,0.902-0.218,1.368c0,0.467,0.073,0.923,0.218,1.368
		c0.146,0.447,0.364,0.851,0.656,1.209c0.291,0.359,0.65,0.646,1.077,0.858c0.427,0.214,0.921,0.321,1.485,0.321
		c0.562,0,1.057-0.107,1.483-0.321c0.427-0.213,0.787-0.499,1.077-0.858c0.292-0.358,0.51-0.762,0.656-1.209
		C288.244,971.708,288.317,971.251,288.317,970.785"/>
	<path clip-path="url(#SVGID_4_)" fill="#FDB913" d="M303.322,967.525c-0.214-0.059-0.422-0.098-0.626-0.117
		s-0.402-0.029-0.597-0.029c-0.64,0-1.179,0.117-1.616,0.349c-0.436,0.232-0.786,0.514-1.048,0.843s-0.451,0.687-0.567,1.073
		c-0.116,0.388-0.175,0.727-0.175,1.017v7.433h-4.774v-14.48h4.6v2.096h0.058c0.369-0.742,0.894-1.348,1.573-1.817
		c0.679-0.469,1.465-0.704,2.358-0.704c0.192,0,0.383,0.011,0.566,0.029c0.186,0.021,0.335,0.049,0.452,0.088L303.322,967.525z"/>
</g>
<rect x="304.524" y="956.083" fill="#FDB913" width="4.862" height="22.009"/>
<g>
	<defs>
		<rect id="SVGID_5_" x="-188.368" y="166.627" width="595.276" height="841.89"/>
	</defs>
	<clipPath id="SVGID_6_">
		<use xlink:href="#SVGID_5_"  overflow="visible"/>
	</clipPath>
	<path clip-path="url(#SVGID_6_)" fill="#FDB913" d="M322.088,978.092V976.2h-0.059c-0.465,0.738-1.13,1.307-1.994,1.703
		c-0.864,0.397-1.781,0.598-2.751,0.598c-1.087,0-2.057-0.215-2.911-0.641c-0.854-0.427-1.577-0.995-2.169-1.704
		c-0.592-0.708-1.044-1.527-1.354-2.46c-0.311-0.931-0.467-1.901-0.467-2.911c0-1.009,0.161-1.975,0.481-2.896
		c0.32-0.921,0.776-1.732,1.368-2.431s1.31-1.252,2.154-1.659c0.845-0.408,1.79-0.612,2.839-0.612c1.066,0,1.969,0.204,2.708,0.612
		c0.736,0.407,1.309,0.854,1.717,1.339h0.058v-9.054h4.775v22.009H322.088z M321.914,970.814c0-0.466-0.083-0.922-0.247-1.368
		c-0.166-0.446-0.397-0.845-0.699-1.193c-0.301-0.35-0.665-0.63-1.092-0.845c-0.427-0.214-0.912-0.319-1.455-0.319
		c-0.563,0-1.058,0.105-1.484,0.319c-0.428,0.215-0.786,0.49-1.077,0.829c-0.291,0.34-0.51,0.734-0.656,1.181
		c-0.145,0.445-0.218,0.901-0.218,1.367c0,0.467,0.073,0.928,0.218,1.384c0.146,0.456,0.365,0.858,0.656,1.208
		c0.291,0.349,0.649,0.631,1.077,0.844c0.427,0.214,0.921,0.32,1.484,0.32c0.543,0,1.028-0.106,1.455-0.32
		c0.427-0.213,0.791-0.495,1.092-0.844c0.302-0.35,0.533-0.747,0.699-1.194C321.831,971.736,321.914,971.28,321.914,970.814"/>
	<path clip-path="url(#SVGID_6_)" fill="#FDB913" d="M327.72,957.431c0-0.186,0.035-0.361,0.107-0.525
		c0.07-0.164,0.168-0.308,0.29-0.428c0.123-0.121,0.267-0.217,0.431-0.288s0.34-0.106,0.526-0.106c0.186,0,0.36,0.035,0.524,0.106
		c0.165,0.071,0.309,0.167,0.432,0.288c0.123,0.12,0.22,0.264,0.291,0.428c0.07,0.164,0.106,0.34,0.106,0.525
		c0,0.187-0.036,0.36-0.106,0.522c-0.071,0.163-0.168,0.304-0.291,0.425s-0.267,0.216-0.432,0.285
		c-0.164,0.069-0.339,0.104-0.524,0.104c-0.187,0-0.362-0.034-0.526-0.104s-0.308-0.164-0.431-0.285
		c-0.122-0.121-0.22-0.262-0.29-0.425C327.755,957.792,327.72,957.618,327.72,957.431 M327.934,957.431
		c0,0.154,0.029,0.301,0.089,0.439s0.141,0.261,0.243,0.366c0.104,0.104,0.225,0.187,0.362,0.245c0.139,0.06,0.287,0.09,0.446,0.09
		c0.157,0,0.307-0.03,0.444-0.09c0.14-0.059,0.26-0.142,0.362-0.245c0.103-0.105,0.185-0.228,0.244-0.366
		c0.059-0.139,0.089-0.285,0.089-0.439c0-0.158-0.03-0.307-0.089-0.445c-0.06-0.139-0.142-0.26-0.244-0.362
		c-0.103-0.104-0.223-0.185-0.362-0.243c-0.138-0.06-0.287-0.089-0.444-0.089c-0.159,0-0.308,0.029-0.446,0.089
		c-0.138,0.059-0.259,0.14-0.362,0.243c-0.103,0.103-0.184,0.224-0.243,0.362S327.934,957.273,327.934,957.431 M329.401,958.173
		l-0.326-0.588h-0.215v0.588h-0.361v-1.52h0.652c0.071,0,0.141,0.008,0.208,0.023s0.129,0.041,0.185,0.077
		c0.055,0.035,0.1,0.084,0.134,0.145c0.033,0.063,0.05,0.139,0.05,0.229c0,0.103-0.028,0.188-0.086,0.255
		c-0.058,0.068-0.13,0.117-0.217,0.149l0.404,0.641H329.401z M329.139,957.325c0.056,0,0.106-0.019,0.152-0.055
		c0.045-0.034,0.067-0.083,0.067-0.142c0-0.063-0.025-0.109-0.076-0.137c-0.053-0.027-0.1-0.041-0.144-0.041h-0.279v0.374H329.139z"
		/>
	<path clip-path="url(#SVGID_6_)" fill="none" stroke="#FFFFFF" stroke-width="2" d="M-24.525,318.422h-112.633
		c0,0-25.038,0-25.038,25.038v599.256c0,0,0,25.038,25.038,25.038H95.281"/>
</g>
<rect x="90.146" y="961.769" fill="#FDB913" width="11.339" height="11.339"/>
<rect x="92.729" y="966.674" fill="#423393" width="6.172" height="1.529"/>
<rect x="95.049" y="964.352" fill="#423393" width="1.53" height="6.172"/>
<path fill="none" stroke="#FFFFFF" stroke-width="2" d="M333.821,372.809"/>
<g>
	<defs>
		<rect id="SVGID_7_" x="-188.368" y="166.627" width="595.276" height="841.89"/>
	</defs>
	<clipPath id="SVGID_8_">
		<use xlink:href="#SVGID_7_"  overflow="visible"/>
	</clipPath>
	<path clip-path="url(#SVGID_8_)" fill="none" stroke="#FFFFFF" stroke-width="2" d="M350.5,967.446h4.724
		c0,0,25.512,0,25.512-25.512v-600.77c0,0,0-22.677-25.512-22.677H238.601"/>
</g>
<rect x="-129.74" y="379.226" fill="#FFFFFF" width="478.02" height="536.22"/>
<path fill="#FFFFFF" d="M-23.418,322.415c1.995,0,3.613-1.617,3.613-3.613c0-1.994-1.618-3.612-3.613-3.612
	s-3.613,1.618-3.613,3.612C-27.032,320.798-25.414,322.415-23.418,322.415"/>
<path fill="#FFFFFF" d="M236.035,322.415c1.995,0,3.613-1.617,3.613-3.613c0-1.994-1.618-3.612-3.613-3.612
	s-3.613,1.618-3.613,3.612C232.421,320.798,234.04,322.415,236.035,322.415"/>
<path fill="#FFFFFF" d="M56.346,17.23c1.995,0,3.613-1.617,3.613-3.613c0-1.994-1.618-3.612-3.613-3.612s-3.613,1.618-3.613,3.612
	C52.733,15.613,54.351,17.23,56.346,17.23"/>
<path fill="#FFFFFF" d="M187.485,8.303c1.995,0,3.613-1.617,3.613-3.612s-1.618-3.613-3.613-3.613s-3.613,1.618-3.613,3.613
	S185.49,8.303,187.485,8.303"/>
<path fill="#FFFFFF" d="M173.751,9.162c1.995,0,3.612-1.617,3.612-3.613c0-1.994-1.617-3.612-3.612-3.612s-3.613,1.618-3.613,3.612
	C170.138,7.544,171.756,9.162,173.751,9.162"/>
<path fill="#FFFFFF" d="M99.432,46.893c1.995,0,3.613-1.617,3.613-3.613c0-1.994-1.618-3.612-3.613-3.612
	c-1.995,0-3.613,1.618-3.613,3.612C95.819,45.276,97.437,46.893,99.432,46.893"/>
<path fill="#FFFFFF" d="M195.74,78.33c1.994,0,3.612-1.617,3.612-3.613c0-1.994-1.618-3.612-3.612-3.612
	c-1.995,0-3.613,1.618-3.613,3.612C192.126,76.713,193.745,78.33,195.74,78.33"/>
<rect x="-188.368" y="166.627" fill="none" width="595.276" height="841.89"/>
<polygon fill="#FFFFFF" points="124.386,22.953 124.528,21.142 127.748,21.432 131.886,18.621 133.832,21.646 136.648,18.488 
	138.937,22.049 141.752,18.89 144.042,22.45 146.858,19.292 149.735,23.768 150.949,23.258 154.672,23.609 154.531,25.42 
	152.262,25.183 148.166,26.904 146.466,24.26 143.65,27.418 141.363,23.857 138.544,27.016 136.256,23.456 133.441,26.614 
	130.81,22.52 129.523,23.394 "/>
<path fill="#FFFFFF" d="M196.909,60.835c-0.313,0-0.605-0.14-0.802-0.385c-0.351-0.439-0.28-1.084,0.161-1.438
	c6.313-5.049,18.13-8.312,30.105-8.312c1.931,0,3.8,0.089,5.553,0.264l0.908,0.091l3.858-2.856l-0.167-1.366
	c-1.424-11.65-5.957-20.889-13.855-28.244c-6.941-6.462-15.83-11.073-27.044-16.005l-0.991-0.437l-6.343,3.026l-2.219,11.125
	c-0.105,0.541-0.586,0.823-1.005,0.823c-0.065,0-0.132-0.007-0.198-0.02c-0.551-0.11-0.91-0.649-0.801-1.2l2.317-11.632
	c0.062-0.316,0.271-0.584,0.561-0.722l7.227-3.442C194.321,0.034,194.465,0,194.614,0c0.138,0,0.272,0.029,0.399,0.085
	c9.205,4.007,19.627,8.544,27.92,15.879c9.409,8.324,14.59,18.997,15.836,32.631c0.032,0.352-0.125,0.703-0.407,0.912l-4.647,3.439
	c-0.178,0.13-0.394,0.202-0.621,0.202c-0.044,0-0.088-0.004-0.132-0.009c-2.067-0.264-4.285-0.399-6.579-0.399
	c-11.361,0-22.949,3.164-28.836,7.872C197.315,60.796,197.072,60.835,196.909,60.835"/>
<path fill="#FFFFFF" d="M174.273,4.69l9.258,22.241c0.226,0.241,0.974,2.816,1.043,3.125c0,0-1.552,1.094-1.771,1.242l-8.604,5.85
	c-0.174,0.117-0.374,0.18-0.579,0.18c-0.147,0-0.365-0.033-0.581-0.187l-14.034-9.957c-1.15-0.817-2.498-1.315-3.898-1.441
	l-30.202-2.785c-0.238-0.023-0.492-0.035-0.74-0.035c-2.371,0-4.606,1.05-6.133,2.88L105.856,40.41
	c-1.911,2.295-4.725,3.61-7.721,3.61c-0.878,0-1.762-0.119-2.627-0.355L47.723,28.837c-0.353-0.108-0.527-0.358-0.602-0.497
	c-0.073-0.142-0.182-0.43-0.072-0.783c0.132-0.423,0.529-0.718,0.968-0.718c0.1,0,0.2,0.015,0.299,0.046l47.773,14.826l0.04,0.01
	c0.651,0.177,1.327,0.266,2.009,0.266c2.377,0,4.619-1.053,6.148-2.889l12.172-14.606c1.916-2.298,4.722-3.616,7.701-3.616
	c0.308,0,0.621,0.015,0.928,0.044l30.212,2.786c1.765,0.164,3.457,0.79,4.889,1.811l13.446,9.541l8.989-6.108l-9.536-22.538"/>
<path fill="#FFFFFF" d="M56.627,14.66L6.871,14.773v4.873l73.483,48.441c0.273,0.179,0.443,0.478,0.459,0.802
	c0.016,0.323-0.124,0.64-0.377,0.847L63.975,83.194c-0.232,0.189-0.478,0.229-0.643,0.229c-0.31,0-0.6-0.137-0.796-0.376
	c-0.356-0.436-0.29-1.082,0.147-1.441l4.655-3.799l-2.167-1.836c-6.886-5.839-15.678-9.054-24.755-9.054
	c-21.157,0-38.371,17.213-38.371,38.372c0,21.157,17.214,38.371,38.371,38.371c21.159,0,38.372-17.214,38.372-38.371
	c0-2.461-0.243-4.957-0.722-7.42c-0.093-0.471,0.157-0.945,0.592-1.131l12.055-5.19c0.034-0.013,0.073-0.026,0.11-0.039l1.472-0.525
	l0.098-1.562c0.197-3.306,0.475-5.74,0.556-6.408c0.069-0.561,0.567-0.899,1.01-0.899c0.039,0,0.077,0.003,0.116,0.007
	c0.57,0.069,0.971,0.58,0.904,1.138c-1.11,9.199-1.753,28.273,3.753,34.618c2.94,3.391,7.208,5.336,11.707,5.336h63.299
	l-0.608-2.855c-3.021-14.181-1.043-30.746,4.506-37.711c0.193-0.244,0.485-0.384,0.802-0.384c0.163,0,0.409,0.039,0.644,0.224
	c0.279,0.222,0.352,0.522,0.369,0.679c0.02,0.158,0.015,0.463-0.213,0.75c-1.081,1.358-2.035,3.16-2.84,5.358l-0.778,2.127
	l7.777,3.226c0.123,0.048,0.205,0.095,0.268,0.145c0.137,0.106,0.231,0.222,0.298,0.355c0.074,0.144,0.111,0.293,0.113,0.448
	c0.002,0.095-0.009,0.184-0.033,0.271l-0.011,0.044c-0.771,3.073-1.162,6.235-1.162,9.398c0,21.157,17.212,38.371,38.37,38.371
	c21.157,0,38.371-17.214,38.371-38.371c0-21.159-17.214-38.372-38.371-38.372c-9.278,0-18.237,3.365-25.226,9.474
	c-0.24,0.209-0.499,0.253-0.675,0.253c-0.174,0-0.433-0.044-0.672-0.254l0.449-1.49l0.2-0.659l1.536-1.166
	c6.973-5.289,15.633-8.203,24.387-8.203c22.284,0,40.415,18.131,40.415,40.417c0,22.285-18.131,40.415-40.415,40.415
	c-22.285,0-40.415-18.13-40.415-40.415c0-2.423,0.218-4.856,0.648-7.232l0.338-1.872l-6.723-2.79l-0.5,2.918
	c-1.522,8.903-0.94,19.232,1.561,27.632c0.093,0.309,0.034,0.644-0.157,0.899c-0.195,0.261-0.501,0.415-0.822,0.415h-64.729
	c-5.094,0-9.924-2.202-13.252-6.043c-3.236-3.726-4.966-11.503-5.005-22.49l-0.013-3.575l-11.913,5.125l0.233,1.771
	c0.227,1.738,0.343,3.501,0.343,5.242c0,22.285-18.131,40.415-40.416,40.415C18.131,145.704,0,127.574,0,105.289
	c0-22.286,18.131-40.417,40.416-40.417c9.989,0,19.565,3.663,26.964,10.313l1.507,1.354l9.182-7.513L6.303,21.72
	c-0.923-0.611-1.477-1.636-1.477-2.743v-2.966c0-1.805,1.467-3.278,3.268-3.283l45.33-0.238c1.406,0,2.744,0.657,3.594,1.757"/>
<rect x="-188.368" y="166.627" fill="none" width="595.276" height="841.89"/>
<rect x="135.733" y="121.677" fill="#423393" width="4.549" height="5.012"/>
<rect x="134.444" y="118.608" fill="#FFFFFF" width="1.817" height="11.045"/>
<rect x="139.612" y="114.316" fill="#FFFFFF" width="1.817" height="19.629"/>
<rect x="104.086" y="334.331" fill="#FFFFFF" width="7.42" height="1.817"/>
<rect x="116.674" y="334.331" fill="#FFFFFF" width="6.994" height="1.817"/>
<rect x="44.256" y="44.821" transform="matrix(0.5592 -0.8291 0.8291 0.5592 -18.431 59.5302)" fill="#423393" width="5.013" height="4.55"/>
<rect x="39.066" y="44.658" transform="matrix(-0.5592 0.8291 -0.8291 -0.5592 107.2992 34.0795)" fill="#FFFFFF" width="11.045" height="1.817"/>
<rect x="39.06" y="47.549" transform="matrix(-0.5592 0.829 -0.829 -0.5592 116.3774 35.0376)" fill="#FFFFFF" width="19.628" height="1.817"/>
<rect x="16.76" y="250.891" transform="matrix(-0.5593 0.8289 -0.8289 -0.5593 238.5986 382.3653)" fill="#FFFFFF" width="1.817" height="7.42"/>
<rect x="27.02" y="258.025" transform="matrix(-0.5592 0.8291 -0.8291 -0.5592 260.3615 384.5999)" fill="#FFFFFF" width="1.816" height="6.994"/>
<line fill="none" stroke="#FFFFFF" stroke-width="1.817" stroke-linecap="round" stroke-linejoin="round" x1="192.127" y1="62.537" x2="195.74" y2="74.718"/>
<text transform="matrix(1 0 0 1 -108.0146 450.186)" font-family="'Gotham-Black'" font-size="52.351">O</text>
<text transform="matrix(1 0 0 1 -66.2383 450.186)" font-family="'Gotham-Black'" font-size="52.351">Z CHARGE</text>
<text transform="matrix(1 0 0 1 -106.4438 502.5371)" font-family="'Gotham-Black'" font-size="52.351">12V 6A</text>
<text transform="matrix(1 0 0 1 -106.4438 554.8882)" font-family="'Gotham-Black'" font-size="52.351">Batt</text>
<text transform="matrix(1 0 0 1 6.4771 554.8882)" font-family="'Gotham-Black'" font-size="52.351">ery Charger</text>
<text transform="matrix(1 0 0 1 -106.9678 607.2397)" font-family="'Gotham-Black'" font-size="52.351">&amp; Maintainer</text>
<text transform="matrix(1 0 0 1 -106.4443 645.2808)" font-family="'Gotham-Book'" font-size="20">•1</text>
<text transform="matrix(1 0 0 1 -83.7241 645.2808)" font-family="'Gotham-Book'" font-size="20">00% au</text>
<text transform="matrix(1 0 0 1 -8.5444 645.2808)" font-family="'Gotham-Book'" font-size="20">to</text>
<text transform="matrix(1 0 0 1 12.1758 645.2808)" font-family="'Gotham-Book'" font-size="20">matic smart 9 stage batt</text>
<text transform="matrix(1 0 0 1 256.3159 645.2808)" font-family="'Gotham-Book'" font-size="20">ery</text>
<text transform="matrix(1 0 0 1 -88.4443 670.481)" font-family="'Gotham-Book'" font-size="20">char</text>
<text transform="matrix(1 0 0 1 -45.4243 670.481)" font-family="'Gotham-Book'" font-size="20">ger &amp; maintainer with </text>
<text transform="matrix(1 0 0 1 173.9556 670.481)" font-family="'Gotham-Book'" font-size="20">re</text>
<text transform="matrix(1 0 0 1 193.4556 670.481)" font-family="'Gotham-Book'" font-size="20">c</text>
<text transform="matrix(1 0 0 1 204.5962 670.481)" font-family="'Gotham-Book'" font-size="20">onditioning</text>
<text transform="matrix(1 0 0 1 -106.4443 701.6812)" font-family="'Gotham-Book'" font-size="20">•E</text>
<text transform="matrix(1 0 0 1 -77.6641 701.6812)" font-family="'Gotham-Book'" font-size="20">c</text>
<text transform="matrix(1 0 0 1 -66.5439 701.6812)" font-family="'Gotham-Book'" font-size="20">o mode - Ultr</text>
<text transform="matrix(1 0 0 1 65.7158 701.6812)" font-family="'Gotham-Book'" font-size="20">a l</text>
<text transform="matrix(1 0 0 1 88.5557 701.6812)" font-family="'Gotham-Book'" font-size="20">ow</text>
<text transform="matrix(1 0 0 1 118.1958 701.6812)" font-family="'Gotham-Book'" font-size="20"> p</text>
<text transform="matrix(1 0 0 1 137.4761 701.6812)" font-family="'Gotham-Book'" font-size="20">ow</text>
<text transform="matrix(1 0 0 1 166.6362 701.6812)" font-family="'Gotham-Book'" font-size="20">er c</text>
<text transform="matrix(1 0 0 1 203.6958 701.6812)" font-family="'Gotham-Book'" font-size="20">onsumption</text>
<text transform="matrix(1 0 0 1 -106.4443 732.8813)" font-family="'Gotham-Book'" font-size="20">•5</text>
<text transform="matrix(1 0 0 1 -78.644 732.8813)" font-family="'Gotham-Book'" font-size="20"> y</text>
<text transform="matrix(1 0 0 1 -61.4043 732.8813)" font-family="'Gotham-Book'" font-size="20">ear </text>
<text transform="matrix(1 0 0 1 -23.8843 732.8813)" font-family="'Gotham-Book'" font-size="20">wa</text>
<text transform="matrix(1 0 0 1 4.5356 732.8813)" font-family="'Gotham-Book'" font-size="20">rr</text>
<text transform="matrix(1 0 0 1 20.2358 732.8813)" font-family="'Gotham-Book'" font-size="20">anty</text>
<text transform="matrix(1 0 0 1 -106.4443 846.269)" font-family="'Gotham-Bold'" font-size="82.691">$</text>
<text transform="matrix(1 0 0 1 -58.3677 881.9312)" font-family="'Gotham-Bold'" font-size="142.83">14</text>
<text transform="matrix(1 0 0 1 92.4609 881.9312)" font-family="'Gotham-Bold'" font-size="142.83">5</text>
<text transform="matrix(1 0 0 1 179.4663 833.6392)" font-family="'Gotham-Bold'" font-size="67.656">95</text>
<text transform="matrix(1 0 0 1 284.2251 887.7163)" fill="#636466" font-family="'Gotham-Book'" font-size="9">OC1206U</text>
</svg>
