<?xml version="1.0" encoding="UTF-8"?>
<svg width="337px" height="24px" viewBox="0 0 337 24" version="1.1" xmlns="http://www.w3.org/2000/svg" xmlns:xlink="http://www.w3.org/1999/xlink">
    <!-- Generator: Sketch 48.1 (47250) - http://www.bohemiancoding.com/sketch -->
    <title>Group</title>
    <desc>Created with Sketch.</desc>
    <defs></defs>
    <g id="Page-1" stroke="none" stroke-width="1" fill="none" fill-rule="evenodd">
        <g id="Group" transform="translate(0.000000, -1.000000)" fill="#FFFFFF" fill-rule="nonzero">
            <path d="M5,13.1 L5,23.7 L6,23.7 L6,24.2 L0,24.2 L0,23.7 L1,23.7 L1,1.5 L0,1.5 L0,1 L7.1,1 C7.6,1 9.4,0.9 10.4,1.5 C11.5,2.2 11.8,3.2 11.8,4.3 L11.8,9.8 C11.8,10.4 11.7,11.4 10.6,12.2 C9.6,12.9 7.8,13 6.4,13 L5,13 L5,13.1 Z M7.8,3.1 C7.8,2.7 7.8,2.3 7.6,2 C7.2,1.6 6.8,1.5 6.2,1.5 L5,1.5 L5,12.6 L6.5,12.6 C7,12.6 7.3,12.4 7.6,12.2 C7.9,11.9 7.8,11.3 7.8,11 L7.8,3.1 Z" id="Shape"></path>
            <path d="M42.1,20.8 C42.1,22.9 40.7,24.3 37,24.2 C33,24.2 32,22.9 32,20.8 L32,6.7 C32,4.2 33.8,2.9 37.2,2.9 C40.5,2.9 42.2,4.5 42.2,6.7 L42.2,20.8 L42.1,20.8 Z M38.5,4.9 C38.5,3.7 38.1,3.3 37.2,3.3 C36.2,3.3 35.7,3.7 35.7,4.9 L35.7,22.2 C35.7,23.1 36,23.8 37.1,23.8 C38.2,23.8 38.6,23.4 38.6,22.2 L38.6,4.9 L38.5,4.9 Z" id="Shape"></path>
            <polygon id="Shape" points="74.4 3.3 74.4 7.5 73.9 7.5 73.9 4.3 70.8 4.3 70.8 23.8 71.7 23.8 71.7 24.3 66.3 24.3 66.3 23.8 67.2 23.8 67.2 4.3 64.1 4.3 64.1 7.6 63.6 7.6 63.6 3.3"></polygon>
            <polygon id="Shape" points="106.7 3.3 106.7 7.5 106.2 7.5 106.2 4.3 103.1 4.3 103.1 23.8 104 23.8 104 24.3 98.6 24.3 98.6 23.8 99.5 23.8 99.5 4.3 96.4 4.3 96.4 7.6 95.9 7.6 95.9 3.3"></polygon>
            <polygon id="Shape" points="132.5 13.1 136.5 13.1 136.5 11.3 137 11.3 137 15.9 136.5 15.9 136.5 14.1 132.5 14.1 132.5 23.4 136.5 23.4 136.5 20.2 137 20.2 137 24.3 128 24.3 128 23.8 128.9 23.8 128.9 3.8 128 3.8 128 3.3 137.1 3.3 137.1 7.4 136.6 7.4 136.6 4.3 132.6 4.3 132.6 13.1"></polygon>
            <path d="M166.5,13.5 C166.5,13.6 167.8,13.7 168.8,14.4 C169.7,15 169.8,15.7 169.8,16.6 L169.8,23.7 L170.7,23.7 L170.7,24.2 L166.2,24.2 L166.2,15.8 C166.2,15.1 166.4,14.5 165.7,14.1 C165.3,13.8 164.6,13.9 164.1,13.9 L162.9,13.9 L162.9,23.7 L163.8,23.7 L163.8,24.2 L158.4,24.2 L158.4,23.7 L159.3,23.7 L159.3,3.7 L158.4,3.7 L158.4,3.3 L164.8,3.3 C165.2,3.3 166.9,3.2 167.8,3.8 C168.8,4.4 169.1,5.3 169.1,6.4 L169.1,10.9 C169.1,11.1 169.2,12.1 168.4,12.8 C167.5,13.4 166.5,13.5 166.5,13.5 Z M165.4,5.2 C165.4,4.8 165.5,4.5 165.2,4.2 C164.9,3.9 164.4,3.8 164.1,3.8 L163,3.8 L163,13.6 L164.3,13.6 C164.7,13.6 165,13.5 165.3,13.2 C165.6,12.9 165.5,12.4 165.5,12.1 L165.5,5.2 L165.4,5.2 Z" id="Shape"></path>
            <polygon id="Shape" points="194 16.8 190.2 3.8 189.3 3.8 189.3 3.3 194.7 3.3 194.7 3.8 193.8 3.8 197 14.8 199.8 3.8 199 3.8 199 3.3 202 3.3 202 3.8 201.1 3.8 197.7 16.8 197.7 23.8 198.6 23.8 198.6 24.3 193.2 24.3 193.2 23.8 194.1 23.8 194.1 16.8"></polygon>
            <path d="M235.9,15.6 L235.9,20.8 C235.9,21.7 235.9,22.3 235.2,23.1 C234.3,24.1 232.5,24.2 231.7,24.2 L223,24.2 L223,23.7 L224,23.7 L224,1.5 L223,1.5 L223,1 L231.4,1 C232.4,1 233.2,1.2 234,1.8 C235.3,2.8 235.2,4 235.2,4 L235.2,9.6 C235.2,9.6 235.2,10.7 234.4,11.4 C233.3,12.3 232.5,12.3 232.5,12.4 C232.5,12.6 234,12.5 235.1,13.5 C235.6,14 235.9,14.6 235.9,15.6 Z M228,23.7 L230.2,23.7 C230.3,23.7 231,23.7 231.4,23.4 C231.8,23.1 231.9,22.7 231.9,22.3 L231.9,14.1 C231.9,13.8 231.9,13.5 231.7,13.2 C231.5,12.9 231,12.8 230.6,12.8 L228,12.8 L228,23.7 Z M228,1.5 L228,12.2 L230.1,12.2 C230.2,12.2 230.6,12.2 230.9,11.9 C231.1,11.6 231.1,11.3 231.1,11 L231.1,2.9 C231.1,2.8 231.2,2 230.9,1.8 C230.7,1.5 229.8,1.5 229.7,1.5 L228,1.5 Z" id="Shape"></path>
            <path d="M262.9,3.8 L262,3.8 L262,3.3 L267.6,3.3 L267.6,3.8 L266.6,3.8 L270.2,23.8 L271.1,23.8 L271.1,24.3 L265.6,24.3 L265.6,23.8 L266.4,23.8 L265.5,18 L261,18 L259.8,23.8 L260.7,23.8 L260.7,24.3 L257.9,24.3 L257.9,23.8 L258.7,23.8 L262.9,3.8 Z M261.2,17.1 L265.3,17.1 L263.4,5.7 L261.2,17.1 Z" id="Shape"></path>
            <path d="M300.5,13.5 C300.5,13.6 301.8,13.7 302.8,14.4 C303.7,15 303.8,15.7 303.8,16.6 L303.8,23.7 L304.7,23.7 L304.7,24.2 L300.2,24.2 L300.2,15.8 C300.2,15.1 300.4,14.5 299.7,14.1 C299.3,13.8 298.6,13.9 298.1,13.9 L296.9,13.9 L296.9,23.7 L297.8,23.7 L297.8,24.2 L292.4,24.2 L292.4,23.7 L293.3,23.7 L293.3,3.7 L292.4,3.7 L292.4,3.3 L298.8,3.3 C299.2,3.3 300.9,3.2 301.8,3.8 C302.8,4.4 303.1,5.3 303.1,6.4 L303.1,10.9 C303.1,11.1 303.2,12.1 302.4,12.8 C301.5,13.4 300.5,13.5 300.5,13.5 Z M299.3,5.2 C299.3,4.8 299.4,4.5 299.1,4.2 C298.8,3.9 298.3,3.8 298,3.8 L296.9,3.8 L296.9,13.6 L298.2,13.6 C298.6,13.6 298.9,13.5 299.2,13.2 C299.5,12.9 299.4,12.4 299.4,12.1 L299.4,5.2 L299.3,5.2 Z" id="Shape"></path>
            <polygon id="Shape" points="332.4 24.3 328 6.9 328 23.8 328.9 23.8 328.9 24.3 326 24.3 326 23.8 326.9 23.8 326.9 3.8 326 3.8 326 3.3 330.5 3.3 335.1 21.4 335.1 3.8 334.2 3.8 334.2 3.3 337 3.3 337 3.8 336.1 3.8 336.1 24.3"></polygon>
        </g>
    </g>
</svg>