<?xml version="1.0" encoding="utf-8"?>
<!-- Generator: Adobe Illustrator 16.0.0, SVG Export Plug-In . SVG Version: 6.00 Build 0)  -->
<!DOCTYPE svg PUBLIC "-//W3C//DTD SVG 1.1//EN" "http://www.w3.org/Graphics/SVG/1.1/DTD/svg11.dtd">
<svg version="1.1" id="Layer_1" xmlns="http://www.w3.org/2000/svg" xmlns:xlink="http://www.w3.org/1999/xlink" x="0px" y="0px"
	 width="20.697px" height="20.35px" viewBox="0 0 20.697 20.35" enable-background="new 0 0 20.697 20.35" xml:space="preserve">
<rect x="-37.541" y="88.868" fill="#423393" width="1417.323" height="294.307"/>
<g>
	<defs>
		<rect id="SVGID_1_" x="-37.541" y="88.868" width="1417.323" height="294.307"/>
	</defs>
	<clipPath id="SVGID_2_">
		<use xlink:href="#SVGID_1_"  overflow="visible"/>
	</clipPath>
	<path clip-path="url(#SVGID_2_)" fill="none" stroke="#FFFFFF" stroke-width="2.725" stroke-miterlimit="10" d="M33.168,357.573
		H5.198c-8.318,0-15.061-6.743-15.061-15.063V148.742c0-8.318,6.743-15.062,15.061-15.062h986.214"/>
	<path clip-path="url(#SVGID_2_)" fill="none" stroke="#FFFFFF" stroke-width="2.725" stroke-miterlimit="10" d="M1279.377,133.68
		h58.074c8.319,0,15.063,6.743,15.063,15.062v193.769c0,8.318-6.743,15.063-15.063,15.063H209.521"/>
</g>
<text transform="matrix(1 0 0 1 246.2578 247.4385)"><tspan x="0" y="0" fill="#FFFFFF" font-family="'Gotham-Black'" font-size="87.4267">DID </tspan><tspan x="155.878" y="0" fill="#FFFFFF" font-family="'Gotham-Black'" font-size="87.4267" letter-spacing="-5">Y</tspan><tspan x="197.58" y="0" fill="#FFFFFF" font-family="'Gotham-Black'" font-size="87.4267">OU KN</tspan><tspan x="437.824" y="0" fill="#FFFFFF" font-family="'Gotham-Black'" font-size="87.4267" letter-spacing="-3">O</tspan><tspan x="494.564" y="0" fill="#FFFFFF" font-family="'Gotham-Black'" font-size="87.4267">W?</tspan></text>
<text transform="matrix(1 0 0 1 246.7822 320.7891)"><tspan x="0" y="0" fill="#FDB913" font-family="'Gotham-Black'" font-size="87.4267">WE </tspan><tspan x="135.509" y="0" fill="#FDB913" font-family="'Gotham-Black'" font-size="87.4267">C</tspan><tspan x="185.778" y="0" fill="#FDB913" font-family="'Gotham-Black'" font-size="87.4267">AN </tspan><tspan x="315.343" y="0" fill="#FDB913" font-family="'Gotham-Black'" font-size="87.4267" letter-spacing="-1">C</tspan><tspan x="364.388" y="0" fill="#FDB913" font-family="'Gotham-Black'" font-size="87.4267">OME </tspan><tspan x="556.46" y="0" fill="#FDB913" font-family="'Gotham-Black'" font-size="87.4267" letter-spacing="-2">T</tspan><tspan x="597.376" y="0" fill="#FDB913" font-family="'Gotham-Black'" font-size="87.4267">O </tspan><tspan x="676.146" y="0" fill="#FDB913" font-family="'Gotham-Black'" font-size="87.4267" letter-spacing="-5">Y</tspan><tspan x="717.847" y="0" fill="#FDB913" font-family="'Gotham-Black'" font-size="87.4267">OU</tspan></text>
<g>
	<defs>
		<rect id="SVGID_3_" x="-37.541" y="88.868" width="1417.323" height="294.307"/>
	</defs>
	<clipPath id="SVGID_4_">
		<use xlink:href="#SVGID_3_"  overflow="visible"/>
	</clipPath>
	<rect x="979.342" y="127.04" clip-path="url(#SVGID_4_)" fill="#FCB715" width="13.28" height="13.28"/>
	<rect x="982.368" y="132.786" clip-path="url(#SVGID_4_)" fill="#423692" width="7.228" height="1.792"/>
	<rect x="985.086" y="130.091" clip-path="url(#SVGID_4_)" fill="#423692" width="1.792" height="7.229"/>
	<polygon clip-path="url(#SVGID_4_)" fill="#FFFFFF" points="1287.892,140.32 1290.915,140.32 1290.915,127.04 1277.635,127.04 
		1277.635,140.32 	"/>
	<rect x="1280.662" y="132.784" clip-path="url(#SVGID_4_)" fill="#423692" width="7.229" height="1.792"/>
	<path clip-path="url(#SVGID_4_)" fill="#FCB715" d="M1038.115,127.337l8.259,0.002l-21.427,26.108
		c1.599,0.401,3.271,0.616,4.995,0.616c11.327,0,20.513-9.18,20.521-20.507v-0.031c-0.004-5.526-2.197-10.538-5.752-14.225
		L1038.115,127.337z"/>
	<path clip-path="url(#SVGID_4_)" fill="#FFFFFF" d="M1024.521,153.333l7.889-19.044h-6.954l10.832-20.266
		c-1.998-0.649-4.13-1.004-6.346-1.004c-11.332,0-20.519,9.183-20.523,20.513v0.015C1009.422,143,1015.822,150.957,1024.521,153.333
		"/>
	<path clip-path="url(#SVGID_4_)" fill="#FFFFFF" d="M1076.949,138.847c0,1.344-0.265,2.474-0.798,3.388
		c-0.534,0.915-1.24,1.649-2.12,2.206c-0.88,0.556-1.881,0.955-3.004,1.198c-1.123,0.244-2.276,0.365-3.458,0.365h-9.796v-24.596
		h9.796c0.95,0,1.923,0.098,2.919,0.295c0.996,0.196,1.898,0.533,2.709,1.007c0.812,0.476,1.472,1.119,1.98,1.928
		c0.511,0.811,0.765,1.841,0.765,3.092c0,1.368-0.37,2.497-1.112,3.388c-0.74,0.891-1.715,1.534-2.917,1.928v0.069
		c0.695,0.116,1.349,0.33,1.963,0.643c0.612,0.313,1.146,0.712,1.599,1.198c0.451,0.487,0.81,1.054,1.076,1.703
		C1076.816,137.308,1076.949,138.038,1076.949,138.847 M1070.209,128.529c0-0.833-0.317-1.442-0.955-1.824s-1.58-0.573-2.83-0.573
		h-2.919v5.073h3.195c1.112,0,1.976-0.226,2.588-0.678C1069.904,130.076,1070.209,129.409,1070.209,128.529 M1071.009,138.292
		c0-1.019-0.382-1.725-1.146-2.119c-0.764-0.395-1.785-0.591-3.058-0.591h-3.3v5.627h3.335c0.463,0,0.942-0.04,1.441-0.12
		c0.498-0.081,0.95-0.226,1.354-0.435c0.405-0.208,0.734-0.504,0.991-0.886C1070.881,139.386,1071.009,138.894,1071.009,138.292"/>
	<path clip-path="url(#SVGID_4_)" fill="#FFFFFF" d="M1078.81,131.066c1.02-0.974,2.207-1.704,3.562-2.189
		c1.355-0.487,2.738-0.73,4.151-0.73c1.459,0,2.691,0.18,3.699,0.539c1.009,0.358,1.824,0.914,2.449,1.667
		c0.626,0.752,1.083,1.702,1.372,2.849c0.29,1.146,0.436,2.507,0.436,4.081v8.72h-5.211v-1.84h-0.104
		c-0.44,0.718-1.106,1.273-1.999,1.667c-0.891,0.395-1.857,0.59-2.9,0.59c-0.694,0-1.412-0.092-2.153-0.277
		s-1.419-0.487-2.032-0.904c-0.614-0.415-1.118-0.972-1.511-1.667c-0.396-0.695-0.592-1.551-0.592-2.571
		c0-1.251,0.342-2.258,1.024-3.022c0.685-0.764,1.564-1.355,2.642-1.772s2.274-0.696,3.596-0.834
		c1.32-0.139,2.606-0.208,3.854-0.208v-0.278c0-0.857-0.301-1.488-0.901-1.894c-0.604-0.405-1.344-0.608-2.224-0.608
		c-0.812,0-1.594,0.174-2.346,0.521c-0.752,0.347-1.395,0.764-1.928,1.251L1078.81,131.066z M1089.268,138.465h-0.729
		c-0.626,0-1.257,0.029-1.895,0.087c-0.638,0.059-1.203,0.168-1.701,0.33c-0.499,0.162-0.91,0.399-1.234,0.712
		c-0.323,0.313-0.486,0.724-0.486,1.234c0,0.324,0.075,0.603,0.228,0.833c0.149,0.232,0.34,0.417,0.572,0.557
		c0.229,0.138,0.497,0.236,0.799,0.295c0.301,0.057,0.591,0.087,0.869,0.087c1.157,0,2.044-0.319,2.657-0.956
		c0.612-0.637,0.921-1.499,0.921-2.589V138.465z"/>
	<path clip-path="url(#SVGID_4_)" fill="#FFFFFF" d="M1103.384,132.941v6.627c0,0.813,0.154,1.424,0.468,1.831
		c0.313,0.407,0.875,0.61,1.685,0.61c0.278,0,0.574-0.023,0.887-0.069c0.313-0.047,0.573-0.116,0.781-0.209l0.07,4.168
		c-0.394,0.14-0.892,0.262-1.494,0.365c-0.603,0.104-1.206,0.157-1.807,0.157c-1.158,0-2.132-0.146-2.919-0.436
		c-0.787-0.289-1.418-0.707-1.894-1.254c-0.475-0.545-0.815-1.195-1.023-1.95c-0.209-0.755-0.313-1.597-0.313-2.526v-7.314h-2.778
		v-4.238h2.743v-4.552h5.595v4.552h4.063v4.238H1103.384z"/>
	<path clip-path="url(#SVGID_4_)" fill="#FFFFFF" d="M1114.149,132.941v6.627c0,0.813,0.154,1.424,0.469,1.831
		c0.312,0.407,0.874,0.61,1.684,0.61c0.279,0,0.574-0.023,0.887-0.069c0.313-0.047,0.573-0.116,0.781-0.209l0.07,4.168
		c-0.394,0.14-0.892,0.262-1.494,0.365c-0.603,0.104-1.205,0.157-1.807,0.157c-1.158,0-2.132-0.146-2.919-0.436
		c-0.786-0.289-1.418-0.707-1.894-1.254c-0.475-0.545-0.815-1.195-1.023-1.95c-0.209-0.755-0.313-1.597-0.313-2.526v-7.314h-2.778
		v-4.238h2.743v-4.552h5.595v4.552h4.063v4.238H1114.149z"/>
	<path clip-path="url(#SVGID_4_)" fill="#FFFFFF" d="M1136.579,137.562v0.695c0,0.232-0.013,0.45-0.035,0.659h-12.542
		c0.046,0.487,0.19,0.928,0.435,1.321c0.244,0.394,0.555,0.736,0.938,1.025c0.382,0.289,0.811,0.515,1.284,0.677
		c0.475,0.163,0.968,0.244,1.478,0.244c0.903,0,1.668-0.168,2.293-0.505c0.626-0.335,1.135-0.77,1.528-1.303l3.962,2.502
		c-0.813,1.181-1.883,2.09-3.214,2.728c-1.333,0.636-2.879,0.955-4.64,0.955c-1.297,0-2.523-0.203-3.681-0.608
		c-1.16-0.405-2.172-0.996-3.041-1.772c-0.868-0.776-1.552-1.731-2.05-2.867c-0.499-1.133-0.747-2.431-0.747-3.89
		c0-1.413,0.244-2.693,0.729-3.84c0.487-1.146,1.147-2.118,1.981-2.917c0.834-0.8,1.817-1.419,2.953-1.859
		c1.135-0.44,2.362-0.66,3.683-0.66c1.273,0,2.442,0.214,3.508,0.643c1.066,0.428,1.981,1.048,2.745,1.858
		c0.765,0.811,1.36,1.795,1.79,2.953C1136.363,134.759,1136.579,136.08,1136.579,137.562 M1131.333,135.373
		c0-0.904-0.284-1.679-0.853-2.327c-0.565-0.649-1.418-0.973-2.552-0.973c-0.557,0-1.067,0.086-1.53,0.259
		c-0.462,0.175-0.868,0.413-1.214,0.714c-0.349,0.301-0.626,0.654-0.834,1.059c-0.209,0.405-0.326,0.828-0.349,1.268H1131.333z"/>
	<path clip-path="url(#SVGID_4_)" fill="#FFFFFF" d="M1148.966,133.393c-0.255-0.069-0.503-0.116-0.747-0.139
		c-0.242-0.023-0.482-0.035-0.712-0.035c-0.766,0-1.406,0.139-1.929,0.417c-0.521,0.276-0.938,0.611-1.251,1.004
		c-0.312,0.393-0.538,0.82-0.677,1.282c-0.139,0.463-0.209,0.866-0.209,1.212v8.87h-5.697v-17.28h5.489v2.501h0.07
		c0.438-0.886,1.063-1.609,1.876-2.169c0.81-0.559,1.747-0.84,2.813-0.84c0.232,0,0.456,0.012,0.679,0.035
		c0.219,0.024,0.398,0.058,0.538,0.105L1148.966,133.393z"/>
	<path clip-path="url(#SVGID_4_)" fill="#FFFFFF" d="M1161.965,148.609c-0.349,0.903-0.735,1.708-1.164,2.415
		c-0.43,0.705-0.939,1.309-1.528,1.806c-0.591,0.498-1.286,0.875-2.085,1.129s-1.744,0.382-2.831,0.382
		c-0.534,0-1.083-0.034-1.651-0.103c-0.567-0.07-1.059-0.163-1.476-0.279l0.625-4.793c0.277,0.092,0.585,0.166,0.921,0.226
		c0.335,0.056,0.643,0.086,0.92,0.086c0.879,0,1.518-0.203,1.912-0.608c0.393-0.406,0.729-0.979,1.006-1.72l0.557-1.423
		l-7.227-17.025h6.323l3.856,11.117h0.104l3.44-11.117h6.044L1161.965,148.609z"/>
	<polygon clip-path="url(#SVGID_4_)" fill="#FCB715" points="1197.401,146.003 1191.53,146.003 1186.666,129.362 1186.561,129.362 
		1181.699,146.003 1175.792,146.003 1168.809,121.407 1175.202,121.407 1179.091,137.771 1179.197,137.771 1183.574,121.407 
		1189.757,121.407 1194.169,137.771 1194.275,137.771 1198.235,121.407 1204.419,121.407 	"/>
	<path clip-path="url(#SVGID_4_)" fill="#FCB715" d="M1220.952,137.284c0,1.413-0.256,2.693-0.764,3.839
		c-0.51,1.146-1.204,2.119-2.085,2.918c-0.88,0.8-1.899,1.42-3.057,1.859c-1.158,0.44-2.397,0.66-3.718,0.66
		c-1.299,0-2.531-0.22-3.7-0.66c-1.17-0.439-2.188-1.059-3.058-1.859c-0.869-0.799-1.558-1.772-2.066-2.918
		c-0.512-1.146-0.766-2.426-0.766-3.839c0-1.412,0.254-2.687,0.766-3.821c0.509-1.136,1.197-2.096,2.066-2.884
		c0.869-0.787,1.888-1.389,3.058-1.807c1.169-0.416,2.401-0.625,3.7-0.625c1.32,0,2.56,0.209,3.718,0.625
		c1.157,0.418,2.177,1.02,3.057,1.807c0.881,0.788,1.575,1.748,2.085,2.884C1220.696,134.597,1220.952,135.872,1220.952,137.284
		 M1215.463,137.284c0-0.556-0.094-1.1-0.278-1.634c-0.187-0.532-0.451-1.001-0.798-1.406c-0.35-0.404-0.778-0.734-1.286-0.99
		c-0.51-0.254-1.103-0.382-1.772-0.382c-0.673,0-1.263,0.128-1.772,0.382c-0.509,0.256-0.933,0.586-1.269,0.99
		c-0.334,0.405-0.591,0.874-0.763,1.406c-0.174,0.534-0.262,1.078-0.262,1.634c0,0.557,0.088,1.1,0.262,1.633
		c0.172,0.533,0.433,1.014,0.781,1.442c0.347,0.428,0.776,0.77,1.285,1.025c0.51,0.255,1.101,0.382,1.771,0.382
		s1.263-0.127,1.773-0.382c0.508-0.255,0.937-0.597,1.284-1.025c0.348-0.428,0.607-0.909,0.78-1.442
		C1215.376,138.384,1215.463,137.841,1215.463,137.284"/>
	<path clip-path="url(#SVGID_4_)" fill="#FCB715" d="M1233.37,133.393c-0.256-0.069-0.504-0.116-0.747-0.139
		c-0.244-0.023-0.482-0.035-0.712-0.035c-0.767,0-1.407,0.139-1.93,0.417c-0.52,0.276-0.937,0.611-1.25,1.004
		c-0.313,0.393-0.539,0.82-0.678,1.282c-0.138,0.463-0.208,0.866-0.208,1.212v8.87h-5.698v-17.28h5.489v2.501h0.07
		c0.438-0.886,1.063-1.609,1.876-2.169c0.81-0.559,1.749-0.84,2.813-0.84c0.233,0,0.457,0.012,0.68,0.035
		c0.219,0.024,0.398,0.058,0.537,0.105L1233.37,133.393z"/>
	<rect x="1234.804" y="119.74" clip-path="url(#SVGID_4_)" fill="#FCB715" width="5.802" height="26.265"/>
	<path clip-path="url(#SVGID_4_)" fill="#FCB715" d="M1255.764,146.003v-2.258h-0.07c-0.555,0.882-1.348,1.558-2.379,2.033
		c-1.031,0.474-2.126,0.712-3.282,0.712c-1.298,0-2.456-0.255-3.476-0.764c-1.02-0.509-1.881-1.187-2.587-2.033
		c-0.708-0.846-1.246-1.824-1.616-2.935c-0.37-1.113-0.557-2.27-0.557-3.475c0-1.204,0.192-2.357,0.573-3.456
		c0.382-1.1,0.927-2.068,1.634-2.902c0.705-0.834,1.563-1.493,2.57-1.98c1.007-0.486,2.136-0.73,3.387-0.73
		c1.274,0,2.352,0.244,3.232,0.73c0.879,0.487,1.563,1.02,2.049,1.599h0.069v-10.805h5.698v26.264H1255.764z M1255.556,137.318
		c0-0.556-0.1-1.1-0.296-1.633c-0.196-0.533-0.476-1.007-0.834-1.424c-0.359-0.417-0.795-0.753-1.303-1.008
		c-0.51-0.254-1.089-0.382-1.737-0.382c-0.671,0-1.264,0.128-1.772,0.382c-0.509,0.255-0.937,0.586-1.285,0.991
		c-0.346,0.405-0.607,0.875-0.781,1.407c-0.174,0.533-0.262,1.077-0.262,1.632c0,0.556,0.088,1.107,0.262,1.65
		c0.174,0.545,0.436,1.025,0.781,1.442c0.349,0.417,0.776,0.753,1.285,1.008c0.509,0.254,1.102,0.382,1.772,0.382
		c0.648,0,1.228-0.128,1.737-0.382c0.508-0.255,0.943-0.591,1.303-1.008c0.358-0.417,0.638-0.89,0.834-1.424
		C1255.457,138.418,1255.556,137.875,1255.556,137.318"/>
	<path clip-path="url(#SVGID_4_)" fill="#FCB715" d="M1262.485,121.348c0-0.222,0.042-0.431,0.128-0.627
		c0.084-0.196,0.2-0.366,0.346-0.51c0.147-0.144,0.318-0.259,0.515-0.344c0.195-0.085,0.404-0.128,0.627-0.128
		s0.432,0.043,0.628,0.128s0.366,0.2,0.513,0.344c0.147,0.144,0.264,0.314,0.348,0.51c0.086,0.196,0.128,0.405,0.128,0.627
		c0,0.222-0.042,0.43-0.128,0.623c-0.084,0.195-0.2,0.364-0.348,0.508c-0.146,0.144-0.316,0.257-0.513,0.339
		c-0.196,0.084-0.405,0.125-0.628,0.125s-0.432-0.041-0.627-0.125c-0.196-0.082-0.367-0.195-0.515-0.339
		c-0.146-0.144-0.262-0.313-0.346-0.508C1262.527,121.778,1262.485,121.57,1262.485,121.348 M1262.74,121.348
		c0,0.185,0.035,0.359,0.107,0.525c0.069,0.165,0.167,0.31,0.29,0.436c0.122,0.125,0.266,0.223,0.433,0.294
		c0.165,0.07,0.341,0.105,0.53,0.105c0.188,0,0.366-0.035,0.531-0.105c0.164-0.071,0.31-0.169,0.433-0.294
		c0.123-0.126,0.219-0.271,0.292-0.436c0.069-0.166,0.104-0.34,0.104-0.525c0-0.188-0.034-0.366-0.104-0.531
		c-0.073-0.165-0.169-0.309-0.292-0.432s-0.269-0.221-0.433-0.291c-0.165-0.071-0.343-0.106-0.531-0.106
		c-0.189,0-0.365,0.035-0.53,0.106c-0.167,0.07-0.311,0.168-0.433,0.291c-0.123,0.123-0.221,0.267-0.29,0.432
		C1262.775,120.982,1262.74,121.16,1262.74,121.348 M1264.49,122.234l-0.39-0.701h-0.254v0.701h-0.434v-1.814h0.78
		c0.085,0,0.167,0.009,0.248,0.029c0.081,0.018,0.153,0.049,0.218,0.091c0.067,0.042,0.12,0.101,0.161,0.174
		c0.04,0.073,0.06,0.164,0.06,0.273c0,0.123-0.033,0.224-0.103,0.304c-0.069,0.081-0.155,0.14-0.258,0.178l0.48,0.765H1264.49z
		 M1264.178,121.221c0.066,0,0.127-0.021,0.181-0.064s0.082-0.099,0.082-0.17c0-0.076-0.031-0.13-0.093-0.163
		c-0.062-0.033-0.117-0.049-0.17-0.049h-0.332v0.446H1264.178z"/>
</g>
<g>
	<defs>
		<rect id="SVGID_5_" x="29.103" y="145.824" width="189.206" height="192.263"/>
	</defs>
	<clipPath id="SVGID_6_">
		<use xlink:href="#SVGID_5_"  overflow="visible"/>
	</clipPath>
	<rect x="122.843" y="179.788" clip-path="url(#SVGID_6_)" fill="#FFFFFF" width="2.659" height="9.309"/>
	<rect x="60.31" y="241.897" clip-path="url(#SVGID_6_)" fill="#FFFFFF" width="9.309" height="2.66"/>
	<rect x="122.842" y="298.395" clip-path="url(#SVGID_6_)" fill="#FFFFFF" width="2.66" height="9.311"/>
	<rect x="178.805" y="241.897" clip-path="url(#SVGID_6_)" fill="#FFFFFF" width="9.309" height="2.66"/>
</g>
<g>
	<defs>
		<rect id="SVGID_7_" x="34.25" y="151.055" width="178.911" height="181.8"/>
	</defs>
	<clipPath id="SVGID_8_">
		<use xlink:href="#SVGID_7_"  overflow="visible"/>
	</clipPath>
	<path clip-path="url(#SVGID_8_)" fill="#FFFFFF" d="M102.271,241.216c7.768-4.804,17.436-10.783,17.436-22.049
		c0-10.837-8.887-18.408-21.61-18.408c-15.564,0-21.567,11.778-21.815,12.279l-0.569,1.15l10.721,6.616l0.727-1.255
		c0.035-0.062,3.601-6.096,9.974-6.096c3.999,0,8.035,2.042,8.035,6.605c0,4.093-4.946,7.277-10.672,10.965
		c-8.18,5.267-18.362,11.824-18.362,24.488c0,1.525,0.217,3.042,0.445,4.645l0.264,1.864h43.824v-11.806H91.891
		C92.974,246.966,97.328,244.272,102.271,241.216"/>
	<path clip-path="url(#SVGID_8_)" fill="#FFFFFF" d="M165.708,235.726v-33.996h-15.501l-27.46,37.209v8.268h29.035v14.813h13.926
		v-14.813h8.046v-11.48H165.708z M138.813,235.726l12.703-16.273c0.09-0.119,0.18-0.241,0.269-0.362
		c-0.001,0.079-0.002,0.159-0.002,0.238v16.397H138.813z"/>
	<polygon clip-path="url(#SVGID_8_)" fill="#FFFFFF" points="90.283,273.646 82.702,273.646 82.702,265.417 76.761,265.417 
		76.761,286.491 82.702,286.491 82.702,278.436 90.283,278.436 90.283,286.491 96.224,286.491 96.224,265.417 90.283,265.417 	"/>
	<path clip-path="url(#SVGID_8_)" fill="#FFFFFF" d="M111.3,265.072c-6.771,0-11.877,4.623-11.877,10.754
		c0,6.275,5.106,11.01,11.877,11.01s11.876-4.734,11.876-11.01C123.176,269.695,118.071,265.072,111.3,265.072 M111.3,281.732
		c-3.224,0-5.75-2.596-5.75-5.906c0-3.168,2.526-5.65,5.75-5.65c3.224,0,5.749,2.482,5.749,5.65
		C117.048,279.137,114.523,281.732,111.3,281.732"/>
	<path clip-path="url(#SVGID_8_)" fill="#FFFFFF" d="M139.214,278.674c0,1.943-1.314,3.059-3.605,3.059
		c-2.29,0-3.604-1.115-3.604-3.059v-13.257h-5.94v13.257c0,4.883,3.849,8.162,9.576,8.162c5.691,0,9.514-3.279,9.514-8.162v-13.257
		h-5.941V278.674z"/>
</g>
<g>
	<defs>
		<rect id="SVGID_9_" x="34.631" y="151.055" width="178.148" height="181.8"/>
	</defs>
	<clipPath id="SVGID_10_">
		<use xlink:href="#SVGID_9_"  overflow="visible"/>
	</clipPath>
	<path clip-path="url(#SVGID_10_)" fill="#FFFFFF" d="M163.707,278.917c-0.317-0.519-0.556-0.863-0.701-1.061
		c1.968-1.047,3.225-3.259,3.225-5.715c0-2.992-1.556-5.26-4.269-6.22c-1.039-0.373-2.192-0.504-4.405-0.504h-7.992v21.073h5.941
		v-6.935h2.153l3.948,6.935h6.651L163.707,278.917z M155.506,270.234h1.584c2.599,0,3.107,0.814,3.107,2.225
		c0,1.449-0.94,2.282-2.578,2.282h-2.113V270.234z"/>
	<path clip-path="url(#SVGID_10_)" fill="#FCB525" d="M188.431,181.937l-15.117,14.236c12.059,12.806,18.701,29.578,18.701,47.224
		c0,37.877-30.644,68.693-68.31,68.693c-37.665,0-68.308-30.816-68.308-68.693s30.643-68.693,68.308-68.693
		c6.68,0,13.216,0.955,19.511,2.84l-3.055,6.364l36.336-2.77l-20.566-30.083l-3.646,7.595c-9.174-3.124-18.763-4.711-28.58-4.711
		c-49.115,0-89.073,40.131-89.073,89.458c0,49.329,39.958,89.458,89.073,89.458c49.116,0,89.075-40.129,89.075-89.458
		C212.78,220.438,204.132,198.611,188.431,181.937"/>
</g>
<g>
	<defs>
		<rect id="SVGID_11_" x="34.25" y="151.055" width="178.911" height="181.8"/>
	</defs>
	<clipPath id="SVGID_12_">
		<use xlink:href="#SVGID_11_"  overflow="visible"/>
	</clipPath>
	<path clip-path="url(#SVGID_12_)" fill="#E11F26" d="M67.226,288.834l2.331,2.471l-2.36,4.785c-0.357,0.73-0.978,1.809-0.978,1.809
		l0.025,0.026c0,0,1.111-0.559,1.861-0.873l4.912-2.079l2.332,2.47l-7.896,8.881l-2.148-2.274l3.607-3.946
		c0.602-0.666,1.444-1.366,1.444-1.366l-0.024-0.024c0,0-1.198,0.541-1.937,0.844l-3.411,1.378l-1.841-1.951l1.572-3.329
		c0.346-0.719,0.954-1.883,0.954-1.883l-0.025-0.026c0,0-0.745,0.803-1.444,1.363l-4.147,3.373l-2.16-2.288L67.226,288.834z"/>
	<path clip-path="url(#SVGID_12_)" fill="#E11F26" d="M81.992,302.227c3.14,2.247,3.896,6.047,1.922,8.807
		c-2.023,2.828-5.901,3.392-9.042,1.144c-3.141-2.247-3.859-6.099-1.835-8.927C75.012,300.489,78.851,299.979,81.992,302.227
		 M76.414,310.022c1.555,1.112,3.693,0.771,4.867-0.872c1.128-1.576,0.725-3.656-0.831-4.77c-1.557-1.113-3.654-0.824-4.781,0.752
		C74.494,306.777,74.857,308.909,76.414,310.022"/>
	<path clip-path="url(#SVGID_12_)" fill="#E11F26" d="M88.476,306.737l4.234,2.048c2.302,1.113,3.45,2.845,2.561,4.679
		c-0.431,0.896-1.339,1.578-2.431,1.62l-0.015,0.03c1.14,1.01,1.097,2.333,0.642,3.271c-1.126,2.325-3.63,2.163-5.915,1.058
		l-4.234-2.047L88.476,306.737z M88.908,317.339c0.82,0.398,1.476,0.07,1.764-0.525c0.288-0.595,0.14-1.276-0.68-1.672l-1.707-0.825
		l-1.068,2.206L88.908,317.339z M90.743,312.93c0.708,0.344,1.246,0.015,1.491-0.492c0.238-0.492,0.134-1.059-0.622-1.424
		l-1.402-0.679l-0.915,1.894L90.743,312.93z"/>
	
		<rect x="96.838" y="311.593" transform="matrix(-0.9454 -0.326 0.326 -0.9454 87.9076 649.7556)" clip-path="url(#SVGID_12_)" fill="#E11F26" width="3.13" height="11.836"/>
	<polygon clip-path="url(#SVGID_12_)" fill="#E11F26" points="104.273,313.237 107.323,313.938 105.227,323.056 110.315,324.228 
		109.759,326.647 101.621,324.776 	"/>
	<polygon clip-path="url(#SVGID_12_)" fill="#E11F26" points="113.376,315.195 121.347,315.972 121.105,318.445 116.248,317.971 
		116.038,320.113 119.917,320.492 119.675,322.964 115.796,322.586 115.578,324.809 120.685,325.308 120.443,327.78 
		112.222,326.978 	"/>
	<path clip-path="url(#SVGID_12_)" fill="#E11F26" d="M129.322,323.95c0,0,1.563,1.073,3.165,0.911
		c0.64-0.063,1.312-0.363,1.239-1.071c-0.14-1.402-5.863-0.776-6.23-4.4c-0.219-2.174,1.61-3.807,4.138-4.061
		c2.739-0.275,4.226,0.922,4.226,0.922l-1.079,2.489c0,0-1.386-0.909-2.917-0.756c-0.64,0.066-1.324,0.4-1.259,1.06
		c0.15,1.482,5.853,0.642,6.228,4.367c0.199,1.96-1.249,3.819-4.114,4.107c-2.988,0.301-4.813-1.214-4.813-1.214L129.322,323.95z"/>
	<polygon clip-path="url(#SVGID_12_)" fill="#E11F26" points="137.53,314.774 145.318,312.891 145.902,315.307 141.156,316.453 
		141.663,318.545 145.452,317.629 146.037,320.044 142.246,320.96 142.773,323.131 147.763,321.927 148.346,324.34 140.316,326.282 
			"/>
	<path clip-path="url(#SVGID_12_)" fill="#E11F26" d="M147.096,312.35l4.125-1.676c1.209-0.491,1.82-0.649,2.409-0.675
		c1.534-0.067,2.833,0.708,3.482,2.304c0.473,1.165,0.394,2.681-0.557,3.711l0.011,0.029c0,0,0.248,0.134,0.717,0.479l3.859,2.9
		l-3.23,1.312l-3.605-2.843l-1.359,0.552l1.502,3.696l-2.899,1.177L147.096,312.35z M153.273,315.631
		c0.927-0.378,1.314-1.089,0.958-1.963c-0.335-0.827-0.866-1.184-2.325-0.594l-0.976,0.398l1.083,2.669L153.273,315.631z"/>
	<path clip-path="url(#SVGID_12_)" fill="#E11F26" d="M155.867,308.896l2.921-1.732l5.376,4.644
		c0.597,0.514,1.389,1.393,1.389,1.393l0.03-0.019c0,0-0.393-1.115-0.558-1.884l-1.47-6.963l2.875-1.705l2.167,12.478l-2.798,1.662
		L155.867,308.896z"/>
	
		<rect x="170.351" y="299.699" transform="matrix(-0.7939 0.608 -0.608 -0.7939 494.227 443.7191)" clip-path="url(#SVGID_12_)" fill="#E11F26" width="3.129" height="11.836"/>
	<path clip-path="url(#SVGID_12_)" fill="#E11F26" d="M175.599,294.256c2.258-2.219,4.591-2.165,4.591-2.165l0.498,2.573
		c0,0-1.868,0.141-3.131,1.381c-1.746,1.717-1.403,3.725-0.209,4.939c1.231,1.254,3.388,1.665,5.072,0.01
		c1.378-1.353,1.403-3.419,1.403-3.419l2.632,0.383c0,0,0.105,2.685-2.28,5.026c-2.856,2.808-6.628,2.821-9.088,0.317
		C172.673,300.843,172.857,296.949,175.599,294.256"/>
	<polygon clip-path="url(#SVGID_12_)" fill="#E11F26" points="179.959,289.912 184.782,283.516 186.766,285.013 183.825,288.91 
		185.545,290.206 187.892,287.094 189.875,288.589 187.526,291.702 189.311,293.048 192.401,288.95 194.383,290.445 
		189.409,297.042 	"/>
</g>
<text transform="matrix(1 0 0 1 73.9707 367.1396)" fill="#FFFFFF" font-family="'Gotham-Black'" font-size="28.9299">13 17 60</text>
<g>
	<defs>
		<rect id="SVGID_13_" width="20.697" height="20.35"/>
	</defs>
	<clipPath id="SVGID_14_">
		<use xlink:href="#SVGID_13_"  overflow="visible"/>
	</clipPath>
	<path clip-path="url(#SVGID_14_)" fill="#FCB525" d="M20.078,15.893l-3.116-3.117c-0.622-0.619-1.65-0.601-2.291,0.043l-1.571,1.57
		c-0.099-0.055-0.201-0.111-0.309-0.173c-0.993-0.551-2.35-1.303-3.779-2.73C7.58,10.052,6.826,8.692,6.275,7.699
		c-0.06-0.104-0.115-0.204-0.168-0.302l1.053-1.054l0.519-0.518C8.32,5.183,8.34,4.155,7.72,3.536L4.603,0.417
		c-0.618-0.62-1.647-0.6-2.291,0.043L1.434,1.344l0.023,0.024C1.162,1.745,0.917,2.177,0.734,2.645
		C0.564,3.09,0.459,3.515,0.413,3.94C-0.001,7.352,1.56,10.469,5.79,14.701c5.85,5.848,10.564,5.408,10.768,5.384
		c0.442-0.051,0.867-0.157,1.299-0.325c0.462-0.18,0.896-0.426,1.27-0.72l0.02,0.019l0.891-0.873
		C20.678,17.541,20.696,16.515,20.078,15.893"/>
</g>
<g>
	<defs>
		<rect id="SVGID_15_" x="-37.541" y="88.868" width="1417.323" height="294.307"/>
	</defs>
	<clipPath id="SVGID_16_">
		<use xlink:href="#SVGID_15_"  overflow="visible"/>
	</clipPath>
	
		<line clip-path="url(#SVGID_16_)" fill="none" stroke="#FFFFFF" stroke-width="2.725" stroke-miterlimit="10" x1="32.647" y1="350.625" x2="32.647" y2="364.521"/>
	
		<line clip-path="url(#SVGID_16_)" fill="none" stroke="#FFFFFF" stroke-width="2.725" stroke-miterlimit="10" x1="209.521" y1="349.081" x2="209.521" y2="366.064"/>
</g>
</svg>
