<?xml version="1.0" encoding="UTF-8"?>
<svg width="300px" height="99px" viewBox="0 0 300 99" version="1.1" xmlns="http://www.w3.org/2000/svg" xmlns:xlink="http://www.w3.org/1999/xlink">
    <!-- Generator: Sketch 48 (47235) - http://www.bohemiancoding.com/sketch -->
    <title>1</title>
    <desc>Created with Sketch.</desc>
    <defs>
        <polygon id="path-1" points="0.2915 0.2835 84.4195 0.2835 84.4195 30 0.2915 30"></polygon>
        <polygon id="path-3" points="0 98.5941 300 98.5941 300 0.0001 0 0.0001"></polygon>
    </defs>
    <g id="Page-1" stroke="none" stroke-width="1" fill="none" fill-rule="evenodd">
        <g id="1">
            <g id="Group-3" transform="translate(1.000000, 68.594100)">
                <mask id="mask-2" fill="white">
                    <use xlink:href="#path-1"></use>
                </mask>
                <g id="Clip-2"></g>
                <path d="M76.8565,0.2835 C69.4675,12.3905 56.6215,19.6145 42.4445,19.6145 C28.2675,19.6145 15.4215,12.3905 8.0325,0.2835 L0.2915,7.4435 C4.6145,13.9115 10.3985,19.3465 17.1445,23.2405 C24.8035,27.6625 33.5535,30.0005 42.4445,30.0005 C51.3345,30.0005 60.0835,27.6625 67.7455,23.2405 C74.2965,19.4595 80.1385,13.5035 84.4195,7.2785 L76.8565,0.2835 Z" id="Fill-1" fill="#244596" mask="url(#mask-2)"></path>
            </g>
            <mask id="mask-4" fill="white">
                <use xlink:href="#path-3"></use>
            </mask>
            <g id="Clip-5"></g>
            <polygon id="Fill-4" fill="#DCAF2A" mask="url(#mask-4)" points="9.9 2.5491 76.989 2.5491 76.989 0.0001 9.9 0.0001"></polygon>
            <path d="M76.9893,26.8483 C76.8623,34.3293 78.6203,64.0183 43.4453,84.7903 C8.2693,64.0183 10.0283,34.3293 9.9003,26.8483 L9.9003,2.5483 L76.9893,2.5483 L76.9893,26.8483 Z" id="Fill-6" fill="#244596" mask="url(#mask-4)"></path>
            <path d="M14.3345,52.9235 C18.5925,63.3695 26.9645,75.0585 43.4455,84.7905 C59.9255,75.0585 68.2975,63.3695 72.5555,52.9235 L43.4445,26.0025 L14.3345,52.9235 Z" id="Fill-7" fill="#DCAF2A" mask="url(#mask-4)"></path>
            <path d="M37.979,9.1823 L37.979,22.1193 C34.506,20.8433 30.318,21.8593 28.096,23.4953 L28.096,10.6803 C30.048,8.7793 34.648,7.9293 37.979,9.1823" id="Fill-8" fill="#FEFEFE" mask="url(#mask-4)"></path>
            <path d="M17.2574,9.2164 L17.2574,22.1524 C20.7284,20.8774 24.9164,21.8934 27.1394,23.5294 L27.1394,10.7134 C25.1884,8.8134 20.5884,7.9634 17.2574,9.2164" id="Fill-9" fill="#FEFEFE" mask="url(#mask-4)"></path>
            <path d="M40.9566,19.4762 L40.9286,19.4722 C40.4316,19.4182 40.0526,19.3902 39.7946,19.3752 L39.7946,15.1572 C40.0466,15.1712 40.4146,15.1992 40.8996,15.2502 L40.9566,15.2522 C41.9486,15.2972 42.0846,14.7912 42.0846,14.7912 C41.8596,14.2682 41.3596,14.0322 40.9566,13.9992 L40.9286,13.9962 C40.4316,13.9422 40.0526,13.9142 39.7946,13.8982 L39.7946,10.3342 L38.9166,10.3342 L38.9166,23.3412 C34.1376,22.3212 30.5246,22.8462 27.6156,24.9802 C24.7086,22.8462 21.0956,22.3222 16.3166,23.3412 L16.3166,10.3342 L15.4386,10.3342 L15.4386,13.8982 C15.2546,13.9092 15.0106,13.9262 14.7026,13.9552 L14.7026,13.8222 C14.7026,13.7232 14.6216,13.6422 14.5066,13.6432 L13.3136,13.7722 C13.2176,13.7782 13.1436,13.8562 13.1436,13.9532 L13.1436,15.4782 C13.1436,15.5782 13.2256,15.6582 13.3486,15.6552 L14.5356,15.5382 C14.6276,15.5302 14.7026,15.4502 14.7026,15.3572 L14.7026,15.2112 C15.0106,15.1832 15.2546,15.1652 15.4386,15.1552 L15.4386,19.3752 C15.2546,19.3862 15.0106,19.4042 14.7026,19.4322 L14.7026,19.2972 C14.7026,19.1992 14.6216,19.1202 14.5066,19.1202 L13.3136,19.2492 C13.2176,19.2532 13.1436,19.3322 13.1436,19.4322 L13.1436,20.9542 C13.1436,21.0532 13.2256,21.1342 13.3486,21.1312 L14.5356,21.0122 C14.6276,21.0052 14.7026,20.9272 14.7026,20.8322 L14.7026,20.6882 C15.0106,20.6602 15.2546,20.6422 15.4386,20.6312 L15.4386,24.4412 L15.9776,24.3162 C20.8986,23.1682 24.5116,23.6642 27.3456,25.8742 L27.6156,26.0882 L27.8876,25.8742 C30.7216,23.6642 34.3346,23.1682 39.2566,24.3162 L39.7946,24.4412 L39.7946,20.6322 C40.0466,20.6482 40.4146,20.6752 40.8996,20.7272 L40.9566,20.7302 C41.9486,20.7742 42.0846,20.2682 42.0846,20.2682 C41.8596,19.7462 41.3596,19.5092 40.9566,19.4772 L40.9566,19.4762 Z" id="Fill-10" fill="#FEFEFE" mask="url(#mask-4)"></path>
            <path d="M16.1421,85.8229 C15.6731,86.4299 14.8821,86.5279 14.0381,85.8759 C13.5851,85.5259 13.2981,85.1499 13.1231,84.8389 L13.5741,84.2559 C13.6081,84.2119 13.6601,84.2139 13.7141,84.2629 L13.9891,84.5059 C14.0081,84.5209 14.0251,84.5499 14.0031,84.5869 L13.8121,84.8539 C13.9971,85.0829 14.2021,85.2869 14.3561,85.4059 C14.7941,85.7439 15.2521,85.8589 15.5611,85.4599 C15.8931,85.0299 15.7961,84.8169 15.2581,83.9779 C14.8751,83.3589 14.7161,82.7979 15.1291,82.2619 C15.5951,81.6599 16.3621,81.6129 17.1771,82.2429 C17.4751,82.4729 17.7371,82.7219 17.9551,82.9989 L17.4671,83.6299 C17.4341,83.6739 17.3811,83.6719 17.3271,83.6219 L17.0531,83.3789 C17.0341,83.3639 17.0171,83.3359 17.0381,83.2989 L17.2301,83.0309 C17.1111,82.9159 16.9881,82.8049 16.8681,82.7129 C16.4191,82.3659 15.9651,82.3459 15.7081,82.6779 C15.4401,83.0259 15.5461,83.3069 16.0231,84.0539 C16.5271,84.8269 16.5151,85.3419 16.1421,85.8229" id="Fill-11" fill="#FEFEFE" mask="url(#mask-4)"></path>
            <path d="M20.8155,89.3659 C20.8415,89.3819 20.8485,89.4059 20.8335,89.4319 L20.4555,90.0729 L17.9105,88.5729 C17.8695,88.5489 17.8665,88.5049 17.9025,88.4549 L18.0735,88.2019 C18.0825,88.1859 18.1055,88.1719 18.1405,88.1849 L18.2985,88.2639 L20.2275,84.9899 L20.0705,84.8839 C20.0345,84.8619 20.0395,84.8159 20.0725,84.7719 L20.2435,84.5189 C20.2585,84.4929 20.2835,84.4859 20.3095,84.5019 L22.7655,85.9489 L22.3875,86.5889 C22.3625,86.6309 22.3195,86.6339 22.2705,86.5969 L22.0165,86.4269 C22.0015,86.4179 21.9865,86.3939 21.9995,86.3599 L22.0785,86.2019 L20.7725,85.4319 L20.0395,86.6759 L21.5195,87.5469 L21.2345,88.0299 L19.7555,87.1579 L18.9485,88.5269 L20.3445,89.3489 L20.4505,89.1929 C20.4725,89.1569 20.5175,89.1619 20.5625,89.1949 L20.8155,89.3659 Z" id="Fill-12" fill="#FEFEFE" mask="url(#mask-4)"></path>
            <path d="M26.1436,91.8551 C26.1716,91.8681 26.1816,91.8911 26.1696,91.9191 L25.8746,92.6011 L23.1626,91.4311 C23.1176,91.4131 23.1096,91.3691 23.1396,91.3161 L23.2766,91.0431 C23.2836,91.0271 23.3046,91.0091 23.3406,91.0181 L23.5076,91.0771 L25.0136,87.5861 L24.8446,87.5011 C24.8056,87.4841 24.8056,87.4371 24.8326,87.3891 L24.9706,87.1171 C24.9816,87.0881 25.0056,87.0801 25.0346,87.0911 L27.6516,88.2201 L27.3576,88.9031 C27.3376,88.9481 27.2946,88.9561 27.2416,88.9251 L26.9696,88.7891 C26.9526,88.7811 26.9346,88.7601 26.9436,88.7241 L27.0016,88.5571 L25.6096,87.9571 L25.0376,89.2821 L26.6146,89.9621 L26.3936,90.4771 L24.8156,89.7961 L24.1856,91.2561 L25.6736,91.8981 L25.7606,91.7291 C25.7766,91.6901 25.8236,91.6901 25.8716,91.7171 L26.1436,91.8551 Z" id="Fill-13" fill="#FEFEFE" mask="url(#mask-4)"></path>
            <path d="M33.3628,90.0153 C33.4098,90.0283 33.4228,90.0703 33.4008,90.1263 L33.3008,90.4143 C33.2958,90.4323 33.2778,90.4523 33.2408,90.4493 L33.0678,90.4123 L31.1608,91.5453 L31.9968,94.0583 L32.1698,94.1193 C32.2108,94.1303 32.2168,94.1763 32.1958,94.2283 L32.0958,94.5163 C32.0878,94.5453 32.0648,94.5583 32.0358,94.5493 L31.4088,94.3733 L30.5838,91.8893 L30.0528,92.2023 L29.7118,93.4143 L29.8898,93.4773 C29.9308,93.4893 29.9368,93.5353 29.9158,93.5863 L29.8158,93.8743 C29.8078,93.9043 29.7848,93.9163 29.7558,93.9083 L28.7538,93.6253 C28.7068,93.6133 28.6938,93.5713 28.7158,93.5143 L28.8158,93.2263 C28.8208,93.2083 28.8388,93.1883 28.8758,93.1923 L29.0488,93.2283 L30.0778,89.5723 L29.8998,89.5083 C29.8588,89.4963 29.8528,89.4513 29.8738,89.4003 L29.9738,89.1123 C29.9818,89.0823 30.0048,89.0703 30.0338,89.0783 L31.0358,89.3603 C31.0828,89.3733 31.0958,89.4143 31.0738,89.4723 L30.9738,89.7603 C30.9688,89.7783 30.9508,89.7973 30.9138,89.7933 L30.7408,89.7573 L30.2798,91.3933 L32.2758,90.1903 L32.0978,90.1263 C32.0568,90.1163 32.0508,90.0703 32.0708,90.0183 L32.1718,89.7303 C32.1798,89.7013 32.2018,89.6883 32.2318,89.6973 L33.3628,90.0153 Z" id="Fill-14" fill="#FEFEFE" mask="url(#mask-4)"></path>
            <path d="M44.0914,91.2575 C44.1404,91.2595 44.1624,91.2975 44.1534,91.3585 L44.1194,91.6605 C44.1184,91.6795 44.1054,91.7025 44.0684,91.7075 L43.8974,91.7105 L42.6574,95.7015 C42.6144,95.8335 42.5014,95.9075 42.3674,95.9005 L41.8934,95.8575 C41.8264,95.8545 41.8044,95.8105 41.7904,95.7415 L41.1484,92.1405 L41.1414,92.1405 L40.1494,95.4975 C40.1124,95.6175 40.0254,95.7835 39.8124,95.7675 L39.3564,95.7255 C39.3014,95.7225 39.2674,95.6905 39.2534,95.6105 L38.4704,91.4275 L38.2894,91.4055 C38.2464,91.4035 38.2304,91.3605 38.2394,91.3055 L38.2734,91.0025 C38.2754,90.9725 38.2944,90.9545 38.3244,90.9565 L39.3284,91.0085 C39.3774,91.0115 39.3994,91.0495 39.3904,91.1105 L39.3564,91.4125 C39.3554,91.4315 39.3414,91.4545 39.3044,91.4585 L39.1334,91.4625 L39.7284,95.0495 L39.7334,95.0495 L40.7984,91.3655 C40.8584,91.1555 40.9654,91.0875 41.1114,91.1015 L41.4564,91.1385 C41.5174,91.1475 41.5394,91.1795 41.5534,91.2595 L42.2344,95.1805 L42.2394,95.1805 L43.2404,91.6765 L43.0584,91.6545 C43.0154,91.6525 42.9994,91.6095 43.0084,91.5545 L43.0424,91.2515 C43.0444,91.2205 43.0634,91.2035 43.0944,91.2055 L44.0914,91.2575 Z" id="Fill-15" fill="#FEFEFE" mask="url(#mask-4)"></path>
            <path d="M47.9078,95.2301 C47.9498,95.2271 47.9718,95.2671 47.9708,95.3231 L47.9778,95.6271 C47.9808,95.6581 47.9638,95.6771 47.9338,95.6801 L46.8958,95.7671 C46.8478,95.7721 46.8208,95.7381 46.8218,95.6761 L46.8138,95.3721 C46.8128,95.3531 46.8228,95.3281 46.8578,95.3191 L47.0328,95.2921 L46.7148,91.5061 L46.5248,91.5091 C46.4828,91.5131 46.4618,91.4721 46.4628,91.4171 L46.4548,91.1131 C46.4528,91.0831 46.4698,91.0621 46.4998,91.0601 L47.5368,90.9721 C47.5858,90.9681 47.6128,91.0021 47.6118,91.0641 L47.6188,91.3691 C47.6208,91.3871 47.6108,91.4131 47.5748,91.4211 L47.3998,91.4491 L47.7188,95.2341 L47.9078,95.2301 Z" id="Fill-16" fill="#FEFEFE" mask="url(#mask-4)"></path>
            <path d="M53.6539,93.4762 C53.7989,94.2302 53.3489,94.8872 52.3029,95.0882 C51.7399,95.1972 51.2689,95.1632 50.9199,95.0872 L50.7809,94.3652 C50.7709,94.3112 50.8059,94.2732 50.8789,94.2652 L51.2429,94.2192 C51.2669,94.2152 51.2989,94.2212 51.3129,94.2622 L51.3869,94.5822 C51.6799,94.5942 51.9679,94.5762 52.1599,94.5392 C52.7039,94.4342 53.0919,94.1672 52.9969,93.6712 C52.8939,93.1392 52.6709,93.0712 51.6869,92.9192 C50.9679,92.7972 50.4429,92.5452 50.3149,91.8812 C50.1709,91.1342 50.6429,90.5292 51.6539,90.3342 C52.0249,90.2622 52.3839,90.2312 52.7349,90.2492 L52.8859,91.0332 C52.8959,91.0862 52.8599,91.1242 52.7869,91.1322 L52.4239,91.1782 C52.3999,91.1822 52.3669,91.1762 52.3529,91.1352 L52.2789,90.8152 C52.1139,90.8282 51.9509,90.8472 51.8009,90.8762 C51.2459,90.9832 50.9299,91.3102 51.0099,91.7232 C51.0929,92.1542 51.3739,92.2602 52.2489,92.3962 C53.1619,92.5302 53.5389,92.8782 53.6539,93.4762" id="Fill-17" fill="#FEFEFE" mask="url(#mask-4)"></path>
            <path d="M58.1275,92.9889 C59.3515,92.5779 59.3505,91.6399 59.0425,90.7219 C58.7015,89.7069 58.2315,89.1129 56.9045,89.5589 L56.4025,89.7269 L57.5625,93.1789 L58.1275,92.9889 Z M56.7395,89.0499 C58.5285,88.4479 59.2855,89.1509 59.7395,90.5019 C60.3025,92.1809 59.6925,93.0409 58.1405,93.5619 L56.9175,93.9729 C56.8715,93.9889 56.8355,93.9629 56.8225,93.9029 L56.7425,93.6079 C56.7365,93.5909 56.7405,93.5639 56.7735,93.5469 L56.9375,93.4789 L55.7265,89.8779 L55.5445,89.9259 C55.5035,89.9389 55.4725,89.9049 55.4605,89.8509 L55.3815,89.5559 C55.3715,89.5279 55.3825,89.5049 55.4125,89.4949 L56.7395,89.0499 Z" id="Fill-18" fill="#FEFEFE" mask="url(#mask-4)"></path>
            <path d="M62.6856,89.237 C63.0426,89.949 63.6706,90.792 64.5636,90.344 C65.3036,89.972 65.3076,89.18 64.8016,88.175 C64.4356,87.445 63.8056,86.637 62.9296,87.078 C62.0376,87.525 62.3306,88.529 62.6856,89.237 M65.4496,87.863 C66.1726,89.304 65.8866,90.32 64.8196,90.855 C63.7646,91.385 62.7566,90.992 62.0436,89.572 C61.5296,88.55 61.3536,87.235 62.6816,86.569 C63.8176,85.998 64.8106,86.59 65.4496,87.863" id="Fill-19" fill="#FEFEFE" mask="url(#mask-4)"></path>
            <path d="M72.7793,85.2916 C72.8143,85.2676 72.8533,85.2916 72.8813,85.3396 L73.0423,85.5986 C73.0593,85.6226 73.0553,85.6486 73.0303,85.6666 L72.1963,86.2586 C72.1563,86.2866 72.1153,86.2706 72.0853,86.2176 L71.9243,85.9596 C71.9133,85.9436 71.9093,85.9176 71.9363,85.8916 L72.0683,85.7826 L70.3273,83.4486 L70.9583,86.3766 C70.9813,86.4716 70.9813,86.5766 70.9063,86.6296 C70.8523,86.6686 70.7673,86.7286 70.7143,86.7586 C70.6563,86.7926 70.6163,86.7986 70.5643,86.7686 L67.9103,85.1656 L69.5303,87.5836 L69.6923,87.4846 C69.7273,87.4596 69.7663,87.4836 69.7923,87.5316 L69.9543,87.7906 C69.9723,87.8156 69.9673,87.8416 69.9433,87.8586 L69.1293,88.4376 C69.0893,88.4656 69.0483,88.4496 69.0183,88.3956 L68.8563,88.1376 C68.8453,88.1226 68.8423,88.0966 68.8683,88.0696 L69.0053,87.9576 L66.9143,84.7826 L66.7583,84.8786 C66.7233,84.9026 66.6843,84.8786 66.6573,84.8306 L66.4953,84.5716 C66.4783,84.5476 66.4823,84.5216 66.5073,84.5046 L67.1033,84.0816 C67.1283,84.0626 67.1533,84.0676 67.1773,84.0806 L70.3003,85.9546 L69.5283,82.4486 C69.5163,82.3906 69.5303,82.3576 69.5743,82.3256 L70.1953,81.8856 C70.2353,81.8566 70.2763,81.8726 70.3063,81.9256 L70.4673,82.1846 C70.4783,82.1996 70.4833,82.2266 70.4563,82.2526 L70.3203,82.3646 L72.6233,85.3886 L72.7793,85.2916 Z" id="Fill-20" fill="#FEFEFE" mask="url(#mask-4)"></path>
            <path d="M3.1963,72.5309 L8.1293,67.9739 L9.2483,66.9209 L9.8733,67.9549 C10.9493,69.7389 12.1483,71.4119 13.4513,72.9719 L15.1243,71.4499 C12.8553,68.7129 11.0043,65.6369 9.6453,62.3029 C9.1333,61.0469 8.6993,59.7659 8.3403,58.4689 L5.6563,65.3589 L0.0003,66.1509 C0.0083,66.1759 0.0173,66.1989 0.0263,66.2209 L3.1963,72.5309 Z" id="Fill-21" fill="#244596" mask="url(#mask-4)"></path>
            <path d="M69.6734,9.1823 L69.6734,22.1193 C66.2004,20.8433 62.0124,21.8593 59.7904,23.4953 L59.7904,10.6803 C61.7424,8.7793 66.3434,7.9293 69.6734,9.1823" id="Fill-22" fill="#FEFEFE" mask="url(#mask-4)"></path>
            <path d="M48.9517,9.2164 L48.9517,22.1524 C52.4227,20.8774 56.6107,21.8934 58.8337,23.5294 L58.8337,10.7134 C56.8827,8.8134 52.2827,7.9634 48.9517,9.2164" id="Fill-23" fill="#FEFEFE" mask="url(#mask-4)"></path>
            <path d="M72.6514,19.4762 L72.6224,19.4722 C72.1264,19.4182 71.7474,19.3902 71.4894,19.3752 L71.4894,15.1572 C71.7414,15.1712 72.1094,15.1992 72.5944,15.2502 L72.6514,15.2522 C73.6434,15.2972 73.7794,14.7912 73.7794,14.7912 C73.5544,14.2682 73.0544,14.0322 72.6514,13.9992 L72.6224,13.9962 C72.1264,13.9422 71.7474,13.9142 71.4894,13.8982 L71.4894,10.3342 L70.6114,10.3342 L70.6114,23.3412 C65.8314,22.3212 62.2194,22.8462 59.3104,24.9802 C56.4034,22.8462 52.7904,22.3222 48.0104,23.3412 L48.0104,10.3342 L47.1334,10.3342 L47.1334,13.8982 C46.9484,13.9092 46.7054,13.9262 46.3964,13.9552 L46.3964,13.8222 C46.3964,13.7232 46.3164,13.6422 46.2004,13.6432 L45.0084,13.7722 C44.9124,13.7782 44.8384,13.8562 44.8384,13.9532 L44.8384,15.4782 C44.8384,15.5782 44.9204,15.6582 45.0424,15.6552 L46.2304,15.5382 C46.3224,15.5302 46.3964,15.4502 46.3964,15.3572 L46.3964,15.2112 C46.7054,15.1832 46.9494,15.1652 47.1334,15.1552 L47.1334,19.3752 C46.9484,19.3862 46.7054,19.4042 46.3964,19.4322 L46.3964,19.2972 C46.3964,19.1992 46.3164,19.1202 46.2004,19.1202 L45.0084,19.2492 C44.9124,19.2532 44.8384,19.3322 44.8384,19.4322 L44.8384,20.9542 C44.8384,21.0532 44.9204,21.1342 45.0424,21.1312 L46.2304,21.0122 C46.3224,21.0052 46.3964,20.9272 46.3964,20.8322 L46.3964,20.6882 C46.7054,20.6602 46.9494,20.6422 47.1334,20.6312 L47.1334,24.4412 L47.6724,24.3162 C52.5934,23.1682 56.2054,23.6642 59.0404,25.8742 L59.3104,26.0882 L59.5824,25.8742 C62.4154,23.6642 66.0294,23.1682 70.9504,24.3162 L71.4894,24.4412 L71.4894,20.6322 C71.7414,20.6482 72.1094,20.6752 72.5944,20.7272 L72.6514,20.7302 C73.6434,20.7742 73.7794,20.2682 73.7794,20.2682 C73.5544,19.7462 73.0544,19.5092 72.6514,19.4772 L72.6514,19.4762 Z" id="Fill-24" fill="#FEFEFE" mask="url(#mask-4)"></path>
            <path d="M83.6509,72.5309 L78.7179,67.9739 L77.5989,66.9209 L76.9739,67.9549 C75.8979,69.7389 74.6989,71.4119 73.3959,72.9719 L71.7229,71.4499 C73.9909,68.7129 75.8429,65.6369 77.2019,62.3029 C77.7139,61.0469 78.1479,59.7659 78.5069,58.4689 L81.1909,65.3589 L86.8469,66.1509 C86.8389,66.1759 86.8299,66.1989 86.8209,66.2209 L83.6509,72.5309 Z" id="Fill-25" fill="#244596" mask="url(#mask-4)"></path>
            <path d="M45.1514,63.2575 C47.1314,64.2475 48.8294,64.7375 49.8564,64.6715 C49.8874,64.6705 49.9624,64.6685 49.9944,64.6675 C50.3454,64.6425 50.7984,64.5445 51.1354,64.3405 C51.4434,64.1555 51.6484,63.9595 51.8234,63.7055 C52.0264,63.4075 52.1144,63.1545 52.1304,62.8395 C52.0024,62.8885 51.8754,62.9275 51.7554,62.9575 C51.7244,62.9655 51.6464,62.9805 51.6144,62.9865 C50.4644,63.1675 49.0254,63.0115 47.0384,62.4735 C46.7134,62.8375 46.0454,63.0405 45.3334,62.8705 C45.2744,63.0035 45.2134,63.1295 45.1514,63.2575" id="Fill-26" fill="#FEFEFE" mask="url(#mask-4)"></path>
            <path d="M47.9659,52.3893 C47.9139,52.5143 47.8589,52.6333 47.7899,52.7563 C47.4939,53.2693 47.0879,53.6503 46.6789,53.8513 C46.6839,53.9823 46.6849,54.1133 46.6869,54.2453 C47.5389,53.8743 48.4039,53.4483 49.2649,52.9853 C52.4599,51.2733 54.7139,49.3683 55.4129,48.0143 C55.4309,47.9823 55.4729,47.9053 55.4889,47.8713 C55.6789,47.5063 55.8509,46.9933 55.8509,46.5323 C55.8509,45.7473 55.5179,45.0663 55.0169,44.7003 C54.3569,46.2353 53.1469,47.9723 51.4899,49.5993 C50.3649,50.7043 49.1609,51.6473 47.9659,52.3893" id="Fill-27" fill="#FEFEFE" mask="url(#mask-4)"></path>
            <path d="M47.5342,60.4537 C47.2542,60.7617 46.7672,61.0447 46.1952,61.0957 C46.0792,61.1037 45.9752,61.1107 45.8652,61.1077 C45.8312,61.2247 45.7962,61.3377 45.7582,61.4517 C48.6302,62.2537 51.0302,62.4267 52.2582,62.0327 C52.2882,62.0247 52.3662,62.0027 52.3952,61.9927 C52.7492,61.8797 53.1862,61.6627 53.4802,61.3697 C53.7462,61.1007 53.9072,60.8497 54.0212,60.5437 C54.1522,60.1897 54.1092,59.8897 54.1092,59.8897 C53.9882,59.9737 53.3892,60.1667 53.3892,60.1667 C52.2642,60.5767 50.3412,60.6607 47.5342,60.4537" id="Fill-28" fill="#FEFEFE" mask="url(#mask-4)"></path>
            <path d="M55.6382,53.0036 C54.5782,54.1686 51.8462,55.4636 48.2262,56.3336 C47.9952,56.7036 47.5652,57.0466 47.0172,57.2456 C46.8602,57.3046 46.7012,57.3456 46.5472,57.3726 C46.5332,57.4956 46.5182,57.6106 46.5042,57.7326 C46.7892,57.7226 47.0742,57.7086 47.3612,57.6926 C50.9812,57.4896 53.8282,56.7166 55.0342,55.7846 C55.0642,55.7636 55.1362,55.7116 55.1642,55.6916 C55.4892,55.4386 55.8652,55.0446 56.0602,54.6266 C56.2372,54.2466 56.3062,53.9226 56.3092,53.5606 C56.3122,53.1426 56.2312,52.8356 56.0422,52.5226 C55.9482,52.6536 55.8502,52.7756 55.7552,52.8796 C55.7302,52.9086 55.6652,52.9746 55.6382,53.0036" id="Fill-29" fill="#FEFEFE" mask="url(#mask-4)"></path>
            <path d="M49.3619,65.608 C48.2199,65.582 46.5789,65.065 44.6619,64.109 C44.5729,64.258 44.4849,64.401 44.3909,64.541 C45.8659,65.31 47.1949,65.835 48.2809,66.089 C48.2289,66.148 48.1739,66.206 48.1089,66.266 C47.8799,66.475 47.6369,66.619 47.2969,66.731 C46.9219,66.853 46.4569,66.848 46.1099,66.79 C46.0779,66.786 46.0049,66.77 45.9739,66.764 C45.3309,66.66 44.4779,66.277 43.5049,65.653 C43.3909,65.768 43.2759,65.877 43.1589,65.98 C44.1739,66.654 45.0809,67.099 45.7959,67.28 C45.6109,67.426 45.4239,67.516 45.1579,67.589 C44.8429,67.672 44.4629,67.647 44.1779,67.586 C44.1529,67.582 44.0939,67.565 44.0689,67.56 C43.5739,67.451 42.9369,67.132 42.2169,66.631 C42.0559,66.713 41.8909,66.783 41.7269,66.842 C41.4179,66.934 40.9829,67.021 40.6629,67.021 C39.7059,67.021 38.7969,66.586 37.9879,65.803 C37.9549,65.773 37.7179,66.016 37.7509,66.047 C38.5539,66.925 39.6039,67.421 40.6429,67.421 C40.9799,67.421 41.7979,67.303 42.1019,67.114 C42.9579,67.708 43.6549,67.99 44.2249,68.085 C44.2529,68.089 44.3189,68.103 44.3469,68.107 C44.6619,68.157 45.0819,68.163 45.4239,68.052 C45.7299,67.952 45.9509,67.822 46.1579,67.631 C46.2419,67.553 46.3269,67.47 46.3859,67.391 C46.7479,67.431 47.1819,67.421 47.5429,67.305 C47.9179,67.183 48.1849,67.022 48.4359,66.793 C48.6439,66.601 48.8419,66.424 48.9389,66.214 C49.5019,66.238 49.9439,66.144 49.9439,66.144 C50.1549,66.11 50.3969,66.038 50.5989,65.858 C50.7439,65.727 50.8409,65.608 50.9039,65.45 C50.4579,65.581 49.9709,65.627 49.5729,65.62 C49.5279,65.617 49.4099,65.611 49.3619,65.608" id="Fill-30" fill="#FEFEFE" mask="url(#mask-4)"></path>
            <path d="M51.1885,52.819 C50.2745,53.38 49.3425,53.859 48.4195,54.251 C48.3155,54.43 48.1855,54.611 48.0335,54.78 C47.6225,55.236 47.1295,55.532 46.6725,55.633 C46.6675,55.762 46.6595,55.892 46.6535,56.02 C47.1835,55.9 47.7215,55.763 48.2585,55.619 C51.7565,54.668 54.3805,53.319 55.3675,52.155 C55.3905,52.129 55.4515,52.063 55.4735,52.035 C55.7405,51.72 56.0245,51.259 56.1285,50.81 C56.3045,50.047 56.1675,49.437 55.7625,48.969 C54.7735,50.314 53.1665,51.605 51.1885,52.819" id="Fill-31" fill="#FEFEFE" mask="url(#mask-4)"></path>
            <path d="M55.3609,56.3424 C55.3309,56.3664 55.2429,56.4304 55.2139,56.4534 C54.0569,57.3464 51.4779,58.0674 48.1429,58.3534 L48.1389,58.3544 C47.9169,58.5714 47.6329,58.8244 47.3099,58.9764 C46.9609,59.1384 46.6029,59.2364 46.2719,59.2614 C46.2479,59.3904 46.2209,59.4654 46.1939,59.5934 C46.2169,59.5964 46.2339,59.5964 46.2579,59.6004 C49.8599,60.0284 52.7979,59.7624 54.1459,59.0534 C54.1789,59.0354 54.2589,58.9984 54.2909,58.9844 C54.6569,58.7874 55.0929,58.4684 55.3579,58.0904 C55.5969,57.7474 55.7229,57.4404 55.7899,57.0854 C55.8619,56.6724 55.8409,56.3904 55.7109,56.0464 C55.5949,56.1594 55.4729,56.2564 55.3609,56.3424" id="Fill-32" fill="#FEFEFE" mask="url(#mask-4)"></path>
            <path d="M48.0499,49.5075 C48.0509,49.9355 47.9159,50.4305 47.6459,50.8975 C47.3529,51.4035 46.9569,51.7865 46.5509,51.9875 C46.5649,52.1235 46.5779,52.2575 46.5909,52.3955 C48.0249,51.6105 49.5059,50.5195 50.8639,49.1855 C52.4879,47.5885 53.6709,45.8995 54.3179,44.3955 C54.4959,43.9835 54.5839,43.4845 54.5479,42.9475 C54.4729,41.8595 53.9039,40.9545 53.1779,40.6545 C53.1929,40.8615 53.1829,41.0785 53.1539,41.3015 C52.9939,42.8175 51.5889,45.4205 49.2339,48.1785 C48.8459,48.6325 48.4519,49.0795 48.0499,49.5075" id="Fill-33" fill="#FEFEFE" mask="url(#mask-4)"></path>
            <path d="M48.6285,47.7995 C50.9515,45.0125 52.3245,42.3935 52.4655,40.8745 C52.5815,39.9225 52.3395,39.0405 51.8045,38.7295 C51.7615,40.0845 49.9225,43.3865 47.0065,47.0805 C47.2795,47.5945 47.1545,48.4585 46.7115,49.2145 C46.5635,49.4695 46.4755,49.5585 46.2115,49.8205 C46.2465,49.9875 46.2765,50.1625 46.3075,50.3315 C47.0945,49.5655 47.8775,48.7025 48.6285,47.7995" id="Fill-34" fill="#FEFEFE" mask="url(#mask-4)"></path>
            <path d="M30.2486,49.3815 C30.1776,49.3535 30.1056,49.3275 30.0336,49.3085 C30.0646,49.6315 30.0666,49.9805 30.0646,50.3425 C30.0576,51.2355 29.9406,52.0855 29.7576,52.7835 C29.7106,52.9705 29.7936,53.1515 29.9536,53.2155 C30.0046,53.2355 30.0616,53.2425 30.1146,53.2355 L30.1176,53.2265 C30.4036,52.5735 30.7716,51.8565 31.2156,51.1245 C31.2976,50.9875 31.3786,50.8555 31.4596,50.7245 C31.3106,50.1505 30.8776,49.6365 30.2486,49.3815" id="Fill-35" fill="#020303" mask="url(#mask-4)"></path>
            <path d="M55.1641,55.6911 C55.1361,55.7121 55.0641,55.7631 55.0341,55.7851 C53.8281,56.7161 50.9811,57.4901 47.3611,57.6931 C47.0741,57.7091 46.7891,57.7221 46.5041,57.7321 C46.5181,57.6111 46.5331,57.4961 46.5471,57.3731 C46.7011,57.3451 46.8601,57.3041 47.0181,57.2461 C47.5651,57.0461 47.9951,56.7041 48.2271,56.3341 C51.8461,55.4631 54.5781,54.1691 55.6381,53.0031 C55.6651,52.9741 55.7301,52.9091 55.7551,52.8791 C55.8511,52.7761 55.9481,52.6541 56.0421,52.5221 C56.2311,52.8361 56.3121,53.1421 56.3101,53.5601 C56.3071,53.9221 56.2371,54.2471 56.0601,54.6271 C55.8651,55.0451 55.4891,55.4381 55.1641,55.6911 Z M55.4891,47.8721 C55.4731,47.9051 55.4311,47.9821 55.4131,48.0141 C54.7141,49.3691 52.4601,51.2731 49.2651,52.9851 C48.4041,53.4481 47.5391,53.8751 46.6871,54.2461 C46.6851,54.1131 46.6841,53.9821 46.6791,53.8511 C47.0881,53.6501 47.4941,53.2691 47.7891,52.7561 C47.8581,52.6331 47.9141,52.5141 47.9661,52.3891 C49.1611,51.6471 50.3651,50.7051 51.4901,49.5991 C53.1461,47.9721 54.3561,46.2351 55.0171,44.7001 C55.5181,45.0661 55.8511,45.7481 55.8511,46.5321 C55.8511,46.9931 55.6791,47.5061 55.4891,47.8721 Z M56.1291,50.8101 C56.0241,51.2591 55.7401,51.7201 55.4731,52.0351 C55.4511,52.0631 55.3911,52.1281 55.3671,52.1551 C54.3811,53.3191 51.7571,54.6681 48.2591,55.6191 C47.7221,55.7631 47.1831,55.9001 46.6541,56.0201 C46.6591,55.8921 46.6671,55.7621 46.6721,55.6331 C47.1291,55.5321 47.6221,55.2361 48.0331,54.7801 C48.1851,54.6111 48.3161,54.4301 48.4201,54.2511 C49.3431,53.8591 50.2741,53.3791 51.1881,52.8191 C53.1661,51.6051 54.7741,50.3141 55.7631,48.9691 C56.1671,49.4371 56.3051,50.0461 56.1291,50.8101 Z M53.1781,40.6551 C53.9031,40.9551 54.4731,41.8591 54.5481,42.9481 C54.5841,43.4841 54.4961,43.9831 54.3171,44.3951 C53.6701,45.8991 52.4881,47.5881 50.8641,49.1851 C49.5061,50.5191 48.0241,51.6101 46.5901,52.3951 C46.5781,52.2571 46.5651,52.1241 46.5511,51.9881 C46.9571,51.7871 47.3531,51.4031 47.6461,50.8971 C47.9151,50.4301 48.0511,49.9351 48.0501,49.5071 C48.4521,49.0801 48.8461,48.6321 49.2341,48.1781 C51.5891,45.4201 52.9941,42.8171 53.1541,41.3011 C53.1831,41.0791 53.1921,40.8621 53.1781,40.6551 Z M52.4651,40.8751 C52.3241,42.3931 50.9511,45.0121 48.6281,47.7991 C47.8771,48.7031 47.0941,49.5651 46.3071,50.3321 C46.2771,50.1631 46.2461,49.9871 46.2121,49.8211 C46.4751,49.5581 46.5631,49.4691 46.7111,49.2141 C47.1551,48.4591 47.2801,47.5941 47.0061,47.0811 C49.9221,43.3861 51.7611,40.0851 51.8041,38.7291 C52.3391,39.0411 52.5811,39.9221 52.4651,40.8751 Z M49.9941,64.6681 C49.9631,64.6691 49.8871,64.6701 49.8561,64.6711 C48.8301,64.7381 47.1321,64.2481 45.1511,63.2571 C45.2141,63.1291 45.2741,63.0031 45.3331,62.8711 C46.0451,63.0411 46.7141,62.8371 47.0381,62.4721 C49.0251,63.0111 50.4641,63.1681 51.6151,62.9871 C51.6461,62.9801 51.7241,62.9651 51.7561,62.9581 C51.8751,62.9271 52.0021,62.8881 52.1311,62.8391 C52.1141,63.1551 52.0261,63.4081 51.8231,63.7061 C51.6481,63.9601 51.4431,64.1561 51.1361,64.3401 C50.7981,64.5451 50.3461,64.6421 49.9941,64.6681 Z M49.9441,66.1441 C49.9441,66.1441 49.5011,66.2381 48.9391,66.2141 C48.8421,66.4241 48.6441,66.6011 48.4351,66.7931 C48.1851,67.0221 47.9171,67.1831 47.5421,67.3051 C47.1821,67.4211 46.7481,67.4311 46.3861,67.3911 C46.3271,67.4701 46.2421,67.5531 46.1581,67.6311 C45.9511,67.8221 45.7301,67.9531 45.4231,68.0521 C45.0821,68.1641 44.6621,68.1571 44.3471,68.1071 C44.3191,68.1031 44.2521,68.0891 44.2251,68.0851 C43.6551,67.9911 42.9571,67.7091 42.1011,67.1151 C41.7981,67.3031 40.9791,67.4211 40.6431,67.4211 C39.6031,67.4211 38.5541,66.9251 37.7501,66.0471 C37.7181,66.0161 37.9551,65.7731 37.9881,65.8031 C38.7971,66.5861 39.7061,67.0211 40.6631,67.0211 C40.9831,67.0211 41.4181,66.9341 41.7271,66.8421 C41.8911,66.7831 42.0561,66.7141 42.2171,66.6311 C42.9371,67.1321 43.5741,67.4521 44.0681,67.5601 C44.0941,67.5651 44.1521,67.5821 44.1781,67.5871 C44.4631,67.6471 44.8431,67.6721 45.1581,67.5891 C45.4231,67.5161 45.6101,67.4261 45.7961,67.2801 C45.0811,67.0991 44.1741,66.6541 43.1591,65.9801 C43.2751,65.8771 43.3911,65.7681 43.5041,65.6531 C44.4781,66.2771 45.3311,66.6601 45.9741,66.7641 C46.0041,66.7701 46.0781,66.7861 46.1101,66.7901 C46.4571,66.8481 46.9211,66.8541 47.2961,66.7321 C47.6371,66.6191 47.8801,66.4751 48.1081,66.2661 C48.1731,66.2061 48.2291,66.1481 48.2811,66.0891 C47.1951,65.8351 45.8661,65.3101 44.3911,64.5411 C44.4841,64.4011 44.5731,64.2581 44.6621,64.1091 C46.5791,65.0651 48.2201,65.5821 49.3621,65.6081 C49.4101,65.6121 49.5271,65.6171 49.5731,65.6201 C49.9711,65.6271 50.4571,65.5821 50.9041,65.4511 C50.8411,65.6081 50.7441,65.7271 50.5991,65.8581 C50.3971,66.0381 50.1551,66.1101 49.9441,66.1441 Z M54.0211,60.5441 C53.9071,60.8501 53.7471,61.1011 53.4801,61.3701 C53.1861,61.6631 52.7491,61.8791 52.3951,61.9931 C52.3661,62.0031 52.2881,62.0251 52.2581,62.0331 C51.0301,62.4261 48.6301,62.2531 45.7581,61.4521 C45.7961,61.3371 45.8311,61.2241 45.8651,61.1081 C45.9761,61.1111 46.0801,61.1041 46.1951,61.0951 C46.7671,61.0451 47.2541,60.7611 47.5341,60.4541 C50.3411,60.6611 52.2641,60.5771 53.3901,60.1671 C53.3901,60.1671 53.9881,59.9731 54.1091,59.8891 C54.1091,59.8891 54.1521,60.1901 54.0211,60.5441 Z M55.7891,57.0861 C55.7231,57.4401 55.5971,57.7471 55.3571,58.0901 C55.0931,58.4681 54.6571,58.7881 54.2901,58.9841 C54.2591,58.9991 54.1791,59.0361 54.1461,59.0521 C52.7981,59.7621 49.8591,60.0281 46.2581,59.6001 C46.2341,59.5961 46.2171,59.5961 46.1941,59.5931 C46.2211,59.4651 46.2471,59.3901 46.2711,59.2611 C46.6031,59.2361 46.9601,59.1381 47.3101,58.9761 C47.6331,58.8251 47.9161,58.5711 48.1391,58.3541 L48.1431,58.3531 C51.4771,58.0671 54.0571,57.3461 55.2131,56.4541 C55.2431,56.4301 55.3311,56.3671 55.3611,56.3421 C55.4731,56.2551 55.5951,56.1601 55.7101,56.0461 C55.8411,56.3901 55.8621,56.6721 55.7891,57.0861 Z M57.2631,53.4961 C57.2251,52.9311 57.0451,52.4041 56.7721,51.9751 C57.1101,51.4781 57.2881,50.8481 57.2641,50.1381 C57.2401,49.3671 56.9641,48.6591 56.5321,48.1321 C56.8091,47.6401 56.9491,47.0611 56.9271,46.4061 C56.8881,45.2511 56.3361,44.2451 55.5271,43.7181 C55.5551,43.4981 55.5611,43.2841 55.5571,43.0501 C55.5041,41.3131 54.7541,40.2191 53.5501,39.7531 C53.2941,38.5051 52.4551,37.3541 51.7051,36.7921 C50.7941,40.6551 47.9271,44.3681 46.8931,45.8361 C45.2301,48.1951 44.8411,50.4391 43.9151,53.1461 C42.8221,56.3401 42.0561,59.7341 39.1281,61.7441 C39.1281,61.4261 39.1451,61.0991 39.1831,60.7591 C39.6651,56.4081 43.1821,49.3251 41.9091,45.1941 C41.8321,44.9441 41.7431,44.6991 41.6361,44.4611 C40.3831,41.6281 37.5321,41.1881 34.6121,42.5051 C32.7931,43.3251 30.9031,44.0181 30.0341,46.0021 C29.6841,46.8001 29.5601,47.6181 29.6411,48.3161 C29.6581,48.4721 29.7431,48.5981 29.8761,48.6431 C30.0581,48.7061 30.2641,48.5981 30.3721,48.3971 C30.4521,48.2581 30.5071,48.0641 30.5211,47.8501 C30.5211,47.8411 30.5231,47.8341 30.5241,47.8251 C30.5281,47.7781 30.5371,47.7251 30.5561,47.6751 C30.6481,47.4521 30.8901,47.3371 31.0991,47.4211 C31.3081,47.5071 31.4001,47.7581 31.3101,47.9821 C31.2931,48.0221 31.2741,48.0561 31.2491,48.0891 C31.1961,48.1621 31.1431,48.2461 31.0931,48.3341 C30.9831,48.5361 30.9161,48.7351 30.8921,48.8981 C30.8571,49.1301 30.9871,49.3691 31.2121,49.4651 C31.2271,49.4731 31.2501,49.4841 31.2671,49.4911 C32.0921,49.8281 33.0741,49.3981 33.6641,48.5231 C33.8811,48.1971 34.0871,47.8251 34.2731,47.4231 C34.5651,46.7961 34.5501,46.1581 35.0251,45.6011 C35.8231,44.6731 38.1531,44.0651 39.1661,45.2951 C41.1371,47.6861 38.9461,50.7791 37.5801,52.8121 C35.8601,55.3741 33.4661,58.3061 32.2621,61.1901 C29.1171,68.7261 34.4851,76.1201 43.1431,76.1201 C48.6421,76.1201 52.0741,73.7251 54.0251,70.8641 C50.2691,70.5721 48.2281,68.1421 48.2281,68.1421 C48.2281,68.1421 48.9791,68.0661 49.4661,67.2501 C49.4661,67.2501 49.8171,67.2101 50.1301,67.1701 C50.8881,67.0701 51.5811,66.6821 51.8711,65.8381 C52.1171,65.1261 52.1311,64.6781 52.1311,64.6781 C52.1311,64.6781 52.6371,64.4651 52.9321,63.7831 C53.0981,63.3961 53.1431,63.2051 53.1441,62.8141 C54.0141,62.5211 54.6781,61.7741 55.0431,60.8271 C55.2351,60.3251 55.2731,60.0841 55.2281,59.5981 C56.2061,59.1071 56.9431,57.7171 56.9051,56.5901 C56.8931,56.2061 56.7961,55.8591 56.6551,55.5321 C57.0921,55.0221 57.3201,54.3121 57.2641,53.4961 L57.2631,53.4961 Z" id="Fill-36" fill="#020303" mask="url(#mask-4)"></path>
            <path d="M109.626,2.5553 L109.626,4.9303 C109.626,5.0863 109.509,5.1633 109.314,5.1443 L108.341,5.0863 C108.282,5.0863 108.205,5.0473 108.186,4.9303 L108.146,4.3663 L108.146,4.3463 L105.187,4.3463 L105.187,16.1833 L105.791,16.2223 C105.927,16.2223 105.985,16.3593 105.966,16.5343 L105.907,17.5073 C105.907,17.6043 105.849,17.6623 105.751,17.6623 L102.422,17.6623 C102.267,17.6623 102.189,17.5463 102.208,17.3513 L102.267,16.3773 C102.267,16.3203 102.306,16.2423 102.422,16.2223 L102.987,16.1833 L102.987,4.3463 L100.241,4.3463 L100.203,4.9503 C100.203,5.0863 100.066,5.1443 99.891,5.1243 L98.918,5.0663 C98.82,5.0663 98.762,5.0083 98.762,4.9103 L98.762,2.5553 L109.626,2.5553 Z" id="Fill-37" fill="#244596" mask="url(#mask-4)"></path>
            <path d="M124.1314,16.2223 C124.2674,16.2223 124.3254,16.3593 124.3064,16.5343 L124.2474,17.5073 C124.2474,17.6043 124.1894,17.6623 124.0914,17.6623 L120.7624,17.6623 C120.6074,17.6623 120.5294,17.5463 120.5484,17.3513 L120.6074,16.3773 C120.6074,16.3203 120.6464,16.2423 120.7624,16.2223 L121.3274,16.1833 L121.3274,10.9463 L114.5514,10.9463 L114.5514,16.1833 L115.1554,16.2223 C115.2924,16.2223 115.3504,16.3593 115.3304,16.5343 L115.2724,17.5073 C115.2724,17.6043 115.2134,17.6623 115.1164,17.6623 L111.7874,17.6623 C111.6314,17.6623 111.5534,17.5463 111.5734,17.3513 L111.6314,16.3773 C111.6314,16.3203 111.6704,16.2423 111.7874,16.2223 L112.3524,16.1833 L112.3524,4.0343 L111.7484,3.9953 C111.6124,3.9953 111.5534,3.8603 111.5734,3.6843 L111.6314,2.7103 C111.6314,2.6143 111.6904,2.5553 111.7874,2.5553 L115.1164,2.5553 C115.2724,2.5553 115.3504,2.6723 115.3304,2.8673 L115.2724,3.8403 C115.2724,3.8983 115.2334,3.9763 115.1164,3.9953 L114.5514,4.0343 L114.5514,9.1353 L121.3274,9.1353 L121.3274,4.0343 L120.7244,3.9953 C120.5874,3.9953 120.5294,3.8603 120.5484,3.6843 L120.6074,2.7103 C120.6074,2.6143 120.6654,2.5553 120.7624,2.5553 L124.0914,2.5553 C124.2474,2.5553 124.3254,2.6723 124.3064,2.8673 L124.2474,3.8403 C124.2474,3.8983 124.2084,3.9763 124.0914,3.9953 L123.5274,4.0343 L123.5274,16.1833 L124.1314,16.2223 Z" id="Fill-38" fill="#244596" mask="url(#mask-4)"></path>
            <path d="M136.5342,15.1325 C136.6312,15.1325 136.6892,15.1905 136.6892,15.2875 L136.6892,17.6625 L127.2472,17.6625 C127.0912,17.6625 127.0132,17.5465 127.0332,17.3515 L127.0912,16.3775 C127.0912,16.3195 127.1302,16.2415 127.2472,16.2225 L127.8122,16.1835 L127.8122,4.0345 L127.2082,3.9955 C127.0722,3.9955 127.0132,3.8605 127.0332,3.6845 L127.0912,2.7105 C127.0912,2.6135 127.1502,2.5555 127.2472,2.5555 L136.3592,2.5555 L136.3592,4.9305 C136.3592,5.0865 136.2412,5.1635 136.0472,5.1445 L135.0742,5.0865 C135.0152,5.0865 134.9372,5.0475 134.9182,4.9305 L134.8792,4.3655 L130.0312,4.3655 L130.0312,8.9805 L135.5212,8.9805 L135.5212,10.7715 L130.0312,10.7715 L130.0312,15.8525 L135.2102,15.8525 L135.2492,15.2485 C135.2492,15.1115 135.3862,15.0545 135.5602,15.0725 L136.5342,15.1325 Z" id="Fill-39" fill="#244596" mask="url(#mask-4)"></path>
            <path d="M158.9795,2.5553 C159.1355,2.5553 159.2135,2.6723 159.1935,2.8673 L159.1355,3.8403 C159.1355,3.8983 159.0975,3.9763 158.9795,3.9953 L158.4155,4.0343 L158.3565,4.0343 L158.3565,12.0953 C158.3565,16.0283 156.8185,17.8963 152.8855,17.8963 C149.1275,17.8963 147.4935,16.6303 147.4935,12.0953 L147.4935,4.0343 L146.8885,3.9953 C146.7525,3.9953 146.6935,3.8603 146.7135,3.6843 L146.7715,2.7103 C146.7715,2.6143 146.8305,2.5553 146.9285,2.5553 L150.2565,2.5553 C150.4125,2.5553 150.4905,2.6723 150.4705,2.8673 L150.4125,3.8403 C150.4125,3.8983 150.3735,3.9763 150.2565,3.9953 L149.6935,4.0343 L149.6935,12.4843 C149.6935,14.8983 150.4125,16.2023 152.8665,16.2023 C155.5925,16.2023 156.2145,14.5293 156.2145,12.4843 L156.2145,4.0343 L155.6115,3.9953 C155.4755,3.9953 155.4165,3.8603 155.4365,3.6843 L155.4955,2.7103 C155.4955,2.6143 155.5535,2.5553 155.6505,2.5553 L158.9795,2.5553 Z" id="Fill-40" fill="#244596" mask="url(#mask-4)"></path>
            <path d="M175.295,2.5553 C175.452,2.5553 175.53,2.6723 175.509,2.8673 L175.452,3.8403 C175.452,3.8983 175.412,3.9763 175.295,3.9953 L174.732,4.0343 L174.556,4.0343 L174.556,17.6623 L173.096,17.6623 C172.999,17.6623 172.94,17.6233 172.881,17.5463 L164.919,6.4093 L164.919,16.1833 L165.094,16.1833 L165.698,16.2223 C165.834,16.2223 165.893,16.3593 165.873,16.5343 L165.815,17.5073 C165.815,17.6043 165.756,17.6623 165.659,17.6623 L162.329,17.6623 C162.174,17.6623 162.096,17.5463 162.115,17.3513 L162.174,16.3773 C162.174,16.3203 162.212,16.2423 162.329,16.2223 L162.894,16.1833 L162.894,4.0343 L162.29,3.9953 C162.154,3.9953 162.096,3.8603 162.115,3.6843 L162.174,2.7103 C162.174,2.6143 162.232,2.5553 162.329,2.5553 L164.489,2.5553 C164.607,2.5553 164.665,2.6143 164.725,2.6913 L172.531,13.5943 L172.531,4.0343 L171.928,3.9953 C171.792,3.9953 171.733,3.8603 171.752,3.6843 L171.811,2.7103 C171.811,2.6143 171.87,2.5553 171.967,2.5553 L175.295,2.5553 Z" id="Fill-41" fill="#244596" mask="url(#mask-4)"></path>
            <path d="M182.2076,16.2223 C182.3446,16.2223 182.4026,16.3593 182.3836,16.5343 L182.3256,17.5073 C182.3256,17.6043 182.2666,17.6623 182.1686,17.6623 L178.8396,17.6623 C178.6846,17.6623 178.6066,17.5463 178.6256,17.3513 L178.6846,16.3773 C178.6846,16.3203 178.7236,16.2423 178.8396,16.2223 L179.4046,16.1833 L179.4046,4.0343 L178.8016,3.9953 C178.6656,3.9953 178.6066,3.8603 178.6256,3.6843 L178.6846,2.7103 C178.6846,2.6143 178.7426,2.5553 178.8396,2.5553 L182.1686,2.5553 C182.3256,2.5553 182.4026,2.6723 182.3836,2.8673 L182.3256,3.8403 C182.3256,3.8983 182.2856,3.9763 182.1686,3.9953 L181.6046,4.0343 L181.6046,16.1833 L182.2076,16.2223 Z" id="Fill-42" fill="#244596" mask="url(#mask-4)"></path>
            <path d="M198.0367,2.5553 C198.1937,2.5553 198.2707,2.6723 198.2517,2.8673 L198.1937,3.8403 C198.1937,3.8983 198.1547,3.9763 198.0367,3.9953 L197.4727,4.0343 L192.6437,17.1963 C192.5477,17.4883 192.3327,17.6623 192.0207,17.6623 L190.3857,17.6043 C190.3277,17.6043 190.2877,17.5843 190.2497,17.4883 L185.2067,4.0343 L184.6037,3.9953 C184.4677,3.9953 184.4097,3.8603 184.4287,3.6843 L184.4867,2.7103 C184.4867,2.6143 184.5457,2.5553 184.6417,2.5553 L188.0107,2.5553 C188.1667,2.5553 188.2447,2.6723 188.2237,2.8673 L188.1667,3.8403 C188.1667,3.8983 188.1267,3.9763 188.0107,3.9953 L187.4457,4.0343 L191.3587,15.0153 L191.4167,15.0153 L195.3117,4.0343 L194.7087,3.9953 C194.5717,3.9953 194.5137,3.8603 194.5327,3.6843 L194.5907,2.7103 C194.5907,2.6143 194.6497,2.5553 194.7467,2.5553 L198.0367,2.5553 Z" id="Fill-43" fill="#244596" mask="url(#mask-4)"></path>
            <path d="M209.7974,15.1325 C209.8954,15.1325 209.9544,15.1905 209.9544,15.2875 L209.9544,17.6625 L200.5104,17.6625 C200.3544,17.6625 200.2764,17.5465 200.2964,17.3515 L200.3544,16.3775 C200.3544,16.3195 200.3934,16.2415 200.5104,16.2225 L201.0744,16.1835 L201.0744,4.0345 L200.4714,3.9955 C200.3354,3.9955 200.2764,3.8605 200.2964,3.6845 L200.3544,2.7105 C200.3544,2.6135 200.4134,2.5555 200.5104,2.5555 L209.6224,2.5555 L209.6224,4.9305 C209.6224,5.0865 209.5054,5.1635 209.3114,5.1445 L208.3374,5.0865 C208.2774,5.0865 208.2004,5.0475 208.1814,4.9305 L208.1424,4.3655 L203.2954,4.3655 L203.2954,8.9805 L208.7854,8.9805 L208.7854,10.7715 L203.2954,10.7715 L203.2954,15.8525 L208.4734,15.8525 L208.5134,15.2485 C208.5134,15.1115 208.6494,15.0545 208.8244,15.0725 L209.7974,15.1325 Z" id="Fill-44" fill="#244596" mask="url(#mask-4)"></path>
            <path d="M217.5469,10.0895 C219.6499,10.0895 220.8579,9.1745 220.8579,7.0715 C220.8579,5.0665 219.7079,4.2685 217.7219,4.2685 L215.8539,4.2685 L215.8539,10.0895 L217.5469,10.0895 Z M223.5629,16.2225 C223.6989,16.2225 223.7569,16.3595 223.7379,16.5335 L223.6799,17.5075 C223.6799,17.6045 223.6219,17.6625 223.5249,17.6625 L221.3039,17.6625 L217.9949,11.8215 L215.8539,11.8215 L215.8539,16.1835 L216.4579,16.2225 C216.5929,16.2225 216.6519,16.3595 216.6319,16.5335 L216.5739,17.5075 C216.5739,17.6045 216.5159,17.6625 216.4189,17.6625 L213.0889,17.6625 C212.9319,17.6625 212.8549,17.5465 212.8749,17.3515 L212.9319,16.3775 C212.9319,16.3195 212.9719,16.2415 213.0889,16.2225 L213.6529,16.1835 L213.6529,4.0345 L213.0499,3.9955 C212.9129,3.9955 212.8549,3.8605 212.8749,3.6845 L212.9319,2.7105 C212.9319,2.6135 212.9919,2.5555 213.0889,2.5555 L217.4889,2.5555 C221.2849,2.5555 223.0759,3.9955 223.0759,7.0715 C223.0759,9.0385 222.0449,10.7125 220.1959,11.4135 L222.9599,16.1835 L223.5629,16.2225 Z" id="Fill-45" fill="#244596" mask="url(#mask-4)"></path>
            <path d="M235.6543,13.5162 C235.6543,15.9692 233.8433,17.7592 230.4363,17.7592 C228.6053,17.7592 227.1453,17.3702 226.0943,16.9222 L226.0943,14.5672 C226.0943,14.3922 226.2313,14.2942 226.4653,14.3142 L227.6333,14.3922 C227.7103,14.3922 227.8073,14.4302 227.8283,14.5672 L227.8663,15.6192 C228.7813,15.8322 229.6963,15.9492 230.3203,15.9492 C232.0913,15.9492 233.4733,15.3462 233.4733,13.7302 C233.4733,11.9972 232.8113,11.6472 229.8133,10.5772 C227.6333,9.7582 226.1333,8.6492 226.1333,6.4882 C226.1333,4.0542 227.9823,2.4382 231.2733,2.4382 C232.4793,2.4382 233.6293,2.5552 234.7203,2.8282 L234.7203,5.3782 C234.7203,5.5532 234.5833,5.6512 234.3493,5.6312 L233.1813,5.5532 C233.1023,5.5532 233.0063,5.5142 232.9863,5.3782 L232.9483,4.3272 C232.4213,4.2682 231.8963,4.2292 231.4093,4.2292 C229.5983,4.2292 228.4103,5.0662 228.4103,6.4102 C228.4103,7.8122 229.2293,8.3182 231.8963,9.2712 C234.6803,10.2452 235.6543,11.5692 235.6543,13.5162" id="Fill-46" fill="#244596" mask="url(#mask-4)"></path>
            <path d="M241.9634,16.2223 C242.0984,16.2223 242.1564,16.3593 242.1374,16.5343 L242.0794,17.5073 C242.0794,17.6043 242.0214,17.6623 241.9234,17.6623 L238.5944,17.6623 C238.4384,17.6623 238.3604,17.5463 238.3794,17.3513 L238.4384,16.3773 C238.4384,16.3203 238.4784,16.2423 238.5944,16.2223 L239.1594,16.1833 L239.1594,4.0343 L238.5554,3.9953 C238.4194,3.9953 238.3604,3.8603 238.3794,3.6843 L238.4384,2.7103 C238.4384,2.6143 238.4964,2.5553 238.5944,2.5553 L241.9234,2.5553 C242.0794,2.5553 242.1564,2.6723 242.1374,2.8673 L242.0794,3.8403 C242.0794,3.8983 242.0404,3.9763 241.9234,3.9953 L241.3594,4.0343 L241.3594,16.1833 L241.9634,16.2223 Z" id="Fill-47" fill="#244596" mask="url(#mask-4)"></path>
            <path d="M255.3384,2.5553 L255.3384,4.9303 C255.3384,5.0863 255.2214,5.1633 255.0264,5.1443 L254.0534,5.0863 C253.9944,5.0863 253.9174,5.0473 253.8974,4.9303 L253.8584,4.3663 L253.8584,4.3463 L250.8994,4.3463 L250.8994,16.1833 L251.5034,16.2223 C251.6394,16.2223 251.6974,16.3593 251.6774,16.5343 L251.6194,17.5073 C251.6194,17.6043 251.5624,17.6623 251.4634,17.6623 L248.1354,17.6623 C247.9784,17.6623 247.9014,17.5463 247.9204,17.3513 L247.9784,16.3773 C247.9784,16.3203 248.0174,16.2423 248.1354,16.2223 L248.6994,16.1833 L248.6994,4.3463 L245.9544,4.3463 L245.9154,4.9503 C245.9154,5.0863 245.7784,5.1443 245.6034,5.1243 L244.6304,5.0663 C244.5334,5.0663 244.4744,5.0083 244.4744,4.9103 L244.4744,2.5553 L255.3384,2.5553 Z" id="Fill-48" fill="#244596" mask="url(#mask-4)"></path>
            <path d="M268.461,2.5553 C268.616,2.5553 268.695,2.6723 268.676,2.8673 L268.616,3.8403 C268.616,3.8983 268.577,3.9763 268.461,3.9953 L267.897,4.0343 L263.652,12.3483 L263.652,16.1833 L264.255,16.2223 C264.392,16.2223 264.451,16.3593 264.431,16.5343 L264.373,17.5073 C264.373,17.6043 264.315,17.6623 264.217,17.6623 L260.888,17.6623 C260.732,17.6623 260.654,17.5463 260.673,17.3513 L260.732,16.3773 C260.732,16.3203 260.77,16.2423 260.888,16.2223 L261.451,16.1833 L261.451,12.3083 L257.266,4.0343 L256.682,3.9953 C256.546,3.9953 256.487,3.8603 256.506,3.6843 L256.565,2.7103 C256.565,2.6143 256.624,2.5553 256.721,2.5553 L260.051,2.5553 C260.206,2.5553 260.284,2.6723 260.265,2.8673 L260.206,3.8403 C260.206,3.8983 260.167,3.9763 260.051,3.9953 L259.505,4.0343 L262.543,10.3033 L262.601,10.3033 L265.736,4.0343 L265.131,3.9953 C264.996,3.9953 264.937,3.8603 264.957,3.6843 L265.015,2.7103 C265.015,2.6143 265.074,2.5553 265.171,2.5553 L268.461,2.5553 Z" id="Fill-49" fill="#244596" mask="url(#mask-4)"></path>
            <path d="M278.2984,10.0895 C278.2984,12.6405 278.8824,15.9485 282.0754,15.9485 C284.7224,15.9485 285.8714,13.6915 285.8714,10.0895 C285.8714,7.4815 285.2294,4.2685 282.0944,4.2685 C278.9024,4.2685 278.2984,7.5595 278.2984,10.0895 M288.1684,10.1285 C288.1684,15.2875 285.8904,17.7795 282.0754,17.7795 C278.2984,17.7795 275.9814,15.2095 275.9814,10.1285 C275.9814,6.4675 277.3634,2.4575 282.1134,2.4575 C286.1834,2.4575 288.1684,5.5725 288.1684,10.1285" id="Fill-50" fill="#244596" mask="url(#mask-4)"></path>
            <path d="M299.8316,2.5553 L299.8316,4.9303 C299.8316,5.0863 299.7146,5.1633 299.5206,5.1443 L298.5466,5.0863 C298.4886,5.0863 298.4106,5.0473 298.3916,4.9303 L298.3516,4.3663 L293.4846,4.3663 L293.4846,8.9803 L298.7606,8.9803 L298.7606,10.7713 L293.4846,10.7713 L293.4846,16.1833 L294.0886,16.2223 C294.2246,16.2223 294.2836,16.3593 294.2636,16.5343 L294.2056,17.5073 C294.2056,17.6043 294.1466,17.6623 294.0496,17.6623 L290.7196,17.6623 C290.5646,17.6623 290.4866,17.5463 290.5056,17.3513 L290.5646,16.3773 C290.5646,16.3203 290.6026,16.2423 290.7196,16.2223 L291.2846,16.1833 L291.2846,4.0343 L290.6816,3.9953 C290.5446,3.9953 290.4866,3.8603 290.5056,3.6843 L290.5646,2.7103 C290.5646,2.6143 290.6226,2.5553 290.7196,2.5553 L299.8316,2.5553 Z" id="Fill-51" fill="#244596" mask="url(#mask-4)"></path>
            <path d="M140.0474,24.692 C140.3914,24.692 140.5634,24.95 140.5214,25.38 L140.3914,27.532 C140.3914,27.662 140.3054,27.834 140.0474,27.877 L138.8414,27.963 L131.5684,56.585 C131.3094,57.532 130.5354,58.091 129.5884,58.091 L126.2314,57.963 C125.7574,57.963 125.5854,57.661 125.4554,57.187 L119.6024,32.008 L119.5594,32.008 L113.7924,56.068 C113.5764,56.929 113.0174,58.134 111.5104,58.091 L108.2824,57.963 C107.8954,57.963 107.6374,57.747 107.5074,57.187 L100.4484,27.963 L99.1574,27.877 C98.8564,27.877 98.7274,27.576 98.7704,27.188 L98.8994,25.036 C98.8994,24.821 99.0294,24.692 99.2434,24.692 L106.3454,24.692 C106.6904,24.692 106.8614,24.95 106.8194,25.38 L106.6904,27.532 C106.6904,27.662 106.6044,27.834 106.3454,27.877 L105.1404,27.963 L110.6504,53.055 L110.6934,53.055 L116.8474,26.671 C117.1924,25.166 117.9234,24.649 118.9574,24.692 L121.4104,24.821 C121.8404,24.864 122.0124,25.08 122.1414,25.638 L128.3824,53.055 L128.4254,53.055 L134.1934,27.963 L132.9024,27.877 C132.6014,27.877 132.4714,27.576 132.5144,27.188 L132.6444,25.036 C132.6444,24.821 132.7734,24.692 132.9884,24.692 L140.0474,24.692 Z" id="Fill-52" fill="#244596" mask="url(#mask-4)"></path>
            <path d="M163.8897,52.4957 C164.1047,52.4957 164.2347,52.6247 164.2347,52.8407 L164.2347,58.0917 L143.3597,58.0917 C143.0147,58.0917 142.8427,57.8327 142.8857,57.4027 L143.0147,55.2507 C143.0147,55.1217 143.1007,54.9487 143.3597,54.9057 L144.6077,54.8197 L144.6077,27.9627 L143.2727,27.8767 C142.9727,27.8767 142.8427,27.5757 142.8857,27.1877 L143.0147,25.0357 C143.0147,24.8207 143.1437,24.6917 143.3597,24.6917 L163.5027,24.6917 L163.5027,29.9427 C163.5027,30.2867 163.2437,30.4587 162.8147,30.4167 L160.6617,30.2867 C160.5327,30.2867 160.3607,30.2007 160.3167,29.9427 L160.2317,28.6947 L149.5147,28.6947 L149.5147,38.8947 L161.6517,38.8947 L161.6517,42.8547 L149.5147,42.8547 L149.5147,54.0887 L160.9637,54.0887 L161.0497,52.7537 C161.0497,52.4527 161.3507,52.3237 161.7387,52.3667 L163.8897,52.4957 Z" id="Fill-53" fill="#244596" mask="url(#mask-4)"></path>
            <path d="M188.5948,48.9235 C188.5948,54.3465 184.5918,58.3065 177.0598,58.3065 C173.0138,58.3065 169.7858,57.4445 167.4618,56.4545 L167.4618,51.2475 C167.4618,50.8605 167.7618,50.6455 168.2798,50.6885 L170.8618,50.8605 C171.0338,50.8605 171.2488,50.9465 171.2928,51.2475 L171.3778,53.5715 C173.4008,54.0455 175.4248,54.3035 176.8018,54.3035 C180.7198,54.3035 183.7738,52.9695 183.7738,49.3975 C183.7738,45.5665 182.3108,44.7915 175.6818,42.4245 C170.8618,40.6165 167.5478,38.1635 167.5478,33.3855 C167.5478,28.0065 171.6368,24.4335 178.9108,24.4335 C181.5798,24.4335 184.1178,24.6925 186.5288,25.2945 L186.5288,30.9325 C186.5288,31.3195 186.2278,31.5355 185.7118,31.4915 L183.1288,31.3195 C182.9568,31.3195 182.7408,31.2345 182.6988,30.9325 L182.6128,28.6095 C181.4498,28.4795 180.2878,28.3935 179.2128,28.3935 C175.2098,28.3935 172.5828,30.2435 172.5828,33.2135 C172.5828,36.3125 174.3908,37.4315 180.2878,39.5405 C186.4428,41.6935 188.5948,44.6195 188.5948,48.9235" id="Fill-54" fill="#244596" mask="url(#mask-4)"></path>
            <path d="M214.3326,24.692 L214.3326,29.943 C214.3326,30.287 214.0736,30.459 213.6436,30.417 L211.4916,30.287 C211.3636,30.287 211.1896,30.201 211.1476,29.943 L211.0616,28.695 L211.0616,28.651 L204.5186,28.651 L204.5186,54.82 L205.8536,54.906 C206.1546,54.906 206.2836,55.208 206.2406,55.595 L206.1106,57.747 C206.1106,57.963 205.9826,58.091 205.7666,58.091 L198.4076,58.091 C198.0626,58.091 197.8906,57.833 197.9336,57.403 L198.0626,55.251 C198.0626,55.122 198.1476,54.949 198.4076,54.906 L199.6546,54.82 L199.6546,28.651 L193.5856,28.651 L193.5006,29.986 C193.5006,30.287 193.1986,30.417 192.8116,30.374 L190.6606,30.244 C190.4436,30.244 190.3156,30.115 190.3156,29.9 L190.3156,24.692 L214.3326,24.692 Z" id="Fill-55" fill="#244596" mask="url(#mask-4)"></path>
            <path d="M238.4776,52.4957 C238.6926,52.4957 238.8216,52.6247 238.8216,52.8407 L238.8216,58.0917 L217.9466,58.0917 C217.6016,58.0917 217.4296,57.8327 217.4736,57.4027 L217.6016,55.2507 C217.6016,55.1217 217.6886,54.9487 217.9466,54.9057 L219.1946,54.8197 L219.1946,27.9627 L217.8606,27.8767 C217.5596,27.8767 217.4296,27.5757 217.4736,27.1877 L217.6016,25.0357 C217.6016,24.8207 217.7306,24.6917 217.9466,24.6917 L238.0896,24.6917 L238.0896,29.9427 C238.0896,30.2867 237.8316,30.4587 237.4006,30.4167 L235.2486,30.2867 C235.1196,30.2867 234.9476,30.2007 234.9046,29.9427 L234.8186,28.6947 L224.1016,28.6947 L224.1016,38.8947 L236.2396,38.8947 L236.2396,42.8547 L224.1016,42.8547 L224.1016,54.0887 L235.5506,54.0887 L235.6366,52.7537 C235.6366,52.4527 235.9376,52.3237 236.3256,52.3667 L238.4776,52.4957 Z" id="Fill-56" fill="#244596" mask="url(#mask-4)"></path>
            <path d="M253.1963,41.3483 C257.8443,41.3483 260.5133,39.3263 260.5133,34.6763 C260.5133,30.2443 257.9733,28.4793 253.5833,28.4793 L249.4513,28.4793 L249.4513,41.3483 L253.1963,41.3483 Z M266.4963,54.9063 C266.7983,54.9063 266.9253,55.2073 266.8833,55.5953 L266.7543,57.7463 C266.7543,57.9623 266.6253,58.0913 266.4093,58.0913 L261.5033,58.0913 L254.1853,45.1793 L249.4513,45.1793 L249.4513,54.8203 L250.7853,54.9063 C251.0863,54.9063 251.2163,55.2073 251.1733,55.5953 L251.0443,57.7463 C251.0443,57.9623 250.9143,58.0913 250.7003,58.0913 L243.3393,58.0913 C242.9953,58.0913 242.8223,57.8323 242.8663,57.4033 L242.9953,55.2503 C242.9953,55.1213 243.0813,54.9493 243.3393,54.9063 L244.5883,54.8203 L244.5883,27.9623 L243.2543,27.8763 C242.9513,27.8763 242.8223,27.5763 242.8663,27.1883 L242.9953,25.0363 C242.9953,24.8213 243.1243,24.6923 243.3393,24.6923 L253.0673,24.6923 C261.4603,24.6923 265.4203,27.8763 265.4203,34.6763 C265.4203,39.0243 263.1373,42.7253 259.0503,44.2753 L265.1613,54.8203 L266.4963,54.9063 Z" id="Fill-57" fill="#244596" mask="url(#mask-4)"></path>
            <path d="M299.5064,24.692 C299.8514,24.692 300.0244,24.95 299.9804,25.38 L299.8514,27.532 C299.8514,27.662 299.7654,27.834 299.5064,27.877 L298.2594,27.963 L297.8714,27.963 L297.8714,58.091 L294.6434,58.091 C294.4274,58.091 294.2994,58.005 294.1704,57.833 L276.5664,33.213 L276.5664,54.82 L276.9534,54.82 L278.2874,54.906 C278.5894,54.906 278.7184,55.208 278.6744,55.595 L278.5464,57.747 C278.5464,57.963 278.4174,58.091 278.2014,58.091 L270.8414,58.091 C270.4974,58.091 270.3244,57.833 270.3684,57.403 L270.4974,55.251 C270.4974,55.122 270.5824,54.949 270.8414,54.906 L272.0894,54.82 L272.0894,27.963 L270.7554,27.877 C270.4544,27.877 270.3244,27.576 270.3684,27.188 L270.4974,25.036 C270.4974,24.821 270.6264,24.692 270.8414,24.692 L275.6194,24.692 C275.8774,24.692 276.0064,24.821 276.1354,24.994 L293.3954,49.096 L293.3954,27.963 L292.0604,27.877 C291.7594,27.877 291.6314,27.576 291.6734,27.188 L291.8034,25.036 C291.8034,24.821 291.9314,24.692 292.1474,24.692 L299.5064,24.692 Z" id="Fill-58" fill="#244596" mask="url(#mask-4)"></path>
            <path d="M116.2159,83.2213 L111.4279,69.6303 L111.3919,69.6303 L106.8609,83.2213 L116.2159,83.2213 Z M124.2819,90.7713 C124.5399,90.7713 124.6509,91.0293 124.6139,91.3613 L124.5039,93.2023 C124.5039,93.3863 124.3929,93.4963 124.2459,93.4963 L117.7999,93.4963 C117.5059,93.4963 117.3579,93.2763 117.3949,92.9083 L117.5059,91.0663 C117.5059,90.9553 117.5789,90.8083 117.7999,90.7713 L118.8319,90.6983 L117.3949,86.6103 L105.7189,86.6103 L104.3569,90.6983 L105.4979,90.7713 C105.7559,90.7713 105.8669,91.0293 105.8299,91.3613 L105.7189,93.2023 C105.7189,93.3863 105.6089,93.4963 105.4239,93.4963 L99.1999,93.4963 C98.9049,93.4963 98.7579,93.2763 98.7949,92.9083 L98.9049,91.0663 C98.9049,90.9553 98.9789,90.8083 99.1999,90.7713 L100.2319,90.6983 L108.4819,67.7153 L107.3769,67.6423 C107.1189,67.6423 107.0079,67.3843 107.0449,67.0523 L107.1549,65.2113 C107.1549,65.0273 107.2659,64.9163 107.4509,64.9163 L113.3059,64.9163 L123.1779,90.6983 L124.2819,90.7713 Z" id="Fill-59" fill="#244596" mask="url(#mask-4)"></path>
            <path d="M147.6324,64.9166 C147.9254,64.9166 148.0734,65.1376 148.0364,65.5056 L147.9254,67.3476 C147.9254,67.4576 147.8534,67.6046 147.6324,67.6426 L146.5634,67.7156 L146.4524,67.7156 L146.4524,82.9636 C146.4524,90.4026 143.5434,93.9386 136.1034,93.9386 C128.9944,93.9386 125.9014,91.5446 125.9014,82.9636 L125.9014,67.7156 L124.7594,67.6426 C124.5014,67.6426 124.3914,67.3846 124.4274,67.0526 L124.5384,65.2116 C124.5384,65.0266 124.6494,64.9166 124.8334,64.9166 L131.1314,64.9166 C131.4254,64.9166 131.5724,65.1376 131.5364,65.5056 L131.4254,67.3476 C131.4254,67.4576 131.3524,67.6046 131.1314,67.6426 L130.0634,67.7156 L130.0634,83.6996 C130.0634,88.2676 131.4254,90.7346 136.0664,90.7346 C141.2234,90.7346 142.4014,87.5666 142.4014,83.6996 L142.4014,67.7156 L141.2594,67.6426 C141.0024,67.6426 140.8914,67.3846 140.9284,67.0526 L141.0394,65.2116 C141.0394,65.0266 141.1494,64.9166 141.3334,64.9166 L147.6324,64.9166 Z" id="Fill-60" fill="#244596" mask="url(#mask-4)"></path>
            <path d="M168.5137,85.652 C168.5137,90.293 165.0887,93.681 158.6417,93.681 C155.1807,93.681 152.4187,92.944 150.4297,92.097 L150.4297,87.641 C150.4297,87.309 150.6877,87.125 151.1297,87.162 L153.3387,87.309 C153.4857,87.309 153.6707,87.383 153.7067,87.641 L153.7807,89.63 C155.5127,90.035 157.2427,90.256 158.4217,90.256 C161.7727,90.256 164.3887,89.114 164.3887,86.057 C164.3887,82.779 163.1367,82.117 157.4647,80.09 C153.3387,78.544 150.5037,76.445 150.5037,72.356 C150.5037,67.753 154.0017,64.695 160.2267,64.695 C162.5107,64.695 164.6837,64.917 166.7457,65.432 L166.7457,70.257 C166.7457,70.589 166.4877,70.772 166.0467,70.736 L163.8367,70.589 C163.6887,70.589 163.5037,70.514 163.4677,70.257 L163.3947,68.268 C162.3997,68.158 161.4047,68.085 160.4847,68.085 C157.0587,68.085 154.8127,69.668 154.8127,72.209 C154.8127,74.861 156.3597,75.819 161.4047,77.623 C166.6717,79.465 168.5137,81.968 168.5137,85.652" id="Fill-61" fill="#244596" mask="url(#mask-4)"></path>
            <path d="M191.0528,64.9166 L191.0528,69.4096 C191.0528,69.7046 190.8308,69.8526 190.4638,69.8146 L188.6218,69.7046 C188.5118,69.7046 188.3638,69.6306 188.3278,69.4096 L188.2528,68.3416 L188.2528,68.3056 L182.6548,68.3056 L182.6548,90.6976 L183.7958,90.7706 C184.0538,90.7706 184.1658,91.0286 184.1288,91.3606 L184.0178,93.2026 C184.0178,93.3866 183.9068,93.4966 183.7228,93.4966 L177.4248,93.4966 C177.1308,93.4966 176.9838,93.2756 177.0208,92.9076 L177.1308,91.0656 C177.1308,90.9556 177.2038,90.8086 177.4248,90.7706 L178.4928,90.6976 L178.4928,68.3056 L173.2998,68.3056 L173.2268,69.4466 C173.2268,69.7046 172.9688,69.8146 172.6378,69.7776 L170.7948,69.6676 C170.6118,69.6676 170.5018,69.5576 170.5018,69.3736 L170.5018,64.9166 L191.0528,64.9166 Z" id="Fill-62" fill="#244596" mask="url(#mask-4)"></path>
            <path d="M202.6519,79.1705 C206.6309,79.1705 208.9139,77.4395 208.9139,73.4605 C208.9139,69.6675 206.7419,68.1575 202.9839,68.1575 L199.4489,68.1575 L199.4489,79.1705 L202.6519,79.1705 Z M214.0329,90.7715 C214.2909,90.7715 214.4019,91.0285 214.3659,91.3605 L214.2549,93.2025 C214.2549,93.3865 214.1439,93.4965 213.9599,93.4965 L209.7609,93.4965 L203.4999,82.4475 L199.4489,82.4475 L199.4489,90.6975 L200.5899,90.7715 C200.8479,90.7715 200.9579,91.0285 200.9219,91.3605 L200.8119,93.2025 C200.8119,93.3865 200.7009,93.4965 200.5159,93.4965 L194.2179,93.4965 C193.9239,93.4965 193.7769,93.2755 193.8129,92.9075 L193.9239,91.0665 C193.9239,90.9555 193.9969,90.8085 194.2179,90.7715 L195.2869,90.6975 L195.2869,67.7155 L194.1449,67.6425 C193.8879,67.6425 193.7769,67.3845 193.8129,67.0525 L193.9239,65.2115 C193.9239,65.0265 194.0349,64.9165 194.2179,64.9165 L202.5429,64.9165 C209.7249,64.9165 213.1129,67.6425 213.1129,73.4605 C213.1129,77.1805 211.1609,80.3485 207.6619,81.6745 L212.8929,90.6975 L214.0329,90.7715 Z" id="Fill-63" fill="#244596" mask="url(#mask-4)"></path>
            <path d="M233.479,83.2213 L228.69,69.6303 L228.655,69.6303 L224.123,83.2213 L233.479,83.2213 Z M241.545,90.7713 C241.803,90.7713 241.914,91.0293 241.876,91.3613 L241.767,93.2023 C241.767,93.3863 241.656,93.4963 241.508,93.4963 L235.063,93.4963 C234.769,93.4963 234.621,93.2763 234.658,92.9083 L234.769,91.0663 C234.769,90.9553 234.841,90.8083 235.063,90.7713 L236.094,90.6983 L234.658,86.6103 L222.982,86.6103 L221.619,90.6983 L222.76,90.7713 C223.02,90.7713 223.129,91.0293 223.092,91.3613 L222.982,93.2023 C222.982,93.3863 222.871,93.4963 222.688,93.4963 L216.462,93.4963 C216.168,93.4963 216.021,93.2763 216.058,92.9083 L216.168,91.0663 C216.168,90.9553 216.241,90.8083 216.462,90.7713 L217.495,90.6983 L225.744,67.7153 L224.639,67.6423 C224.381,67.6423 224.271,67.3843 224.308,67.0523 L224.419,65.2113 C224.419,65.0273 224.529,64.9163 224.713,64.9163 L230.569,64.9163 L240.439,90.6983 L241.545,90.7713 Z" id="Fill-64" fill="#244596" mask="url(#mask-4)"></path>
            <path d="M262.1695,88.7086 C262.3545,88.7086 262.4635,88.8196 262.4635,89.0036 L262.4635,93.4966 L244.6005,93.4966 C244.3055,93.4966 244.1595,93.2756 244.1945,92.9076 L244.3055,91.0656 C244.3055,90.9556 244.3795,90.8086 244.6005,90.7716 L245.6685,90.6976 L245.6685,67.7156 L244.5265,67.6426 C244.2705,67.6426 244.1595,67.3846 244.1945,67.0526 L244.3055,65.2116 C244.3055,65.0266 244.4165,64.9166 244.6005,64.9166 L250.8995,64.9166 C251.1935,64.9166 251.3405,65.1376 251.3035,65.5056 L251.1935,67.3476 C251.1935,67.4576 251.1205,67.6046 250.8995,67.6426 L249.8305,67.7156 L249.8305,90.0716 L259.6645,90.0716 L259.7385,88.9306 C259.7385,88.6726 259.9955,88.5626 260.3275,88.5986 L262.1695,88.7086 Z" id="Fill-65" fill="#244596" mask="url(#mask-4)"></path>
            <path d="M271.4488,90.7711 C271.7068,90.7711 271.8178,91.0291 271.7808,91.3611 L271.6698,93.2031 C271.6698,93.3861 271.5598,93.4971 271.3748,93.4971 L265.0778,93.4971 C264.7818,93.4971 264.6358,93.2761 264.6718,92.9081 L264.7818,91.0661 C264.7818,90.9561 264.8558,90.8081 265.0778,90.7711 L266.1448,90.6981 L266.1448,67.7151 L265.0038,67.6421 C264.7458,67.6421 264.6358,67.3841 264.6718,67.0521 L264.7818,65.2111 C264.7818,65.0271 264.8928,64.9171 265.0778,64.9171 L271.3748,64.9171 C271.6698,64.9171 271.8178,65.1371 271.7808,65.5051 L271.6698,67.3471 C271.6698,67.4581 271.5968,67.6051 271.3748,67.6421 L270.3078,67.7151 L270.3078,90.6981 L271.4488,90.7711 Z" id="Fill-66" fill="#244596" mask="url(#mask-4)"></path>
            <path d="M291.5957,83.2213 L286.8077,69.6303 L286.7717,69.6303 L282.2407,83.2213 L291.5957,83.2213 Z M299.6617,90.7713 C299.9197,90.7713 300.0297,91.0293 299.9927,91.3613 L299.8827,93.2023 C299.8827,93.3863 299.7717,93.4963 299.6247,93.4963 L293.1787,93.4963 C292.8857,93.4963 292.7367,93.2763 292.7737,92.9083 L292.8857,91.0663 C292.8857,90.9553 292.9587,90.8083 293.1787,90.7713 L294.2107,90.6983 L292.7737,86.6103 L281.0977,86.6103 L279.7367,90.6983 L280.8777,90.7713 C281.1357,90.7713 281.2457,91.0293 281.2097,91.3613 L281.0977,93.2023 C281.0977,93.3863 280.9887,93.4963 280.8037,93.4963 L274.5797,93.4963 C274.2837,93.4963 274.1367,93.2763 274.1737,92.9083 L274.2837,91.0663 C274.2837,90.9553 274.3587,90.8083 274.5797,90.7713 L275.6107,90.6983 L283.8607,67.7153 L282.7557,67.6423 C282.4987,67.6423 282.3877,67.3843 282.4257,67.0523 L282.5337,65.2113 C282.5337,65.0273 282.6447,64.9163 282.8297,64.9163 L288.6857,64.9163 L298.5567,90.6983 L299.6617,90.7713 Z" id="Fill-67" fill="#244596" mask="url(#mask-4)"></path>
            <path d="M52.4947,15.2516 L50.6047,15.2516 L50.6047,12.2326 L52.4537,12.2326 C52.4717,12.2816 52.4857,12.3756 52.4857,12.5006 C52.4857,12.5986 52.4757,12.6846 52.4537,12.7766 L51.2437,12.7766 L51.2437,13.4296 L52.2667,13.4296 C52.2847,13.4786 52.2977,13.5676 52.2977,13.6926 C52.2977,13.7906 52.2887,13.8716 52.2667,13.9656 L51.2437,13.9656 L51.2437,14.7066 L52.4947,14.7066 C52.5127,14.7556 52.5257,14.8496 52.5257,14.9746 C52.5257,15.0726 52.5167,15.1576 52.4947,15.2516" id="Fill-68" fill="#244596" mask="url(#mask-4)"></path>
            <path d="M53.9185,12.733 C53.8195,12.733 53.6995,12.737 53.6235,12.742 L53.6235,13.634 L53.8465,13.634 C54.2135,13.634 54.3735,13.501 54.3735,13.17 C54.3735,12.839 54.2135,12.733 53.9185,12.733 Z M55.2095,15.247 C55.0925,15.264 54.9725,15.274 54.8345,15.274 C54.7085,15.274 54.5845,15.269 54.4995,15.252 L53.8865,14.167 L53.6235,14.167 L53.6235,15.252 C53.5115,15.269 53.4185,15.274 53.2975,15.274 C53.1905,15.274 53.0965,15.269 52.9855,15.252 L52.9855,12.233 C53.1905,12.219 53.6195,12.211 53.8785,12.211 C54.6375,12.211 55.0175,12.478 55.0175,13.174 C55.0175,13.545 54.7935,13.916 54.4805,14.05 L55.2095,15.247 Z" id="Fill-69" fill="#244596" mask="url(#mask-4)"></path>
            <path d="M57.4146,15.2516 L55.5256,15.2516 L55.5256,12.2326 L57.3746,12.2326 C57.3926,12.2816 57.4056,12.3756 57.4056,12.5006 C57.4056,12.5986 57.3966,12.6846 57.3746,12.7766 L56.1646,12.7766 L56.1646,13.4296 L57.1866,13.4296 C57.2046,13.4786 57.2186,13.5676 57.2186,13.6926 C57.2186,13.7906 57.2086,13.8716 57.1866,13.9656 L56.1646,13.9656 L56.1646,14.7066 L57.4146,14.7066 C57.4326,14.7556 57.4456,14.8496 57.4456,14.9746 C57.4456,15.0726 57.4366,15.1576 57.4146,15.2516" id="Fill-70" fill="#244596" mask="url(#mask-4)"></path>
            <path d="M51.5386,16.8981 C51.4496,16.8981 51.3326,16.9021 51.2436,16.9071 L51.2436,17.7951 L51.5206,17.7951 C51.8646,17.7951 52.0476,17.7061 52.0476,17.3391 C52.0476,17.0271 51.8916,16.8981 51.5386,16.8981 M51.5566,18.3311 L51.2436,18.3311 L51.2436,19.4121 C51.1596,19.4251 51.0566,19.4341 50.9226,19.4341 C50.8016,19.4341 50.6896,19.4251 50.6046,19.4121 L50.6046,16.3971 C50.8646,16.3841 51.2576,16.3711 51.5116,16.3711 C52.1956,16.3711 52.6906,16.6071 52.6906,17.3171 C52.6906,18.0091 52.2576,18.3311 51.5566,18.3311" id="Fill-71" fill="#244596" mask="url(#mask-4)"></path>
            <path d="M54.9737,19.4118 L53.0847,19.4118 L53.0847,16.3928 L54.9337,16.3928 C54.9517,16.4418 54.9647,16.5358 54.9647,16.6608 C54.9647,16.7598 54.9557,16.8448 54.9337,16.9378 L53.7237,16.9378 L53.7237,17.5898 L54.7457,17.5898 C54.7647,17.6398 54.7777,17.7278 54.7777,17.8528 C54.7777,17.9518 54.7687,18.0318 54.7457,18.1258 L53.7237,18.1258 L53.7237,18.8668 L54.9737,18.8668 C54.9917,18.9158 55.0057,19.0098 55.0057,19.1348 C55.0057,19.2328 54.9957,19.3178 54.9737,19.4118" id="Fill-72" fill="#244596" mask="url(#mask-4)"></path>
            <path d="M56.3472,16.8932 C56.2492,16.8932 56.1282,16.8982 56.0522,16.9022 L56.0522,17.7952 L56.2752,17.7952 C56.6412,17.7952 56.8032,17.6622 56.8032,17.3302 C56.8032,17.0002 56.6412,16.8932 56.3472,16.8932 Z M57.6382,19.4072 C57.5222,19.4252 57.4012,19.4342 57.2632,19.4342 C57.1382,19.4342 57.0122,19.4292 56.9282,19.4122 L56.3162,18.3272 L56.0522,18.3272 L56.0522,19.4122 C55.9412,19.4292 55.8472,19.4342 55.7262,19.4342 C55.6192,19.4342 55.5252,19.4292 55.4132,19.4122 L55.4132,16.3932 C55.6192,16.3792 56.0482,16.3712 56.3062,16.3712 C57.0662,16.3712 57.4462,16.6382 57.4462,17.3352 C57.4462,17.7052 57.2222,18.0772 56.9092,18.2102 L57.6382,19.4072 Z" id="Fill-73" fill="#244596" mask="url(#mask-4)"></path>
            <path d="M63.7974,14.108 L63.5344,13.255 C63.5034,13.157 63.4714,13.032 63.4444,12.893 L63.4354,12.893 C63.4134,13.032 63.3774,13.157 63.3464,13.255 L63.0964,14.108 L63.7974,14.108 Z M64.8644,15.252 C64.8064,15.264 64.6684,15.274 64.5214,15.274 C64.4044,15.274 64.2714,15.26 64.2134,15.252 L63.9894,14.639 L62.9174,14.639 L62.7084,15.252 C62.6104,15.264 62.4934,15.274 62.3774,15.274 C62.2614,15.274 62.1274,15.264 62.0604,15.252 L63.1144,12.233 C63.1764,12.219 63.3244,12.211 63.4224,12.211 C63.5434,12.211 63.6864,12.219 63.7354,12.233 L64.8644,15.252 Z" id="Fill-74" fill="#244596" mask="url(#mask-4)"></path>
            <path d="M66.0611,12.733 C65.9631,12.733 65.8421,12.737 65.7661,12.742 L65.7661,13.634 L65.9901,13.634 C66.3561,13.634 66.5171,13.501 66.5171,13.17 C66.5171,12.839 66.3561,12.733 66.0611,12.733 Z M67.3521,15.247 C67.2351,15.264 67.1151,15.274 66.9771,15.274 C66.8521,15.274 66.7271,15.269 66.6421,15.252 L66.0301,14.167 L65.7661,14.167 L65.7661,15.252 C65.6551,15.269 65.5611,15.274 65.4401,15.274 C65.3331,15.274 65.2391,15.269 65.1281,15.252 L65.1281,12.233 C65.3331,12.219 65.7621,12.211 66.0211,12.211 C66.7801,12.211 67.1601,12.478 67.1601,13.174 C67.1601,13.545 66.9361,13.916 66.6231,14.05 L67.3521,15.247 Z" id="Fill-75" fill="#244596" mask="url(#mask-4)"></path>
            <path d="M63.5049,16.9381 L62.7059,16.9381 L62.7059,19.4121 C62.6209,19.4251 62.4999,19.4341 62.3889,19.4341 C62.2769,19.4341 62.1559,19.4251 62.0669,19.4121 L62.0669,16.9381 L61.2679,16.9381 C61.2499,16.8791 61.2359,16.7411 61.2359,16.6661 C61.2359,16.5891 61.2549,16.4511 61.2719,16.3931 L63.5049,16.3931 C63.5229,16.4511 63.5359,16.5891 63.5359,16.6661 C63.5359,16.7411 63.5229,16.8791 63.5049,16.9381" id="Fill-76" fill="#244596" mask="url(#mask-4)"></path>
            <path d="M65.7613,19.4118 L63.8723,19.4118 L63.8723,16.3928 L65.7203,16.3928 C65.7393,16.4418 65.7523,16.5358 65.7523,16.6608 C65.7523,16.7598 65.7423,16.8448 65.7203,16.9378 L64.5113,16.9378 L64.5113,17.5898 L65.5333,17.5898 C65.5513,17.6398 65.5643,17.7278 65.5643,17.8528 C65.5643,17.9518 65.5553,18.0318 65.5333,18.1258 L64.5113,18.1258 L64.5113,18.8668 L65.7613,18.8668 C65.7793,18.9158 65.7923,19.0098 65.7923,19.1348 C65.7923,19.2328 65.7833,19.3178 65.7613,19.4118" id="Fill-77" fill="#244596" mask="url(#mask-4)"></path>
            <path d="M67.0992,19.4567 C66.7732,19.4567 66.4152,19.3947 66.1612,19.2777 C66.1472,19.2157 66.1392,19.1347 66.1392,19.0627 C66.1392,18.9567 66.1522,18.8527 66.1832,18.7327 C66.4472,18.8407 66.7952,18.9067 67.0682,18.9067 C67.3852,18.9067 67.5552,18.7597 67.5552,18.5597 C67.5552,18.3357 67.4112,18.2417 66.9782,18.1077 C66.4962,17.9607 66.1432,17.7277 66.1432,17.2107 C66.1432,16.6567 66.6212,16.3487 67.2512,16.3487 C67.5412,16.3487 67.8002,16.3937 67.9742,16.4507 C67.9872,16.5007 67.9962,16.5807 67.9962,16.6967 C67.9962,16.7817 67.9872,16.9107 67.9702,16.9817 C67.7462,16.9247 67.4922,16.8937 67.2862,16.8937 C66.9522,16.8937 66.7682,17.0047 66.7682,17.1837 C66.7682,17.3937 66.9332,17.4777 67.3352,17.6027 C67.8182,17.7547 68.1752,17.9827 68.1752,18.5187 C68.1752,19.1027 67.7152,19.4567 67.0992,19.4567" id="Fill-78" fill="#244596" mask="url(#mask-4)"></path>
            <path d="M20.2139,13.9293 C20.2809,14.1163 20.3479,14.3263 20.3789,14.5053 L20.3879,14.5053 C20.4189,14.3263 20.4819,14.1163 20.5489,13.9293 L20.8789,12.9743 C20.9639,12.7283 21.0129,12.4923 21.0179,12.2333 C21.1069,12.2193 21.2319,12.2103 21.3349,12.2103 C21.4279,12.2103 21.5619,12.2193 21.6429,12.2333 C21.6429,12.5323 21.5889,12.8173 21.4679,13.1343 L20.6599,15.2513 C20.6069,15.2643 20.4819,15.2743 20.3749,15.2743 C20.2539,15.2743 20.1559,15.2643 20.0749,15.2513 L19.2799,13.1433 C19.1599,12.8263 19.1069,12.5323 19.1069,12.2333 C19.1869,12.2193 19.2939,12.2103 19.4279,12.2103 C19.5309,12.2103 19.6599,12.2193 19.7399,12.2333 C19.7399,12.5093 19.7899,12.7283 19.8739,12.9743 L20.2139,13.9293 Z" id="Fill-79" fill="#244596" mask="url(#mask-4)"></path>
            <path d="M22.6827,15.2516 C22.5977,15.2646 22.4957,15.2736 22.3617,15.2736 C22.2407,15.2736 22.1287,15.2646 22.0437,15.2516 L22.0437,12.2326 C22.1287,12.2196 22.2537,12.2106 22.3657,12.2106 C22.4907,12.2106 22.6017,12.2196 22.6827,12.2326 L22.6827,15.2516 Z" id="Fill-80" fill="#244596" mask="url(#mask-4)"></path>
            <path d="M25.3218,12.777 L24.5228,12.777 L24.5228,15.252 C24.4378,15.264 24.3168,15.274 24.2058,15.274 C24.0938,15.274 23.9728,15.264 23.8838,15.252 L23.8838,12.777 L23.0848,12.777 C23.0668,12.719 23.0528,12.581 23.0528,12.505 C23.0528,12.429 23.0718,12.291 23.0888,12.233 L25.3218,12.233 C25.3398,12.291 25.3528,12.429 25.3528,12.505 C25.3528,12.581 25.3398,12.719 25.3218,12.777" id="Fill-81" fill="#244596" mask="url(#mask-4)"></path>
            <path d="M20.6221,18.2682 L20.3591,17.4152 C20.3281,17.3172 20.2961,17.1922 20.2691,17.0542 L20.2601,17.0542 C20.2381,17.1922 20.2031,17.3172 20.1711,17.4152 L19.9211,18.2682 L20.6221,18.2682 Z M21.6891,19.4122 C21.6311,19.4252 21.4931,19.4342 21.3461,19.4342 C21.2291,19.4342 21.0961,19.4202 21.0381,19.4122 L20.8141,18.7992 L19.7421,18.7992 L19.5331,19.4122 C19.4351,19.4252 19.3181,19.4342 19.2021,19.4342 C19.0861,19.4342 18.9521,19.4252 18.8851,19.4122 L19.9391,16.3932 C20.0011,16.3792 20.1491,16.3712 20.2471,16.3712 C20.3681,16.3712 20.5111,16.3792 20.5601,16.3932 L21.6891,19.4122 Z" id="Fill-82" fill="#244596" mask="url(#mask-4)"></path>
            <path d="M25.0962,19.4118 C25.0432,19.4258 24.9222,19.4338 24.7972,19.4338 C24.6632,19.4338 24.5382,19.4208 24.4842,19.4118 L24.4312,17.5988 L23.7702,19.1258 C23.7212,19.1438 23.6142,19.1528 23.5472,19.1528 C23.4662,19.1528 23.3682,19.1438 23.3192,19.1308 L22.6582,17.5988 L22.6002,19.4118 C22.5422,19.4258 22.4042,19.4338 22.2832,19.4338 C22.2112,19.4338 22.0912,19.4258 22.0112,19.4118 L22.1402,16.3928 C22.2252,16.3848 22.3102,16.3708 22.3992,16.3708 C22.5062,16.3708 22.6092,16.3798 22.6622,16.3928 L23.5472,18.4428 L24.4352,16.3928 C24.5242,16.3798 24.6142,16.3708 24.6942,16.3708 C24.7972,16.3708 24.8912,16.3798 24.9582,16.3928 L25.0962,19.4118 Z" id="Fill-83" fill="#244596" mask="url(#mask-4)"></path>
            <path d="M31.6124,15.2516 L29.7234,15.2516 L29.7234,12.2326 L31.5714,12.2326 C31.5904,12.2816 31.6034,12.3756 31.6034,12.5006 C31.6034,12.5986 31.5944,12.6846 31.5714,12.7766 L30.3624,12.7766 L30.3624,13.4296 L31.3844,13.4296 C31.4024,13.4786 31.4154,13.5676 31.4154,13.6926 C31.4154,13.7906 31.4064,13.8716 31.3844,13.9656 L30.3624,13.9656 L30.3624,14.7066 L31.6124,14.7066 C31.6304,14.7556 31.6434,14.8496 31.6434,14.9746 C31.6434,15.0726 31.6344,15.1576 31.6124,15.2516" id="Fill-84" fill="#244596" mask="url(#mask-4)"></path>
            <path d="M32.3169,14.4342 L32.8879,13.6572 L32.3659,12.9292 C32.1959,12.6972 32.0889,12.4832 32.0529,12.2332 C32.1249,12.2192 32.2719,12.2102 32.3659,12.2102 C32.4779,12.2102 32.6069,12.2192 32.6829,12.2332 C32.7049,12.4292 32.8169,12.5892 32.9329,12.7592 L33.2459,13.2152 L33.5669,12.7642 C33.6739,12.6122 33.7769,12.4202 33.7949,12.2332 C33.8709,12.2232 34.0049,12.2102 34.1119,12.2102 C34.2099,12.2102 34.3439,12.2192 34.4159,12.2332 C34.3799,12.5182 34.2639,12.7372 34.0809,12.9922 L33.6079,13.6442 L34.1789,14.4482 C34.3799,14.7242 34.4739,14.9962 34.4919,15.2512 C34.4159,15.2642 34.2859,15.2742 34.1739,15.2742 C34.0759,15.2742 33.9469,15.2642 33.8619,15.2512 C33.8479,15.0552 33.7809,14.8672 33.6699,14.6982 L33.2459,14.0592 L32.8299,14.6842 C32.7229,14.8492 32.6609,15.0552 32.6609,15.2512 C32.5889,15.2642 32.4379,15.2742 32.3389,15.2742 C32.2319,15.2742 32.1029,15.2602 32.0259,15.2512 C32.0359,14.9792 32.0849,14.7502 32.3169,14.4342" id="Fill-85" fill="#244596" mask="url(#mask-4)"></path>
            <path d="M36.7515,12.862 C36.5375,12.796 36.2695,12.746 36.0545,12.746 C35.5455,12.746 35.2155,13.108 35.2155,13.756 C35.2155,14.349 35.4745,14.738 36.0505,14.738 C36.2645,14.738 36.5055,14.693 36.7205,14.627 C36.7515,14.707 36.7735,14.832 36.7735,14.925 C36.7735,15.002 36.7695,15.095 36.7605,15.135 C36.5375,15.238 36.2515,15.296 35.9875,15.296 C35.0275,15.296 34.5545,14.716 34.5545,13.769 C34.5545,12.849 35.0635,12.188 36.0145,12.188 C36.2465,12.188 36.5505,12.246 36.7645,12.34 C36.7785,12.384 36.7825,12.483 36.7825,12.541 C36.7825,12.679 36.7645,12.808 36.7515,12.862" id="Fill-86" fill="#244596" mask="url(#mask-4)"></path>
            <path d="M30.7349,16.8981 C30.3509,16.8981 30.1319,17.1921 30.1319,17.9021 C30.1319,18.6121 30.3509,18.9071 30.7349,18.9071 C31.1189,18.9071 31.3379,18.6121 31.3379,17.9021 C31.3379,17.1921 31.1189,16.8981 30.7349,16.8981 M30.7349,19.4571 C29.9079,19.4571 29.4709,18.8841 29.4709,17.9021 C29.4709,16.9191 29.9079,16.3481 30.7349,16.3481 C31.5609,16.3481 31.9989,16.9191 31.9989,17.9021 C31.9989,18.8841 31.5609,19.4571 30.7349,19.4571" id="Fill-87" fill="#244596" mask="url(#mask-4)"></path>
            <path d="M34.2061,19.4118 L32.3571,19.4118 L32.3571,16.3928 C32.4421,16.3798 32.5581,16.3708 32.6701,16.3708 C32.7951,16.3708 32.9151,16.3798 32.9961,16.3928 L32.9961,18.8668 L34.2061,18.8668 C34.2241,18.9158 34.2371,19.0098 34.2371,19.1348 C34.2371,19.2328 34.2281,19.3178 34.2061,19.4118" id="Fill-88" fill="#244596" mask="url(#mask-4)"></path>
            <path d="M36.7447,18.2643 C36.7447,19.0323 36.4497,19.4563 35.5927,19.4563 C34.7257,19.4563 34.4537,19.0323 34.4537,18.2643 L34.4537,16.3933 C34.5427,16.3793 34.6597,16.3703 34.7657,16.3703 C34.8907,16.3703 35.0027,16.3793 35.0927,16.3933 L35.0927,18.3093 C35.0927,18.7193 35.2087,18.9513 35.5967,18.9513 C35.9857,18.9513 36.1197,18.7193 36.1197,18.3093 L36.1197,16.3933 C36.1997,16.3793 36.3337,16.3703 36.4367,16.3703 C36.5347,16.3703 36.6687,16.3793 36.7447,16.3933 L36.7447,18.2643 Z" id="Fill-89" fill="#244596" mask="url(#mask-4)"></path>
        </g>
    </g>
</svg>